<svg xmlns="http://www.w3.org/2000/svg" viewBox="0 0 1948.2 3756.13">
<defs>
    <style>.cls-1,.cls-2,.cls-3,.cls-4{fill:#ccc;stroke:#646464;stroke-width:2.13px;}.cls-1,.cls-2,.cls-3{stroke-linecap:square;}.cls-1,.cls-2{stroke-linejoin:bevel;}.cls-1,.cls-3,.cls-4{fill-rule:evenodd;}.cls-3,.cls-4{stroke-linejoin:round;}
    </style>    
</defs>
<title>Recurso 2arg</title>
<g id="Capa_2" data-name="Capa 2"><g id="svg2"><g id="layer1">
<path id="path3598" class="cls-3" d="M1489.88,1450.8l.1.17.16.11.15,0,0,.49.13.12,0,0,0-.61,0,0v0l0,0,0,0h.06l0,0v.12l.12,0,.13.1,0,0v.37l0,.11,0,0,0,.07,0,.06,0,.06v.08l0,.13,0,.07v.08l.34.29.05.07v.06l0,0,0,0,0,0,.1.08.15.15h0l0,0,.06.07.08.06,0,0,.06,0,.07.06.06.07.07.07.08.06.06.06,0,0,0,0,0,0v0l0,0,0,0,0,0,.06,0,.07,0h.14l.1.06.09,0,.09.06.07,0,.09.06.06,0,.07.06,0,0,.08,0,.08.05.08.07.05,0,0,0,0,0,.06.05.06,0,.06,0,.09.08.07.06h0l.05,0,.13,0,.12.09.14.12.08.05.12.07.09.07.22.16.12.07.24.13,0,0,.14.09.07,0,.09.05.08.06.26.16.09.05.07,0,.09,0,.09,0,.07,0,.1.06.08.06.07,0,.08,0,.14.09.08,0,.09.06.1.07.15.09.09.06.06,0,.1.09.08.08.12-.06.11.11h.07l0,0,0,0,0,0,0,0,0,0,0,0,.06,0,0,0,.07,0h.06l.08,0v0l.07.06,0,0h.06v0l0,0,0,0,0,0,.05,0,0,0,0,0,0,0h.14l.08,0,0,.08,0,.06.05,0,.07,0,.25.15.25.16.07,0,0,0,.09.06,0,0,0,0,.3.22.06,0,.06,0h.15v0l0,0v0l0,0v0l0,0,0,0,0,0h0v0h0l0,0h0l0,0h.06l0,0v0l0,0v0h.08l.05,0,.07,0,0,0,.06.05.07.06.09.06,0,0,.08,0h.08l0,0,0,0,0,0,.55.41.26.19.21.17,0,0v0l0,.06,0,0,0,0,.05,0,.06.06,0,0,0,0,.07.07.09.09h0l0,0,0,0,0,0,0,.08,0,0,0,0,0,.07.06.13,0,0,0,0,0,.07,0,0,0,0,0,0,0,0,0,0v.07l0,.07,0,0,0,0,.06.08.07.1,0,.07,0,0,0,0,0,0v0h.15l.11.11.06.05,0,0,.09.07,0,0,.07,0,.15.09.1.06,0,0,.06,0,.07,0,0,0,.09,0,.08,0,.15.06.11.06.13.07.08.12.06,0,.06,0,.1,0,.13,0,.14,0,0,0,.17.08.13,0,.17.06.2,0,.16,0,.22,0h.12l.17,0h.06l.29,0h.69l.36,0h.51l.17,0,.14,0,.2,0h.24l.16,0h.13l.24,0h.68l.14,0,.13,0,.15,0,.13,0,.07,0,.12,0,.18.07.13.06.12,0,.16.07.13.06.09,0,.22.1.1,0,.07,0,.11.06.09,0,.1,0,.13.06.15.08.13.09.11.07.1.07.14.08.09,0,.18.11.14.09.15.08.08.06.1.07.06,0,.06,0,.09.06.07,0,.16.07.09,0,.15.07.14.07.17.08.08,0,.22.09.19.07.11,0,.09,0,.09,0,.11,0,.19.08.06,0,.13,0,.07,0,.16,0,.07,0,.12.06h.22l.11,0h.42l.11,0h1.28l.11,0h.69l0,0h.06l.06,0,.09,0h0l.08,0,.09.06.22,0,.21,0,.25,0,.56.26.57.4.22.32.17.13.21.35.18.21.11.12.29.28.15.16.11.19.08.18.12.17,0,0,.06.06.06,0,0,0,.07.07.07.07.1.06,0,0,.06,0,.09.12.07.06,0,0,0,0v.2l0,0,0,0,0,0,.07,0h.08l.07,0,.06,0,0,0,.07.07.05,0,.19.18.08.09.07.06,0,0,0,0,.07,0,0,0,0,0,.06.06.06,0,0,0,0,0,.06,0,.07.07,0,.06v0l0,0,0,0,0,0,.06,0,.07,0,0,0,0,0,0,0,.05,0,.11.09,0,0,.08,0,.1.05.09,0,.08,0,.1,0,.1,0,.05,0h.27v0l0,0v.06l0,0,0,0,.11,0,.11,0,.11,0,.1,0,.16,0,.14,0h.52l.29,0h.18l0,0h0l0,0h.06l0,0,.08,0,.1,0,.11,0,.13,0,.09,0,.09,0,.12,0h.15l.18,0,.11,0,.09,0h.27l.07,0h.21l.56-.13.58-.09.57.17.46.12.08,0,.14.1,1.68,1.06.14.09.47.34.46.24.05,0,.25.16.46.35.54.2.49.3.54.23.53.24.46.36.45.35.47.35.48.32.52.26.46.35.5.3.46.34.42.39.45.36.43.38.49.32.37.43.42.39.45.36.47.33.54.23.5.29.44.37.49.32.49.31.5.3.52.25.56.22.51.26.06,0,.48.19.58.11.55.18.57.16.57.14.57.1.58.13.55.2.44.38.32.46.25.52.33.45.43.39.46.37.5.26.6.07.53.24.45.35.39.43.24.52.47.23.45.36.4.41.26.5.34.46.5.29.35.39.33.45.5.16.57-.15.59,0,.08,0,.41.24.55.21.54.22.56.17.2.06.36.11.48.33.54.23.5.29.52.25.39.41.34.46.33.46.16.33.09.18.33.47.29.49.54.2.55.22.47.34.64.58.35.45.37.43.45.36.36.45.49.31.41.39.27.6.47.31.42.39.41.39.59,0,.47.3.31.48.33.47.5.26.5.29.39.42.46.36.54.2.58.11.46.34.47.33.42.39.39.42.43.38.47.35.42.39.19.52.33.47.32.48.36.44.37.44.4.41.39.42.31.48.29.49.26.5.29.49.23.52.19.53.25.51.31.48.35.45.4.41.47.34.49.31.49.32.15.12.3.23h0l.5.3.29.42.24.56.44.38.41.4.53.23.53.25.45.36.34.46.31.48.27.5.22.52.17.54.14.55.15.54.24.51.36.45.39.42.31.48.35.45.46.36.33.46.26.51.33.47.34.46.39.41.35.45.28.5.14.55v.58l.54.13.45.35.21.53.17.54.17.54.16.55.29.48.45.37.37.43.29.49.48.34.31.46.11.56.06.56.07.56.07.56.06.56.16.53.24.52v.56l-.11.55-.14.55-.16.54-.28.49-.31.49-.31.48-.3.48-.36.45-.33.46-.33.47-.39.41-.27.51-.23.52-.28.49-.34.46-.4.41-.42.4-.32.48-.36.44-.3.49-.22.52-.21.52-.17.54-.22.52-.3.49-.35.45-.48.33-.27.5-.3.49-.5.29-.51.28-.3.49-.36.45-.44.38-.37.43-.41.41-.44.38-.38.43-.29.49-.26.51-.21.52-.22.53-.26.5-.36.45-.43.38-.5.3-.42.4-.35.45-.32.48-.37.45-.38.41-.06.52-.3.5-.26.5-.28.5-.31.48-.32.47-.34.46-.35.46-.29.49-.14.54-.22.52-.25.51-.25.52-.06.16-.12.37-.34.44-.53.25-.55.45-.29,1.17-.64,1.25-.78.9,0,.09,0,.56-.18.54-.19.54-.32.47-.27.5-.19.53-.18.53-.18.54-.16.54-.14.55-.06.56.07.56,0,.56-.14.54-.14.55-.16.55,0,.55,0,.57,0,.56-.06.56,0,.56,0,.56,0,.56,0,.56,0,.56,0,.57-.06.55-.1.56-.09.55,0,.56v.57l.07.56.22.5.41.41.22.53.08.55V1598l0,.56-.1.55v1.13l0,.56.13.55.12.18.19.29.41.41.37.44.34.47.28.49.24.72.15.6.17.51.42.41.21.48,0,.57.06.53.4.39.42.4v.54l.11.51.47.35.3.46.27.47.34.23.29.33.09.54.07.56.25.48.36.44.33.45.26.5.23.5.14.54.14.51.6.12.46.23.08.56.14.54.36.37.44.45.23.47-.18.56.15.45.52.32.49.3.4.39.3.48.28.48.28.49.39.39.5.3.43.35.26.5.2.29.3.38.42.39.51.26.49.27.28.49.43.37.47.32.45.44.33.38.38.42.41.39.39.4.31.48.28.46.43.27.36.07.45.3.31.47.3.48.31.47.42.37.47.33.45.35.4.41.4.39.53.26.46.28.07.59.37.23.34-.06.31.36.11.61.86,0,.38.48.45.35.57.15.48.31.46.34.48.31.5.3.47.32.42.37h.09l.51,0,.35.39.51.21.5.25.4.42.55.14.59.07.26.14.25.13.41.39,0,.59.15-.1.24-.16.51-.14.54.27.35.43.08.58.46,0,.25-.46.6.15.33,0,.07.64.34-.1.32-.52.55-.11h.64l.17.4-.28.54-.07.39.36,0,.27-.45.21-.55.39-.33,0,.52-.25.49.32.45.35,0-.07-.58.18-.53.45-.28.59.12.5.2.5-.38.41.29.13.54-.26.5-.17.54-.12.53-.35.45-.19.53v.64l.45-.11.07-.33.06-.23.19-.46.42-.35-.15-.55.16-.54.2-.4.23-.3.59-.14.07-.48.6,0,.52-.2.32-.51h.5l.62.14.33.21-.13.56.43-.15.12-.6.54-.15.24.33.24.56.36-.29.39-.45.51.21.57.17.59.1h.58l.54-.22.56-.09h.59l.57-.13.55-.17.33,0v.46l.39.24.51-.16.3-.23.45-.37.43.15.14.54-.26.51.09.5.38.45.42.39.6.2-.08-.43-.41-.45-.4-.38.36-.66.79-.33-.47-.33-.42-.38-.5-.31-.39-.34-.09-.56,0-.55v-.55l-.2-.51-.2-.4-.21-.43.6,0,.47.33.42.39.4.4.41.39.42.39.43.38.41.39.39.4.36.43.35.44.34.45.31.47.3.47.28.49.26.49.23.5.23.5.19.52.19.52.17.53.08.25.09.28.15.53.14.53.13.53.12.54.12.54.11.54.11.54.09.54.1.54.08.55.08.54.1.81,0,.55,0,.55v.55l0,.55,0,.77,0,.54,0,.55,0,.55,0,.55,0,.55,0,.54,0,.55,0,.55,0,.55,0,.54,0,.43v.12l0,.55,0,.55,0,.54,0,.44,0,.38,0,.55v0l0,.53v.55l0,.55V1668l0,.55,0,.55,0,.55,0,.55,0,.54.06.55.1.54.18.53.15.53,0,.54-.07.54-.11.55-.11.54,0,.55,0,.54,0,.55.08.54.09.55.1.54.11.54.08.27.07.26.18.53.15.43.11.36.07.46v.62l-.08.55-.09.55,0,.54.06.55,0,.1.09.44.14.53.14.54.13.54,0,.24,0,.3,0,.54v.55l0,.54-.06.55-.07.55-.05.55,0,.55,0,.55,0,.54,0,.55,0,.55,0,.55,0,.55,0,.54,0,.55,0,.55,0,.55,0,.48v1.71l0,.55,0,.55.09.54.12.54.13.54.13.53.11.54.07.54,0,.56,0,.56-.13.53-.23.49-.3.46-.35.45-.36.45-.35.45-.32.46-.3.47-.3.47-.32.47-.33.45-.38.42-.41.39-.42.39-.38.42-.34.44-.32.46-.32.47-.31.47-.29.47-.27.49-.28.49-.32.45-.44.37-.45.35-.34.45-.23.5-.24.51-.31.46-.38.42-.4.41-.37.43-.32.39-.39.48-.34.45-.34.45-.32.46-.33.46-.32.46,0,.06-.28.4-.31.46-.31.47-.31.47-.3.47-.29.47-.25.47-.26.52-.24.5-.26.5-.29.48-.3.47-.31.46-.12.17-.2.29-.33.46-.33.46-.34.45-.34.45-.36.43-.36.44-.35.44-.23.33-.24.36-.23.44,0,0-.23.51-.23.51-.26.49-.3.47-.32.46-.33.45-.34.45-.34.45-.34.45-.21.29-.12.17-.34.45-.33.45-.32.47-.26.49-.11.33-.36,1.78,0,0,0,0,0,0,0,0,0,0,0,0v.1l0,.05,0,0,0,0,0,0,0,0,0,0,0,0,0,0v0l0,0,0,0,0,0,0,0,0,0,0,0,0,0,0,0,0,0,0,0,0,0,0,0,0,0,0,0,0,0,0,0,0,0,0,.05,0,0,0,0,0,0,0,0,0,0,0,0,0,0,0,0,0,0,0,0,0,0,0,0,0,0,0,0,0,0,0,0,0,0,0,0,0,0,0,0,0,0,0,0,0,0,0,0,0,0,0,0,0,0,0,0,0,0,0,0,0,0,0,0,0,0,0,0,0,0,0,0,0,0,0,0,0,0,0,0,0,0,0,0,0,0,0,0,0,.05,0,0,0,0,0,0,0,0,0,0,0,0,0,0,0,0,0,0,0,0,0,0,0,0,0,0,0,0,0,0,0,0,0,0,0,0,0,0,0,0,0,0,0,0,0,0,0,0,0,0,0,0,0,0,0,0,0,0,0,0,0,0,0,0,0,0h0v0l0,0,0,0,0,0,0,0,0,0,0,0,0,0,0,0,0,0,0,0,0,0,0,0,0,0,0,0,0,0,0,0,0,0,0,0,0,0,0,0,0,0,0,.05,0,0,0,0,0,0,0,0,0,0,0,0,0,0,0,0,0,0,0,0,0,0,0,0,0,0,0,0,0,0,0,0,0,0,0,0,0,0,0,0,0,0,0,0,0,0,0,0v.09l0,0,0,0,0,0,0,0,0,0,0,0,0,0,0,0,0,0,0,0,0,0,0,0,0,0,0,0,0,0h0l0,0,0,0,0,0,0,0,0,0,0,0,0,0,0,0,0,0,0,0,0,0,0,0,0,0,0,0,0,0,0,0,0,0,0,0,0,0,0,0,0,0,0,0,0,0,0,0,0,0,0,0,0,0,0,0,0,0,0,0,0,0,0,0,0,0,0,0,0,0,0,0,0,0,0,0,0,0,0,0,0,0,0,0,0,0,0,0,0,0,0,0,0,0,0,0,0,0,0,0,0,0,0,0,0,0,0,0,0,0,0,0,0,0,0,0,0,0,0,0,0,0,0,0,0,0,0,0,0,0,0,0,0,0,0,0,0,0,0,0,0,0,0,0,0,0,0,0,0,0,0,0,0,0,0,0,0,0,0,0,0,0,0,0,0,0,0,0,0,0,0,0,0,0v0l0,0,0,0,0,0,0,0,0,0,0,0,0,0,0,0,0,0,0,0,0,0,0,0,0,0,0,0,0,0,0,0,0,0,0,0,0,0,0,0,0,0,0,0,0,0h0l0,0,0,0,0,0,0,0,0,0,0,0,0,0,0,0,0,0,0,0,0,0,0,0,0,0,0,0,0,0,0,0,0,0,0,0,0,0,0,0,0,0,0,0,0,0,0,0,0,0,0,0,0,0,0,0,0,0,0,0,0,.05,0,0,0,0,0,0,0,0,0,0,0,0,0,0,0,0,0,0,0,0,0,0,0,.05,0,0,0,0,0,0,0,0,0,0,0,0,0,0,0,0,0,0v0l0,0v.05l0,0,0,0,0,0,0,0,0,0,0,0,0,0,0,0,0,0,0,0,0,0,0,0,0,0,0,0,0,0,0,0,0,0,0,0,0,0v.09l0,0v0l0,0,0,0,0,0,0,0,0,0,0,0v0l0,0,0,0,0,0,0,0,0,0,0,0,0,0,0,0,0,0,0,0,0,0,0,0,0,0,0,0,0,0,0,0,0,0,0,0,0,.05,0,0,0,0,0,0,0,0,0,0,0,0,0,0,0,0,0,0,0,0,0,0,0,0,0,0,0,0,0,0,0,0v.19l0,0,0,0,0,0,0,0,0,0,0,0v0l0,0v.09l0,0v0l0,0v.05l0,0,0,0,0,0,0,0,0,0,0,0v.09l0,0,0,0,0,0,0,0,0,0,0,0,0,0,0,0,0,0,0,0v.08l0,0,0,0,0,0v.09l0,0,0,0,0,0,0,0,0,0,0,0,0,0,0,0,0,0,0,0,0,0,0,0v.09l0,0,0,0,0,0,0,0,0,0,0,0,0,0v0l0,0,0,0,0,0,0,0,0,0,0,0,0,0v.14l0,0,0,0,0,0,0,0v.1l0,0,0,0v.14l0,0,0,0,0,0,0,0,0,0,0,0v0l0,0v0l0,0,0,0,0,0,0,0,0,0,0,0,0,0,0,0,0,0,0,0,0,0,0,0,0,0,0,0,0,0,0,0,0,0,0,0,0,0,0,0,0,0,0,0,0,0,0,0,0,0,0,0,0,0,0,0,0,0,0,0,0,0,0,0,0,0,0,0,0,0,0,0,0,0,0,0,0,0,0,0,0,0,0,0,0,0v0l0,0,0,0,0,0v0l0,0,0,0,0,0,0,0,0,0v0l0,0v.09l0,0,0,0,0,0,0,0v0l0,0v.1l0,0,0,0,0,0,0,0,0,.05v0l0,0,0,0,0,0,0,0,0,0,0,0,0,0,0,0,0,0,0,0,0,0,0,0,0,0,0,0,0,0,0,0,0,0v.05l0,0,0,0,0,0,0,0,0,0,0,0,0,0,0,0,0,0,0,0v0l0,.05,0,0,0,0,0,0,0,0v.09l0,0,0,0v.09l0,0,0,0,0,0,0,0v.14l0,0,0,0,0,0,0,0,0,0v0l0,0,0,0,0,0,0,0,0,0,0,0,0,0,0,0,0,0,0,0v.09l0,.05,0,0,0,0,0,0,0,0v.09l0,0,0,0,0,0,0,0,0,0,0,0,0,0,0,0,0,0,0,0,0,0,0,0,0,0,0,0v0l0,0,0,0,0,0,0,0,0,0,0,0,0,0,0,0,0,0,0,0,0,0,0,0v.09l0,0,0,0,0,0,0,0,0,0,0,0,0,0,0,0,0,0,0,0,0,0,0,0,0,0,0,0,0,0,0,0,0,0,0,0,0,0,0,0,0,0,0,0,0,0,0,0,0,0,0,0,0,0,0,0,0,0,0,0,0,0v.09l0,0,0,0,0,0,0,0,0,0,0,0,0,0,0,0,0,0,0,0v0l0,0,0,0,0,0,0,0,0,0,0,0,0,0,0,0,0,0,0,0,0,0,0,0,0,0,0,0,0,0,0,0,0,0,0,0,0,0,0,0,0,0,0,0,0,0v0l0,0,0,0,0,0,0,0,0,0,0,0,0,0,0,0,0,0,0,0,0,0,0,0,0,0,0,0,0,0,0,0,0,0,0,0,0,0,0,0,0,0,0,0,0,0,0,0,0,0,0,0,0,0,0,0,0,0v.1l0,0,0,0,0,0,0,0,0,0,0,0,0,0,0,0,0,0,0,0,0,0,0,0,0,0v0l0,.05,0,0,0,0,0,0,0,0,0,0,0,0,0,0,0,0,0,0,0,0,0,0,0,0,0,0,0,0,0,0,0,0,0,0,0,0,0,0,0,0,0,0,0,0,0,0,0,0,0,0v0l0,0,0,0,0,0,0,0,0,0,0,0,0,.05v0l0,0,0,0,0,0,0,0,0,0,0,0,0,0,0,0,0,0,0,0,0,0,0,0,0,0,0,0,0,0,0,0,0,0,0,0,0,0,0,0,0,0,0,0,0,0,0,0,0,0,0,0,0,0,0,0,0,0,0,0,0,0,0,0,0,0,0,0,0,0,0,0,0,0,0,0,0,0,0,0,0,0,0,0,0,0,0,0,0,0,0,0,0,0,0,0,0,0-.05,0,0,0,0,0,0,0,0,0,0,0,0,0,0,0,0,0,0,0,0,0,0,0,0,0v0l0,0,0,0,0,0,0,0,0,0,0,0,0,0,0,0,0,0,0,0,0,0,0,0,0,0,0,0,0,0,0,0,0,0h0l0,0,0,0,0,0,0,0,0,0,0,0,0,0,0,0,0,0,0,0,0,0,0,0,0,0,0,0,0,0,0,0,0,0,0,0,0,0,0,0,0,0,0,0,0,0,0,0,0,0,0,0,0,0,0,0,0,0,0,0,0,0,0,0,0,0,0,0,0,0,0,0,0,0,0,0,0,0,0,0,0,0,0,0,0,0,0,0,0,0,0,0,0,0,0,0,0,0,0,0,0,0,0,0,0,0,0,0,0,0,0,0,0,0,0,0,0,0,0,0,0,0,0,0,0,0,0,0,0,0,0,0,0,0,0,0,0,0,0,0,0,0,0,0,0,0,0,0,0,0,0,0,0,0,0,0-.14.21-1.32,2v0l-.47.33-.49.33-.46.34-.37.43-.34.45-.32.31-.33.25-.49.32-.45.35-.35.44-.29.48-.33.46-.41.39-.46.36-.4.4-.36.43-.35.45-.34.45-.35.44-.39.41-.43.38-.44.37-.43.37-.44.38-.44.37-.44.37-.46.35-.46.34-.46.35-.44.37-.43.38-.42.39-.4.4-.35.44-.3.48-.25.39-.24.29-.42.4-.41.39-.38.43-.35.44-.35.45-.33.45-.3.48-.31.47-.38.41-.42.39-.44.37-.45.37-.44.36-.43.38-.41.41,0,0-.34.39-.35.45-.35.45-.34.45-.36.44-.38.42-.39.42-.37.42-.36.44-.31.47-.28.48-.27.49-.3.47-.32.39-.24.25-.42.4-.4.4-.33.45-.29.49-.26.49-.26.49-.3.48-.3.47-.29.49-.24.5-.2.51-.17.53-.15.53-.15.53-.12.54-.11.54,0,.14-.09.39-.16.54-.14.53,0,.54v.55l0,.56,0,.54-.11.54-.18.52-.19.52-.16.53-.13.54-.12.5-.13.57-.13.54-.06.21-.09.32-.13.53-.08.54,0,.56-.07.54-.22.52-.35.49-.14.49.16.49.28.49.32.5.31.49.51.33.38.21-.18.48-.08.54-.13.61-.16.6,0,.62-.37.53-.38.52.06.57v.6l-.18.6-.2.6-.08.61.15.6.21.6,0,.63-.08.68-.19.45,0,.12-.47.35-.62.2-.34.08-.35.07-.35.07-.35.07-.33.1-.32.11-.56.32-.5.4-.47.45-.44.5-.42.5-.39.51-.27.41-.08.12-.29.55-.28.58-.31.55-.36.52-.39.51-.42.49-.43.48-.46.46-.48.42-.56.35-.3.16-.3.16-.54.36-.41.49-.34.55-.41.48-.53.37-.29.18-.56.35-.53.38-.54.37-.57.34-.59.3-.3.15-.3.15-.58.31-.59.32-.58.31-.59.3-.29.16-.3.15-.29.15-.31.14-.3.12-.32.11-.32.11-.32.11-.31.11-.31.13-.3.14-.1,0-.2.1-.3.14-.11.06-.18.1-.3.15-.59.3-.58.32-.58.31-.3.16-.57.33-.57.34-.55.35-.54.39,0,0-.46.41-.4.5-.32.56-.07.08-.33.4-.53.38-.57.33-.3.15-.31.16-.3.14-.3.15-.29.15-.3.15-.3.14-.3.14-.31.14-.31.12-.31.13-.31.11-.32.11-.32.11-.32.1-.32.1-.32.09-.33.07-.33.08-.33.09-.32.1-.32.1-.32.1-.32.11-.31.12-.31.13-.58.31-.55.36-.55.37-.56.34-.57.35-.57.33-.58.31-.3.15-.31.14-.21.09-.1,0-.3.13-.31.13-.3.14-.3.15-.51.29-.33.22-.54.39-.53.38-.56.34-.3.17-.3.14-.31.13-.32.1-.34,0-.34.05-.32.08-.58.31-.55.37-.54.37-.58.33-.3.15-.3.13-.31.13-.31.13-.31.12-.32.12-.31.11-.32.1-.32.11-.31.12-.31.14-.29.16-.57.33-.3.15-.31.12-.32.11-.33.09-.32.09-.32.1-.31.12-.57.35-.54.38-.62.22-.34,0-.34,0-.32.08-.33.1-.33.08-.32.1-.32.1-.32.11-.32.11-.3.13-.3.14-.58.33-.57.33-.59.31-.3.15-.3.14-.3.14-.31.14-.3.15-.3.15-.29.15-.15.07-.15.08-.3.14-.64.21-.64.2-.31.13-.3.14-.3.16-.58.32-.59.3-.29.17-.58.31-.3.15-.31.13-.3.14-.31.13-.31.13-.3.13-.32.13-.31.12-.32.12-.31.11-.32.11-.32.1-.33.08-.33.08-.32.08-.33.09-.32.1-.31.12-.31.13-.3.15-.3.15-.29.15-.3.15-.3.16-.29.16-.29.16-.3.13-.32.11-.33.07-.33,0-.34,0-.34.05-.34,0-.32.09-.32.1-.31.12-.32.13-.31.12-.32.1-.33.1-.32.09-.33.09-.32.11-.31.12-.56.34-.51.42-.55.35-.31.12-.32.1-.33.09-.33.09-.32.11-.31.11-.32.12-.31.12-.31.13-.31.13-.3.14-.3.16-.29.15-.3.14-.32.11-.32.1-.56.2-.57.19-.51.26-.57.13-.56.15-.57.14-.57.1-.59,0-.57.11-.58.06-.58,0-.53.22-.54.22-.55.2-.55.16-.57.15-.57,0-.59-.08-.58,0-.58.06-.57.11-.56.18-.55.19-.2.07-.34.12-.54.22-.53.22-.56.16-.57.14-.58.1-.58,0h-.59l-.58,0-.49.29-.52.24-.56.13-.76-.3-.39-.09.17.6-.17,0-.41.09-.57.09-.57.12-.56.17-.52.24-.53.23h0l-.51.19-.54.21-.54.21-.5.28-.51.27-.57.1-.57.14-.54.21-.42.11-.31.28-.49.18-.51.27-.54.21-.52.25-.5.28-.53.22-.22.08-.32.13-.55.2-.53.22-.54.21-.56.15-.56.16-.52.25-.53.23-.56.14-.59.09-.57.12-.51.26-.52.26-.31.1-.23.07h-.59l-.57.12-.53.24-.56.14-.54.22-.46.32-.45.34-.58.07-.54.22-.56.17-.53.23-.58,0-.58.08-.58.09-.5.26-.3.44-.53.23-.56.15-.56.16-.51.27-.53.21-.59,0-.56.1-.53.23-.45.14-.4.1-.58.07h-.59l-.56.1-.55.22-.52.24-.54.2-.53.23-.5.29-.56.16-.54.21-.56.14-.59,0-.59,0-.58.07-.53.14h0l-.57.11-.58,0h-.59l-.58.1-.55.17-.54.21-.58.1-.59.06-.58.05-.58.07-.58.12-.52.23-.57.12h-.59l-.58-.07-.58-.06-.59,0-.58.09-.57.13-.57.12h-.59l-.58,0-.57.13-.56.15-.56.17-.56.16-.57.13-.56.15-.55.2-.45.13-.4.07-.57.12-.56.18-.47.18-.07,0h-.57l-.39.36-.53.23-.57.11-.59,0h-.59l-.13,0-.45.07-.57.12-.55.18-.55.19-.54.2-.41.39-.59,0-.57.09-.58.11-.57.14-.57.1-.59,0-.58.08-.58.08-.59,0-.58,0-.58.12-.55.16-.57.14-.58.11-.59.06-.57.1-.57.13-.57.13-.57.14-.58,0-.59,0-.57.13-.57.13-.58.08-.59,0h-.59l-.58,0-.57.14-.53.23-.47.13-.39,0-.57.11-.57.13-.58.07-.58.07-.57.16-.57.12h-.59l-.59,0-.23.08-.28.12-.25.15-.21.12-.58.14-.55.2H1363l-.58,0-.57.15-.54.2-.56.18-.57.14-.58.06h-1.17l-.48.32-.57.09-.53.23-.56.16-.54.21-.54.22-.54.21-.55.19-.53.22-.53.25-.49.29-.52.24-.56.18-.56.17-.56.16-.58.11-.57.1-.58.11-.58,0h-.59l-.59,0-.58.08-.58.06-.53.08-.34.09-.58.09-.57.09-.56.17-.55.19-.56.16-.58.12-.57.1-.58.12-.58.08-.58.08-.58.11-.55.18-.09,0-.47.15-.58,0h-.59l-.59,0-.58.06-.58.1h-.59l-.58.08-.57.14-.58.09-.59,0-.58,0-.57-.07-.59,0-.55.17-.55.2-.54.21-.56.17-.57-.12-.59.05-.58.08-.58.09-.57.1-.57.11-.59.06H1323l-.58,0-.59,0-.57.07-.43-.34-.36-.33-.29.5-.47.31-.7.12-.59,0-.59,0-.57.12-.53.23-.5.18-.34.06-.58.08-.58.09-.57.14-.55.18-.54.21-.54.22-.56.18-.58,0-.59,0h-1.77l-.59,0-.57.11-.58.12-.55.18-.5.27-.47.33-.56.16-.58-.06-.58-.06-.58.1-.58.08-.57.16-.58,0-.59.05-.54.21-.34.1-.21.06-.6-.07-.57.08-.57.16-.54.21-.53.24-.54.19-.57.15-.59,0-.57.13-.57.13-.57.12-.59.09h-.58l-.55.2-.55.19-.56.18-.48.21-.32.12-.58.08-.57.14-.53.25-.57.12-.58,0-.59,0-.59,0-.58,0-.55.19-.54.21-.55.2-.59,0-.59-.08-.57-.07-.32.12-.5.19-.53-.17-.48-.11-.49.22-.52.43h-.59l-.58,0-.59.08-.58.08-.59.06-.58,0-.59,0-.59.08-.58,0-.59,0-.57.13-.58.07-.58.08-.54.21-.56.18-.58.08h-.59l-.59-.06-.58,0-.56.17-.59.07-.59,0-.58,0-.59.08-.58.1-.57.13-.57.11-.59,0-.48.17-.35.1-.55.2-.54.21-.58,0-.55-.2-.58,0-.58,0-.56.16-.59.08-.57.1-.59.07-.58,0-.57.13-.56.18-.57.11-.55.2-.54.21-.55.2-.58,0-.59,0-.55.18-.54.22-.54.22-.54.21-.23.07-.33.1-.56.15-.57.17-.56.17-.58.1-.57.11-.58.07h-1.18l-.59,0-.59-.08h-.59l-.58-.09-.57-.11-.59,0-.59,0-.59,0-.59,0h-1.18l-.59,0-.52-.06h-.35l-.59,0-.59,0h-2.36l-.58,0-.57.07-.57-.08-.58.13-.58.1-.58.1-.57.11-.58.11-.56.16-.58.08-.6,0h-.58l-.59,0-.59.06-.58.11-.55.18-.55.18-.57.16-.58.07-.52.1-.5.2-.57.11-.32.07-.25,0-.46.1-.41.07-.58.06-.59.09-.58,0-.59,0-.59,0-.58,0-.59-.06-.58-.08-.58-.09-.56-.18-.53-.23-.55-.17h-.6l-.58.06-.59,0h-2.36l-.59,0-.59,0-.58,0-.36-.11-.2-.06h-.58l-.59,0-.59,0h-.59l-.59-.06-.54-.22-.57-.13-.42-.08-.15,0h-.59l-.59,0-.59.07-.58,0-.58-.1-.59,0-.59,0-.59,0h-.58l-.59-.1-.58,0h-.59l-.59,0-.49,0-.39,0-.58.09-.58.11-.58.11-.58.08-.59,0-.59.06-.56.14-.28.09-.28.1-.57.1-.59,0-.58.1-.58.06h-.59l-.59,0-.34.17-.26,0-.43.07-.35,0-.34,0-.33.06-.34,0h-.35l-.61.19-.33.09-.34.07h-.33l-.34-.06h-.35l-.59.3-.33,0-.33-.07h-.34l-.34,0-.35,0-.34,0h-.34l-.34,0-.32-.12-.33-.07-.68-.06h-.35l-.34,0-.34,0-.34,0-.34,0-.33,0h-.35l-.34,0-.33-.06-.33-.09-.32-.11-.32-.11-.32-.12-.31-.12-.31-.13-.33-.09-.24,0-.1,0-.32-.09-.31-.12-.32-.13-.3-.15-.52-.4-.5-.42-.3-.16-.58-.31-.38-.52-.3-.52-.33-.07-.36,0H1164l-.34,0-.3-.14-.3-.16-.33-.07-.35,0-.54.26-.33.1-.33.1-.34,0h-.34l-.34,0-.33.08-.34,0h-.34l-.63.1-.31.14-.63.17-.48.45-.32.11-.33.07-.57.34-.31.13-.33.08-.64.15-.34,0H1154l-.33,0-.31-.13-.57-.35-.33-.08-.35,0-.31-.12-.29-.16-.31-.14-.31-.13-.33-.08-.55-.33-.33-.1-.33-.09-.32-.1-.33,0-.34,0-.34,0-.66,0-.55-.35-.35,0-.3.14-.33.11-.34,0h-.34l-.51-.41-.33-.06-.35,0-.31-.12-.33-.09-.32-.1-.3-.15-.64-.19-.34,0-.52-.37-.49-.41-.33-.08-.34,0-.34-.06h-.34l-.34,0-.32-.09-.32-.12-.32-.14-.31-.1-.33.08-.32.1-.3-.14-.33-.08-.34,0-.34-.05-.33-.08-.33-.08-.32-.09-.34-.08-.68-.09-.33-.06-.54-.37-.29-.16-.31-.12-.32-.1-.31-.15-.33-.06-.34,0-.33-.07-.46-.45-.57-.35-.25-.28-.18-.2-.18-.79.75.21.07,0,.33.18.51.25.33.08.34,0h.34l.49-.38.49-.11-.28-.58-.52.39-.31.14-.52-.13,0-.53-.57-.06-.14.48-.35-.11-.93-.25-.35.07,0,.33-.11.66v.6l-.54-.3-.14-.62-.08-.61-.35-.8-.46-.44-.3-.16-.61-.06-.52-.28-.33-.31-.12.58-.35-.09V1930l.06-.62.25-.31.31-.38-.25-.59-.26-.57-.36-.53,0-.08-.29-.45-.41-.5-.39-.52.23-.79-.2-.53-.48-.44-.3-.14-.39-.48.09-.62.41-.49.14-.55-.85.61-.31.12-.35,0-.31-.1-.32-.11-.34,0-.34,0-.35,0-.33-.43-.54-.68-.36-.11h-.35l-.48-.37-.34.07H1117l-.33-.09-.32-.09-.33-.08-.34-.06-.34,0-.34,0-.35.06-.83-.43-.31-.11-.33-.08h-.33l-.25,0h-.09l-.44.28-.14.58h-.35l-.54-.32-.32-.53-.35,0-.31-.14-.57-.35-.44-.43-.1-.11-.34-.36h0l-.3-.1-.33-.07-.33-.07-.33-.1-.61.08-.33,0-.24-.54-.4-.5-.3-.14h-.35l-.51-.22h-.33l-.34,0-.23,0-.09,0-.3-.17-.45-.46,0-.08-.46-.39-.67-.5-.47-.2-.92-.38-.82-.1L1098,1914l-.15.23-.34,0-.33.07,0,.55.64-.13.33.11.32.1.33.1.32.09.61.27.63.12.86.34.34.06.36.37-.57.38-.57.34-.48.44-.4.5-.46.46-.47.44-.42.49-.4.5-.48.45-.7.69-.1.77.18.6.31.26.33-.49.37,0,.07.15.19.39v.59l-.41.47.18.56.21.57,0,.6.53.39.25.55.32.13.59.32-.07.62.17.54-.18.61-.44.43-.22.5-.16.61-.22.6.44,0,.35-.54.32-.1.61-.63.28-.19.49-.07.47-.31.58-.73.49.64,0,.58.19.33.54.25.23.58v.58l-.31.13-.25.55-.18.62-.36.46.14.77-.22.49-.34,0-.2.59-.34.53v.62l.1.61.33.06.35,0,.34,0,.55.36.4.5.34.08.17.52h.37l.17.48.75-.19,0,.51.63-.37v-.55l.36,0,.34,0,.4.1.38-.49.3-.14.31.1.31.13h.34l.33.07.34,0,.62.12-.49.44-.5.2-.65-.25-.44.47-.3.16-.32.08h-.35l-.34.12.23.31h.36l.4.38.3.5-.53,0-.34,0-.56,0-.49.42-.67-.08-.39.26.44.4.31.14.56.19.6-.08.71-.43h.35l.61,0,.25.53-.44.48-.47.45-.52.59-.81.37-.29.16.1.52-.7,1.07-.43.48-.2.58.09.49.15.44-.25.39-.09.16-.34.53-.35.52-.2.6-.85.31-.66.69-.56.15-.06.64-.32.55-.44.47-.47.46.19.31.55.15.41.74-.25.47-.23.58-.41.49.19.4.55-.31.32.13.34-.06.54-.1-.36.46-.15.6.21.56.24.56.17.57.36.51.3.51-.58.1-.57-.09.17.66h.54l-.25.47-.34,0-.32.48.13.6.21.57.32.54.07.62.31.55.33.54.24.54.38.38.39.5.33.11.74.62.19.55.52.12-.09.64,0,.59.35-.31.12-.48.65.06.6,0,.16.57.33.07.31-.43.34.16.45.36.37.48.35.5.32.41.35.06.31.12.16.61-.33.06-.56-.15h-.34l-.34,0-.31-.14-.56-.35-.34,0-.65.06-.5.36-.34-.11-.5-.24-.39.78-.36,0-.24-.46-.31-.09-.47-.42-.33,0-.29.17-.27.56-.5.43.12.59.52.72.35,0,.34,0,.32.13.58.27.56-.37.33,0,.92-.14-.31.82.83-.29.58-.11.31.15-.28.55-.36.47-.34.06-.34,0-.34,0h-.35l-.55-.29-.28.49-.16.51.67-.15.36-.08.35-.08h.34l.68.25.23-.58.44-.47.57-.72.34,0,.56.2.32,0,.32.1.34,0,.35,0,.35,0,.62-.17.34-.07.34,0,.4.43.64,0,.31.16h.34l.33.07.32.11.62.26.67-.26.33-.11.35,0,.67.66.78.53.35,0,.84.48.34,0,.34,0,.34-.06.32-.1.34-.07.62.19.3.16.33.07h.35l.6.19.51.4.37.43.35,0,.47.36.37.33.35,0,.58.26.56.36.39.51.34-.06.33.05.33.5.36.51.22.59.19.6.29.55.32.1.47.41.56.33.35-.07.33.07.33-.09h.34l.35,0,.62.24.23.58,0,.62-.07.62,0,.61-.36.52-.33.54-.18.34-.22.52v.62l-.19.52-.32.16-.5.42-.09.62-.55.13-.27-.22-.29-.15-.33-.07-.16-.58-.36,0-.33.06-.33-.11h-.35l-.5-.35-.31-.12-.52-.41-.47-.45-.48-.44-.48-.44-.29-.17-.29-.17-.53-.38-.3-.15-.52-.34-.41-.47-.58-.35-.5-.41-.49-.44-.48-.44-.48-.45-.52-.4-.41-.5-.51-.41-.68-.68-.5-.44-.4-.5-.17-.6-.08-.61-.29-.56-.13-.61-.48-.72-.33-.08-.34-.5-.14.64-.53.4-.25.38-.35.25-.41-.06-.34-.28-.22-.38-.44,0-.41-.13-.53-.28-.39-.15-.41,0-.26.4-.35.26-.41.1h-.41l-.4.07-.15.42-.36,0-.18-.44-.48-.4-.46-.31-.4.87-.31.08-.34,0-.34,0-.34.53.15.38.57-.35.15.47v0l.3.14.35,0,.31-.14.57.17-.26.53-.32.13-.1.38,0,.54-.1.91.29.5.11-.55.47-.08.22.56.34-.06.59.19.31.12h.34l.35,0,.35,0,.48-.3h.35l.48.24.33.08.62.08-.35.57-.58-.07-.34,0-.33,0-.31.14-.56-.25-.33,0-.35,0-.34-.06-.35,0-.44,0,.11.71.27.24.29.24.25.25.36.51.31.14.33.11.28.17h.34l.3.44.38-.39.33-.08.34,0,.36,0,.2.57.46.43.33.09.39.48-.06.61-.08.61-.09.57-.64-.14-.59-.29-.33-.06-.6,0-.37.54.68,0,.33.09h.34l.55.34.34,0,.34.07.32-.11.18-.58-.09-.61.28-.51.48.4.22.38.17.59.4-.12.33-.55.31-.09.45.35.07.62.28.49.5.4.34,0,.48-.09.43.44.33.06.23.46.81.48.33.07.29.42.33,0,.33.07.31.14.32.11.31.15.41.47.62.67.53.37.4.17-.14.6.49,0,.1-.61.51-.37.11-.59.33-.08.33.1.44.46.34,0h.35l.34,0,.33,0,.29.17.33.09.05.61-.26.57-.32.56.13.58.36.5.07.58-.11.61-.12.57.43.22-.27.57-.41.48-.23.32-.41.4-.28.57-.21.59-.21.59-.32.55-.36.53-.06.61.05.61-.13.61,0,.62,0,.63-.25.56-.26.58-.18.6,0,.62,0,.59-.26.58-.2.59-.09.62,0,.15.06.45-.17.6-.06.61-.32.55-.22.58.25.58v.6l-.19.58-.31.55-.14.61-.11.61-.14.61,0,.61-.23.58-.22.58v.62l.17.58v.62l-.11.61-.28.57-.14.59.17.61-.26.57.07.61-.06.61-.25.57-.16.6,0,.62.17.6v.62l0,.62-.07.63-.26.55-.41.51-.28.57-.08.61,0,.62.06.61.15.61,0,.61-.09.62.12.6.35.54.31.56-.05.6-.08.62-.14.61-.6.71-.35,0-.35,0-.57-.33-.46-.47-.5-.42h-.33l-.32-.12-.38-.5-.37-.4-.14.34.24.4.46.38.47.33.09.4,0,.1-.2.47-.33.14-.55.11-.29.48-.34,0-.31-.13-.45-.47-.33-.11-.33-.08-.34-.06-.34,0-.34,0-.35-.06-.37,0,.12.44.24.51-.29.19-.33,0-.57-.36,0-.05-.23-.25-.47-.27-.41-.36.08.62-.73-.56-.37-.52-.28-.2-.33-.07-.56.32-.29.19-.32.08h-1l-.33-.07-.29-.18-.33-.1-.33-.08-.32-.11-.3-.17-.42-.48-.55-.37-.45-.47-.74-.62-.63-.06.29.48.3.17.29.54.29.55.28.19.49.42.48.44,1,.66-.24.36-.32.14-.58.3-.56-.2-.36,0-.32.11-.34,0-.34-.1-.32-.09-.34.09-.34.07-.31.52-.46.47.16.51.46.42,0,.68,0,.56-.1.61,0,.62-.33.44-.29-.38-.3.57.09.62-.27.57.23.59.11.59-.3.56.52.7,0,.58-.31-.11-.36,0-.19.59-.1.61-.33.46-.34.3v.63l.32.55.12.6,0,.62.09.61.15.6v.62l-.09.62.55,1.94-.07.51-.09.52-.1.51-.1.51-.09.51-.08.52-.07.52-.07.51-.07.51-.12.52-.18.5-.06.51.12.5.19.5.2.49.19.5.14.5,0,.51-.1.51-.17.51-.15.52,0,.5.09.51.15.5.18.5.2.5.18.5.14.5.07.52v.52l0,.52-.09.52-.12.5-.34.42-.3.44-.09.52-.07.52-.21.48-.31.45-.35.42-.4.38-.45.32-.52.25-.54.23-.51.25-.32.26-.1.08-.33.46-.3.48-.36.39-.48.2-.58.06h-.62l-.61,0-.54.16-.49.27-.5.31-.48.35-.46.36-.44.37-.4.37-.37.34.45.38,0,.54-.3.45-.36.4-.38.4-.39.39-.39.39-.37.41-.34.42-.3.45-.25.47-.19.51-.13.5,0,.5.06.52.11.52.12.51.07.52v.54l0,.53.1.49.28.43.44.37.45.37.12.5.11.52.11.5.12.52.12.5.16.5.19.49.17.5.12.51.07.53.07.54.1.51.18.47.32.4.5.3.55.28.45.32.25.43.07.51v.55l0,.53,0,.54v.73l0,.35.26.68.43.3.57.23.54.25.41.37.34.44.33.44.36.42.42.33.5.25.54.2.57.17.58.14.57.12.61,0h.61l.57.07.48.24.47.33.43.4.37.44.29.44.08.44-.36.5.09.69.45.4.52.23.54.18.56.16.57.14.58.12.57.12.58.12.58.09.6,0,.58.07.51.18.52.26.49.29.47.31.47.32.47.33.46.32.47.31.46.32.46.32.46.33.46.32.45.33.48.32.55.29.53.31.45.33.35.6,0,.48-.11.52-.17.54-.18.53-.14.52-.12.52-.12.52-.17.5-.23.46-.34.4-.46.33-.48.33-.43.35-.43.36-.43.36-.41.37-.4.38-.36.4-.31.44-.27.47-.24.47-.22.48-.2.5-.17.49-.14.51-.11.51-.07.52v.52l0,.53.06.54v.51l-.12.49-.27.44-.36.42-.39.41-.39.41-.31.44-.2.47-.08.51,0,.53,0,.53-.14.5-.18.49-.2.49-.21.48-.21.49-.22.48-.23.48-.22.48-.22.48-.22.49-.22.48-.22.48-.22.48-.22.49-.21.48-.2.49-.18.49-.16.5-.16.5-.16.5-.15.5-.14.51-.08.54-.09.55-.16.49-.29.42-.39.34-.46.3-.51.29-.43.22-.09,0-.53.26-.53.27-.5.29-.46.31-.46.33-.45.35-.45.33-.47.31-.49.29-.51.26-.51.25-.53.24-.54.22-.54.21-.54.2-.54.2-.55.19-.55.19-.55.19-.55.18-.55.18-.56.18-.55.19-.55.18-.56.17-.55.19-.55.18-.56.18-.55.17-.55.18-.56.17-.56.18-.55.17-.56.17-.57.15-.55.15-.58.17-.55.18-.54.2-.52.24-.51.26-.5.27-.5.28-.49.29-.49.29-.49.29-.5.29-.49.29-.5.27-.51.26-.51.26-.54.2-.56.17-.58.14-.57.15-.55.19-.52.23-.5.26-.5.29-.48.3-.48.31-.47.31-.48.31-.46.32-.45.34-.45.36-.44.35-.47.32-.49.26-.54.2-.55.16-.57.13-.59.12-.58.11-.59.1-.58.14-.59.16-.59.12-.56,0-.51-.22-.5-.34-.49-.36-.49-.3-.5-.16-.66.07-.25-.47-.23-.47-.17-.5-.14-.5-.12-.51,0-.26-.06-.25-.13-.51-.12-.51,0-.08-.1-.44-.18-.49-.27-.45-.34-.42-.37-.41-.2-.19-.2-.19h0l-.39-.39-.39-.39-.21-.19-.21-.19-.21-.19-.2-.18,0,0-.36-.37-.33-.41-.23-.47-.12-.52-.13-.52h0l-.22-.48-.15-.21-.15-.22-.32-.44-.16-.22-.16-.22-.17-.21-.16-.22-.17-.21-.17-.22-.18-.21-.17-.21-.18-.2-.18-.21-.06-.08-.3-.34-.19-.2-.18-.2,0,0-.34-.36-.41-.37-.45-.34-.23-.16-.24-.16h0l-.45-.33-.43-.36-.41-.37h0l-.35-.41h0l-.26-.45-.18-.51-.17-.5-.23-.47-.36-.39-.52-.27-.55-.26,0,0-.39-.31-.22-.47h0l-.11-.54-.06-.23-.07-.29h0l-.29-.4-.47-.28h0l-.26-.1-.28-.11h0l-.54-.21h0l-.5-.27-.46-.32,0,0-.41-.31-.47-.32-.23-.17-.23-.16h0l-.48-.29-.52-.2h-.05l-.54,0h0l-.58,0h0l-.55-.13h0l-.49-.27-.45-.35-.38-.39-.15-.19-.18-.25-.34-.43h0l-.4-.35h0l-.5-.27-.54-.22-.54-.2-.07,0-.48-.16-.28-.09-.28-.08-.57-.15h0l-.59-.1h0l-.56-.09-.56-.14h0l-.47-.25-.37-.4-.17-.23-.16-.22h0l-.37-.4h0l-.41-.38-.49-.26h0l-.57-.06-.61,0h0l-.56-.12-.49-.26-.49-.34h0l-.44-.3h0l-.49-.25,0,0-.48-.22-.27-.11-.26-.11-.52-.26-.51-.27-.53-.24h0l-.54-.18-.57-.05-.6,0-.3,0-.29,0-.55.09h0l-.28.06-.29,0-.56.08h0l-.59.05h-.36l-.51,0h-1.18l-.59,0-.59,0-.59.06-.57.17h0l-.57.22-.48-.07-.38-.46,0-.52,0-.49-.46-.3-.6-.19-.57,0-.59.08-.58.14-.56.15h0l-.51.19h0l-.27.11-.27.11-.55.22-.53.24-.05,0-.37.1h-.23l-.33-.2-.17-.56.16-.55-.41-.53-.32,0-.53.18-.49.26h0l-.57.11v-.07l-.12-155.34,0-.8-.51-554.81,162.49-1,18.16-18.76,31.38-34.72.26-.29,27.88-29.74,0-.44,0-.33,0-.33-.07-.67-.06-.66.08-.66.1-.67,0-.33,0-.34.17-.63.33-.59.16-.24.08-.11.15-.2.41-.45,0,0,.48-.48.25-.22.26-.23.47-.48.48-.48.24-.24.24-.24.51-.45.27-.2.29-.19.29-.18.3-.17.3-.15.32-.12.33-.09.34-.05.34,0,.35,0h.68l.35,0,.34,0,.35,0,.34.07.31.12.33.26.39.45.28.62.6.79.28.21.29.19.29.16.32.14.32.12.32.1.33.11.33.09.33.08.34.09.32.11.32.12.31.14.32.14.32.11.33.08.34.07.34,0,.34,0h.35l.34,0,.34,0,.34-.06.33-.09.32-.13.32-.13.33-.09.33-.08.35-.06.33,0,.34,0,.33.08.33.12.33.12.31.12.32.15.3.15.3.16.3.17.31.16.3.17.28.18.47.47.59.82.53.43.27.2.27.2.54.42.47.5.49.45.32.09.36,0,.34.06.44.49.33.07h.36l.35,0,.64.07.5.44.35,0h.35l.24.06.09,0,.32.13.31.14.31.15.3.17.29.17.31.15.31.16.31.15.32.12.33.07.34,0h.69l.34,0,.34-.07.33-.1.33-.09.44-.14.17,0,0,0,.33-.09.34,0h.69l.33-.08.32-.12.31-.14.57-.37.35,0,.33-.07.57-.36.57-.09v0l.21-.27.12-.62-.18-.67,0-.64-.19-.56.22-.29,0-.66v-.28l0-.39,0-.33,0-.33.44-.86.68-.76.48-.48.26-.23.27-.19.32-.12.35,0,.61-.23.21-.28.21-.27.31-.59,0-.67-.18-.64-.19-.49-.06-.13-.12-.66.08-.66,0-.66,0-.66.06-.33.06-.33.11-.66.16-.65.2-.64.13-.4.18-.55.16-.65.05-.21.09-.45.23-.62.44-.52.33-.12.31-.13.26-.62.33-.54.33-.1.36-.07.54-.4.39-.54.34,0,.28-.19.47-.5.32,0,.32-.11.31-.14.55-.4.44-.51.31-.6.31-.6.34-.57.25-.24.13-.39.08-.23.24-.61.32-.6.16-.65-.15-.64-.23-.65v-.6l.27-.22.11-.65.38-.56.12-.32.13-.33.41-.47.34-.1.34-.09.49-.44.37-.57.31-.18.57-.36v-.66l.19-.63.29-.6.23-.63.43-.52.19-.61.33-.52v-.68l0-.39,0-.37.36-.17.64.06.38-.53.18-.38,0-.1.31.14.32.13.31.14.31.14.3.16.29.18.28.19.28.19.28.2.26.2.27.21.53.43.51.45.46.49.34.57.25.63.25.63.18.63,0,.67,0,.67,0,.66.16.52,0,.14.24.36.12.19.52.43.3.18.29.18.25.15.34.2.3.16.3.16.31.15.31.14.31.14.32.13.41.14.57.16.33.07.33.11.3.14.3.18.28.2.27.2.5.45.5.46.49.47.64.77.41.54.5.46.49.46.66.77.36.57,0,.08.22.54.14.66.34.57.47.5.55.39.3.16.3.16.31.15.31.15.3.16.28.19.28.19.28.2.27.2.27.21.29.19.3.16.31.13.11,0,.21.07.33.1.33.07.34,0,.35,0,.34,0h1.72l.34,0,.34,0,.23.07.09,0,.33.11.34.07h.69l.32.1.28.17.28.21.26.22.52.45.58.82.31.59.35.58.44.53.52.41.32.12.33.09.34.08.34.08.33.1.33.09.33.08.33.09.33.09.33.09.33.08.66.19.26.08.07,0,.33.1.32.11.32.13.32.12.31.13.32.13.33.13.32.12.31.15.29.16.53.43.59.82.11.65,0,.68,0,.34,0,.33,0,.66-.14.66-.07.66.09.66,0,.39.35.85.47.4,0,.05.27.22.48.49.5.44.31.15.32.11.33.1.33.1.32.12.32.14.31.14.16.06.16.06.33.1.33.06.35,0h.69l.33-.07.32-.12.33-.12.33-.09.34-.07h.34l.35,0,.34,0,.33.08.32.11.32.14.31.13.34.1.33.06.34.06.34.06.34,0,.34.05.34.06.33.08.31.14.3.17.29.19.28.19.5.46.28.19.32.13.31.14.52.44.37.56.25.63.16.64.07.67.09.66.2.64.28.61.33.58.42.53.49.47.28.23.29.17.32.08h.35l.35-.06.33-.1.3-.15.3-.18.27-.21.5-.45.45-.51.46-.5.49-.47.49-.47.24-.24.24-.24.47-.49.42-.52.38-.56.39-.54.46-.53.55-.35.34-.07.36,0,.34,0h.35l.34,0,.33.06.33.11.32.13.3.17.51.44.46.51.43.52.08.14.28.43.3.6.14.31.13.3.25.63.18.64.11.66.25.62.24.63.07.34.07.31.17.65.28.6.36.57.41.55.48.47.29.18.31.16.31.14.31.13.33.12.33.1.33.09.33.07.34.07.33.09.32.12.65.24.33,0h.35l.34,0h1.72l.34,0,.35,0,.33-.07.34-.09.33-.08.33-.1.32-.11.33-.1.32-.12.32-.13.32-.11.34-.09.33-.08.34-.07.34-.05.34,0h1.38l.35,0h.34l.34,0,.32-.11.32-.13.31-.15.31-.14.33-.11.33-.12.32-.1.33-.1.33-.08.34,0,.35,0,.34,0,.35,0,.33.1.28.19.26.23.35.57.12.67-.13.64-.26.62-.19.65-.18.64-.16.65,0,.66,0,.67,0,.66.28.61.35.58.37.56.36.58.53.41.31.15.32.12.34.1.34,0,.33,0,.32-.14.31-.15.32-.12.32-.14.32-.13.31-.17.31-.15.32,0,.35.07.32.14.54.41.25.23.23.22.2.2.22.39.44.78.4.55.44.51.49.47.54.41.3.18.3.17.31.14.33.11.33.09.35,0h.33l.35,0,.34-.07.34-.09.31-.13.3-.16.31-.17.3-.15.3-.17.31-.17.3-.16.31-.13.33-.08.34,0h.35l.35,0,.35,0,.34,0,.34,0,.34,0,.34.07.33.09.33.1.32.12.33.12.32.12.32.16.33.07.61-.26.32-.16.33-.11.35-.11.35-.06.59.19.26.25.23.27.36.57.31.6.38.57.77.62.34.09.35.07.34,0h1l.34,0,.67.14.34.09.33.09.34.08.33.09h0l.3.1.3.16.28.2.25.22.26.23.26.22.26.22.26.22.26.22.52.44.67.75.31.61.21.63.23.63.3.6.4.54.5.46.53.43.28.2.28.19.28.2.29.18.29.18.29.17.3.17.31.16.3.15.32.13.33.12.33.12.34.08h.23l.43,0,.33-.11.33-.12.34-.1.33-.07.34,0,.35,0,.34,0,.34,0,.34,0,.35,0,.34,0,.35,0h.34l.34,0,.35.06.34.08.31.11.3.17.29.19.27.22.51.45.47.48.39.55.25.42.1.16.43.52.66.77.4.54.31.6.4,1.13.15.29.15.3.31.58.38.53.48.47.48.45.48.46.55.38.29.16.3.15.3.15.3.15.3.15.41.19.2.08.31.13.31.12.33.09.65.2.32.09.33,0,.34,0,.33,0,.34.06.15,0,.18,0,.34,0,.33,0,.33,0,.34,0,.34,0,.31-.12.31-.14.28-.17.29-.18.55-.36.32-.11.32-.09.33-.08.34,0h.67l.67-.06.31-.12.32-.11.31-.13.31-.12.33-.09.33-.07.31-.12.33-.06.34,0,.32-.09.32-.12.32-.1.33,0,.32-.09.29-.16.3-.17.29-.16.9-.62.54-.19.55,0,.53,0,.58,0,.58,0,.57-.07.58-.09h.14l.43,0,.57.11.58.1.57.08.58.09.56.14.52.25.55.14.54.2.52.26.58,0,.47-.29.8.09.32.13.51.27.36.43.06.56v.56l0,.57-.12.54-.12.55,0,.55-.42.4-.06.53v.57l0,.56-.22.51.08.42.46.34,0,.57,0,.56.07.56.06.55,0,.56-.07.56v.56l-.17.52v1.67l-.13.55v.56l-.23.52-.41.34-.21.56,0,.53.42.38.5.33.3.47.14.55.12.54-.22.47,0,.55-.35.44-.23.51-.09.56-.33.43-.25.49-.4.4-.33.46-.21.52-.19.53-.23.51-.22.51-.1.55-.14.54-.34.42-.16.55-.38.39-.56.17-.57.06-.58-.08-.58,0-.44-.36-.53-.13-.36.33-.15.55-.47.31-.5.3h-.07l-.16.17h-.36l-.34-.08-.27-.11-.24-.11-.18-.1-.25-.13-.24-.19-.19-.11-.12-.06h-.44l-.25,0h-.5l-.2.08-.2.14-.1.14,0,.09-.08.1v0l0,.06.08.08h.13l.08.08,0,0-.12.06-.08.06-.08,0v.08l.08.07,0,.12.11.13.08.08,0,.1,0,.15,0,.2v.15l0,.18.19.19v.15l-.19.37,0,0-.06.06,0,.08-.14.1-.1,0h-.21l-.46,0H1473l-.21,0-.16-.06-.16-.05-.14,0h-.51l-.14,0h-.1l-.18,0-.36.08-.22.07-.08,0-.06,0,0,.11.08.1.31,0h.28l.32,0,.36.12.29.09.22.07.12,0,.15.1,0,0,0,.06.09.18h0l.12,0,.16.08.1.07.08,0,.17.14.07.06.09.07.08.07,0,.06,0,0,.08,0,.08.06.09.09.07.06,0,0,.07.06.09.07.08.08.1.06.07.08.06.07,0,.05.07.08.07.09.07.06.1.12.08.08,0,.18,0,0,0,.06,0,0,0,0,0,0,0,.06,0,.06v.08l0,.06,0,0,0,.06,0,.07,0,0h0l.1,0,.15.21.23.45.21.35.2.41.24.55.17.34,0,.09v.09l0,.08,0,.09.06.15,0,0,.07.1v.68l0,.17v.22l0,.11,0,.08,0,.1,0,.1-.07.08,0,.07,0,.11,0,.1,0,.06,0,.11,0,.1,0,.08,0,.12,0,.14-.12.16v.6l-.08.06-.09,0-.05,0h-.12l-.11,0-.06,0h-.11l-.06,0v.08l0,.07,0,.08,0,.08.13,0,0,.05,0,.06v.15l0,0v0l0,.06v.22l0,.11v.06l0,0-.08,0-.08,0-.11,0-.08.06,0,.07-.12.08h-.08v0l0,0h-.07l0,0-.06,0,0,0v.11l0,0,0,0,0,0,0,0-.07,0-.07,0-.13,0h-.24l-.06,0,0,0h-.07l-.06,0,0,.05v.07l0,.11v.05l0,.07v.08l0,.06,0,.1v.23l0,.09.06.07v.06l0,.08v.07l.09.26,0,.06,0,.06,0,.06,0,.07v.08l0,.07,0,.07-.11,0-.12,0,0,0,0,0,0,0-.06,0-.05,0H1474l-.09,0-.06,0,0,0,0,0,0,.09v.11l0,.07v.09l0,.07,0,0,0,0v.15l0,0,0,0,0,.06-.07.06,0,0,0,0,0,.07,0,0,0,0,0,.06,0,.07-.1.07v0l-.07.13,0,.08,0,.06,0,.06,0,0,0,0,0,.07,0,0h.15l0,0,0-.06h0v.06l0,0,0,0-.06.06-.09,0-.07.06-.06,0,0,.07,0,0-.06,0v.26l0,.06v.18l0,.06-.07.06h-.07l-.08,0,0,0-.07.2.48.08h.15l0,0h.3l.06,0h.36l.06,0,0,0,.06,0h0l0,.06v.06l0,0,0,0,0,0,0,0v0l0,.06v.08l0,0,0,0h.06v-.15l0,0v0l0,0,0,0v.24l0,0,0,.08v0l0,0h0v0l0,0,0,.08,0,.08.07.14,0,.08.09.13.06.09,0,0,0,0,0,0,0,0,.05.06,0,0h.11l.09,0v.06l0,0-.06.07v.06l0,0-.07.07,0,0v0h0l.12-.11,0,0,0-.08h.07l0,.1,0,0v0l0,0,0,0v0h0l0,0,0,0v.14l-.07,0,0,.07,0,0,.09,0,0,0,.06,0,.06,0h0l.07,0,0,0,.08.07,0,0,0,0,0,0,.06.06.06.06,0,0,0,0,.06.06,0,0,.06.07,0,0,0,0,0,0v.24l0,0,0,0,0,.07,0,0,.05,0,0,0,0,0,0,.06,0,.06v0h0l0,.06h0l0,.06h0v0l0,.05h0v.14h0v.14h0l0,0,0,0v0l0,.06,0,.07v.2l0,0h-.06v.34l0,.06,0,0,0,0,0,0,0,0v0l0,.06,0,.08v0l0,0v.28l0,.06v0l0,0,0,.06h0l0,0h.06l0,0,0,0h0v.06h-.19l0,0v0l0,0h0l.05,0h0v0l0,0v.15l0,0v.19h.15l0,0h.07l0,0,0,0,0,0v0h0l0,0v0h.06v.06l0,.05,0,.08.06,0,0,.1v.2l0,0,0,.05h0l0,0h0l0,0,0,0,0,0,0,0v0l0,0,0,0,0,0,0,0,0,0,0,0v.08l0,0,0,0,0,0,0,0,0,0v0l0,0,0,0,0,0,0,0v.06h0l0,0,0,0,0,0,0,0,0,0h0l0,0h0l.22-.06h0l0,0,0,0,0,0,0,0,0,0,0,0h.13l.06.07.06,0,.1.12,0,0-.23.11-.19.08-.21.11h0l-.6.37-.12.08-.1.06h0l0,0-.09,0-.08,0-.08,0h0l-.09,0h0l-.06,0h0l-.1,0h0l-.1.06h0l-.06,0h0l-.06,0h0l-.15.08,0,0h0l-.09,0-.12.06h0l-.06,0h0l-.07,0-.06,0h0l-.07,0-.08,0h0l-.09,0-.06,0h0l-.06,0-.07,0h0l-.06,0h0l-.06,0h0l-.07,0h0l-.07,0-.27.15h0l0,0h0l-.12.07h0l-.07,0h0l-.07,0h0l-.09,0h0l0,0v0l0,0v0l0,.11h0l0,.11,0,.08v0l-.06.16h0l0,.12h0l0,.1v0l-.05.12,0,.1,0,.12,0,.11,0,.05,0,.1,0,.07v0l0,.12v0l0,.11,0,.06,0,.07v0l0,.11h0l0,0,0,.09,0,.07-.06.17,0,.1,0,.07-.07.18-.07.17-.07.19-.08.19,0,0,0,0v0l-.07.18,0,.11,0,.15,0,.1v0l0,.05,0,.07,0,.11,0,.11,0,.11h0l-.06.15v0l0,.07v0l0,.06,0,.11,0,.07,0,.08h0l0,.06,0,.1,0,.11-.07.12,0,0,0,.05,0,.08v0l0,.06,0,.06,0,.1,0,.1v0l0,.11v0l0,.09,0,0,0,.06,0,.1h0l0,.1,0,.07,0,0,0,.09h0l0,.11v0h0l0,.11v0l0,.11v0l0,0,0,.09h0l0,.06v.26h0v0h0v.14h0v.11h0v.41h0v.85h0v.3h0v.53h0v.41h0v.46h0v.18h0v.33h0v.14h0l0,.14.11.12.11.09.07.06.06,0v0l0,0,.07,0,.09.08.1.08.07.06,0,0,.1.09.1.07.14.12.07.06.07.06,0,0,.06,0,0,0,0,0,.08.07.08.07h0l.1.09.08.07.08.08.08.06.08.08.09.07.1.09,0,0,0,0,.06.05,0,0,.07.07.07.06.08.06h0l.08.07.08.07,0,0,0,0,.11.09,0,0,.06.06.08.06,0,0,.1.09.07.07.07.06,0,0,.05,0,.11.09.09.08,0,0,0,0,0,0,0,0,0,0h0l0,0,.08.07.56.48.09.07.1.09.09.08.08.07.16.14.17.15.12.1.12.11.13.11.13.11,0,0,.1.09.14.12.15.13.09.07.4.36,1.39-1.88.64-.86.57-.8,0,0,.62-.87.15-.19.11-.13.17-.13.19-.11.2-.08.16,0,.07,0,.19,0,.19-.05.18,0,.15.05.11.07.09,0h.13l.12,0,.13,0h.15l.09.06.08,0,0,0h0l0,0v-.24l0,0h.07l.12,0,0,0,0,0v0l0,0,0,0,0,0,0,0,0,.06,0,0,0,0h.2l.06,0,.06,0h.19l.08-.06.09-.07.06,0h.08l.11,0,0,0,.1-.14.08-.08.06,0h.46l.16,0,.12,0h.09l.1,0h.07l.1-.06.06-.07.07-.11.14-.09.11-.07,0,0,0-.07v-.14l.06-.06.09-.07.19-.12.16-.09.08,0h.08l.1-.06.06-.08.12-.1.11-.07.12-.06.07-.07v-.08l0-.1-.06-.09-.07-.11v-.09l0-.08.08-.09.11-.11.28-.21.38-.26Zm-363,498.17c2.41,1.87,1.78.77,4.13,1.25l.72.88c2.68,1.15,6.79-.28,9.29,2.1,1.31,1.25.77,2,1.54,3l.54.27.52-.3a3.72,3.72,0,0,0,0-1.41l.28-.33.74-.06c2,.48,1.82,4.68,2.11,6s2.41,3.53,1.23,5c-2,1.69-4,1.08-5.5-.76-2.51-.86-1.75-.57-2.94-2.72-.88-.66-3.33-.24-4.59-.69-1.72-.61-3.16-2.1-4.85-2.82-.57-.24-1.36-.28-1.69-.88-.61-1.17-.45-2.43-1.49-3.54s-2.78-3.17-1.64-4.93l.57-.33A1.36,1.36,0,0,0,1126.86,1949Zm-3.91-9a20.8,20.8,0,0,1,5.45-.59c2,.21,9.45,2.68,9.75,4.88-.14.82-1,1.2-1.57,1.64-4.62,3.38-8.65-6.92-11.32-2.42-1.1.8-3-.67-3.62-1.61v-.69a5.4,5.4,0,0,1,1.17-1.31Zm-7.32,159.57-.19-.22-.16-.83c.11-.3,2.15-6.37,3-6.73l.37-.06.42.41.26,1.34.18.07.34-.46.38,0,.13.17,0,.36-1,2.09.14.38.43-.11.37.26a1.66,1.66,0,0,1,0,1.33C1119.32,2099,1117.37,2100.35,1115.63,2099.59Zm-2.91,10c-2-.89,1.38-4.92,1.87-5.71.16-.25,0-2.09.53-2.75l.47,0,.54.52a4.25,4.25,0,0,1,2,.57l.23.6C1118.53,2104,1115.21,2110.13,1112.72,2109.57Zm4-54.05a6.81,6.81,0,0,0,.08,2c.11.49,1.57.32,2,.33.94,0,.69-1.57.63-1.87-.14-.58-.91-.69-1.54-.86C1117.43,2055,1117.1,2055.32,1116.73,2055.52Zm5,13.53c-.73-.2-.36,1.5-.91,2a5.61,5.61,0,0,0-1.63,2.12,3.06,3.06,0,0,0,.77,2.72,16.28,16.28,0,0,1,1.45,3.29c.17.72.61,1.37,1.38,1.39,1,0,.75-1.3.77-2.14,0-1.18-.69-1.93-.9-2.87s-.53-1-.5-2.17c0-.83.34-1.65.36-2.56s.37-1.16-.22-1.77C1122.13,2068.93,1121.88,2069.05,1121.69,2069.05Zm-19.57,14c-.33-.34-1.33,1.64-1.48,2.12-.23.78-.45,1.76-.64,2.42a7.33,7.33,0,0,0-.2,1.88c0,.81,0,1.62-.08,2.43,0,.64,1.34.06,2-.07a13.23,13.23,0,0,0,.36-2.43,11.65,11.65,0,0,0,.07-2.29c0-.89.7-1.29.91-2,.27-.91,1.31-1,1.34-2.13C1104.42,2082.22,1102.29,2083,1102.12,2083.09Zm-1.76,11.17c0-.08-.76,1.33.93,1.78,1.49.4,1.28.05,1.6-1,.23-.79-.8-1-1.53-1C1100.82,2094,1101.16,2094,1100.36,2094.26Zm21.33-129.57c-.81,0,1.19,1.18,1.36,1.93s1.23,1.53,1.63,2.35a7.24,7.24,0,0,0,.54.82c.45.69,1.94.6,2.81.62,1.31,0,1-.82,1-1.86,0-.59-1-1.68-1.35-2.2a12.9,12.9,0,0,0-2.63-2,8.33,8.33,0,0,1-1.65-1.53c-.35-.48-1.47-.27-1.84-.19S1121.64,1964.55,1121.69,1964.69Zm10.25,3.13c-1.09.23.32,1.72.79,1.92,1.27.53,1.94,0,1.73-.9-.12-.51-1.14-1.29-1.37-1.53C1132.24,1966.46,1132.51,1966.56,1131.94,1967.82Z"/>

</g></g></g></svg>
