<svg xmlns="http://www.w3.org/2000/svg" viewBox="0 0 1948.2 3756.13">
<defs>
    <style>.cls-1,.cls-2,.cls-3,.cls-4{fill:#ccc;stroke:#646464;stroke-width:2.13px;}.cls-1,.cls-2,.cls-3{stroke-linecap:square;}.cls-1,.cls-2{stroke-linejoin:bevel;}.cls-1,.cls-3,.cls-4{fill-rule:evenodd;}.cls-3,.cls-4{stroke-linejoin:round;}
    </style>    
</defs>
<title>Recurso 2arg</title>
<g id="Capa_2" data-name="Capa 2"><g id="svg2"><g id="layer1">
<path id="path4340" class="cls-1" d="M510.73,568.9l.06.08.19.24.22.2.24.18.23.2.23.19.24.19.23.19.22.2.22.2.2.23.18.24.17.25.18.24.18.25.18.24.18.24.18.25.18.24.18.24.18.24.18.25.18.24.18.24.17.25.18.24.18.24.18.25.18.24.17.25.18.25.17.24.18.25.17.25.17.24.15.22.19.28.15.26.15.27.14.27.13.28.13.27.14.27.15.26.17.25.22.21.24.18.24.17.26.16.25.19,0,.26-.17.26-.2.23-.23.21-.21.21-.16.25-.12.28-.11.28-.1.29-.09.29-.11.29-.11.28-.07.14-.08.13L518,584l-.22.2-.26.17-.27.14-.25.15-.2.21-.13.29-.14.27-.15.26-.15.27-.13.28-.09.28,0,.3,0,.3v.92l0,.31v3.35l0,.3.07.3.06.3.07.29,0,.31.07.29.1.29.13.27.14.27.15.27.16.28.23.33.13.27-.13.13-.23.06-.26,0-.3,0-.31,0h-1.31l-.3,0h-.9l-.29,0-.29-.09-.28-.15-.27-.11-.27,0-.26.14-.25.18-.26.18-.27.14-.27.13-.27.13-.26.13-.28.12-.26.13-.27.14-.27.14-.27.12-.28.1-.28.11-.28.1-.28.1-.28.09-.29.1-.28.09-.29.08-.29.08-.29,0-.3,0h-1.19l-.29,0h-.9l-.3,0h-.3l-.27-.09-.25-.18-.25-.18-.27-.13-.28-.1-.28-.09-.28-.11-.29-.08h-.29l-.3,0-.29.05h-1.19l-.3,0-.3-.07-.29-.07h-.29l-.28.1-.26.16-.23.19-.2.22-.2.23-.2.23-.2.23-.2.22-.18.27-.17.3-.19.21-.25,0-.27,0-.28-.09-.29-.12-.29-.13-.3-.12-.29-.1-.29-.07-.29-.06-.29-.06-.29,0-.3-.05-.29-.07-.28-.08-.29-.1-.28-.1-.28-.1-.28-.09-.29-.08-.29-.06-.3,0-.3,0-.3,0-.28-.06-.26-.17-.25-.16-.29-.09-.29-.06-.29,0-.3,0-.3.06-.28.1-.25.15-.24.19-.22.2-.18.16-.29.23-.24.17-.25.17-.25.17-.25.17-.24.17-.24.19-.22.19-.24.2-.24.17-.25.17-.26.15-.26.14-.27.12-.29.09-.29.07-.29.06-.3,0-.29,0-.3,0-.3,0-.29,0-.29.07-.29.06-.3.05-.29,0h-.6l-.3,0-.3,0-.29,0H476l-.3,0h-.29l-.3-.05-.29-.08-.27-.12-.24-.17-.25-.17-.26-.15-.27-.14-.27-.13-.27-.11-.28-.11-.26-.15-.25-.16-.25-.17-.23-.19-.23-.2-.2-.23-.21-.22-.24-.17-.25-.16-.26-.15-.27-.14-.26-.15-.27-.16h-.29l-.2.2-.06.3v.32l0,.3.05.31.05.3.05.3.06.3,0,.3.07.29.08.3.09.29.1.28.08.3.1.3.08.29.05.3v.29l-.06.3-.1.3-.07.17-.05.11-.14.27-.16.25-.18.25L469,605l-.18.24-.18.25-.18.24-.18.25-.15.25-.12.28-.08.3-.07.3-.11.28-.16.25-.21.21-.22.22-.18.24-.15.27-.15.26-.21.21-.26.16-.24.17-.24.19-.23.19-.25.17-.26.15-.26.14-.26.15-.24.18-.23.19-.23.2-.23.19-.18.24-.13.28-.12.28-.11.28-.11.29-.09.29-.07.29-.07.3-.07.3-.06.3-.05.29v1.23l0,.3,0,.31v.3l-.09.29-.12.28-.13.2-.22.29-.16.26-.12.28-.12.28-.14.27,0,.3v.3l0,.31,0,.3.08.3.15.26.18.24.2.23.22.2.25.18.24.17.26.16.26.15.25.16.25.17.25.18.21.21.2.23.16.26.06.29-.06.31,0,.11-.05.17-.11.29-.09.29-.09.29-.08.3-.1.28-.13.28-.17.25-.18.24-.18.25-.16.25-.16.26-.16.26-.15.26-.15.26-.15.27-.16.26-.15.26-.17.25-.16.25-.17.26-.17.25-.17.25-.18.24-.17.25-.17.25-.17.25-.17.26-.13.27-.11.28-.08.29-.08.3-.1.29-.1.28-.11.29-.11.28-.12.28-.11.28-.1.29-.11.29-.1.28-.11.28-.1.29-.13.28-.18.24-.21.22-.26.14-.28.11-.29.1-.27.12-.28.12-.3,0-.28.08-.14.12-.09.07-.23.21-.21.22-.09.28,0,.31v1.52l.11.29v.31l-.18.22-.28.11-.3,0-.3,0h-.3l-.3,0-.36,0-.27.13-.28.11-.27.13-.26.15-.26.16-.24.18-.23.2-.21.21-.11.28-.11.29-.11.28-.12.28-.12.28-.13.28-.12.28-.12.28-.12.27-.11.29-.08.29-.07.3-.05.3,0,.3,0,.31v.61l0,.3,0,.18,0,.11-.1.29-.09.3,0,.3v1.22l0,.3-.09.29-.1.29-.12.28-.12.28-.12.28-.11.28-.11.28-.1.29L449,652l-.12.28-.13.28-.12.28-.1.28-.09.29-.08.3-.07.29-.07.3-.06.3-.08.29-.09.29-.12.28-.15.27-.16.25-.2.23-.22.2-.23.2-.23.2-.23.19-.24.19-.23.2-.23.19-.22.2-.21.21-.2.23-.22.21-.23.19-.23.19-.24.19-.24.19-.25.17-.25.18-.22.19L443,660l-.13.27-.09.24-.14.33-.11.29-.11.28-.12.28-.12.28-.08.29,0,.3,0,.31,0,.3,0,.31,0,.3.08.29.09.29.07.3.07.3.11.28.12.28.1.28.13.28.16.26.17.25.13.28.11.28.06.3.08.29.06.3v.31l-.07.29-.15.26-.1.29-.18.25-.24.17-.27.13-.28.12-.28.11-.28.11-.29.11-.26.14-.21.2-.16.26-.21.23-.16.25-.09.29-.05.3,0,.3,0,.3,0,.31,0,.3,0,.3,0,.31,0,.3,0,.31v2.13l0,.3.07.3.06.3,0,.3v.31l0,.12,8,.3,8,.28,8,.28.48,0,4.09-2.21,2.86-.13,3.77-.16,4.18-.43h.13l4.73-.52,2.79-1.35,6.21-3,1,.44,5,2.15-.72,2.49-.8,2.82,0,.23,0,.22-.05.22,0,.22,0,.22v.22l.05.22.07.22.06.22.06.21.06.22.07.21.1.2.1.2.11.2.1.2.1.2.13.18.17.14.19.12.18.13.19.13.19.11.2.1.2.09.2.08.21.08.21.08.21.07.2.08.21.08.21.08.21.07.21.07.21.07.2.09.19.11.18.13.16.16.16.16.15.16.14.18.13.18.1.2,0,.09,0,.13,0,.22v.22l.05.22.06.22.07.21.06.22.07.22,0,.22,0,.21.09.21.11.2.14.18.15.16.18.13.2.12.19.12.17.14.13.17.11.19.09.21.08.22.06.22.06.21v.9l0,.23,0,.22v.68l0,.22,0,.22-.07.21-.08.21-.07.21-.07.22-.06.22,0,.22,0,.22-.06.22-.07.21L505,695l0,.22v1.13l0,.22,0,.23,0,.22,0,.22,0,.23,0,.22,0,.22,0,.22,0,.23v.22l0,.22,0,.22,0,.22-.06.22-.06.22-.07.21-.09.21-.09.2-.09.2-.09.21-.07.21-.06.22-.06.21-.09.21-.11.2-.09.2-.07.22-.07.21-.13.37-.13.35-.13.32-.09.26.05.3.07.29.14.26.18.24.17.25.15.25.14.27.09.3.07.29.21.17.28.11.3.07.3,0h.3l.31,0,.29,0,.27-.09.21-.2.17-.26.16-.26.14-.28.14-.29.15-.26.19-.19.25-.07.31,0,.29.07.31.08.28.1.28.11.27.11.28.09.29.06.29.06.29,0,.29.08.28.09.28.09.28.1.28.08.29.08.29,0,.29,0,.3,0,.29.05.28.09.27.14.26.13.27.11.29,0,.3,0h.59l.29,0,.3,0,.29-.06.29,0,.29,0,.32,0,.31,0,.18,0,.08,0,.19.19.15.28.1.31,0,.29,0,.3-.08.29-.12.28-.14.27-.08.28,0,.3v.3l0,.3,0,.3,0,.3.05.29.06.29.07.29.09.3.11.28.13.23.2.24.22.21.23.2.22.19.21.23.22.21.24.16.29,0,.3-.07.25-.14.21-.22.2-.23.18-.26.17-.26.21-.17.27-.08h.29l.31,0,.31,0,.29,0,.29.07.28.08.29.09.28.06.3,0,.29,0,.26,0,.33.06.28.07.29.1.27.11.26.14.24.17.22.2.22.22.19.26.2.25.21.15.24,0,.28-.17.27-.16.29-.13.28-.09.27,0,.29.13.24.18.18.23.11.28.11.29.13.27.13.28.22.18.29.09.23,0,.36,0,.28-.08.27-.16.28,0,.3.07.27.12.19.22.18.24.24.17.26.15.27.13.26.14.23.19.16.26,0,.28,0,.31.06.29.12.28.18.23.19.23.18.24.19.24.13.26,0,.29-.08.3-.1.31v.21l.18.28.25.2.25.17.26.14.27.13.28.11.28.05h.6l.29,0,.3,0,.29,0h.3l.31,0,.28,0,.26-.13.23-.19L541,721l.19-.22.18-.25.19-.23.19-.22.22-.19.26-.15.27-.13.27-.12.22-.09.34-.1h.29l.3,0h.3l.3,0,.28-.08.23-.17.19-.24.16-.26.13-.27.13-.27.16-.24.27-.15.27.07.26.17.27.1.3,0,.3,0,.29.06.28,0,.29-.08.27-.12.26-.15.24-.18.23-.18.23-.2.19-.16.28-.19.34-.08,5.52.58.12.28.12.29,0,.27-.09.28-.16.27-.14.26-.13.28-.13.26-.15.26-.17.24-.18.25-.18.26-.21.28-.15.25,0,.14.33,0h.34l.29.08.21.18.09.3.06.3,0,.29,0,.3,0,.13,0,.17-.06.29-.08.29-.08.29-.06.29,0,.3,0,.3,0,.29,0,.3,0,.29v.9l0,.3v.3l.16.55,1.29-.28.72.34,0,.66-.74.85.78,4,.1.28.1.29.09.28.11.28.1.28.12.27.13.27.14.27.16.25.17.24.18.24.19.24.19.22.21.21.22.2.23.19.24.18.25.17.24.16.26.16.25.14.24.12,0,0,.27.12.27.13.26.13.29.13.28.11.24.17.13.24.06.31v.31l-.06.29-.11.28-.13.28-.11.28-.06.29v.3l0,.3.07.3.11.27.18.24.19.23.19.24.18.23.16.25.11.28.07.29.07.29.08.29.08.29.1.28.1.28.13.27.16.27.18.22.2.23.2.21.34.28.8-4,3.9-.53.33,0,2.72-.58.26-.13.27-.13.26-.14.27-.13.26-.13.27-.13.27-.13.27-.11.27-.11.28-.11.28-.1.28-.1.27-.11.27-.12.27-.13.26-.14.26-.14.26-.15.27-.13.27-.12.27-.12.28-.11.28-.09.28-.08.29-.06.29-.05.3,0,.3,0h1.79l1.88.5,5.08.3,1,.19,1.1.21,2.8.54,2.15.41,5.43,3,2.66,1.47,3.18,1,.31.1,4.43,0,5.43,0,2.59,0,6.45-.13,1.57,0,1.38,0,3.45-5.74,3.36-5.6,1.41-.62,3.64-1.6,3.71-1.64.55-.24,6.41,1.32.85.17,6.07,1.24,1.78.39,7.84,1.7,7.83,1.69,7.85,1.69,2.35.51,2.13,5.25,3,7.5.88,2.17,0,.29.05.3,0,.3,0,.3v.59l0,.3v.9l0,.3V758l-.11.28-.12.28-.12.27-.09.28,0,.3.07.29.07.3,0,.27-.23.21-.14.26V761l-.24.18,0,.29-.08.29.06.24,0,.13,0,.14-.1.29-.13.27-.05.28.14.27.17.25.11.26.08.48,3.28.36.17,3.93,0,.85-.17,6,1.65,1.24,6.17,4.65.28.19,2.89,2,.26.12.28.13.24.11.3.14.27.12.27.12.26.13.27.13.27.13.27.13.27.13.27.12.27.13.24.14h0l.24.19.2.21.18.25.14.27.09.28v.3l-.05.3-.09.29-.11.29-.15.27-.22.16-.28.09-.3,0-.31.05-.29.07-.3.06-.28.09-.25.14-.2.24-.14.26-.1.28-.07.29-.06.3,0,.29,0,.3,0,.3,0,.3,0,.3,0,.3-.05.29-.08.28-.12.28-.13.27-.13.27-.11.28-.05.3,0,.3-.09.28-.16.24-.2.22-.21.22-.19.24-.17.24-.16.26-.17.24-.18.24-.19.23-.19.23-.19.23-.2.22-.22.21-.2.24-.12.26-.07.28-.05.3,0,.31,0,.3,0,.3.1.28.12.28.15.26.17.25.19.22.21.22.22.2.24.17.27.13.28.1.3.07.29,0h1.79l.29,0,.3,0,.29,0h.9l.29,0,.29.07.28.1.28.1.28.12.27.11.29.1.28.08.29.09.26.13.26.15.25.16.24.18.22.2.22.2.25.17.26.13.28.12.28.11.27.11.28.11.28.1.29.08.29.06.29.05.29.06.29.07.3.06.29,0h.3l.3,0,.29,0,.3,0,.29,0,.3-.06.29-.07.28-.08.29-.1.26-.14.24-.16.24-.18.24-.18.37-.29,5,2.39,2.24,1.28,3.18,1.8.45.26,2.23,2.19.56.54,5.78,5.66,5.79,5.66,5.79,5.65,5.8,5.64,1.69,1.65,0,7.54v.61l7,2.52.45.16.14.37,2.77,7.62.29.8,2.28,6.89.29.88,1,2.91,1.34,3.9,2.65,7.66.88,2.53,1.86,5.11,2.79,7.61.17.45,2.38,7.26,1.43,4.36,1.26,3.29.09.24,2.81,7.34,1.3,3.4,1.49,4.22,1.06,3,.59,1.68,2,6.53,2.48,6.94,1.42-.32,8-1.78,8-1.8,7.95-1.79,3.06-.69,3.87-3.19,5.65-4.1,1.92-1.71,3.15-2.81,1-.89,5.84-5.17-.06-.32-1.45-8-.12-.66L849,901.57l-1.32-8L847,890l-.75-4.43-.63-3.77,1.8-.36,2.4-.47,7.5-1.49.47-.05,1.78-.18-.08-1.47v-.6l0-.3,0-.29-.05-.3-.07-.29-.08-.29-.12-.27-.15-.27-.14-.27-.11-.28-.06-.28V874l.05-.3.08-.3.1-.29.13-.27.17-.26.14-.26.06-.28,0-.29,0-.3-.06-.3,0-.3,0-.3v-.3l0-.3,0-.29,0-.3,0-.3-.05-.29,0-.3,0-.3,0-.3v-.29l0-.3,0-.3v-.6l0-.3,0-.3v-.6l0-.3,0-.29-.08-.29-.1-.29-.12-.27-.14-.26-.16-.25-.18-.24-.18-.25-.08-.12-.08-.13-.15-.26-.14-.26-.13-.27-.13-.27-.13-.27-.14-.27-.13-.27-.13-.27-.12-.27-.13-.27-.13-.27-.14-.26-.15-.27-.16-.25-.17-.24-.19-.23-.2-.22-.2-.22-.21-.22-.2-.23-.2-.22-.21-.22-.2-.22-.17-.24-.13-.27-.12-.28-.06-.15,0-.13-.09-.29-.06-.29,0-.3v-.61l0-.29.08-.29.13-.28.17-.25.21-.2.25-.15.27-.13.28-.12.28-.13.27-.14.26-.14.27-.13.29-.08.29-.06.3-.06.28-.09.29-.13.26-.18.12-.23v-.32l-.08-.31-.06-.11-.08-.14-.23-.18-.28-.15-.28-.13-.27-.13-.27-.12-.29-.1-.29-.06-.3,0H855l-.29,0-.28-.08-.26-.15-.22-.22-.19-.23-.15-.26-.09-.29,0-.3v-.3l0-.3,0-.3.08-.29.1-.28.12-.27.12-.28.13-.27.14-.26.06-.12.07-.15.14-.27.13-.27.13-.27.13-.27.14-.27.13-.26.14-.27.15-.26.16-.25.16-.25.16-.26.16-.25.15-.26.12-.27.12-.27.1-.29.09-.28.09-.29.08-.29.08-.29.07-.29.07-.29.05-.3,0-.29,0-.3v-.45l0-.15,0-.3,0-.3,0-.3,0-.29.05-.29.08-.29.1-.28.12-.28.13-.27.14-.27.15-.26.18-.24.18-.24.18-.24.16-.25.14-.26.14-.27.12-.27.12-.28.12-.27.1-.28.1-.28.1-.29.1-.29.09-.28.09-.29,0-.15,0-.14,0-.3,0-.29,0-.3v-.29l0-.3,0-.3,0-.3,0-.3,0-.3,0-.3,0-.3v-.3l0-.3,0-.29,0-.3,0-.3-.07-.29-.07-.29-.07-.29,0-.3v-.59l0-.3V823l0-.3v-.6l0-.3-.06-.3-.09-.28-.13-.27-.15-.25-.16-.25-.18-.25-.17-.24-.18-.25-.18-.23-.18-.25-.17-.24-.19-.23-.18-.24-.18-.24-.18-.23-.19-.24-.18-.24-.17-.24-.18-.23-.19-.24-.17-.24-.18-.25-.17-.24-.18-.24-.16-.25-.16-.25-.17-.25-.15-.26-.16-.25-.15-.26-.15-.26-.14-.26-.15-.26-.13-.27-.14-.27-.13-.27-.13-.27-.12-.27-.12-.27-.11-.28-.12-.28-.11-.28-.09-.28-.08-.29-.07-.29-.05-.29,0-.3-.05-.29,0-.3,0-.3,0-.3,0-.29,0-.3,0-.3,0-.3V807l0-.3v-.29l0-.3,0-.3,0-.3,0-.3,0-.29-.06-.29-.06-.3-.07-.29-.08-.29-.09-.28-.09-.29-.09-.29-.09-.28-.11-.29-.12-.27-.12-.27-.14-.26-.17-.24-.19-.23-.21-.22-.21-.22-.22-.2-.22-.2-.23-.19-.23-.19-.24-.18-.24-.18-.24-.18-.23-.18-.25-.17-.25-.17-.25-.17-.24-.18-.22-.19-.12-.13-.08-.08-.19-.23-.17-.25-.16-.25-.16-.26-.15-.26-.17-.24-.16-.25-.17-.25-.16-.25-.17-.25-.16-.25-.17-.25-.17-.24-.17-.25-.19-.23-.18-.24-.18-.24-.17-.25-.16-.25-.13-.26-.11-.28-.1-.28-.1-.29-.1-.28-.09-.29-.09-.29-.09-.29-.1-.27-.14-.26-.17-.24-.2-.22-.21-.21-.22-.21-.22-.21-.2-.23-.19-.22-.2-.23-.19-.23-.19-.23-.19-.22-.19-.23L836,786.36l-4.13-1.42-2.17-.74-.28-1.38-.87-4.37-.17-.07-.93-.41-2.52-1,.09-5.92,1.29.86,4,.1.79-4.74,1.32-8,0-.28.14-.86.3-1.81-.33-5.11v-.12l-.08-1.33-.43-6.65-.11-1.78-.21-3.25-.13-3.07-.18-4.32-.16-3.78-.08-1.82-.61-2.67-.76-3.47L828.07,711l-.11-.5-.05-.21-1.5-7.22-.21-1.33-.25-1.15-.51-1.41-.78-2.91-1.6-.88-1-.63-1.8-1.1L818,692.37l-.73-.42-2.18-1.23-1.84-1-1.85-1-3.24-1.95-1.65-1-2.61.86-2,1.24-.81.63-1.53,1.17-.57.45-.26.2-2.56,2L795,693.35l-1.48,1.48-.12.12-.29.84-.06.15-.51,1.45-.56,2.43-.63,1.95,0,.15-.43.47-.72.77-.22.23-.73.31-.56.24-2.23-.12-2.05-.53-.68-.58-.22-.18-.43-.64-1.2-1.79-3.2-.16-.86-.92-.27-.8-.19-.55-.38-1.12L776,694.3l-.59-1.69-.34-1-.08-.24-.15-.85-.1-.54-.25-1.39-.25-1.91-.46-2,0-.2-1.18-2.19h0l-1.47-1.81h0L770,679.41l-1-1.06h0l-.17.06-2.62.94-.28.11-.23.09.11,1.16-.09.89-.13.6-.39.79-.64.74,0,.19-.19.66-.31,1.16-.17,1.06-.21.25-.28.35-.77.3-.91-.58-.58-1.18-.14-1.09v0l-.08-.9,0-1.17-.17-1.2-.17-1.35,0-1.72-.09-1.74v-.06l-.56-2.26-.58-1.45-.19-.46-.61-1.71L758,669v0l-.41-1.11-.81-.23-1.84.28h0l-1.24.3-.51-.87-.92-1.14-.11-.35-.25-.81-.07-2v-1.59l-.69-1.25-.28-.94-.17-1.28v0l-.77-1-1-1.19-.35-1.05-.21-.63-.1-.18-.8-1.42,0-1.65v-.41l.18-1.55-.42-1.22-.17-.67-.33-1.28.24-1.49.07-1.32,0-.46-.44-1.43.16-1.48.15-.48.24-.77.16-.52.21-1.41,0-.44-.14-.84-.14-.87,0-.21v-.12l-.09-1-.05-.26,0-.26-.06-.25-.06-.26-.08-.25-.09-.25-.09-.24-.09-.25-.07-.25-.08-.25-.08-.26-.08-.25-.08-.25-.08-.25-.08-.25-.08-.25-.08-.25-.07-.25-.05-.26,0-.26,0-.26,0-.27-.05-.25-.06-.26-.07-.26-.09-.24-.1-.21,0,0-.14-.23-.16-.22-.17-.19-.16-.09-.31,0-.24,0-.23-.13-.22-.15-.2-.17-.19-.18-.21-.14-.24-.08-.26-.06-.25-.08-.23-.12-.22-.14-.22-.13-.24-.1-.24-.09-.25-.07-.25-.06-.25-.06-.26,0-.26,0-.25,0-.26-.05-.25-.06-.25-.07-.24-.1-.23-.12-.14-.07-.09,0-.24-.08-.25-.08-.25-.06-.13,0-.12,0-.14,0H737l-.25,0h-.8l-.25,0-.22-.11-.2-.16-.19-.19-.18-.2-.16-.2-.15-.22-.14-.23-.17-.19-.19-.17-.22-.15-.22-.14-.22-.14-.2-.16-.18-.19-.19-.18-.23-.12-.24-.1-.24-.1-.23-.12-.2-.18-.06-.05-.12-.12-.22-.14-.23-.11-.24-.1-.06,0-.18-.07-.24-.09-.36-.15,1-1.49,1.46-1.11,1.12-.54.83-.52.17-.23.4-.53.6-1,.15-.22.52-.76.23-1.26.26-1.34.13-.9,1,0,.09-.5.1-.53.79-1.3,0,0,1.29-2,.78-.82,1-.19,1.14-.22.25-.1.56-.24.57-.68.26-.52.34-.63.9-1.71.11-.27.44-1.11.31-.77.25-.58.18-.35.36-.71,1.08-.68.21-.14.15-.09,1.29-.78,1.38-1.06,1-.53.77-.8.13-.14,0-.55-.34-.64.36-.51.14-.2,1-1.38.43-.84.13-.81.11-.19.31-.53.88-.71.13-.25.23-.45.19-.67.54-.24.29,0,.23,0,0-1.08.08-1.58-.55-.51-.68-.71-.5-1.26-.06-.15L756,577l-.73-.37,0,0-.68-.3.22-.9.26-.95-.12-.7-.48-.46,0-.64.41-.74.42-.18.41-.18,1.06-.37.16-.46.54-1.66.09-.41.19-1,.63-.94,0-.08.42-1.24,0-.31,0-.77-.07-.17-.47-1-.12-.27-.51-.58-.75-.84-1.34-1-1.78-.82-.1-.05-1.57-.93-.19-.13-.7-.49-.6-.42-1.75-1.41-1.35-1.6-.22-.26L746,553.13l-.18-.18-.76-.64-.73-.6-1.52-.9-1.52-.95-.13-.09-1.32-.89-.41-.2-.44-.22-.6-.61-1.46-.08-.8,0-2.26,0-1.16,0-.44,0-.44-.06-1.8-.21-.47-.41-.25-.22-.65-1.07-.26-.85.32-1,.23-.72.06-1.33,0-.81,0-2.82L728.9,537l.31-1.19,0-.09.24-.69.13-.38v-.59l-.11-.26-.22-.54-.17-1-.44-.81.11-.49.17-.77.41-.92.54-.58.3-.16.36-.18-.38-1.64L730,526l-.26-1.81,1-.54,1-.13,1.3-.22.32-.05.91,0-.51-.64-.26-.31-.24-1.31.48-1.21.72-1.56.21-1.22,0-.15-.21-1.66,0-.27-.09-1.57-.13-2v-1.49l.73-.66.27-.24,1.22-.7.09-.27.18-.59-.12-1.19-.57-1,0-.88.11-1,.22.14-.08-.23-.09-.24-.09-.23-.11-.23-.15-.2-.19-.17-.22-.12-.23,0L735,502l-.24.09-.22.13-.19.14-.21-.12-.09-.23-.09-.24-.12-.21-.13-.22-.11-.22-.09-.23-.1-.24-.09-.23-.1-.23-.1-.23-.1-.22-.14-.21-.15-.2-.16-.19-.16-.19-.16-.19-.16-.19-.23-.27-.1-.11-.17-.18-.16-.19-.11-.22-.07-.25v-.25l0-.24.07-.25.07-.24,0-.25v-.26l-.06-.24-.11-.22-.16-.21-.18-.16-.19-.16-.19-.15-.21-.14-.2-.14-.21-.13-.22-.11-.24-.06-.24,0-.24,0-.25,0h-.24l-.24,0-.24-.05-.24-.05-.25-.05-.24,0H727l-.13,0-.11,0-.17.15-.15.21-.13.22-.15.21-.13.22-.14.23-.15.19-.19.1-.25,0-.26-.06-.23-.08-.23-.1-.23-.08h-.24l-.23.06-.23.11-.22.12-.21.12-.22.12-.2.14-.2.14-.2.15-.19.15-.19.16-.19.16-.19.17-.17.18-.16.18-.15.2-.13.21-.12.22-.11.23-.12.22-.12.22-.13.21-.14.21-.13.21-.14.2-.15.21-.15.2-.15.19-.17.19-.17.18-.16.19-.14.2-.11.22-.1.24-.09.23-.08.24-.1.23-.09.23-.09.23-.1.24-.1.23-.1.22-.12.23-.12.21-.13.22-.12.21-.13.22-.11.22-.1.23-.1.24-.11.22-.13.21-.15.2-.17.19-.17.17-.18.18-.19.15-.21.13-.21.13-.19.16-.17.18-.15.2-.14.2-.15.2-.15.2-.15.2-.16.19-.15.2-.15.2-.15.19-.17.19-.16.19-.16.19-.16.19-.14.2-.14.21-.13.21-.12.22-.12.22-.12.22-.12.22-.11.22-.12.26-.08.2-.07.24-.06.25-.05.24,0,.25,0,.25-.06.24-.08.24-.08.24-.1.23-.1.23-.11.22-.11.23-.11.22-.1.23-.1.23-.09.24-.09.23-.08.24-.08.24,0,.24,0,.25,0,.25,0,.25,0,.25-.08.24-.1.23-.08.24-.07.24,0,.25v.25l0,.34v.16l0,.25-.06.24-.06.25-.07.24-.07.24-.07.24-.07.24-.07.25-.09.23-.11.22-.12.22-.14.21-.14.2-.15.21-.14.2-.14.22-.13.25-.13.23-.08.1-.07.08-.18.09-.22,0-.24-.13-.24-.12-.23-.09-.23-.09-.22-.1-.22-.12-.19-.15-.2-.15-.21-.14-.2-.13-.11-.07-.1-.06-.21-.13-.21-.13-.21-.13-.22-.12-.22-.11-.22-.1-.23-.06h-.25l-.24,0-.24-.07-.23-.08-.23-.09-.11-.06-.11,0-.2-.14-.19-.16-.2-.14-.2-.15-.2-.16-.19-.14-.2-.14-.21-.14-.22-.12-.21-.12-.22-.13-.2-.13-.19-.15-.17-.18-.15-.2-.14-.21-.15-.2-.15-.2-.11-.15,0,0-.14-.2-.16-.2-.16-.19-.17-.18-.18-.17-.17-.18-.15-.2-.14-.2-.13-.22-.12-.22-.11-.22-.12-.22-.11-.23-.1-.23-.07-.24,0-.26,0-.25-.11-.21-.17-.18-.19-.16-.2-.16-.2-.14-.21-.13-.21-.12-.22-.13-.22-.11-.22-.11-.21-.12-.19-.16-.17-.18-.15-.2-.13-.21-.13-.21-.12-.23-.11-.22-.12-.22-.13-.22-.13-.21-.14-.21-.13-.2-.15-.21-.14-.2-.14-.2-.16-.2-.16-.19-.14-.2-.13-.22-.12-.21-.12-.22-.11-.23-.11-.22-.11-.23-.11-.23-.1-.22-.11-.23-.1-.23-.1-.23-.1-.23-.1-.23-.1-.23-.09-.23-.1-.23-.1-.23-.12-.27-.09-.18-.12-.22-.14-.2-.16-.2-.15-.2-.14-.21-.12-.21-.12-.22-.12-.22-.11-.23-.12-.22-.12-.22-.12-.21-.13-.22-.14-.21-.13-.21-.12-.22-.12-.22-.1-.23-.07-.24-.06-.24,0-.25-.07-.25-.08-.23-.1-.22-.12-.22-.13-.22-.13-.21-.14-.21-.14-.21-.14-.2-.22-.28-.09-.11-.18-.17-.19-.16-.2-.16-.19-.16-.17-.17-.16-.18-.14-.21-.12-.22-.11-.23-.11-.23-.09-.23-.08-.24-.08-.24-.06-.24-.06-.24,0-.25,0-.25-.05-.24,0-.25-.05-.25,0-.24,0-.25,0-.25V492l0-.25,0-.25,0-.25,0-.24-.07-.25,0-.15,0-.08-.09-.24-.11-.23-.12-.22-.15-.19-.18-.17-.2-.15-.22-.13-.23-.09-.23-.06-.25,0-.26,0-.24,0-.21-.08-.19-.15-.15-.2-.13-.22-.12-.23-.11-.23-.07-.24-.07-.24-.08-.24-.11-.23-.11-.22-.12-.22-.12-.22-.14-.21-.14-.2-.15-.2-.15-.2-.16-.19-.15-.19-.16-.2-.15-.19-.16-.2-.16-.19-.15-.19-.14-.21-.13-.21-.12-.22-.11-.22-.11-.23-.11-.22-.12-.22-.12-.22-.12-.22-.13-.22-.13-.21-.14-.21-.15-.19-.16-.19-.17-.17-.18-.18-.18-.17-.17-.17-.17-.19-.17-.18-.17-.18-.17-.18-.1-.12-.06-.07-.17-.18-.17-.18-.16-.19-.17-.18-.16-.18-.16-.45,0-.39-.14-.3-.2-.23L673,477l-.21-.23-.21-.23-.21-.23-.21-.23-.1-.13-.09-.11-.16-.27-.15-.28-.16-.26-.17-.26-.17-.26-.18-.25-.18-.26-.19-.24-.19-.25-.19-.24L670,473l-.18-.25-.19-.25-.2-.24-.13-.13-.09-.08-.24-.2-.24-.2-.21-.21-.19-.25-.17-.25-.17-.27-.16-.27-.16-.26-.18-.26-.17-.26-.07-.08-.12-.17-.17-.25-.18-.26-.18-.25-.18-.26-.17-.26-.16-.27-.13-.28-.13-.28-.11-.3-.1-.3,0-.11,0-.19-.05-.31,0-.31,0-.31v-.14l0-.18,0-.31,0-.31,0-.32,0-.31,0-.31,0-.32,0-.31,0-.31,0-.32-.05-.36,0-.26,0-.31-.06-.31,0-.31-.05-.31,0-.31,0-.31,0-.31-.05-.31,0-.31-.06-.31-.07-.31-.08-.3-.08-.3,0-.31v-.63l0-.31-.05-.32,0-.31,0-.31,0-.31,0-.32,0-.31,0-.31,0-.31.13-4.11.27-.35.11-.14.09-.1.2-.23.2-.23.2-.25.19-.24.19-.25.12-.15.07-.09.21-.23.23-.21.23-.2.18-.25.13-.28.16-.27.19-.25.21-.22.25-.18.23-.21.22-.22.23-.21.25-.17.27-.1.31,0,.31,0,.3,0h.3l.31,0h.11l.19,0h.3l.3,0,.3-.07.29-.09.27-.15.11-.06.15-.09.27-.14.28-.14.28-.12.28-.13.28-.09.3,0h.31l.3,0,.3.06.3,0,.3,0,.3,0,.3,0,.31,0,.3,0,.3,0,.3,0h.67l.24,0,.3-.05.3-.07.29-.07.29-.08.37-.1.22-.07.29-.08.29-.09.29-.09.29-.1.29-.1.29-.09.29-.07.3-.06.3-.05.3,0,.31,0,.3,0h.3l.31,0,.33,0,.33.05.32.06.31,0h.3l.27,0,.24-.09.19-.18.16-.25.13-.3.11-.35.09-.32.11-.32.12-.29.1-.29.09-.3.09-.3.1-.3.11-.29.12-.29.13-.28.14-.28.14-.29.13-.28.13-.28.13-.28.13-.29.13-.28.13-.29.13-.28.07-.19,0-.1.11-.29.1-.3.09-.3.08-.3.08-.31,0-.2,0-.1.08-.3.08-.31.08-.3.07-.3.08-.31.07-.3.08-.31.07-.3.08-.31.07-.3.07-.31.07-.3.07-.31.07-.3.07-.31.06-.31.07-.3.06-.31.06-.31,0-.15,0-.16,0-.31.05-.31,0-.31,0-.32,0-.31,0-.16,0-.15.06-.31.08-.3.09-.3.08-.3.07-.31,0-.31,0-.31,0-.31,0-.31,0-.31,0-.32,0-.31,0-.31,0-.31v-.95l0-.31v-.94l0-.32,0-.31v-.31l0-.42v-.52l0-.32,0-.31,0-.31,0-.32,0-.31,0-.31,0-.31,0-.31-.06-.31-.08-.3-.1-.3-.09-.3-.08-.3-.07-.31-.06-.31-.06-.3-.06-.31-.06-.31v0l0-.27-.06-.31-.06-.31-.06-.3-.07-.31-.07-.36-.06-.26-.06-.3,0-.31-.06-.31,0-.31,0-.31,0-.32,0-.31,0-.31v-.63l0-.31v-1.89l0-.31,0-.32,0-.31,0-.31,0-.31,0-.32,0-.31,0-.31-.22-1.15-.26-1.87-.11-.76-.16-1.13h-.07l-5.88.29-.74,0-.83,0-6.24,0h-.74l-4.84,0h-18l-.55,0-7.06-.25-.74,0-7.06-.25-.74,0-7.06-.25-.74,0-7.06-.26-.74,0-7.06-.26-.74,0-2.81-.11-3.08-.16-1.9-.09-1.24-.07-5.05-.26-1.51-.08-6,.07h-.28l-.92,0-6.59-.39-.28,0-4.17-.25-3.34-.2h-.28l-7.51-.45-.28,0-3.79-.23-3.73-.18h-.27l-7.52-.37h-.27l-2.64-.13-2.62-.36-2.21-.42-.26,0-7.42-1.4-.26-.05-4.19-.79-3.22-.64-.26-.05-7.4-1.47-.25-.05-7.41-1.47-.25-.05-1.85-.37-5.57-1.08-.24-.05-7.39-1.44-.27-.06-.23.2-.23.19-.29.25-2.11,1.31-2.12,1.11-2.32,1.17-.35.18-.66.33,1.73,1.38,1,1.18V392l-.68,1.59.17.57.44,1.53.14,1.49.92,2.44.29,2.38,0,.74-.62,1.64-.37,1.74-.55.72-.15.26-.16.27-.16.26-.16.27-.15.26-.15.27-.14.28-.12.27-.11.29-.08.29-.07.3-.06.31-.06.3,0,.31-.05.31-.09.46v2.43l1.28,5.11.12.39.56,1.9.78,2.63-.32,2.82,0,.54.11,2,.37,1.84,1.69.24-.72,1.14-.55,1-.75,1.31-.75,1.26-.14.85,0,1.17,0,.31,0,.31.08.29.12.29.17.25.2.24.22.2.24.19.25.17.26.16.26.14.28.12.28.11.28.12.27.11.28.12.28.12.26.15.25.17.24.18.24.2.22.2.22.21.21.22.2.23.2.23.2.23.19.24.19.24.26.32,1.16,4.91.36,2.6.09.43.94,4.57.55,3.39.29,1.73,1.29,6.22.27,1.29.49,2.66.85,4,.59,2.75,0,.49,1.37,7.59,1.53,8,.87,4.49-2.85,2L500,505.7l-6.54,4.52-2,1.36-.56,5.64-.81,8.07-.81,8.07-.17,1.72,3.47,5.29L497,547.1l4.42,6.72,2.33,3.53.14.27.14.27.14.27.14.27.13.27.14.27.13.28.14.27.13.27.14.27.14.27.13.27.14.27.14.27.14.27.14.27.14.27.15.26.14.27.15.26.15.26.16.26.16.26.15.26.17.25.16.26.1.16.06.09.17.25.16.25.17.26.17.25.18.24.17.25.17.25.18.25.17.24.18.25.17.24.18.25.18.24.18.25.18.24.17.25.18.24Z"/>

</g></g></g></svg>
