<svg xmlns="http://www.w3.org/2000/svg" viewBox="0 0 1948.2 3756.13">
<defs>
    <style>.cls-1,.cls-2,.cls-3,.cls-4{fill:#ccc;stroke:#646464;stroke-width:2.13px;}.cls-1,.cls-2,.cls-3{stroke-linecap:square;}.cls-1,.cls-2{stroke-linejoin:bevel;}.cls-1,.cls-3,.cls-4{fill-rule:evenodd;}.cls-3,.cls-4{stroke-linejoin:round;}
    </style>    
</defs>
<title>Recurso 2arg</title>
<g id="Capa_2" data-name="Capa 2"><g id="svg2"><g id="layer1">

<path id="path2423" class="cls-3" d="M587.75,2733.15l.13-1,.36-.37.2-.42.33-.33-.21-.35.24-.43.5-.17.56-.09.23-.43,0-.46.28-.42.43-.31.58-.08.55.12.57,0,.58-.07.32,0,.26,0,.23-.33-.49-.26-.51-.23-.36-.36-.38-.35-.45-.26-.3-.74.12-.46.28-.42.2-.44.15-.45.13-.16.2-.24.41-.33.18-.07.35-.13.34-.37.25-.42.47-.27.29-.42.32-.39.35-.37.32-.4.25-.42.28-.4.45-.1.66-.46.28-.33.14-.39.34-.29.37-.27.23-.33.63-.19.62-.19.28-.32.07-.4-.06-.23,0-.16.1-.39.08-.4,0-.15.05-.25.19-.37.29-.33.18-.34,0-.41.11-.39.09-.39.16-.35.62-.21.62-.18.75-.29.4-.24.47-.11.72-.29.29-.33.21-.36.35-.29.41-.23.34-.27.1-.39.4-.23.63-.19.64-.06.62.21.39.22.5-.45.06-.4.26-.34.17-.36-.08-.4-.25-.35-.18-.36,0-.41.08-.39.07-.4v-.4l-.12-.39-.28-.33-.2-.37-.11-.39.06-.4.13-.39.22-.36.24-.36.4-.21.64-.14.66,0,.66.08.3-.23.24-.18,0-.4-.19-.38-.45-.13-.36-.28-.24-.35-.33-.3-.34-.3-.14-.37-.1-.4,0-.4.06-.4.15-.38.2-.37.08-.4,0-.4,0-.4.06-.4.1-.39.12-.39.12-.39.13-.39.11-.39.11-.39.15-.38.21-.36.25-.35.24-.36.25-.34.28-.32.72-.23.28-.33.22-.37.21-.36.25-.35.27-.33.3-.32.34-.29.36-.28.34-.29.35-.29.38-.26.31-.31.23-.35.26-.35.33-.29.31-.31.33-.31.35-.28.38-.26.35-.28.33-.3.31-.31.34-.3.4-.24.26-.34.28-.33.4-.22.76-.28.63-.17.72-.31.41-.23.38-.24.29-.33.05-.39.42-.15.26-.35.08-.39-.09-.39.3-.32.28-.33.33-.29.36-.29.16-.37.12-.39.07-.4.13-.39.19-.37.25-.35.25-.34.13-.39.13-.37.34-.3.24-.35.15-.38.11-.4.2-.36.31-.31.31-.32.09-.39.06-.4.29-.47.33-.29.2-.52.24-.35.26-.34.3-.32.25-.35.22-.35.3-.32.39-.24.17-.38.23-.35.15-.39.29-.31.31-.32.17-.38.31-.31.26-.34.28-.32.33-.3.31-.31.3-.33.32-.3.29-.33.31-.28.71-.35.22-.35.15-.38.14-.39.14-.38.13-.39.21-.35,0-.39.3-.33.34-.28.25-.35.31-.31.36-.28.29-.32.33-.3.35-.28.25-.34.32-.28.24-.34.26-.34.42-.21.25-.33.34-.28.66-.38.37-.18.61.18.36-.27.32-.31.25-.35.31-.31.33-.3.33-.3.35-.28.4-.24.32-.3.31-.32.31-.31.32-.31.38-.25.42-.21.39-.25.39-.24.43-.21.43-.19.43-.19.44-.18.45-.18.44-.18.42-.21.4-.23.38-.26.4-.24.41-.22.41-.21.42-.23.47-.07.78-.1.37-.28.47-.13.61-.2.63-.15.65-.09.61-.18.63-.16.65,0,.71.28.64.13.73-.21.41-.2.64-.16.64,0,.72.21.38,0h.66l.72-.27.38-.25.65-.08.64-.13.65-.07H672l.65-.08h.65l.73.26.66.05.66,0,.64-.1.45-.17.69-.35.37-.27.46-.15.43-.19.44-.19.77-.22.65,0,.3.27.65,0,.66-.06.64-.07.78.12.64-.17.65,0,.65.1.77.06.45.12.88-.51.38.25.73-.23.43.19.75.14.64.28-.09.37.33.25.43.21.46,0,.24-.31.35-.25.39.21.48,0,.64,0-.16-.36-.07-.5-.13-.39,0-.4.36-.26.28-.34-.17-.32-.36-.22-.35-.25-.3-.32,0-.42-.37-.21-.2-.35-.2-.34-.22-.33h-.73l-.47.06-.64-.08-.66.05-.57-.33-.25-.25-.74-.29-.58.55-.45-.14-.57-.44,0-.4v-.4l.85-.14-.32-.39-.61-.4-.16-.35,0-.4.07-.4.34-.28.65-.06.42.22.46.05.64.08.66,0,.35.2.71-.29.32-.53.3.53.09.4.13.39.34.28.49-.05.77.12.64.12.31.33.38-.13.56.39,0,.46.32.18.79.12.45.12.47-.3.23-.36.42.21h.66l.77-.2.18-.71-.05-.44.45-.69-.44-.18-.75.27-.65.09-.63.13h-.65l-.62-.17-.66.07-.64.09h-.66l-.66,0-.38-.21-.23-.37-.18-.3,0-.46,0-.43,0-.37.09-.4,0-.39.15-.39.13-.39.21-.35.27-.34.28-.33.31-.31.37-.27.3-.32.36-.24.74.21.72.05.37-.21.19-.35.65.1.31-.3-.19-.36.33-.29.41-.21.2-.35.43-.2.38-.23.34-.21.66-.07.66,0,.35-.38.44.08.39.23.72-.27.41-.21.29-.33.35-.28.35-.28.38-.25.39-.25.38-.24.45-.17.45-.16.43.38.4.1.74.24,0-.48.31-.3.59-.69.52-.4.82-.17.64.24.66-.13.64.09.49.44.14.37.15.37.37-.14.18-.37.39-.22.54.21.36.35.44-.19.42-.18.69.18.28.25.29.21.48-.36.3-.24.75-.16.15-.37,0-.39.36-.28.19-.36v-.41l.39-.2.32-.27.4-.16.2-.37.66,0,.66.05.12.38.42-.18,0-.39.09-.37-.32-.32-.22-.33.2-.37.34-.28h.65l.75-.22.35-.55.27-.26.29-.23.1-.4.25-.33.34-.3.33-.3.45-.15.77-.09.38.26.22.37-.21.34.2.37.46-.13.48-.34.19-.37.34-.27.4.13.17.39.38.23.74-.16.13-.39.64.05.65,0,.33-.24h.81l.65,0,.43.18.44.19.65,0,.44.17.68.35.39.25.75-.26.38.52.63-.3.2.44-.14.39.3.23h.67l.35-.25.66.09.65,0,.65,0,.42-.17.29-.32.2.41.15.38.43.18.64.09.81.34.38.39.38.37.52.22.21.47.41.35.36.38.26.46.44.27.46.32.44.34.34.4.43.25.59-.11.45.06.37.33.55.22.71-.29.38-.39.28-.44.27-.45.49-.27.48.18.56,0,.53.22.6.14.26-.32-.19-.45-.14-.37-.2-.31,0-.5-.16-.46-.12-.46.28-.44.55-.23.52-.26.59,0,.6.05.5-.27.61,0,.6.06.59.09.53.23.56.18.51.28.24.28.07.39-.21.46v1l-.37.4.06.39.28.36.42.23.55-.22.43-.34.42-.37.46-.25-.43-.22-.59-.11-.19-.45.14-.48.41-.26.38,0,.49.26.06.49.5.26.52.25.54-.06.51-.19.53-.13.56-.19.53.23.59.08.61-.06.6,0,.52.23.1.42,0,.5v.42l.34.44.59-.05.54.24h.6l.59-.1.62,0,.29.39,0,.49.19.44.44.36.51.07v-.51l-.41-.33-.22-.45-.07-.49.29-.44.36-.39.58-.57.23.73.28.44.57.15.6.05.52,0,.33-.44.38.09-.12.48.19.43.6.1.21-.43.23-.41.48-.29.38-.34.47.23.59-.11.38-.37.48-.1.3-.34.37-.39,0-.37-.36-.41-.41-.36-.44-.35-.32-.42-.07-.43.19-.45.43-.13.41.08.56.12.59,0,.52.19.53.24.29-.32.1-.49-.19-.46-.21-.48-.45-.31-.5-.28-.33-.42-.19-.47.12-.48.52-.2.3-.38.11-.35.29-.42V2615h.4l.58.09.57.12.52-.11.14-.44.49-.26.19-.42.6-.13.34-.36.34-.39.57-.1.49-.23.52-.24-.19-.31.35-.35.61.06.38-.18-.28-.45-.49-.28-.38-.39-.34-.4-.55-.17-.58.07-.49-.24-.45-.33-.42-.32-.39-.27-.55.23.15-.58-.07-.44-.57-.19-.56-.15-.46.18-.36.28-.19.37-.37.38-.55,0,.15-.44-.13-.46-.23-.38-.27-.39-.5-.24-.44-.33-.52,0-.41-.12-.47.09-.57-.14-.86.23-.53.24-.6.08-.57-.16-.53-.22-.35-.38-.43-.34-.59,0-.48-.21-.15-.41-.52.17h-.58l-.47-.3-.32-.43-.33-.41-.35-.41-.35-.41-.37-.39-.34-.41-.14-.48,0-.49.4-.35.48-.2-.42-.37-.15-.48-.14-.48-.08-.49v-1l.22-.47.4-.37.48-.28.59-.12.44-.22.34-.35.14-1,.2-.7.21-.87.21-.72-.13-1-.1-.94,0-.9.34-1,.24-.68.44-.71.51-.84.53-1,.43-.63.56-.73.34-.63.5-.73.68-.67.83-.5.54-.43.34-.26.49-.39.27-.39,1.2-.81.58-.2.41-.32.78-.47.54-.43.35-.3h.64l.49.07.3.4.61.11.4-.16.18-.36.28-.78.54-.17.69-.55.54-.43.51-.52.35-.38.34-.2,1.11-.55.53-.07.83-.13.39-.19.91-.5.94-.11.56-.38.79.07.34.16.2-.37-.07-.36-.17-.39L797,2572l.11-.45.24-.3.53-.36h.55l.55.08.3-.24.32-.24.58-.1.66.06.35.24.62.42.39,0,.71.22.19.46.19.33.67.39.36.18.25-.54.26-.39.32-.33.49-.26.49.18.33.64.64.4-.09-.69.61-.26.32-.36-.22-.27-.47-.25-.49-.21-.51-.25-1-.33-.41-.43-.24-.29-.15-.76.18-.4.26-.41.38-.22.78.17h.55l.72-.17.26-.32.11-.64-.4-.07-.61-.48-.36-.72.18-.68.4-.29.61-.19.54.27.62-.59.64-.12.45-.17h.61l.47.11.48.25.21.62.15.64-.16.71.08.47.6-.18v-.46l0-.42.28-.33.23-.49.44,0,.57-.34,1,.33.87.11.08-.45-.22-.32-.15-.36-.05-.48-.31-1.09-.8-.2-.42.22-.65-.08-.39.05-.45,0-.58-.39-.11-.65.16-.37.41-.44.25-.73-.21-.39-.5-.26h-.49l-.55-.33-.16-.32v-.41l.06-.46.51-.46.78-.1.26-.27v-.37l.37-.11.23-.44,0-.37-.13-.62.68-.32.74.37.49.31.78,0-.27-.4-.27-.3.56-.28.5-.43-.47-.42-.17-.38.21-.27.6-.16.47-.37.33-.62.1-.52.52-.42h.08l.25-.35.38.18.89-.1.56-.12.81-.27v-.39l.19-.5.32-.68h.58l.34-.42-.31-.5-.16-.39,0-.39-.08-.38-.16-.59.08-.45v-.45l-.16-.45-.58,0-.56.32-.91-.21-.65-.2-.69-.5-.2-.36,0-.75.35-.34-.08-.42-1-.15-.17-.73-.17-.59-.11-.51,0-.54-.13-.57.1-.45.19-.54-.39-.35-.33-.29-.29-.24-.27-.29-.42-.32-.41-.49-.34-.65-.35-.45-.34-.5-.16-.48-.26-.56-.16-.47-.23-.69-.08-.59-.09-.56.1-.53,0-.53.1-.59.17-.58.07-.36.12-.35.1-.45.19-.58.2-.31.23-.46.43-.47.26-.39.53-.42.44-.27.5-.23.26-.62.3-.22.7.05.52,0H818l.36.15.67,0,.56-.08.41-.21.39-.21.38-.25.35-.19-.09-.49-.13-.38.48-.59-.48-.23-.19-.32-.44-.13-.28-.39-.2-.63-.19-.37-.15-.36.24-.6-.17-.5-.11-.61-.19-.41,0-.58.17-.4.39-.56.33-.67.48-.45.49-.28.37-.44.22-.66.28-.35.45-.56.72-.13.4-.43-.44-.07-.57.12-.6.33-.51.25-.5.13-.47-.18L820,2511l-.36-.26-.33-.39-.28-.42-.47-.39-.11-.56-.28-.46,0-.65.32-.57-.18-.31-.58-.28-.16-.4,0-.41.17-.41.09-.42.12-.41.61-.39.51,0,.46-.17.46.14.46-.06-.32-.57,0-.43-.56,0-.46,0-.47.15-.51,0-.49.11-.5-.07-.43-.18-.46.18-.37-.31-.39-.28-.4-.27-.38-.29-.15-.4-.11-.43-.19-.4-.24-.37-.18-.4-.07-.4-.08-.42-.25-.38-.1-.42-.1-.42-.08-.41-.19-.39.12-.63-.11-.42-.15-.41-.16-.41-.13-.41-.25-.38-.05-.4-.07-.42-.07-.42-.23-.38-.21-.39,0-.43.07-.42-.13-.41.16-.4-.48-.48-.26-.37-.3-.66-.2-.32-.11-.42.14-.41.07-.42v-.43l.16-.4v-.43l.18-.4,0-.43,0-.42,0-.43-.14-.4.33-.31.43-.25.08-.4.14-.4.13-.42-.34-.29-.31-.34-.43-.24-.45-.2-.47-.17-.47-.17-.5-.1-.45-.17-.26-.38,0-.42-.09-.42,0-.38-.12-.46-.09-.42-.18-.4,0-.42.12-.42-.07-.43,0-.42.13-.42.09-.42,0-.42.05-.43,0-.43.06-.42.08-.43.1-.41.18-.41.15-.41.11-.42v-.43l.07-.42.11-.42,0-.43,0-.43v-.42l0-.42.22-.39.15-.41.41-.52.14-.41.15-.41.16-.41,0-.43.15-.39.39-.28.42-.26.43-.23.43-.22.42-.24.29-.35.21-.4.14-.41.13-.41.19-.4.16-.41.17-.4.53-.46.44-.44.39-.28.48-.49.39-.28.31-.34.29-.36.22-.38.38-.55.42-.24.45-.19.44-.16.38-.3.35-.31.35-.32.38-.28.42-.25.43-.22.48-.16.42-.23.61-.37.43-.23.21-.38.31-.34.35-.31.18-.4.54-.46.24-.38-.1-.41.33-.3.5-.48.29-.36.09-.41v-.43l0-.42,0-.42.57-.32.26-.36.27-.36.24-.38.24-.37.32-.34.2-.39.48-.47.28-.36.33-.33.26-.36.25-.38.36-.3.41-.26.4-.27.4-.26.45-.2.43-.23.42-.25.43-.23.42-.25.27-.36.28-.36.13-.41.31-.32.42-.25.17-.4.37-.26.47-.17.42-.22.31-.34.34-.34.21-.36v-.43l.48-.5.25-.68,0-.36,0-.42,0-.36v-.07l.17-.4,0-.43-.14-.4-.19-.35-.48-.18,0-.42,0-.43,0-.17,0-.25v-.43l.1-.42,0-.44.26-.34.26-.37.18-.4.12-.42.33-.32.27-.37.12-.4.38-.28.43-.23.08-.07.28-.23.31-.35.28-.35.29-.36.43,0,.26-.85.16-.42.45-.51.36-.3.35-.32.32-.33.32-.33.41-.24.36-.31.38-.39.32-.33.5-.49.37-.29.45-.19.46-.19.39-.28.33-.33.42-.21.43-.23.39-.28.4-.26.41-.26.37-.28.37-.3.4-.27.4-.26.41-.26.4-.26.41-.25.41-.26.41-.25.41-.26.41-.25.41-.25.41-.26.42-.24.41-.25.45-.17.49-.11.49-.17.43-.4.5-.15.43-.19.39-.28.44-.21.37-.3.37-.28.49-.12.31-.34.57-.43.47-.16.49-.09.46-.18.45-.21.45-.2.41-.25.42-.23.45-.21.42-.24.38-.28.38-.29.36-.32.64.17.45-.2.47,0,.48-.17.45-.2.49-.12.49-.08.24-.38.58-.24.49-.1.48-.14.43-.23.43-.23.5-.1.5-.06.5-.06.47-.15.42-.24.46-.19.46-.18.47-.17.49-.09.48-.15.46-.19.47-.05.49-.13.5-.08.5-.08.42-.22.42-.25.47-.16.49-.12.48-.13.48-.14.48-.14.48-.14.48-.14.44-.22.42-.23.49-.12.49-.11.49-.12.46-.13.5-.47.44-.22.47-.13h.52l.42.21.5,0,.5-.16.38-.24h1l.37-.2.49-.11.5-.07.47-.15.48-.14.47-.17.33-.29.47-.5.47-.16.45-.19.41-.25.4-.27.42-.23.38-.29.38-.27.49-.13.37-.28.13-.42.19-.37.5-.06.35-.25.26-.37.29-.34.48-.16.51-.05.51,0,.48,0,.4-.28.38-.28.38-.29.42-.24.33-.29.28-.36.5-.06.45-.19.5-.05.44-.2.39-.29.4-.23.45-.12.42-.23.38-.28v-.85l.31-.57.4-.26.32-.27.13-.42.1-.42-.05-.42L909,2390l-.44-.21-.25-.37-.08-.43-.16-.4,0-.42-.18-.35-.32-.39,0-.43-.27-.34-.47-.15h-.49l-.39.27-.27.35-.47.17-.47.17-.46.18-.46.17-.41.25-.48.14-.43.21-.51,0-.48.13-.46.15-.5.07-.43.22-.5.07H899l-.49-.06-.45-.19-.46-.17-.43-.21-.45-.14-.51.08-.49.09-.51,0-.45-.17-.49-.15-.4.2-.48,0-.48.13h-1l-.39-.18-.49-.1-.45-.33-.21-1.06-.55-.38-.26-.38-.32-.32-.5-.13-.43-.2-.36-.32-.46-.07-.5,0-.52,0-.38.25h-.52l-.48.11-.5,0h-.5l-.51,0-.51,0h-1.52l-.5,0-.51,0-.49-.06-.46-.19-.47-.24-.35-.11-.49-.15h-.51l-.47-.16-.41-.25-.5-.06-.44-.21-.45-.2-.44-.19-.47-.13-.37-.3-.44-.21-.49-.12-.49-.1-.49-.12-.52,0-.16-.37-.2-.39-.06-.42-.11-.4.33-.39-.47-.16-.5,0-.4-.26h-.51l-.44-.18-.38-.29-.44-.21-.45-.19-.44-.22-.46-.16-.5-.1-.49-.1-.47-.16-.46-.17-.47-.16-.4-.25-.41-.26-.32-.35-.56-.38-.49-.11-.45-.2-.43-.22-.41-.23-.3-.35-.28-.37-.7-.1-.5,0-.49,0-.48,0-.46.07-1-.2-.93-.3-.45-.2-.48-.13-.42.23-.48,0-.42-.21-.2-.4-.27-.35-.13-.4-.19-.35.09-.43-.19-.37-.47-.16L852,2372l-.5-.05-.49.1-.5.05-.47-.13-.35-.3-.44-.22-.38-.28-.39-.28-.32-.33-.39-.27-.39-.28-.17-.4-.17-.4-.47-.13-.29.31-.41.52-.48,0-.43-.24-.46-.16-.43-.23-.39-.27-.3-.34-.37-.29-.44,0-.38.28-.49.11-.47.14-.46-.13-.31-.35-.38-.29-.21-.38-.18-.41-.25-.37,0-.39-.39-.24-.44-.17-.08-.42,0-.43.06-.42,0-.43,0-.42.08-.43v-.43l.09-.42.15-.41.2-.39.2-.4.6-.36.37-.3.18-.39.28-.26.18-.16.45-.2.39-.27.55-.43.45-.2.08-.41.12-.42,0-.43.11-.42.13-.41.05-.43v-.42l0-.43v-.43l.08-.43.37-.28.45-.2.46-.16.47-.16.45-.2.23-.36.32-.64.37-.2.39-.27.34-.32.35-.3.38-.28.4-.27.42-.23.46-.18.43-.22.44-.2.47-.16.5-.09.5-.06h.5l.5,0,.5,0,.5-.05.52-.05.46.08.33.33.4.27.62.25.44-.22.45-.17.44-.21.3-.34.47-.14.49-.08.31-.34.25-.37.39-.27.57-.37.42-.21.26-.37.13-.42.35-.3.46-.18.46-.17.39-.28.18-.39.14-.42.23-.37.36-.3.31-.34.34-.32.29-.35.27-.36.26-.37.33-.32.37-.29.36-.3.51-.48.4-.25.44-.2.47-.16.47-.15.47-.16.15-.07.3-.12.46-.18.47-.14.36-.3.35-.31.31-.34.44-.18.44-.2.4-.25.42-.25.39-.27.4-.27.46-.14.5-.08.48-.13.49-.06h.5l.48-.13.6-.27.38-.28.55-.43.49,0,.47.15.5.09.5.05.5,0,.49-.1.48-.12.42-.23.46-.18.5-.07h.49l.48,0,.5.06.46.17h.5l.48.11.5.08H887l.44.15.45.19.49.1.5.06.44.19.47-.15.64.17.82-.23.39.13.45.18.46.17.5.07.49.08.47.15.48.12.49.13.47.14h.5l.5.05.49.08.5,0,.5,0,.5.06.47.15.47.15.5.09.46.16.43.22.44.2.46.18.48.13.46.16.45.2.47.15.47.15.45.2.41.24.63.11.45-.2.46-.1.47.18.5,0,.45.16.36.31.26.37.51.46.4.26.31.34.49.48.2.39.15.42-.07.41-.21.39-.23.38-.26.37-.13.42-.31.33.37.32.48-.06.51,0,.47-.13.45-.21.38-.28.35-.3.5-.06.54.37.38.23.45.21.24.33.27.34,0,.43,0,.43-.06.43-.14.41-.16.41-.12.41-.18.4-.25.38.28.57.47-.08.19-.36.49-.11.5,0,.45-.21.41-.24.48.13.48.13h.5l.52,0,.33.29.22.4.43.51.46.21-.28.52-.5.07-.45.11-.37.28.09.38.38.25-.06.44-.56.45-.25.28-.51,0-.47.09-.15.41V2356l-.48.44-.19.38-.22.38v.43l.12.42.08.42.11.42.09.42,0,.42.15.41v.43l-.09.42-.16.41-.19.4-.16.4-.18.4-.27.37-.14.41-.1.42.07.42.12.42.06.42,0,.43v.43l.12.41.23.39.15.39v.43l.13.42.26.65.18.36.27.35.38.29.31.34.44.19.29.34.32.34.47.1.39.26.35.32.3.35.16.4.15.41.21.4.18.39.31.48.2.39.16.41.48.45.34.31.48.49.4.27.39.27.42.24.4.26.25.37.21.39.25.38.37.28.34.32.49.51.43-.07.43-.25.5.07.47.18.45.2.48.1h.51l.5,0,.51,0,.49-.08.47-.17.46-.18.47-.16.45-.19.46-.17.47-.16.48-.12.5,0,.49-.1.49-.12.49-.1.5-.08.5,0h.8l.51,0,.47-.15.33-.32.4-.26.43-.23.49-.11.47-.13.5-.11.49-.09.49-.08.5-.1.49-.09.49-.12.49-.11.5,0h.5l.51,0,.47.17.46.14.5-.09.49-.12.48-.14.47-.15.46-.18.46-.17.44-.21.44-.21.47-.17.5-.11.51-.08.47-.12.42-.46.49-.12.5-.11h.5l.5,0h.51l.49-.06.5-.09.5-.06.46-.18.48-.12.51,0h.51l.5-.05.49-.1.43-.2.4-.28.45-.19.49,0h.51l.49-.1.49-.1.5-.08.5,0,.51,0,.49.08.49.12.5.08h.5l.46-.17.42-.25.33-.33.47-.14.47-.16.45-.19.45-.19.49-.12.38-.27.4-.27.42-.24.3-.33.26-.37.39-.27.42-.24.43-.22.43-.23.35-.31.43-.23.4-.26.41-.25.34-.31.26-.37.2-.4.15-.4.13-.42.08-.42v-.43l-.1-.42-.15-.41-.12-.41,0-.43-.06-.41-.22-.38v-.43l0-.42-.08-.43-.12-.42-.13-.41.07-.42.28-.35.25-.37.19-.4.17-.4.21-.39.19-.39.15-.41.15-.42.16-.4.13-.41.09-.43.13-.41.08-.42.15-.41.21-.39.23-.38.23-.38.16-.41.16-.4.25-.38.28-.35.29-.36.3-.34.49-.49.4-.28.3-.32.12-.43v-.43l-.12-.41-.15-.41,0-.42-.18-.4-.2-.4-.2-.4-.16-.4-.1-.42-.09-.42-.12-.41-.17-.41-.14-.41-.15-.41-.06-.43,0-.42,0-.43,0-.43V2341l-.08-.42,0-.42v-.43l-.05-.43v-.85l0-.43,0-.43-.39-.5-.43-.21-.35-.31-.19-.39-.1-.42-.19-.39,0-.43v-2.57l0-.43-.08-.42,0-.43,0-.43,0-.43v-.86l0-.42,0-.43v-.43l.06-.42v-.43l0-.43.08-.42,0-.43,0-.43,0-.43v-.42l0-.43-.06-.43v-.42l.1-.42.1-.42,0-.43.06-.43,0-.43-.08-.42-.17-.4-.25-.38-.35-.28-.45-.12-.28-.36-.49-.44-.46-.2-.13-.38-.08-.42-.26-.37-.22-.38-.39-.28-.25-.37-.3-.33-.32-.34-.48-.5.19-.32.42.23.4.16.44,0-.14-.42-.2-.39-.4-.26-.35-.3-.43-.24-.33-.31-.2-.4-.1-.42-.08-.42,0-.43,0-.43v-.42l.28-.36.17-.4.28-.35.37-.3.46.12.41.24.26.37.27.35.28.36.38.25.1.42.14.42.24.37.3.35.29.35.21.38.11.42.16.46.23.37.29.35.49.49.32.3-.05.44.08.42.1.42.13.42,0,.42-.13.43,0,.41.14.42.17.41.12.41.06.43-.09.42-.11.42,0,.43v1.29l0,.42,0,.43v1.28l0,.43-.12.42,0,.42v.43l0,.43-.1.42-.08.42.06.42,0,.43,0,.43.06.43.08.42.06.42.47,0,0-.43,0-.43,0-.42,0-.43v-.43l0-.43,0-.43.07-.42.15-.41.12-.42.08-.42v-.45l0-.41,0-.42,0-.43,0-.43-.05-.43,0-.42v-.43l.08-.43.06-.42v-.86l0-.43,0-.43,0-.42,0-.43.07-.43.1-.42,0-.42-.07-.45-.07-.4,0-.43-.14-.58-.22-.38-.17-.4-.26-.37-.12-.41-.11-.42-.25-.38-.23-.38-.11-.41-.09-.43-.12-.42-.14-.41-.18-.39-.22-.39-.23-.38-.26-.37-.31-.34-.29-.35-.23-.38-.12-.43-.24-.35-.46-.17-.41-.24-.26-.38-.22-.38-.46-.5-.36-.31-.27-.36-.23-.38-.19-.39-.13-.42-.11-.42-.11-.42-.21-.38L971,2303l-.3-.35-.21-.39-.18-.4-.17-.4L970,2301l-.14-.41-.14-.41-.11-.43-.12-.41-.22-.38-.33-.33-.23-.38-.19-.39-.17-.41-.18-.4-.24-.38-.2-.39-.13-.41-.11-.42-.1-.42-.09-.42-.11-.42-.13-.42-.14-.41-.16-.4-.19-.4-.23-.38-.28-.36-.26-.36-.11-.42-.1-.42-.22-.38-.28-.36-.29-.36-.34-.32-.44-.17-.48-.12-.49-.12-.49-.06-.5,0-.5,0-.49-.09-.48-.1-.5-.05h-.5l-.5,0-.49.07-.49.07-.49.06-.48.11-.49.08-.5.06-.48.09-.46.18-.49.1-.48.09-.41.24-.45.19-.49.11-.48.09-.49.09-.49.1-.49.1-.44.18-.31.34-.32.33-.44.2-.45.19-.44.2-.44.2-.45.19-.45.18-.46.17-.46.18-.43.21-.4.26-.38.29-.38.28-.45.13-.48.07-.41.25-.36.31-.33.31-.33.32-.32.34-.29.35-.43.21-.39.27-.39.25-.5.06-.5.05-.47.14-.49.06-.51,0-.49.08-.17.36-.19.32-.46.15-.42.23-.37.39.15.34-.48.13h-.51l-.45.06-.76.3.23.4-.43.47-.38.3-.43.17-.5.05h-.51l-.47,0-.42.26-.46.14-.5,0-.48.13-.48.44-.49.11-.49.1-.49.09-.47.14-.44.2-.48.1-.43.23-.46.16-.47.14-.48.13-.46.16-.42.24-.49.12-.48.06H922l-.5,0-.49.05-.5,0-.49.1-.48.1-.48.13-.46.17-.48.1-.5,0-.47.14-.47.14-.49.09-.5.08h-.49l-.5,0-.5.07-.49,0-.45.12-.49.09-.49,0-.5,0-.5,0-.47.14-.49.12-.46.15-.47.14-.5.06-.49.1-.45.19-.45.19-.48.07h-.51l-.48.12-.49.05-.45.18-.44.2h-.49l-.5,0-.44.19,0,.38h.48l.5-.05.22.38.45.24.47-.09.5,0,.59.36.47.06.49.09.48.13h.5l.48-.09.63.15.47-.17.48-.08h.5l.4-.26.23-.35.5.1.48.13.49.08h.52l.08-.64.47-.14.5,0,.51,0h.52l.21-.29.46-.1.45.18.38.27.18.4.24.47.51-.08.48-.46.49.07h.46l.41-.19.45.23.5,0,.43.2.45.06.32.29.43-.21.49-.06.45,0,.42-.25.48-.07.33-.34.48-.1.49.09.53.4.5.05.22-.33.49,0,.48.12.48.13.4.25.61.29.43.23.47.12.5,0h.51l.39.25.22.38.29.34.5.1.41.24.29.33.46.48.28.3.33.34v.42l.06.42.24.37.22.39.1.42,0,.42.4.55.11.39.16.41.1.42,0,.43-.26.36-.39.23-.46.29-.45.18-.46.17.37.5.19.38.49.42.49.07.48.5.09.41-.15.41-.13.41-.1.43-.18.37-.15.39-.2.39v.42l-.2.4-.35.56-.41.26-.45.17-.43.09-.41.24-.44.22-.5.47-.4.5-.45.18-.47.5-.39.27-.45.51-.49,0-.41.16.15.43-.22.52-.41.26-.37.28-.42.16-.66.08-.21-.36-.46-.16-.49-.09-.5.05-.46-.16-.48-.1-.47-.11-.46-.18-.46.06-.47-.15-.49-.08-.48-.15-.47,0-.47.18-.29.32-.46.18-.48-.05-.47-.17-.44-.2-.45-.2-.5,0h-.5l-.39-.24-.53,0-.46.17-.49-.06-.32-.28-.49-.13-.36.27-.46.17-.49,0-.5-.08-.5-.05-.46-.19,0-.38-.43-.24-.6-.37-.49-.07-.24.38-.23.37-.46.16-.49.08-.51,0-.38.23-.47.27-.15.42-.42.24-.5,0h-.5l-.48.14-.35-.14-.39,0-.3-.33-.51.4-.43.11-.5.27h-.47l-.59.3-.49.08-.47.15-.5-.08-.6.28-.48.12-.3.34-.25.36H898l-.49-.08-.5-.05-.49,0-.47-.17-.47-.05-.43.19-.5-.05-.5,0-.48-.06-.47-.18-.4-.25-.35-.32v-.39l.47-.52,0-.38-.41-.28-.26.37-.2.39-.08.45-.19.35-.52,0-.36-.14-.43.05-.83-.46-.45-.17-.51,0-.5,0-.42-.2-.41-.26-.48-.07-.37.29-.4.24-.38.26-.45.19h-.5l-.41-.24-.41-.25-.48-.46-.46.15-.42.22-.48.12-.48.13-.49.11-.45-.08-.48,0-.4-.18-.2-.39-.15-.41-.19-.4-.06-.42v-.43l-.06-.43,0-.43.16-.4.57-.35.46-.16.47-.16.43-.23.37-.52.25-.36,0-.43-.1-.42,0-.43.41-.23.28-.36.32-.32.41-.25.37-.29.26-.36.2-.4.2-.4.14-.4,0-.43.07-.43.14-.41.2-.39.11-.42.1-.42,0-.43.08-.41.27-.36.3-.35.22-.38.31-.34.23-.38.6-.34.55-.45.46-.11.49-.09.42-.23.26-.36.33-.32.62-.25.4-.27.13-.39.73-.38.38-.28.44-.2.42-.24.26-.36.48-.5.34-.31.51-.47.37-.29.39-.25-.3-.39-.49-.07-.49.1-.48-.08-.49.11h-.49l-.5,0-.5.06-.94-.28-.52-.2h-.5l-.48-.07h-.51l-.49,0-.51.06-.42-.18-.45-.19h-.5l-.48.1-.44.2-.47-.16-.49-.09-.5,0-.5,0-.49,0-.5.06h-.5l-.5.05-.44,0-.33-.34-.49-.1-.48-.11-.5,0h-.5l-.5,0-.5-.06-.47-.13-.5-.05-.48-.11-.43-.22-.44-.2-.5,0-.49,0-.43-.23L873,2305l-.49-.11H872l-.49.1H871l-.49-.07-.5-.08-.49,0-.49-.07-.49-.13-.49,0h-.5l-.5,0-.5,0h-.08l-.41-.08-.46-.17-.45-.19-.43-.22-.41-.25-.41-.24-.47-.15-.48-.13-.45-.18-.43-.21-.48-.12-.46.14-.49.1-.48-.08-.48-.13-.48-.13-.46-.16-.42-.22-.5-.06h-.5l-.48-.09-.45-.2-.45-.18-.45-.18-.5-.07-.48-.1-.45-.19-.49-.08-.5,0-.46-.12-.3-.35-.31-.34-.31-.33-.36-.3-.38-.27-.4-.26-.41-.25-.39-.27-.33-.32-.35-.3-.38-.29-.39-.26-.43-.22-.43-.23-.34-.31-.38-.28-.42-.23-.45-.19-.39-.25-.4-.26-.4-.25-.33-.33-.41-.56-.24-.35-.49-.48-.35-.31-.25-.38-.49-.47-.48-.11-.35-.29-.39-.27-.29-.35-.48-.49-.34-.32-.23-.37-.12-.41-.37-.29-.32-.33-.22-.38-.21-.39-.24-.37-.24-.38-.21-.39-.19-.4-.2-.39-.27-.36-.27-.36-.19-.4-.14-.41-.12-.41-.19-.4-.2-.4-.11-.41,0-.43-.17-.4-.16-.41-.36-.55-.16-.39-.35-.45-656.88-.29.41,1,.19.4.15.41.12.41,0,.43,0,.43.06.43.18.4.3.33.39.27.38.29.43.2.5.09.44.19.43.24.37.28.31.36.09.4-.41.54-.3.36-.29.35-.18.39-.07.43v.43l0,.43.07.43.14.41.29.59.2.4.16.4,0,.44,0,.43.22.37.36.34.28.34-.12.65-.31.32-.47.06h-.54l-.5.05-.49.06-.49.1-.48.12-.46.16-.44.21-.42.23-.39.27-.39.27-.41.25-.42.22-.46.17-.5.07-.5,0-.5,0-.49.07-.47.16-.4.25-.34.32-.38.28-.43.23-.47.11-.5-.07-.49-.11-.48-.12-.48-.11-.5,0h-.5l-.5,0-.39.25-.37.29-.34.32-.28.35-.38.29-.37.28-.36.3-.37.29-.38.28-.39.27-.41.24-.44.21-.48.12-.51,0-.47-.08-.35-.32-.34-.32-.34-.31-.34-.32-.3-.34-.23-.38-.22-.39-.26-.37-.19-.39-.06-.42v-.87l-.06-.42-.46-.52-.43-.18-.5,0h-.51l-.5,0h-1.37l-.5.05-.49.07-.49.08-.5.08-.48.13-.4.24-.37.3-.38.28-.37.28-.34.32-.32.33-.31.33-.31.34-.3.34-.3.35-.27.36-.22.4.32.66.22.29.31.34.37.29.39.28.19.38v.43l-.26.37-.37.29-.39.27-.35.3-.46.5-.43.23-.43.21-.42.23-.39.28-.34.32-.3.34-.29.35-.28.35-.28.36-.23.38-.21.39-.2.39-.18.4-.17.41-.14.41-.11.42-.09.42-.18.4-.27.36-.28.36-.29.35-.29.35-.25.37-.21.39-.14.41-.21.68-.2.37.25.5.47.23.48.14.47.14.4.25.36.31.34.32.31.34.28.36.24.37.15.41.18.4.19.4.25.37.3.34.31.34.5.48.36.3.39.27.43.23.42.23.42.24.41.25.39.26.37.3.28.35.14.43-.07.39,0,.06-.27.31-.44.19-.47.17-.46.21-.25.34-.13.42-.14.42-.15.41-.16.41-.16.4-.2.4-.21.39-.13.41-.06.43v.44l.08.42.18.39.26.38.29.35.35.3.34.33.28.35.18.4.16.4.26.37.29.35.33.33.26.36.23.39.24.37.31.34.11.07.3.18.38.3v.5l-.45.22-.48.2-.46.18-.47.17-.4.25-.34.32-.39.27-.47.14-.5.1-.46.16-.4.25-.37.3-.38.28-.39.27-.39.28-.38.28-.37.29-.35.31-.33.32-.28.35-.28.36-.26.37-.26.37-.47.5-.39.27-.35.31-.28.35-.23.39-.19.4-.21.61-.11.42-.1.42-.08.42-.05.43,0,.43,0,.43v.43l.08.43.45.5.37.3.4.26.44.22.41.25.34.32.19.4v.43l-.38.64-.22.3-.49.49-.45.22-.34.3-.21.41-.05.42.1.41.17.42.18.4.17.4.18.4.18.4.19.4.2.4.2.39.22.39.24.38.25.37.22.39.2.39.12.41.06.43,0,.43,0,.43,0,.43,0,.43,0,.42v1.29l0,.43,0,.42,0,.43-.06.43-.08.42-.09.43-.15.66-.1.39-.14.41-.15.41-.16.41-.15.41-.14.41-.1.42-.08.42-.08.43,0,.43,0,.43v.43l0,.42.07.42.14.41.17.41.17.41.15.41.15.43.13.39.14.42.13.41.12.42.09.42.1.42.09.43.09.43.08.42.07.43,0,.43,0,.42v.42l-.07.42-.12.42-.14.41-.17.41-.16.41-.15.42-.15.39-.15.4-.16.41-.16.41-.15.41-.15.41-.16.4-.16.41-.15.41-.15.41-.15.41-.13.41-.11.42-.1.42-.08.42-.07.43,2.05,1.3,3.64,3,4.15,2.73,2.67,4.52,0,1.38.37,2.07,1.43,1.8.26,2.36h.53l.48,0,.51,0,.5.06.49.11.5.07.51,0,.5,0,.46.19.5.08h1l.48.1.45.18h.51l.51,0h1l.51,0,.51.05.49.08.48.13.47.17.47.18.46.19.48.11.51.05h.51l.5,0h.51l.5.05.5.09.52.08.46.16.24.36.43.53.41.26.37.3.34.33.34.32.4.22.48-.16.45-.22.48-.12.51,0,.36.25,0,.31v.13l0,.44.28.55.48.15.5.07.48.12.39.29.2.38.08.43.08.42.13.42.09.42v.43l-.05.43-.09.42-.15.41-.24.37-.29.36-.28.36-.28.36-.25.37-.07.42,0,.43-.13.42.07.42.17.41.23.38.26.37.27.37.3.34.3.35.16.41.06.42-.11.42-.15.41-.17.41-.1.42,0,.42,0,.36v.94l0,.42-.12.43-.31.3-.54,0-.47-.14-.38-.29-.28-.36-.45-.52-.35-.31-.38-.3-.42-.21-.52-.08-.42.26-.37.32-.3.35-.29.35-.37.3-.39.27-.42.24-.43.23-.43.23-.42.24-.42.25-.4.27-.42.24-.47.16-.42.25-.39.28-.45.2-.49.14-.5.06-.51,0-.49-.14-.38-.27-.36-.31-.39-.28-.41-.25-.41-.26-.56,0,0,.43,0,.43.06.43.09.42.09.42.07.64v1.29l-.1.42-.22.38-.28.37-.3.34-.32.34-.34.32-.39.26-.45.21-.43.23-.37.28-.31.35-.27.36-.2.4,0,.44.27.34.44.23.47.2.52.14.31.25-.1.46-.31.33-.25.38-.24.38-.24.38-.24.38-.23.38-.23.39-.23.39-.18.4,0,.41.14.42.24.38.43.22.47.19.63,0,.51,0,.5,0,.47-.16.47-.18.5-.09.51.05.5.1.49.12.47.17.43.24.38.29.3.34.28.36.27.37.22.38.17.41.07.42,0,.43,0,.44-.08.43-.21.37-.37.3-.35.33-.23.38-.19.4-.2.39-.47.51-.29.34-.18.41-.1.42,0,.43,0,.43.16.41.13.43.48.45.49.17.48.17.49.15h.5l.5-.07.5-.11.5-.1.51-.08.49-.1.49-.14.48-.15.46-.18.44-.22.4-.27.39-.28.37-.32.44-.11.51.09.51.12.49.14.44.55.11.36.1.42.09.42.08.43.07.42.1.42.11.42.11.42.1.43,0,.49.14.39.18,0,.43.12h.24l.3,0,.57-.06.5-.1.5-.11.51,0h.51l.46.16.38.3.29.35.14.41.15.42,0,.42,0,.43-.08.43,0,.42.15.41.07.43.23.56.48.09.52-.1.5-.06.51-.05.51,0,.51-.05.51,0,.51,0,.51,0,.51,0,.51.05.51.07.5,0,.51.06.51.07.5.08.5.11.48.14.47.19.37.28.32.34.31.34.32.33.24.39.1.41.06.43,0,.43.06.43,0,.42-.11.45-.17.43-.28.31-.47.16-.58.07-.56.06-.53.41.28.45.41.63.32.42.16.36-.44.34-.58.13-.54.05-.5-.09-.52-.08-.35.24-.3.66-.52-.22-.47-.16-.52,0-.51,0-.52.12-.24.34-.12.42-.09.45-.13.42-.46.48-.5.17-.51.06H186l-.48.08-.38.29-.27.37-.15.42-.45.5-.49.15-.34.32-.38.29-.27.36-.47.5-.35.3-.27.37-.18.4-.13.41-.12.42-.09.43-.19.38-.39.29-.38.29-.37.29,0,.43-.06.43,0,.42,0,.43v.43l-.06.42-.1.43-.1.42-.09.42-.09.42-.1.42-.1.42-.08.43-.08.42.15.41.38.26.47.19.42.25.4.26.43.25.44.26.45.16.45-.21.49-.16.49.12.33.31.27.36.27.37.22.39.1.42,0,.42,0,.43,0,.43,0,.43.08.44.16.4.48.5.41.28.43.23.5.08h1l.54,0,.51.1.37.24.26.38.18.43.1.42v.43l0,.43.05.42.29.37,0,.42-.05.22,0,.22-.2.38-.29.35-.32.35-.29.35-.23.39-.21.39-.22.39-.24.38-.3.34-.33.33-.29.36-.24.38-.2.39-.1.43-.17.4-.25.37-.31.34-.36.31-.37.3-.28.77-.23.39-.21.39-.2.39-.17.4-.14.42-.13.41-.12.42-.14.41-.17.41-.21.39-.22.38-.23.39-.24.38-.24.38-.23.38-.23.38-.24.38-.24.39-.23.38-.21.39-.21.4-.19.4-.2.39-.23.38-.26.37-.28.37-.3.37-.33.34-.36.3-.4.25-.45.19-.48.15-.49.13-.52.11-.51.1-.51.09-.51.09-.51.06h-.52l-.51,0-.49-.16-.32-.32-.34-.34-.45-.18-.46.16-.37.32-.37.31-.12.4,0,.44v.43l0,.43.13.42.3.34.29.36.08.41,0,.44,0,.43-.06.42-.16.4v.45l.3.29.54,0,.52-.08.5.05.46.21.35.31.3.35.3.35.28.36.26.37.21.4.11.42.09.42.15.41.37.31.25.34-.14.43-.1.43v.42l.37.3h.52l.4-.29.41-.05.09.42.19.38v.38l-.49,0h-.52l-.51.06-.52.09-.39.21-.21.41-.26.37-.23.35.11.43.13.42.09.42,0,.44-.15.4-.38.32-.46.05-.55-.16-.32.22-.16.45,0,.42.5.1.34-.16.46,0,.48.22.43.2-.35.33-.14.41,0,.43-.06.43v.41l.27.37.46.15.11.42.14.41.31.35.1.42,0,.43.06.42.06.43,0,.43,0,.43,0,.42,0,.44-.08.42-.34.33-.81.2-.44.07-.5.09-.46.19-.47.18-.49.16-.48.15-.34.32,0,.42.35.31.35.32.11.41,0,.43.12.41.34.32.43.24.37.28.08.43-.17.41v.46l.13.38.4.28.46.19.33.33,0,.43-.33.3-.32.34-.24.36.21.41.39.3.47,0,.5-.16.46-.19.45-.22.43-.23.41-.28.47-.09.5,0,.4-.29.37-.39.45-.19.51-.11.51-.09.5-.11.66-.32.41-.28.39-.29.37-.29.39-.29.41-.26.47-.19.51,0,.45.22.35.32,0,.43.25.36.33.34.33.34.33.33.33.33.37.3.41.28.48.06.51-.14.49-.14.48-.16.49-.15.5-.12.49-.14.46-.2.43-.27.42-.25.46-.15.51,0,.52.1.52,0h1l.53,0,.5.09.49.14.49.16.48.15.49.16.49.14h.48l.51-.09.52-.05.52,0,.5-.07.37-.29.37-.31.42-.26.49-.13.52,0,.52.06.51.06.52.05h.51l.49-.16.46-.19.47-.2.48-.07.52.07.5,0,.49.15.49.15.51,0,.42-.24.41-.27.49-.12.51-.07.52,0,.52,0,.52,0h.53l.47-.13.44-.24h.52l.52,0,.44.23.49.1.51.07.43.24.25.37.26.37.36.35.13.38v.44l0,.42-.15.42,0,.41.29.37.47.09.45-.22.5-.12.53-.07.42.18.34.33.4.28.52.1.4-.2.35-.33.4-.25.52-.08.5.08.49.17.51,0h.52l.52.05h.51l.43-.25.39-.27.8-.26.44-.09.43.17.33.33.42.25.24.38.24.37.32.34.42.24.51.09.49-.11.51-.1.5.08.5.13.5.1.51.09.51.1.5.11.43.24.38.36.28.3.29.35.24.38.39.28.43.24.43.28.31.31-.12.42.1.42.22.4-.19.38-.48.17-.08.43-.21.34-.42.26-.27.37-.14.41,0,.43.36.35.36.28.45.14.53-.07.52,0,.38.26.19.42.46.09.39.19.67.17.29.38.33.34.38.29.42.25.42.25.48.18.07.37-.17.41-.29.4-.21.35-.18.4-.18.41.09.41.2.41-.06.42-.13.41-.16.42-.23.37v.43l.25.38.28.37-.12.33-.49.16-.45.22-.12.41-.24.39-.44.16-.56-.09-.47,0h-.52l-.51-.07-.49-.15-.45-.2-.47-.14h-.53l-.38.26-.26.39-.43.24-.42-.16-.39-.3-.39-.28-.43-.23-.51-.12h-.51l-.39.22,0,.42-.07.45.07.4-.06.4-.4.29-.42.26-.28.36-.25.38-.2.4v.4l.39.33.06.38-.39.28-.52.05-.46.18-.38.31-.26.36-.14.42-.07.43.16.38.26.38.13.2.12.18.35.31.34.3.05.43.1.42.38.3.44.22.46.11.52,0,.3.27,0,.43.19.4-.06.4-.27.37-.42.24-.47.23-.08.37.07.45-.38.24-.44.34-.06.47.37.09.52.07.46.18.14.41-.11.63-.13.41v.43l-.05.43-.11.42-.1.42v.43l-.07.43-.46.18-.33.32-.37.3-.48.16-.46.18-.42.26-.4.28-.29.35-.28.36-.25.38-.23.39-.28.36-.13.4.13.42,0,.42-.25.38-.36.27-.51.12-.49.15-.51.1-.51.07-.52.07-.52.05-.48.19-.81-.09-.36-.2-.47-.17-.52-.06-.52,0-.54,0-.28-.24-.45-.23-.41-.26-.41-.26-.42-.27-.42-.25-.49-.16h-.5l-.34.35-.4.28-.48,0-.47-.19-.44-.23-.51-.25-.39-.18-.47-.15-.3-.35-.25-.39-.3-.33-.47-.19-.38-.3-.31-.35-.41-.26-.33-.33-.23-.38-.26-.37-.39-.29-.4-.28-.49-.15-.49-.14-.3-.34-.44-.25-.5-.14-.14-.41-.45-.21-.5-.14-.51-.08-.52-.06-.52,0-.51.11-.43.23-.41.26-.5.13-.48.16-.46.19-.51.12h-.52l-.52-.07-.44.21-.39.29-.38.29-.48.17-.48.17-.49.14-.52.06-.52,0h-.52l-.5-.13-.51.11-.38.28-.19.39-.32.32-.1.42v.43l.15.41-.15.34-.53,0-.52,0h-1.37l-.45,0-.46.21-.5.13-.51.08-.47.19-.45.22-.46.2-.47.19-.51.12-.45-.16-.44-.24L187,2595l.12-.42.19-.39-.15-.41-.22-.39-.36-.3-.48-.13-.54-.16-.47,0-.48.13-.49.11-.53,0h-1l-.51.06-.52,0-.53,0-.43-.23-.49-.15-.5.09-.51-.09-.48-.16-.42-.25-.43-.24-.34-.33-.49-.13-.58,0-.46.09-.43.23-.45.22-.36.31-.34.33-.37.3-.35.31-.26.38-.05.42,0,.43,0,.43.09.42-.36.21-.48-.2-.5-.1-.53,0-.44.2-.4.28-.39.33-.33.3-.5.09-.5-.1-.5-.13-.48-.18-.46-.2-.45-.23-.48-.1-.51-.11-.22-.37-.25-.36-.43-.24-.51,0-.44-.2-.17-.4-.46-.19-.51.07-.37.3-.13.44,0,.41,0,.42,0,.43-.05.44-.37.21-.51,0-.37-.3-.36-.32-.36-.31-.37-.3-.41-.25-.45-.21-.51,0-.5-.06-.41-.27-.46-.2L157,2594l-.51-.11-.34.33-.27.38-.47,0-.51-.16-.15-.36-.1-.43-.25-.37-.39-.28-.4-.43.17-.4-.19-.4-.22-.37-.43.08-.28.36-.43.22-.49-.12-.44-.24-.5-.19-.47-.11-.52,0-.5.14-.42.24,0,.43.07.43.07.42-.11.42-.26.37-.22.41.17.37.38.31.49.16.44.23.43.24.44.24.43.24.44.23.47.19.56.51.05.42-.48.06-.53,0-.17.37-.07.42-.3.44-.25.29-.24.38-.25.37-.2.39-.08.42-.31.32-.51.12-.51.14-.27.36.05.4.44.24.48.17.49.15.5.14.5.13.49.13.48.19.39.3.13.42-.28.32-.43.19h-.54l-.47.19-.52.08-.47.14-.15.36.4.28.39.28.44.25.3.33.17.41.19.4.21.39.38.3.37.3h.52l.52,0,.56-.07.48,0H155l.53,0,.51.07.5.13.51.07h.54l.45.13.16.41.07.43-.08.43.08.42.21.4H159l.49-.19.5-.1h.53l.4.27.29.38.25.35.31.35.36.3.11.42.07.42.23.39.5,0,.52.08.5.15.51.06.52,0,.52,0,.49.16.48.18.51.07.5.09.52-.07.51-.12.38-.31.31-.32.3-.35.31-.35.33-.34.34-.31.45-.22.48-.19.45-.21.38-.3.45-.21.51-.15.43.15.44.24.34.32.38.28.52.08.51.08.48.17.41.26.4.3.48.13.28-.37.26-.37.29-.36.52-.49.52-.06.28.35.12.41v.43l0,.43v.43l.1.42.24.38.32.34.46.21.5.14h.51l.51-.1.52,0,.51.12.49.09.41.28.46.2.48.19.46.2.35.32.47.13.47.16.43.24.49.14.49.15.53.1.43-.19.49-.16.51-.12.51-.09.45.22.48.19.5.07.51-.11.52-.09.52-.05.49.15.44.24.44.23.48.16.52,0,.53,0h.52l.51-.08.53,0,.36.24-.16.42-.15.41.06.43.24.39.37.3.79.14.17.35-.29.35-.45.24-.27.35v.43l0,.43-.27.35-.3.36-.12.41.2.39.45.22.45.23.48.18.41.25.35.32.37.31.34.32.17.41.12.4.4.28.42.26.4.28.34.32.37.32,0,.41.08.43.13.41,0,.42-.21.4-.2.39-.18.4-.18.4-.35.32-.43.23-.34.38.53,0,.52,0h.53l.53,0,.46.19.41.27.25.37.31.34.22.39.16.41.25.38,0,.42,0,.43.16.41-.25.37-.17.41,0,.44.48-.12.52,0,.5.13.54.08.45.13.17.4.53,0,.51.11.43.25.51.07.51-.08.53,0,.53.06.2.41-.19.39.33.35,0,.36h-.54l-.45.23.16.33.53,0,.49.13.45.26.34.32.23.37.18.41.16.42.19.4.32.33.45.23.45.23.39.28.32.35.31.34.21.39,0,.43.18.39.34.34.43.23.51.12.77.16.44.22.38.31.3.34.11.42v.42l0,.44,0,.42-.22.39-.25.38-.22.39-.19.4-.1.45.24.3.55.09.5.12.46.21.32.34.21.39.18.41.27.37,0,.42-.13.42-.07.43,0,.43-.32.32-.36.31-.29.37.07.42-.13.34-.16,0-.3.21-.41.28-.32.34-.35.32-.44.25-.5.14-.52.06-.34.41-.19.33-.32.34-.35.32-.41.25-.5.16-.49.17-.49.14-.52.07h-1.06l-.52.09-.48.17-.48.16-.45.22-.51.14-.45.19-.3.38.32.26.47.21-.25.29-.45.24-.38.29-.11.41.23.39.31.34.31.36.2.41,0,.4H210l-.46-.22-.39-.28-.39-.29-.51-.11-.48-.17-.52-.07h-2.64l-.53,0-.52,0-.52.07-.5.13-.52.08-.47.19-.35.33-.24.38,0,.42.24.39,0,.43,0,.43.11.41.23.38.15.43v.41l-.23.39-.4.48,0,.38.4.3.49.16.49.15.39.3.32.56v.44l.3.35.33.34.12.41.19.41.3.35.4.28.51.13.46.17.38.31.47.2.22.39v.43l.32.29.32.3-.28.34-.49.18-.49.15-.5.16-.48.18-.47.19-.47.2-.42.25-.42.27-.49.14-.53,0-.53,0-.53.08-.36.25-.53.06-.44.18-.3.38-.39.3-.45.25-.48,0-.52-.14-.51-.14-.52-.1-.53,0-.53,0-.52,0-.53.05-.53.06-.52-.06-.45-.21.1-.44-.37-.25-.51-.18-.37-.25-.42,0-.5.13-.51.11h-.53l-.31.27.25.44-.57,0-.45-.21-.49-.14-.53-.05-.51-.1-.53-.08-.53.25.09.45.1.42.07.37-.48.23-.48.19-.48.18-.51.1-.52.08-.5.14-.51.11-.53.07-.52,0-.5.14-.42.26-.48.17-.43.22-.37.3-.39.29-.42.27-.36.3-.23.38-.09.43-.09.42-.11.42.09.41.37.33.39.25.52.05h1.08l.5.1.34.34.08.4-.11.42-.09.42-.2.4-.3.35-.32.34-.33.34-.36.31-.46.18-.3.35-.28.38-.23.41-.2.39-.34-.25-.35-.38-.39-.27-.47.06.09.42,0,.43-.08.43-.05.43,0,.42.26.38,0,.42-.11.43-.34.33-.46.23-.11.38.27.37-.34.25-.36.29,0,.45.37.29.44.24.38.29.34.34.15.17.16.18.13.41-.07.42-.09.43-.09.42-.13.41-.23.39-.27.36-.46.22-.47.21-.43.25-.3.34-.11.43-.07.42.11.42.34.33.26.37.24.39.33.32.46.23.22.37.19.4.3.36.31.35.23.38.1.42.09.42.15.42.11.42,0,.42,0,.43-.08.43,0,.42,0,.43.4.28.45.24.4.26.17.41.25.38.35.33,0,.41-.28.35-.36.32-.32.34-.23.39-.2.4-.21.39-.2.39-.22.4-.28.36-.08.42.2.39.71.37.47,0,.53,0,.51-.11.52.08.52.1.52.07.51.15.43.24.42.24.5.08.43.25.43.26.45.24.46.21.46.22.4.28.36.32.4.28.42.32.29.31.19.41.25.37.37.3.21.39.22.4.23.38.2.4.18.41.14.41.07.42.13.42.27.36.37.32.37.3.35.32.31.36.05.41-.09.45v.83l0,.43-.06.43v.43l0,.42-.07.42,0,.45-.35.25-.54.07-.52.09-.46.22-.39.29-.34.35v.41l.09.42.12.42.14.42.25.48Z"/>
</g></g></g></svg>
