<svg xmlns="http://www.w3.org/2000/svg" viewBox="0 0 1948.2 3756.13">
<defs>
    <style>.cls-1,.cls-2,.cls-3,.cls-4{fill:#ccc;stroke:#646464;stroke-width:2.13px;}.cls-1,.cls-2,.cls-3{stroke-linecap:square;}.cls-1,.cls-2{stroke-linejoin:bevel;}.cls-1,.cls-3,.cls-4{fill-rule:evenodd;}.cls-3,.cls-4{stroke-linejoin:round;}
    </style>    
</defs>
<title>Recurso 2arg</title>
<g id="Capa_2" data-name="Capa 2"><g id="svg2"><g id="layer1">

<path id="path4137" class="cls-2" d="M1010.22,903.79l-1.64-.13-5-.41h-3l-8-.06.12-3-.16-2.87-2.21-.08-.79,0,1.37-6.69-.48.07-3.28.5-1.66-.72L983,890l-.37,0-.84-.11-6-1.15-1,.2-7.88,1.5-.55.1-3-1.53-1.08-.55-.82-.44-1.17-1.65-1.8-2.53,2.29-.66-.2-2-.53-.26-1.92-.93-4.23-.4-1.41.37-.08.17-2.57,5.23-2.26,0-4.53,0,0-3.53v-.88l-.57-1.17-.86-2.44-2.72-.35-.57-.07-1.32-.17-6.61-.91-6.15-.85-1.79-.26-6.34-.93-1.58-.22-1.58-.23-5.78-.82-.57.07-6.09.77-1.85.26-5.2,1-2.7.53-1.69.2-3.76.44-2.19.26-2,.28-5.54.75-2.39.39-5.32.85-2.61.27-6.21.63-1.76.18-7.5,1.54-2.38.48-1.78.35.63,3.79L847,890l.59,3.58,1.3,8,1.21,7.36.11.66,1.43,8.45-10.17,8.76-1.89,1.72L834,932.63l-3.81,3.19-3,.7-7.86,1.8-7.85,1.79-7.86,1.79-1.41.32-12,41.06-7.25,19.18L767,1044.55l0,4.11-.07,8.12-.07,8.13,0,6.23,0,2-.07,8.13v1.22l-.06,6.91-.07,8.13-.07,8.13-.07,8.13-.07,8.12,0,3.08,0,5-.07,8.12-.1,2.61,1,0h2.75l.33,0,.34,0,.35,0,.34,0,.76.1.35,0,.34,0,.34,0,.35,0,.34,0,.21,0h.14l.34,0,.35,0,.34,0h.55l.46-.1.32-.16.31-.14.35-.09.36-.09.29,0h.06l.28.1.24.22.21.28.19.31.24.34,3,1.53,4.71,2.59,7.22,3.88,7.22,3.88,1.8,1,6.37,2.66,1.61.84.25.14.09.06.15.09.25.15.25.15.25.15.25.15.25.15.25.15.25.16.24.15.23.18.2.21.18.23.15.24.14.26.13.26.13.26.13.26.13.25.16.24.2.21.24.17.22.19.2.21.19.22.18.22.2.21.22.2.2.2.17.24.05.28,0,.14,0,.14.13.26.17.24.17.23.16.24.09.27,0,.29,0,.28-.21.2-.18.23,0,.28,0,.29.06.28.16.24.09.27.16.22.22.2.19.22,0,.28,0,.29.13.25.19.22,0,.28,0,.29v.29l0,.29.1.26.14.26.09.27.07.29,0,.28,0,.28-.15.25,0,.28,0,.29-.09.28,0,.28,0,.29,0,.28-.08.28-.07.28,0,.29v.73l0,.13,0,.3.06.26.16.24.2.22.25.15.19.22.16.24.19.23.12.15.15.34.06.29.1.27,0,.28.1.27.17.23.21.2.14.25.12.27.1.27.09.27.06.28,0,.29.05.28,0,.29.1.27.06.27-.06.28-.06.29-.07.28-.09.27-.1.27-.08.28v.28l0,.29,0,.29,0,.28,0,.25.06.32,0,.28,0,.29,0,.28,0,.29v1.44l0,.29v.57l4.37-.13,4.16-.14,3.36-.11.29,0,.29,0,.29,0,.29,0,.29,0,.3,0,.28,0,.28.09.26.14.23.18.27.09h.88l.29,0,.29,0,.27-.11.28-.08.28-.09.28-.08.28-.07.29,0H840l.29,0,0,0,.23-.09h.28l.27.13.26.14.25.14.28,0,.29,0,.29,0,.29,0,.28.08.28.07.29,0h.3l.23-.17.21-.21.23-.17.28-.07h.3l.29,0,.28-.11.25-.12.26-.15.25-.15.25-.15.26-.14.27-.16.23.07.19.25.22.19.25.15.28.13.25.1.26.13.25.16.23.19.17.22.08.27,0,.3v.58l0,.28,0,.28,0,.29.06.27.06.29.06.28.08.28,0,.28v.29l0,.29-.08.27-.12.27-.15.24-.12.26,0,.3.11.25.3,0,.35,0,.16.13,0,.22-.12.37-.19.21-.23.18-.17.23-.18.24-.16.23-.15.25-.13.26-.12.26-.1.27-.08.28,0,.28,0,.29,0,.28,0,.29,0,.18,0,.1-.1.27-.11.27-.09.27,0,.29v1.44l0,.28.1.28.15.2.19.26.2.21.11.26v.58l0,.28,0,.29v.87l0,.28.06.29.14.24.17.24.12.27.16.23.25.14.27.12.27.13.28.07h.29l.29,0,.28.09.25.15.22.18.21.21.15.25,0,.28-.11.27-.12.28-.21.17h-.31l-.23.16-.21.21-.19.22-.19.22-.16.25-.15.24-.12.25.1.27.12.27.14.25.14.26.2.2.24.17.28.05h.88l.29.07h.31l.14.15v.29l0,.31-.1.27,0,.29-.11.25-.22.2-.19.22-.21.2-.14.25-.12.27-.13.25.19.2.2.2.22.19.23.2.22.2.2.21.21.22.18.24.13.25,0,.27-.08.29-.09.28-.11.27-.14.25-.2.21-.17.23-.12.26-.11.27-.1.27-.11.27-.1.19,0,0-.08.17-.17.35-.15.25-.2.2-.23.18-.18.23-.18.23-.22.19-.28.08-.28.1-.27.1-.27.11-.28.12-.22.18-.09.27-.06.29-.09.28,0,.28v.29l0,.28v.29l0,.29,0,.3-.09.24-.27.16-.25.15-.22.19-.14.25-.11.23-.09.31,0,.29,0,.3.08.26.21.2.23.19.21.22.19.22.07.27,0,.29,0,.29,0,.29,0,.29v.29l.08.27,0,.06.09.2.18.23.13.26,0,.28v.3l-.22.16-.26.13-.27.13-.26.13-.21.2-.18.22-.16.25-.12.26-.1.27-.1.28-.1.27-.12.26-.14.25-.13.26-.13.26-.11.27-.11.26-.08.28,0,.29,0,.29v1.44l0,.29,0,.29v.29l0,.28,0,.29v.28l0,.29v.29l0,.28,0,.29v.29l0,.29-.07.27-.08.28-.07.29-.09.27-.16.24-.18.23-.15.24-.13.26-.1.28-.1.27-.11.27-.1.27-.07.28,0,.28,0,.29,0,.29v.29l0,.28,0,.28.05.29,0,.28,0,.29,0,.29v.29l0,.29,0,.28,0,.29v.58l0,.28,0,.29,0,.28-.06.28,0,.28,0,.29-.07.28,0,.29,0,.28-.27.12-.24.16-.27.12-.18.23.13.23.2.24.19.22.19.22.09.28-.09.24-.29.12-.23.18-.21.19-.21.2-.21.21-.22.19-.21.2-.15.15-.22.3-.15.25-.13.26-.12.26-.1.27-.06.28,0,.29,0,.29,0,.28,0,.29,0,.29,0,.29,0,.28,0,.28,0,.29-.06.28-.06.28-.08.27-.13.26-.16.24-.19.23-.25.14-.28.11-.26.12-.25.18-.2.21-.07.27.06.27.12.3.21.19.27.13.28.12.24.16.12.24,0,.3,0,.29-.12.27-.1.27,0,.29v1.16l0,.29,0,.29,0,.28-.08.27-.14.26,0,.07-.09.2-.12.26,0,.08-.08.19-.08.27-.06.28-.06.29-.07.28-.12.26-.15.25-.18.22-.19.23-.14.25-.15.25-.2.2-.23.18-.24.18-.24.16-.22.2-.18.22-.16.25-.1.27v1.16l0,.28-.07.28-.11.27-.16.23-.18.24-.18.23-.14.25-.08.28,0,.29.06.28.08.28.09.27.11.27.11.27.08.27v.29l0,.29,0,.29,0,.28.07.28.09.28.11.26.15.26.1.27,0,.28v.29l0,.29-.16.24-.18.23-.19.22-.21.21-.25.14-.28.11-.28.09-.28.07h-.3l-.29,0-.28-.1-.26-.13-.24-.17-.21-.2-.18-.27h-.22l-.25.21-.25.15-.25.15-.23.18-.2.21-.21.2-.19.22-.17.23-.12.27-.11.27-.13.25-.15.25-.2.2-.2.22-.2.21-.22.19-.25.15-.26.14-.22.19-.33.24-.17.24-.2.21-.25.15-.24.17-.13.14-.24.31-.11.27-.07.28-.06.28,0,.46.45,8.12.45,8.19.18,3.28.27,4.84.4,6.95.07,1.16.46,8.11.21,3.68.24,4.09v.34l.26,8,.25,8.12.26,8.13.07,2.23.15,4.72v1.17l.08,4.19,0,3.89v.16l-.06,7.27.13,8.13,0,7.77v.35l0,8.13,0,8.12,0,8.13,0,8.12,0,8.13v0l0,8.09v3.23l0,4.89,0,8.13,0,8.12,0,8.12-.06,9.66,7.83,0,8.5,0h34l8.51,0h1.54l4.16-.08,4.72.09,4,0h3.06l5.44,0h1.91l6.59,0H924l4.84,0h20.3l6.94,0h25.52l8.5,0h.24l10,.09,0-3.83,0-2.81,0-5.32,0-7.75v-1.7l0-6.8,0-6.44v-3.18l0-8.12V1434l0-2.45,0-.57v-8.09l3.43-.1h38.87l4.11,0,.31-.46.25-.37.24-.16.24-.15.25-.16.24-.17.23-.16.22-.18.22-.2.2-.19.21-.21.19-.22.17-.22.18-.23.16-.23.16-.24.16-.23,2.53-4,1.23-1.86,2.46-3.73,2-3.15,2.86-4.44,1.64-2.43,4-5.83.63-1,4.47-6.88,1.16-1.78,4.11-5.5,1.09-1.63.41-.62,2.71-4,1.49-2.2,2-2.92,2.56-3.92,1.74-2.67,2.74-4.2,3.2-4.91,1.29-2,4.51-6.84,3.66-5.55.85-1.3,1.1-1.67,3.41-5.17,3.16-4.81,1.33-2.05,4.45-6.87,2.81-4.35.42-.65.21-.32,1-1.55,4.44-6.88,4-6.26.36-.64,1.32-2.39,2.48-4.48.16-.28.12-.21,4.16-6.76.53-.22.26-.13.25-.14.25-.16.25-.16.24-.16.25-.16.24-.16.25-.16.26-.14.26-.14.24-.15.23-.18.22-.2.2-.21.19-.22.18-.23.16-.24.15-.24.15-.26.13-.26.13-.25.13-.26.12-.27.14-.25.18-.22.21-.2.23-.2.23-.18.24-.16.23-.19.22-.19.18-.22.08-.28.07-.28.22-.18.23-.18.19-.23.19-.22.24-.16.26-.13.27-.13.24-.16.23-.18.22-.19.23-.19.21-.2.21-.2.23-.18.22-.2.14-.24.13-.26.22-.2.23-.18.09-.09.12-.11.22-.2.22-.2.2-.21.19-.22.14-.24.06-.28,0-.3,0-.28.06-.28.07-.28.05-.29.06-.28.06-.29,0-.28-.08-.27-.15-.26-.1-.27-.07-.22,0-.06,0-.28.07-.28.07-.28,0-.28-.08-.28,0-.28.07-.28.08-.28,0-.29v-.29l0-.28.07-.28.08-.27.08-.28.07-.28.07-.28,0-.28v-.59l.06-.27.2-.22.19-.22.08-.27v-.29l0-.29.09-.27.1-.27.08-.28.09-.33.06-.23,0-.29,0-.28,0-.28-.06-.29-.08-.28-.11-.27-.12-.26-.15-.25-.16-.23-.16-.25-.13-.26-.12-.26-.12-.26-.13-.27-.13-.25-.21-.22-.12-.23.12-.28.12-.26.13-.26.11-.27.09-.28.07-.27.07-.28.07-.28.09-.28.08-.27.08-.28,0-.28,0-.29,0-.28,0-.29,0-.29,0-.28,0-.29v-.28l0-.29-.08-.28-.08-.27-.08-.28-.07-.28-.06-.28-.06-.28,0-.29,0-.28V1244l0-.29v-.29l0-.28-.09-.29-.15-.23-.24-.17-.26-.15-.16-.22-.06-.29-.09-.28,0-.28V1241l0-.29-.11-.26-.16-.25-.18-.23-.22-.19-.24-.17-.25-.16-.25-.14-.26-.13-.26-.15-.25-.14-.26-.15-.26-.15-.24-.17-.17-.21-.12-.26-.08-.29-.1-.27-.1-.28-.1-.27-.1-.27,0,0-.08-.22-.1-.27-.09-.28-.1-.27-.13-.26-.15-.24-.17-.23-.18-.23-.19-.22-.2-.22-.19-.22-.19-.22-.17-.23-.13-.26-.13-.25-.11-.18,0-.08-.19-.23-.24-.11h-.29l-.31,0h-.3l-.29-.06-.28-.09-.28-.08-.29-.06H1144l-.29,0-.29,0h-.88l-.29,0-.29,0-.29-.07-.27-.09-.28-.11-.27-.11-.26-.12-.27-.13-.25-.14-.25-.16-.24-.17-.23-.18-.21-.2-.21-.19-.25-.17-.26-.16-.25-.17-.17-.2,0-.27,0-.31,0-.28.06-.29,0-.28,0-.29,0-.28,0-.28,0-.29,0-.28.06-.29.06-.28,3.53-2.25h1l.29,0,.27-.11.25-.17.22-.19.17-.23.12-.26.09-.28.06-.28,0-.29,0-.28v-1.18l0-.29-.06-.26-.24-.17-.3,0-.29,0-.29,0-.29,0-.3,0-.3,0H1142l-.29,0-.3-.11-.2-.17,0-.28.07-.31.17-.22.25-.18.23-.17.24-.17.23-.18.21-.21.15-.24.13-.26.1-.27.07-.29,0-.29,0-.28,0-.22,0-.07-.09-.28-.14-.24-.23-.18-.29-.12h-.11l-.17,0-.3,0-.28,0-.3-.09-.28-.12-.23-.15-.14-.26,0-.29.19-.2.27-.16.23-.18.23-.18.22-.2.18-.22.14-.26.11-.27.07-.28v-.28l-.09-.28-.1-.27-.08-.28-.07-.28-.07-.28-.07-.28-.06-.28-.08-.28-.07-.28-.08-.28-.07-.27-.08-.28-.08-.28-.08-.27-.08-.28-.09-.28-.08-.27-.09-.28-.08-.27-.09-.28-.09-.27-.1-.27-.09-.28-.11-.26-.11-.27-.12-.27-.12-.26-.13-.26-.12-.26-.13-.27-.14-.25-.14-.25-.16-.24-.17-.24-.18-.22-.2-.21-.2-.21-.2-.22-.2-.21-.2-.2-.21-.2-.21-.21-.2-.21-.18-.23-.16-.23-.17-.24-.17-.24-.17-.24-.17-.23-.17-.23-.18-.24-.17-.23-.17-.23-.17-.23-.17-.23.15-1.32-1.69-2.38-.4-.57-.46-1.53-1.67-5.6-1.2-4-1.52-.88-1.83-1.21-5.19-3.45-1.28-1.5-3.36-3.94-.15-.18-1-2.56-.79-2.1,1.26-5.12.15-.61.3-1.22-.51-1,.73-5.6,0-.38v-1.48l0-.29,0-.29,0-.29,0-.29,0-.29-.06-.29-.08-.28-.1-.28-.1-.28-.11-.28-.11-.27-.1-.28-.1-.28-.11-.27-.1-.28-.1-.28-.11-.27-.12-.27-.12-.27-.13-.26-.14-.26-.15-.25-.15-.21,0,0-.18-.23-.18-.23-.19-.23-.2-.23-.19-.22-.2-.23-.21-.21-.21-.21-.28-.26-.16-.16-.21-.22-.19-.22-.17-.23-.15-.24-.12-.26-.1-.27-.09-.28-.06-.28-.06-.3-.05-.29,0-.3,0-.3,0-.3v-.3l0-.29v-1.47l0-.3,0-.3,0-.29,0-.29.05-.29,0-.29.06-.29.07-.28.08-.29.08-.28.09-.28.09-.28.1-.28.1-.28.09-.28.09-.28.09-.28.09-.28.08-.28.1-.29.1-.28.08-.29.07-.28,0-.29v-.29l0-.29v-.29l0-.29,0-.3,0-.29,0-.29,0-.3,0-.29-.1-.59-.05-.29,0-.29-.06-.29-.06-.29-.06-.29-.07-.28-.07-.28-.08-.28-.1-.28-.11-.28-.11-.27-.13-.27-.13-.26-.13-.27-.13-.26-.14-.27-.13-.26-.14-.26-.15-.25-.15-.26-.15-.25-.15-.26-.16-.24-.16-.25-.15-.25-.16-.26-.15-.25,1.15-1.06,6-5.51,3-2.76,1.26-1.16.71-2.26.92-2.92,1-3.22.47-1.63,2.25-7.81.19-.69.94-3.27.52-1.8.58-2.06.67-2.41,1.51-5.42.19-.71,2-7.13.17-.63,2-7.18,2.24-7.82,1.16-4,1.06-3.77,1.74-6.15.47-1.67,2.21-7.82.24-.85,2-7,1-3.66.88-4.24.06-.28.1-.49.18-.85,1.32-6.33.26-1.26-4.58-1.41-1.42-.24-.59-.09-8-1.32.42-5.44-2.63-.38-1.76-.26-2.31-2.61-1.9-2.1-2.62-2.89-2.62-3.3-.67-.85.15-1-1.86-5.67-.72-2.4-1-3.21-1.2-4.62-.23-.87-1.15-.5-5.93-.06-3.79,0-4.28,0-3.57,0-4.51,0h-5.73l-2.34.06-2.16.05-.11-.28-.12-.27-.14-.26-.15-.25-.21-.2-.28-.1-.28-.1-.2-.19-.16-.26L1081,963l-.15-.26-.16-.24-.21-.2-.24-.18L1080,962l-.23-.18-.23-.18-.24-.16-.27-.11-.22-.2-.19-.23-.13-.25-.08-.29,0-.3v-.32l-.12-.22-.28,0h-.19l-.4-.13-.22-.2-.09-.26,0-.31,0-.29,0-.29,0-.29,0-.29v-.3l0-.3v-.29l-.14-.26-.25-.22-.12-.21.23-.16.26-.19.13-.27L1077,955l-.15-.26-.2-.21-.23-.21-.12-.27.16-.19.3-.11,0-.25-.08-.3.06-.29.07-.29-.15-.24-.18-.23.11-.26.25-.18.3-.1.17-.18,0-.3,0-.28.21-.22.17-.24-.21-.22-.12-.22.2-.23.15-.24-.1-.28-.14-.28-.15-.18-.15.3-.2.1-.26-.17-.25-.19-.21-.21-.26-.19.11-.17.2-.2-.12-.29v-.3l.15-.25.18-.23.07-.3,0-.3.12-.22.32,0,.14-.26-.07-.28-.15-.26-.22-.26-.19-.23.47-.09.27-.12.24-.16.14-.25.12-.27.14-.26.09-.28,0-.29,0-.3.09-.28.12-.27.13-.26.14-.26.14-.25.11-.28,0-.18,0-.08.16-.25.28-.07.13-.27.13-.28,0-.24-.21-.2-.06-.3-.17-.24-.08-.23.08-.29,0-.3,0-.3v-.28l-.23-.19-.22-.21-.15-.24.1-.29-.06-.23-.21-.21-.11-.28-.09-.28-.06-.3-.16-.19h-.31l-.3,0h-.28l-.22-.2-.29-.05h-.29l-.28.12-.27,0-.28,0-.28.07-.29,0-.28-.11-.27-.1-.26.1-.27.13-.29,0-.25-.15-.23-.19-.23-.18-.25-.15-.28-.08-.31,0-.25-.09-.06-.29-.05-.31-.23-.1-.32,0-.28-.08-.21-.19-.21-.22-.24-.17-.24-.16-.12-.14-.14-.19-.1-.15-.17-.24-.22-.17-.3,0-.27-.09-.2-.2-.18-.23L1068,931l-.17-.25-.16-.25-.16-.24-.16-.25-.14-.26-.13-.26-.13-.26-.13-.27-.21-.44-.06-.52-.12-.25-.24-.17-.1-.28L1066,927l-.27-.12-.23-.21-.16-.24,0-.3v-.31l-.22-.15-.17,0-.13,0-.28-.07-.27-.13-.23-.19-.16-.25-.12-.28-.13-.27-.13-.27-.13-.27-.12-.27-.13-.27-.29-.08-.29-.08-.23-.16-.19-.23-.26-.14-.28-.11-.28-.09-.29-.06-.28-.1-.26-.13-.25-.17-.27-.12-.3,0-.22-.18-.12-.27-.09-.29,0-.3,0-.3,0-.29v-.9l0-.3-.08-.28-.14-.27-.09-.29-.14-.26-.17-.24-.16-.26-.17-.24-.2-.23-.19-.23-.21-.21-.21-.22,0-.28,0-.31-.12-.26-.27-.14-.28-.08-.28-.1-.25-.18-.16-.24-.13-.27-.12-.28-.08-.29v-.3l0-.29v-.61l-.08-.28-.16-.26-.16-.25-.15-.26,0-.3-.1-.27-.11-.28v-.3l0-.3v-.3l.07-.3.13-.26.19-.24.2-.21.22-.21.25-.16.27-.13.25-.15.3-.05.27-.1.22-.2.24-.19-.82-.07-4.24-.34-3.77-.31-6.41-.53-1.59-.13-8-.62-8-.63-8-.63Z"/>
</g></g></g></svg>
