<svg xmlns="http://www.w3.org/2000/svg" viewBox="0 0 1948.2 3756.13">
<defs>
    <style>.cls-1,.cls-2,.cls-3,.cls-4{fill:#ccc;stroke:#646464;stroke-width:2.13px;}.cls-1,.cls-2,.cls-3{stroke-linecap:square;}.cls-1,.cls-2{stroke-linejoin:bevel;}.cls-1,.cls-3,.cls-4{fill-rule:evenodd;}.cls-3,.cls-4{stroke-linejoin:round;}
    </style>    
</defs>
<title>Recurso 2arg</title>
<g id="Capa_2" data-name="Capa 2"><g id="svg2"><g id="layer1">

<path id="path50" class="cls-2" d="M1464.2,626.24l.15-.27.14-.27h0l.3-.06.28-.09.28-.09.29-.07.29-.07.28-.07.28-.09.28-.09.28-.11.27-.1.28-.09.29-.1.27-.1.27-.13.26-.14.25-.16.25-.16.25-.16.25-.16.25-.15.26-.16.26-.14.26-.13.27-.12.54-.26.26-.14.27-.11.29-.06h.88l.3,0h.3l.28.11.28.34.28.42.18.23.1.13.43.13.25-.16.25-.16.22-.15,0,0,.21-.21.23-.19.28-.09.28-.07.3,0,.29,0,.29,0h.09l.21,0h.59l.29,0,.29,0,.29.07.28.07.29.07.28.07.29.06.29,0,.29,0,.3,0,.29,0h.29l.3,0h.58l.3,0,.13,0,.15,0,.29-.07.29-.07.29,0,.29,0,.29,0,.29,0,.3,0,.29,0h.58l.3,0,.29,0,.3,0,.29,0,.29,0,.29,0,.29,0,.3,0,.29,0,.29,0,.29,0,.29,0,.1,0,.19,0,.29,0,.29-.05.22,0h.08l.29,0,.29-.05.28-.07.29-.06.29-.07.28-.06.29-.07.29-.06.28-.07.29-.07.29-.07.28-.07.29-.08.28-.09.27-.11.27-.12.27-.12.28-.11.27-.11.28-.1.28-.09.29-.06.29,0,.25,0H1500l.29,0h.41l.44-.12.65-.14.5-.16.49-.18.6-.15.46-.12.46-.17.49-.22.6-.09.38-.12h.61l.3,0,.41-.07.24,0h.76l.42.11.37.13.58.22.45.39.67.29.2.17.53.34.44.09.77,0h.53l.75-.11.68-.13.65,0,.53,0,.71-.09h.47l.92-.12h1.1l.5,0,.38,0,.63,0,.41-.05.13,0h.06l.29,0h.22l.37,0,.29,0,.29.05.29,0,.3,0,.29.05.29,0,.29,0,.29.06.28.06.29.06.29.06.29.06.29,0,.29,0,.29,0h.59l.29,0,.29,0,.29-.06.29-.07.11,0,.68.21.59.28.46.15.63.27.16,0,.41.23.43.33.4.31.24.27.47.24.56.17.36,0,.75,0h.65l.75-.06h.58l.62,0,.62,0h1.06l.44.07.52.29.48.3.27.2.49.38.17.29.25.35.27.49.27.56.15.23.18.3.13.5.16.23.25.27.21.26.07.22h.1l0,0h0l0,0h0l0,0,.18.08.27.1.28.09.29.07.29.07.28.06.3.08.29.09.29.08h.05l.23.05.28,0,.25-.11.23-.23.27-.12.28-.09.29-.08.29-.05h.37l.9.24h3.61l0,0h.09l0,0,.05,0h0l0,0,0,0,0,0,0,0,0,0,0,0,0,0,0,0,0,0h0l0,0h0l0,0h.29l.05,0h0l0,0h0l0,0h0l.05,0,0,0,0,0,0,0,0,0,0,0,0,0,0,0,0,0,0,0,0,0,.05,0,0,0,0,0,0,0,0,0,0,0,0,0,0,0,0,0,0,0,0,0,0,0,0,0,0,0,0,0,0,0,0,0,0,0,0,0,0,0,0,0,0,0,0,0,0,0,0,0,0,0,0,0,0,0,0,0,.05,0,0,0,0,0,0,0,0,0,.05,0,0,0,0,0,0,0,0,0,.06,0,.05,0,0,0,0,0h0l0,0,.05,0,0,0,0,0,0,0,0,0,0,0,0,0,0,0,0,0,0,0,0,0,0,0,.05,0h0l0,0,0,0h0l.05,0h.09l0,0,0,0,0,0,0,0,0,0,0,0,0,0,0,0,.05,0,0,0,0,0,0,0,0,0,0,0,0,0,0,0,0,0,0,0,0,0,0,0,.05,0,0,0,0,0,0,0,0,0,.05,0,0,0,0,0,0,0,0,0,0,0,0,0,0,0,0,0,0,0,0,0h0l.05,0h.14l0,0h0l0,0h0l0,0h0l0,0,0,0h0l0,0,0,0h0l0,0,0,0,0,0,0,0,0,0,0,0,0,0,0,0,0,0,0,0h0l.05,0,0,0,0,0,0,0,0,0h0l0,0,0,0,0,0,0,0,0,0,.05,0,0,0,0,0,0,0,0,0,0,0,0,0,0,0,0,0,0,0,0,0,0,0,0,0,0,0,0,0,0,0,0,0,0,0,0,0,0,.05,0,0,0,0,0,.05,0,0,0,0,0,0v.35l0,0,0,0,0,.05,0,0,0,0,0,0v0l0,.05,0,0,0,0,0,0,0,0,0,0,0,0,0,0,0,0,0,0,0,0,0,0,0,0,0,0,0,0,0,0,0,0,0,0h0l.05,0h.09l0,0h2.29l.05,0,0,0,0,0,0,0h.1l0,0h1.17l.05,0h.1l0,0h0l0,0,.05,0h0l0,0h0l0,0h.14l0,0h0l0,0,0,0,0,0,0,0,0,0,0,0,0,0,0,0,0,0,0,0,0,0,0,0,0,0,0,0,0,0,0,0,0,0,0,0,0,0,0,0,0,0,0,0,0,0,.05,0,0,0,0,0,0,0,0,0,0,0,.05,0h0l0,0,0,0h0l0,0h0l0,0h.1l.05,0h.14l0,0h1.94l0,0h.09l0,0h0l0,0h0l.05,0,0,0,0,0,0,0,0,0,0,0,0,0,0,0,0,0,0,0,0,0h.29l0,0,0,0,0,0,0,0,0,0,0,0,0,0,0,0,0,0,0,0,0,0h0l.05,0,0,0,0,0,0,0h0l.05,0h.09l0,0h5.66l0,0h0l0,0h.05l0,0,0,0,0,0,0,0,0,0,0,0,0,0h.77l0,0h.2l0,0h.1l0,0h0l0,0,0,0h0l.05,0,0,0,0,0h0l0,0h0l0,0h.1l0,0h.19l0,0h.1l0,0h0l0,0h0l0,0h.05l0,0,0,0,0,0,0,0,0,0,0,0,0,0,0,0,0,0,0,0,0,0,0,0,0,0,0,0,0,0,0,0,0,0,0,0,0,0,0,0,0,0,0,0,0,0,0,0,0,0,0,0,0,0,0,0,0,0,0,0,0,0,0,0,0,0,.25-.07.29-.06.29,0,.29,0,.3,0h1.17l.3,0,.29-.05.29,0h.29l.29,0,.3,0,.29,0,.31,0,.21,0,.21,0,.24.18.13.08.25.14.26.14.26.15.18.11.08,0,.25.16.24.17.23.17.26.17.25.16.27.13.27.11.28.1.27.11.28.12.27.11.28.11.27.12.27.12.26.14.26.14.26.14.27.14.26.13.26.14.2.12.06,0,.25.16.24.17.25.17.24.17.25.17.25.16.25.16.25.16.49.37.25.16.26.11h.28l.3-.09.29-.07.29-.05.3,0,.29,0h.29l.29,0,.29,0,.3,0,.29,0,.29,0,.3,0,.29,0,.29,0,.29.06.28.08.29.09.27.11.27.12.25.15.22.19.28.09.29.06.29.07.29.08.28.1.11,0,.16.07.28.1.28.11.27.11.28.09.28.09.29.07.14,0,.15,0,.29,0,.29,0,.29,0,.3,0,.29,0,.47,0h3.24l.29,0,.3,0,.29,0,.3,0,.29,0,.29,0h.3l.29,0,.84-.24.29,0,.29,0,.29,0,.29,0,.15,0,.13,0,.28-.1.26-.13.27-.12.28-.08.29-.05.29-.06.28-.08.28-.07.28-.06.21-.1.06,0,.26-.14.24-.17.21-.21.23-.18.22-.2.21-.21.22-.2.21-.21.21-.21.21-.21.23-.18.23-.19.21-.21.22-.2.24-.17.26-.13.25-.16.24-.17.24-.17.25-.15.27-.14.27-.09.26-.13.25-.15.27-.11.28-.11.27-.1.28-.08.29-.06.28-.07.29-.06.29,0,.29,0,.28-.07.29,0,.29,0,.29,0,.29,0,.29.05.28.07.28.07.29.08.28.08.25.14.23.2.18.24.22.18.27.14.27.11.28.08.28,0,.28.11.25.15.22.2.19.22.2.23.23.18.24.18.25.15.24.17.23.19.24.17.22.2.24.16.25.17.22.19.24.17.23.18.24.18.24.16.25.16.26.15.25.14.25.17.24.17.24.17.24.17.25.15.28.11.26.12.16.24.23.18.25.16.25.15.2.22.24.18.24.17.24.17.26.15.25.14.28.09.27.12h.29l.28.07.28.1.28.06.29,0h.29l.29,0h.59l.23,0,.28-.09.25-.15.32-.16.18-.08-.15-.27-.17-.26-.14-.27,0-.28,0-.3.09-.31.07-.3,0-.31,0-.32.09-.29.15-.24.2-.21.23-.19.25-.17.25-.17.23-.13,0,0,.26-.15.26-.14.28-.12.29-.09.28-.06h.29l.29.08.29,0,.29,0,.14,0,.15,0,.12,0,.46-.09.29-.05.3,0,.29-.05.29-.06.29-.06.28-.06.29-.06h.06l.23,0,.3,0,.29-.06.28-.08.27-.12.25-.15.25-.17.25-.16.26-.15.27-.11.28-.1.29-.08.28-.09.28-.09.29-.07.16,0,.14,0,.3-.08.29,0,.26,0,.23.17.21.23.21.23.24.2.25.16.27.12.28.09.29.07.28.08.28.11.26.14.25.16.23.19.24.18.23.2.22.21.19.22.17.24.14.27.14.28.15.26.19.24.2.23.16.25.11.28,0,.22.08.38.09.29.14.27.16.25.17.25.16.26.15.27.14.26.15.27.14.26.13.28.13.27.13.28.13.27.14.27.17.25.18.24.18.24.19.24.17.25.16.26.15.26.14.27.15.26.15.26.16.26.19.24.19.23.18.24.18.24.15.26.1.29.12.28.16.26.17.26.18.25.09.09.11.13.22.2.25.14.27.1.3.07.3.06.28.08.26.07h0l.28.08.27.12.26.16.25.17.24.19.25.18.25.15.26.1.27,0h.31l.3,0,.3,0h.3l.29,0,.3,0,.3,0,.29,0h.29l.29,0,.29,0,.29-.08.29-.08.28-.09.27-.11.27-.12h0l.24-.11.27-.12h0l.24-.1.27-.12.27-.14.26-.14.25-.17.24-.18.22-.2.19-.22.19-.24.17-.26.15-.26.12-.28.08-.29,0-.3,0-.31,0-.3,0-.31,0-.31.06-.3.11-.27.15-.25.19-.24.2-.24.2-.22.21-.22.22-.2.23-.2.22-.19.23-.2.23-.19.23-.19.23-.2.21-.21.19-.23.18-.24.18-.25.18-.24.19-.23.2-.23.2-.22.19-.24.18-.24.15-.25.13-.28.11-.28.11-.29,0-.1.07-.18.12-.28.12-.29.11-.28.11-.28.09-.29.09-.29.09-.3.07-.3.06-.3,0-.3V643l0-.3-.06-.3,0-.31-.06-.59-.06-.3,0-.31v-.93l0-.31,0-.3.08-.28.13-.26.14-.17.06-.06.22-.22.24-.19.23-.19.24-.2.24-.19.25-.17.25-.14.27-.11.28,0,.3,0,.3,0,.3,0,.3,0h.61l.3,0,.29-.05.27-.09.24-.15.22-.18.2-.22.09-.11.11-.12.18-.25.11-.14.08-.11.2-.24.2-.22.23-.19.24-.17.26-.16.26-.15.24-.17.23-.19.21-.21.21-.22.2-.23.19-.23.17-.25.15-.26.14-.27.13-.27.13-.28.24-.56.12-.28.16-.25.18-.25.19-.24.19-.23h0l.2-.21.22-.2.23-.17.26-.14.28-.13.27-.13.26-.14.25-.16.25-.16.25-.15.27-.14.27-.11.1,0,.17-.07.28-.1.28-.1.28-.1.28-.09.28-.1.28-.09.16-.06.12,0,.28-.1.28-.09.28-.09.28-.08.28-.09.29-.09.28-.08.29-.07.28-.06.3,0,.29,0,.29-.05.28,0,.29-.07.29-.07.55-.13h.3l.18,0h.12l.3,0,.29,0,.26.09.24.17.22.22.22.22.25.16.27.09.3,0,.29.06.27.11.26.15.25.16.24.16.25.18.24.17v1.55l-.14.23-.27.15-.24.18-.21.21-.2.23,0,.29,0,.32.13.27.07.29,0,.31,0,.29.19.24.14.26v.3l0,.31v.62l0,.3-.1.28-.14.27-.18.25-.18.25-.13.27,0,.3,0,.31-.06.6-.09.29-.1.29-.19.23-.18.24-.19.23-.25.17-.25.17-.22.2-.11.27v.62l0,.3.06.3.05.3v1.55l.07.28.18.23.23.2.24.19.25.17.24.17.21.21.16.26.14.27.11.28.11.28.13.28.13.28.08.29,0,.3,0,.3.08.3.09.29.12.28.13.28.15.26.18.24.25.17.23.19.14.26.12.29.13.27.21.21.24.18.25.17.24.17.25.17.21.13.27.21.19.24.19.23.23.19.25.17.24.18.19.22.12.49,1,1.95,0,.05,1.48,1.8.19.23.07.09,1.35,2.7.83,1.66,1.85,4.43.57,1.31,1.36,3.17,0,.07,2.42,3.84.37.59,1.23,2.33.26.5.06.15.76,1.88.14.36.55,1.52.34.91,0,.31,0,.31-.09.28-.17.25-.2.23-.2.23-.15.26-.12.28-.16.26-.14.27-.1.28,0,.31,0,.31.09.29.14.26.2.23.18.25.16.25.15.27.15.27.15.28,0,.09,0,.19v.29l0,.3-.08.3-.08.3-.08.3,0,.3v1.84l0,.3.08.29.12.28.16.26.18.24.19.24.18.24.19.24.15.26.08.29.06.3.06.3.08.3.1.3,0,.29-.07.29-.12.28-.13.28-.1.3-.08.3,0,.31.08.27.14.27.14.21,0,0,.18.26.18.25.18.23.19.24.18.24.15.27,0,.3,0,.29.1.29.14.27.17.24.21.22.21.22.17.25.17.25.2.22.23.19.24.19.22.19.23.2.33.15.46.09.2,0,.7.36.2.22.24.16.29,0,.27.12.25.14.25.17.22.19.19.23.1.18,0,.08.15.25.2.22.2.22.12.27.07.29,0,.3,0,.3-.11.28-.12.27-.16.26-.14.26-.07.29v.3l.11.28.17.25.19.22.24.18.26.12.28.08.29.06.29,0h.31l.26,0,.28.1.26.16.13.23,0,.32,0,.29,0,.3v.3l.08.29.1.29.16.24.22.2.24.17.26.13.28.08.29,0,.29,0h.3l.22.17.19.24.21.21.27.14.25.14.17.23.09.3.07.3.15.21.32-.09.24,0,.15.24.13.29.17.25.24.18.25.15.26.13.2.22.18.23.2.23.23.18.27.09.2.23.19.22.19.23.17.26.21.17.3,0,.28.07.38.23,0,.3v.3l0,.3,0,.3v.3l0,.3,0,.3,0,.3,0,.3,0,.3v.3l0,.3,0,.29-.09.29-.13.26-.19.23-.2.23-.24.15-.29.07-.27.1-.25.15-.24.17-.24.17-.24.17-.24.18-.23.18-.22.19-.21.22-.2.21-.21.21-.21.21-.22.2-.22.2-.22.19-.2.22-.18.23-.19.24-.21.2-.23.18-.25.17-.24.17-.18.22-.13.29-.12.27-.2.2-.25.15-.27.12-.28.11-.27.12-.27.13-.27.11-.28.07-.28,0h-1.47l-.28.05-.28.07-.28.09-.29.07-.28.06-.29,0-.29.05-.28.09-.26.13-.25.16-.24.16-.24.17-.25.17-.24.17-.24.17-.24.17-.24.18-.2.2-.17.25-.12.28,0,.29,0,.31.09.28.17.25.18.23.19.24.21.2.24.18.24.17.25.15.27.11.29.06.29,0h.88l.27.08.26.13.26.16.25.15.26.15.24.16.24.17.2.21.19.23.2.23.18.23.19.23.19.22.19.23.19.23.2.22.22.2.23.18.26.14.26.13.28.1.27.1.27.13.24.16.24.17.24.18.23.18.24.18.21.2.19.23.18.24.17.25.15.25.1.28,0,.3,0,.3.06.3,0,.3,0,.29-.07.29-.09.29-.08.29-.08.29-.09.28-.09.29-.1.28-.12.27-.13.27-.13.27-.14.27-.13.26-.11.28-.06.29-.05.3,0,.3-.07.29-.11.28-.12.27-.11.28-.11.28-.08.28-.07.3-.08.29-.09.28-.11.28-.1.28-.1.28-.12.27-.14.28-.14.26-.19.22-.25.17-.28.11-.28,0-.28-.12-.24-.16-.23-.2-.18-.23-.16-.25-.14-.27-.13-.26-.14-.27-.11-.28-.09-.28-.1-.29-.09-.28-.1-.28-.1-.28-.11-.28-.1-.29-.08-.28-.05-.3-.06-.29,0-.3-.09-.29-.14-.25-.21-.23-.23-.18-.26-.14-.27-.1-.28-.09-.29-.08-.28-.07-.29-.06-.28,0h-2.63l-.29,0-.29,0-.29,0-.29,0-.29,0-.28-.08-.28-.09-.28-.07-.29,0-.29,0-.29,0-.29,0-.29-.05-.29,0-.28-.06-.29-.06-.28-.08-.28-.09-.28-.09-.28-.07-.29-.06-.29,0-.29,0h-.29l-.28.05-.28.1-.28.11-.25.15-.22.19-.2.22-.2.23-.18.23-.19.23-.18.23-.18.24-.17.24-.17.24-.17.25-.17.24-.17.25-.16.25-.15.26-.14.26-.14.27-.1.28-.08.28-.07.3-.06.29-.07.3,0,.3v.29l.1.27.15.27.08.29.06.3.06.29.08.29.09.28.13.27.13.27.13.27.13.27.13.27.09.28,0,.3,0,.3.08.28.18.24.16.25.07.29,0,.3,0,.3,0,.3,0,.31v.3l-.43.4-.27.12-.29,0-.29,0-.3,0-.28.08-.27.1-.29.07-.29,0-.29,0-.29.05-.28.07-.28.09-.27.13-.23.17-.22.21-.22.2-.24.16-.27.1-.29.06-.29,0-.29.06-.29.05-.29,0-.29,0h-.49l-.38,0-.29,0h-.88l-.29,0-.28.07-.28.09-.27.12-.26.15-.25.15-.25.16-.24.16-.25.17-.23.18-.22.19-.23.19-.22.2-.21.21-.19.22-.18.24-.16.26-.14.26-.12.27-.11.28,0,0-.09.23-.08.21-.08.36v.3l0,.3.05.3.09.29.12.27.13.27.17.25.17.24.18.24.29.35.15.26.15.26.16.25.16.25.11.27v.3l0,.31,0,.29v.3l.08.29,0,.29-.07.3-.09.28-.12.28-.14.26-.15.26-.16.25-.15.26-.15.26-.16.26-.17.25-.19.21-.27.13-.28.11-.27.11-.27.11-.27.13-.26.12-.27.13-.26.13-.26.14-.26.13-.26.14-.25.15-.26.15-.24.16-.24.17-.24.19-.22.19-.23.19-.22.19-.23.19-.22.19-.23.19-.22.19-.24.18-.23.18-.24.18-.21.2-.22.21-.21.21-.21.2-.22.2-.23.18-.24.17-.25.17-.24.16-.24.17-.23.18-.24.19-.22.19-.23.19-.22.2-.21.2-.21.21-.21.22-.2.21-.19.23-.19.23-.19.23-.19.22-.2.22-.21.22-.21.21-.18.23-.16.25-.14.26-.13.28-.11.27-.09.29-.09.29-.09.28-.12.28-.11.27-.12.28-.12.27-.11.28-.13.27-.14.26-.15.26-.17.24-.17.24-.19.24-.19.22-.2.23-.21.21-.22.2-.22.18-.24.18-.25.17-.25.15-.25.15-.26.15-.26.12-.27.13-.27.11-.27.12-.27.11-.27.11-.27.12-.28.1-.27.11-.28.11-.27.1-.28.1-.28.08-.28.08-.29.07-.28.08-.28.08-.28.1-.26.12-.27.14-.26.13-.26.12-.28.11-.28.09-.28.09-.28.07-.29.06-.28.07-.28.09-.28.11-.26.13-.25.16-.22.2-.21.21-.21.21-.19.23-.19.23-.16.25-.14.26-.12.28-.09.29-.06.29,0,.3-.06.29-.07.3,0,.29,0,.3v3l0,.3,0,.3,0,.3,0,.3,0,.3v0l0,.24,0,.3v3.3l0,.3,0,.29-.06.29-.08.3-.08.29-.08.28-.08.29-.08.29-.1.28-.12.28-.13.27-.31.51-.18.23-.21.21-.24.19-.23.18-.24.17-.24.18-.24.17-.25.16-.26.14-.26.12-.28.11-.28.09-.29.07h0l-.25,0h-.29l-.3,0-.28,0-.26.13-.25.17-.21.15,0,0-.25.15-.26.15-.25.15-.24.18-.22.19-.41.43-.19.23-.2.23-.19.23-.18.23-.17.25-.17.24-.16.25-.15.26-.14.27-.12.27-.12.28-.11.28-.11.28-.09.29,0,.29v.29l.06.3.09.3.1.28.15.25.18.25.16.25.16.26.15.26.13.28.06.57,0,.3,0,.31-.06.3-.07.29-.08.29-.09.28-.1.29-.11.28-.09.28-.1.28-.1.28-.11.28-.13.27-.14.27-.14.26-.15.26-.14.26-.14.26-.13.27-.11.28-.09.3-.08.3-.09.29-.11.27-.15.24-.15.16-.3.22-.28.13-.29.11-.28.07h-.29l-.29-.05-.3-.06-.29,0h-4.71l-.29,0-.29,0-.2.06-.36.12-.1.06-.15.09-.23.19-.21.21-.2.22-.1.11-.09.12-.19.23-.19.23-.19.23-.19.23-.2.22-.21.2-.24.19-.26.16-.26.14-.27.08-.28-.09-.29-.08-.29,0-.28-.11-.07,0-.19-.12-.26-.13-.28,0-.08,0-.2.05-.29.12-.28.1-.2.08-.33.18-.22.2,0,.05-.15.17-.19.24-.17.24-.17.25-.09.14-.06.11-.14.27-.13.27-.13.27-.12.27-.1.28-.1.29-.06.29-.08.29-.12.27-.13.27-.13.27-.13.27-.14.27-.14.26-.14.27-.14.26-.14.26-.14.23v0l-.16.26-.13.2-.22.27-.22.21-.12.1-.11.09-.22.19-.24.19-.23.18-.24.17-.25.17-.21.21-.14.18,0,.05-.18.25-.15.26-.12.27,0,.06-.08.22-.08.28-.07.3-.06.3,0,.29-.05.3,0,.3,0,.3v.9l0,.3.07.29.07.26.06.33V844l0,.3,0,.3,0,.31,0,.3v1.24l0,.25-.06.3-.08.29-.08.28-.09.29-.09.29-.1.28-.1.28-.12.27-.14.27-.14.26-.14.27-.16.25-.16.25-.17.25-.17.23-.18.25-.18.24-.17.25-.16.25-.16.25-.16.25-.14.26-.14.27-.13.27-.12.27-.11.28-.12.27-.12.28-.11.28-.11.27-.12.28-.11.27-.11.29-.1.28-.13.27-.14.26-.15.27-.18.23-.22.19-.25.15-.27.13-.28.12-.28.1-.28.09-.29.07-.29.06-.29,0-.29,0h-.3l-.29,0-.29,0-.29.06-.29.06-.3,0-.28.09-.27.13-.26.13-.26.16-.21.16,0,0-.2.22-.17.24-.14.27-.13.28-.11.28-.08.28,0,.3,0,.3,0,.3,0,.3,0,.29,0,.3,0,.3,0,.29,0,.3,0,.3,0,.3,0,.3v.6l0,.3-.06.3-.08.29-.13.27-.2.2-.24.17-.27.16-.25.16-.26.15-.19.22-.11.27-.09.29-.08.3-.07.29-.07.3-.1.28-.15.25-.17.24-.2.23-.19.23-.24.17-.18.24-.17.24-.17.25-.16.25-.26.38-.26.16-.25.16-.25.15-.25.16-.25.15-.26.15-.26.14-.27.13-.24.16-.23.2-.22.2-.24.18-.24.17-.06.06-.16.13-.19.24-.16.26-.2.21-.26.13-.28.1-.28.11-.26.15-.25.16-.24.17-.24.18-.23.18-.23.19-.22.2-.22.2-.22.2-.21.21-.2.21-.2.23-.18.24-.18.24-.19.23-.2.22-.2.21-.2.22-.2.23-.19.23-.18.23-.18.24-.18.24-.18.24-.15.26-.15.26-.17.24-.2.22-.2.21-.22.21-.22.2-.22.2-.22.2-.22.2-.23.19-.24.18-.23.19-.22.2-.2.22-.2.22-.08.1-.11.14-.18.24-.17.25-.16.25-.14.25-.1.28,0,.3,0,.31,0,.3v1.2l0,.3,0,.29-.06.31-.09.3-.14.26-.2.19-.24.16-.27.14-.27.13-.28.13-.26.14-.27.13-.27.13-.26.15-.23.17-.2.22-.19.23-.18.25-.18.23-.18.24-.18.24-.18.24-.16.25-.16.26-.13.26-.13.28-.12.27-.14.26-.16.25-.17.26-.17.24-.19.24-.2.21-.22.19-.25.16-.27.14-.25.16-.24.18-.24.17-.23.2-.2.21-.18.24-.17.24-.17.25-.17.25-.19.23-.2.22-.21.2-.22.21-.22.2-.19.17,0,0-.22.2-.22.21-.2.22-.11.16-.06.08-.18.24-.2.22-.23.2-.22.19-.23.19-.23.19-.23.19-.23.19-.23.19-.22.21-.21.2-.2.23-.2.22-.17.15,0,0-.24.18-.24.17-.24.16-.24.16h0l-.25.17-.24.18-.23.18-.2.15,0,0-.24.18-.25.15-.27.12-.28.09-.29.07-.29.09-.27.12-.26.13-.26.15-.26.14-.26.15-.26.14-.27.13-.27.11-.28.08-.29.07-.3.06-.29,0-.29,0-.3,0h-.29l-.3,0h-1.78l-.29,0-.3,0-.3,0h-.29l-.29,0-.29,0-.29.07-.29.08-.28.09-.28.09-.29.09-.28.1-.28.11-.27.12-.26.13-.25.15-.25.17-.24.17-.24.19-.24.17-.24.17-.24.17-.25.17-.24.18-.23.18-.23.2-.21.2-.22.21-.2.21-.21.22-.2.22-.19.23-.19.23-.18.24-.18.24-.16.25-.14.26-.13.27-.13.27-.13.27-.14.27-.16.25-.16.26-.16.24-.17.25-.17.25-.17.24-.17.25-.17.24-.18.24,0,.06-.14.18-.18.24-.17.25-.17.25-.16.25-.15.25-.15.26-.13.27-.13.27-.11.28-.06.3,0,.29,0,.27v.64l.13.58.08.29.08.29.06.29.06.3.06.29.07.29.06.3.06.29,0,.3v.3l0,.3,0,.29,0,.31,0,.3,0,.29-.06.29-.08.29-.09.29-.09.29-.07.29-.05.29,0,.3,0,.3,0,.3,0,.3,0,.22-.06.37-.09.28-.12.28-.1.28-.09.29-.08.29-.07.29,0,.29,0,.3,0,.3-.07.56-.18.16-.23.18-.23.18-.24.18-.23.17-.23.18-.23.18-.39.29-3.37,2-1.73,1-1.63,1.34-.47.38-1.07,2-.2.35-.8,1.8-1,1.69-.58.69-.81,1-1.25.94-1.69,1-1.42,1.35-1,.9-1,.89-2.2,1-2,.42-1.5-.07-.77,0h-.81l-1.71.65-.44.86-.19.37.77,1.61.25.53.94,1.23.71,1.39.56,1.29,0,1.12v.62l-.28,1.51-.7,1.53-.1.21-.26.79-.39,1.16-.66,1.57-.27,1.21-.49.93-1.07,1.08-.52.39-.9.68-1.3,1.11-1.36,1.22-1.36,1.36-1.3.76-1.74,1.1-1.78,1.15-.77.61-.61.5-1.32,1-.4.21-1.16.62-1.31.64-1.19.7-1.55,1.54-1.12,1.33-1.3,1.6-.33,1.51-.16,1.05-.1.64,0,1.74v1.08l-.08,1.61,0,1.43.82,1,1.15.75.94.81.43,1.1.33.87.63,1.68,0,1.34.61,1.39.67,1.14.65,1,.81,1,.43,1.19.11,1.82-.3,1.92,0,1.79v.71l-.4-.42-.14-.24-.09-.27-.07-.28-.05-.29,0-.29,0-.3,0-.3,0-.29,0-.3-.06-.29-.07-.28-.09-.28-.1-.28-.12-.28-.12-.27-.15-.25-.16-.24-.18-.22-.22-.2-.23-.18-.24-.17-.24-.18-.23-.19-.22-.19-.22-.21-.21-.21-.22-.2-.23-.18-.24-.15-.27-.11-.28-.06-.3,0-.3,0-.3,0-.27-.09-.24-.15-.23-.17-.22-.2-.21-.21-.2-.22-.21-.22-.2-.21-.19-.22-.19-.24-.18-.23-.2-.22-.21-.2-.23-.17-.24-.16-.26-.14-.26-.14-.27-.12-.27-.13-.27-.11-.27-.11-.27-.1-.28-.1-.28-.09-.28-.09-.28-.1-.27-.09-.27-.11-.27-.12-.27-.12-.27-.13-.26-.13-.26-.13-.26-.14-.25-.16-.24-.16-.24-.17-.21-.19-.21-.21-.2-.22-.19-.23-.19-.23-.19-.22-.21-.21-.21-.19-.24-.18-.25-.15-.26-.14-.28-.14-.25-.12L1524,998l-.26-.15-.24-.16-.23-.18-.21-.19-.21-.21-.21-.22-.19-.23-.19-.23-.17-.24-.16-.25-.15-.25-.13-.26-.08-.28,0-.3,0-.3,0-.3-.07-.28-.11-.26-.18-.21-.23-.19-.26-.17-.24-.17-.24-.18-.24-.17-.19-.13-.06,0-.23-.18-.21-.2-.18-.23-.17-.24-.16-.25-.14-.26-.13-.27-.12-.27-.09-.27-.06-.29,0-.3v-.59l0-.29.06-.29.07-.29,0-.14,0-.14.12-.28.13-.28.13-.27.08-.28v-.28l0-.27-.08-.28-.11-.27-.13-.28-.13-.27-.13-.3-.1-.25-.09-.29-.09-.28-.09-.27-.1-.28-.12-.27-.13-.26-.15-.26-.13-.26-.12-.27-.09-.28-.06-.29,0-.29V981l0-.29,0-.29.06-.29.06-.29,0-.29,0-.29,0-.29,0-.3v-.29l0-.29,0-.32.06-.32.06-.63-.06-.25-.14-.18-.23-.12-.28-.08-.32-.06-.32,0-.31-.07-.28-.1-.07,0-.2-.07-.28-.11-.27-.1-.27-.11-.27-.12-.26-.12-.26-.14-.26-.13-.26-.15-.25-.14-.25-.15-.25-.15-.25-.15-.25-.15-.25-.16-.25-.15-.24-.17-.24-.18-.24-.21-.17-.2-.18-.23-.18-.23-.18-.24-.18-.23-.17-.23-.17-.25-.16-.24-.15-.26-.15-.25-.15-.25-.17-.23-.21-.22-.22-.2-.2-.21-.15-.25-.11-.26-.09-.28-.08-.29-.07-.29-.09-.28-.11-.28-.1-.28-.12-.27-.14-.27-.16-.23-.2-.2-.26-.14-.28-.13-.25-.15-.21-.2-.18-.23-.15-.22,0,0-.14-.26-.12-.27-.07-.25v0l0-.29v-.6l0-.3-.08-.27-.1-.29-.13-.27-.16-.26-.19-.22-.21-.18-.25-.14-.26-.13-.28-.12-.28-.11-.26-.13-.25-.15-.22-.19-.2-.23-.21-.26-.18-.18-.24-.15-.27-.11-.28-.09-.28-.09-.28-.11-.25-.14-.24-.17-.24-.18-.21-.2-.2-.22-.15-.24-.1-.29-.06-.31-.08-.29v0l-.13-.22-.21-.18-.24-.17-.26-.15-.23-.1,0,0-.29-.11-.28-.08-.16,0-.12,0h-.28l-.29.06-.29.1-.27.13-.27.12-.25.14-.25.15-.25.16-.24.17-.24.17-.23.18-.23.21-.22.21-.22.21-.23.19-.24.15-.25.09-.27,0h-.28l-.3,0-.29-.06-.3-.07-.3-.07-.29,0-.29,0-.29,0-.3,0-.29,0-.27-.08-.26-.12-.24-.16-.25-.19-.21-.17-.23-.19-.22-.19-.24-.18-.24-.16-.26-.13-.27-.12-.27-.12-.27-.11-.27-.11-.26-.12-.26-.14-.26-.14-.25-.15-.25-.14-.26-.14-.26-.14-.26-.12-.27-.11-.28-.1-.28-.09-.28-.09-.28-.1-.27-.1-.26-.12-.26-.14-.23-.17-.22-.19-.21-.21-.2-.21-.2-.22-.2-.22-.21-.21-.2-.22-.2-.24-.21-.22-.22-.18-.24-.11-.28,0-.31.06-.29.11-.24.15-.2.24-.19.26-.21.18-.26.06-.28,0-.31-.09-.28-.11-.26-.14-.23-.17-.22-.2-.2-.21-.21-.22-.22-.2-.42-.34-.53-.24-.57-.23-.41-.21-.26-.13h-.28l-.29.09-.3.08h-.27l-.24-.14-.23-.21-.24-.18-.28,0-.31,0-.27-.06-.23-.17-.22-.22-.2-.21-.2-.22-.19-.22-.18-.23-.15-.25-.15-.26-.14-.26-.17-.24-.19-.23-.24-.21-.51-.1-.27.11-.28.14-.27.12-.17.08-.1.05-.25.13-.27.14-.25.14-.26.14-.26.13-.27.11-.27.09-.28.08-.29.09-.29.09-.29.07h-.27l-.25-.12-.21-.24-.19-.22-.17-.24-.17-.25-.18-.23-.19-.24-.2-.22-.23-.15-.2,0h-.08l-.31,0-.29.06-.28.09-.28.09-.28,0-.26-.13-.27-.13h-.29l-.27.06h0l-.3.07-.28.12-.09.21.09.34-.08.23-.25.15-.29.11-.28.12-.28.09-.27.1-.26.14-.23.18-.22.19-.25.16-.27.08-.3,0-.29,0-.27.1-.31.21-.16.13-.24.18-.24.16-.25.16-.23.17-.23.18-.23.19-.21.2-.21.21-.18.22-.19.23-.21.21-.21.2-.22.2-.24.18-.25.14-.29.08h-.3l-.23-.16-.21-.25-.23-.09-.26.13-.26.2-.25.13-.24-.11-.21-.26h-.24l-.27.15-.27.13-.29,0-.29,0-.29-.11-.27-.13h-.16l-.1,0-.2.23,0,0-.12.21-.14.27-.16.23-.27.09h-.31l-.15.21-.09.28-.3,0-.24.16-.22.2-.26.12-.29,0h-.3l-.29,0-.29-.08-.28,0-.23.18-.24.11-.28-.15-.18.11,0,0-.21.24-.26,0-.28-.11-.28-.08-.29.07-.27.14-.19.22-.13.28-.19.19h-.7l-.18,0-.29,0-.29,0-.29,0-.3,0-.3,0-.3,0h-.28l-.25-.09-.2-.23-.19-.24-.25-.12-.29,0h-.3l-.28-.07-.26-.12-.27-.16-.24-.14-.25-.16-.25-.15-.26-.14-.26-.12-.27-.11-.27-.13-.24-.15-.23-.2-.22-.22-.22-.19-.23-.14-.25,0h0l-.29.12-.27,0-.25-.18-.26-.14h-.27l-.28.08-.29.09-.29.08h-.29l-.29,0h-.29l-.29,0-.29,0-.29,0-.29,0-.29,0-.31,0-.27.08-.22.15-.11.28-.13.28-.17.24-.18.23-.2.21-.22.2-.23.19-.25.15-.27.11-.28.07-.3.05h-.58l-.27-.09-.27-.13-.27-.12-.29-.08-.31-.07-.26,0-.22.18-.19.24-.15.27-.09.28v.6l0,.28-.14.25-.19.23-.23.21-.23.16-.27.13-.28.08-.29.06-.3,0-.31,0-.31,0-.26.06-.18.17-.14.27-.12.29-.13.28-.2.22-.25.19-.26.17-.19.2-.06.24.09.28.14.3.07.29.06.62-.11.24-.2.18-.25.17-.27.15-.15.1-.11.07-.23.18-.23.18-.22.18-.24.18-.23.18-.24.16-.24.17-.25.16-.25.15-.26.14-.26.12-.27.12-.27.11-.27.12-.26.12-.26.14-.16.11-.09,0-.24.18-.24.17-.24.17-.25.14-.27.09-.29,0h-.31l-.31,0-.3,0-.28,0-.25.1-.18.19-.15.26-.13.29-.14.28-.17.23-.26.14-.27.12-.26.14-.27.14-.25.15-.23.17-.19.22-.16.26-.16.28-.15.25-.19.2-.24.12-.28,0-.32,0-.3-.05-.56-.2-.25-.16-.26-.16-.26-.12-.15,0-.12,0-.18,0-.1,0-.27.13-.29.12-.28,0-.29,0h-.3l-.29,0-.29,0-.3,0-.28-.07-.26-.12-.24-.17-.23-.21-.22-.2-.23-.17-.26-.1h-.28l-.31.06-.29,0-.3,0-.3,0-.28,0-.24-.13-.22-.22-.2-.22-.19-.22-.19-.23-.18-.23-.19-.23-.18-.22-.21-.2-.24-.19-.26-.16-.26-.09h-.29l-.29.06-.3,0h-.29l-.29,0-.29,0-.29,0-.28-.06-.29-.06-.28-.08-.28-.09-.26-.13-.26-.17-.26-.14-.26-.05-.56.22-.28.1-.27,0-.26-.18-.25-.18-.26,0-.11,0-.15.06-.26.15-.26.17-.27.1-.3,0-.28,0-.1.09-.13.11-.22.19-.28,0h-.07l-.22-.05-.27.12-.27.12L1383,966l-.13-.06-.16-.08-.18.12-.1.3-.11.31-.21.12-.31,0h-.3l-.11.1-.1.1-.22.2-.28.06-.28,0h-.89l-.29,0-.29,0-.29,0-.29,0-.29,0-.3,0-.29,0-.29,0-.28,0-.27-.1-.27-.14-.27-.12-.28-.09-.28-.1-.29-.07-.28,0-.28.06-.3.15-.27.13-.22,0-.09-.34-.15-.19-.27,0-.32.1-.29.14-.18.17,0,0-.06.27,0,.32,0,.27v0l-.1.23h-.34l-.15.2-.1.27-.08.29-.07.3,0,.3,0,.29v.3l0,.29v.6l0,.28-.07.29-.08.28-.09.28-.09.28-.09.29-.09.28-.08.28-.08.28-.09.28-.08.28-.08.29-.07.29-.06.29-.07.3-.08.28-.1.26-.09.15,0,.1-.18.26-.21.24-.23.21-.25.15-.25.08h-.28l-.3-.05-.3-.1-.29-.13-.24-.16-.19-.19-.15-.26-.11-.29-.1-.29-.1-.28L1367,975l-.06-.29-.15-.57-.11-.27-.14-.27-.14-.26-.13-.27-.12-.26-.09-.27,0-.29,0-.3,0-.3v-.9l0-.3-.06-.28-.11-.25-.18-.24-.21-.22-.24-.19-.24-.15-.27-.11-.28-.07-.29-.07-.29-.07-.28-.09-.27-.1-.17-.1-.29-.16.06-.29,0-.3,0-.29.08-.29.08-.28.07-.28.06-.3.07-.3,0-.3,0-.29,0-.27-.12-.25-.18-.23-.22-.22-.23-.21-.22-.18-.25-.17-.23-.17-.19-.22-.17-.24-.16-.25-.18-.24-.2-.28-.14-.19-.17-.24-.2-.22-.2-.22-.13-.25-.08-.29,0-.3,0-.29.08-.28.14-.27.16-.25.19-.22.21-.21.22-.19.23-.19.23-.18.24-.17.24-.17.24-.17.23-.18.22-.18.22-.2.21-.2.22-.2.22-.2.22-.18.24-.17.25-.14.27-.12.27-.12.25-.15.25-.16.25-.17.24-.17.23-.19.19-.21.16-.23.12-.27.09-.29.07-.29.06-.29.06-.29.06-.29,0-.3,0-.29v-.29l0-.29-.1-.27-.12-.28-.1-.28-.08-.28,0-.29v-.59l0-.59,0-.29,0-.29,0-.3,0-.3v-.58l0-.29,0-.29.07-.29.06-.29.06-.29.05-.29.06-.29.06-.29.09-.27.15-.25.19-.23.15-.25.14-.26.14-.26.14-.26.14-.25.15-.26.15-.25.15-.25.14-.26.13-.26.13-.27.11-.27.12-.27.11-.27.11-.27.11-.28.09-.28,0-.29v-.29l0-.3,0-.29,0-.29,0-.29-.06-.29-.08-.28-.1-.28-.1-.28-.09-.28-.07-.29-.06-.29v-.29l.06-.28.13-.27.13-.27.06-.13,0-.15.11-.28.12-.27.17-.22.25-.15.18,0,.11,0,.21,0h.37l.28-.06.28-.1.25-.16.2-.2.2-.23.17-.25.14-.26.09-.27,0-.29v-.89l0-.3,0-.29,0-.29-.06-.29-.07-.29-.07-.28-.74-.11-.65-.1-.54-.13-.22-.23-.08-.28-.1-.53-.07-.29-.09-.29-.11-.28,0-.29v-.6l0-.3-.08-.29-.15-.26-.12-.28-.11-.27-.1-.29-.07-.29-.06-.29,0-.3-.06-.29-.09-.29-.1-.28-.08-.29-.08-.29-.08-.29-.08-.29-.09-.28-.08-.29-.06-.29,0-.3-.07-.29-.08-.29-.09-.29-.08-.29-.06-.29,0-.3,0-.3,0-.3-.06-.29-.09-.28-.1-.29-.11-.27-.11-.28-.09-.29-.08-.29-.09-.28-.13-.27-.16-.27-.17-.24-.22-.2-.25-.16-.25-.16-.26-.15-.25-.16-.23-.19-.22-.2-.23-.18-.25-.16-.26-.16-.25-.15-.25-.17-.24-.17-.24-.17-.24-.17-.24-.18-.25-.18-.21-.21-.14-.25-.12-.28-.1-.28-.1-.29-.1-.28-.09-.29-.07-.29,0-.3v-.3l0-.3.06-.29.08-.29.12-.27.17-.28.14-.24.18-.24.18-.23.2-.22.21-.22.21-.21.21-.21.21-.21.21-.21.21-.22.21-.2.22-.2.24-.18.25-.16.22-.19.21-.22.2-.23.19-.23.2-.22.19-.23.19-.23.17-.24.17-.25.15-.25.15-.26.14-.27.16-.31.12-.23.13-.28.09-.28v-.28l-.11-.29-.14-.27-.16-.25-.14-.27-.12-.27-.11-.28-.09-.28-.06-.3,0-.29,0-.3-.06-.3-.09-.28-.1-.28-.1-.29-.1-.28-.1-.28-.1-.29-.09-.29-.06-.29,0-.29v-.31l0-.3.06-.36.06-.22.13-.27.15-.27.15-.25.15-.26.17-.26.17-.24.19-.23.21-.21.22-.2.21-.21.21-.21.19-.23.18-.24.17-.25.15-.25.16-.26.15-.26.11-.28.08-.29,0-.29,0-.31,0-.3-.06-.29-.09-.29-.07-.29-.09-.59-.05-.3,0-.29,0-.3,0-.3,0-.29,0-.21,0-.09-.06-.29-.09-.29-.13-.27-.14-.27-.12-.27-.08-.29,0-.29v-.31l0-.3.08-.28.12-.28.14-.27.17-.25.15-.25.11-.28.09-.29.05-.3,0-.29V880l-.08-.6,0-.3-.06-.29,0-.3,0-.29,0-.3v-1.5l0-.3v-1.5l0-.3v-.9l0-.3,0-.3,0-.29,0-.3,0-.3,0-.3,0-.3.08-.29.08-.28.09-.29.07-.29,0-.3,0-.3,0-.3,0-.3,0-.29,0-.3.07-.29v0l.07-.24.08-.29.08-.29.07-.29.07-.3,0-.29,0-.3,0-.29-.09-.29-.11-.28-.13-.27-.14-.27-.14-.26-.13-.27-.11-.28-.1-.28-.1-.28-.09-.29-.09-.29-.08-.29,0-.3,0-.29.1-.28.11-.29.1-.28.1-.28.11-.28.11-.28.11-.28.11-.27.11-.28.11-.28.09-.29.12-.27.12-.28.13-.28.14-.27.17-.23.22-.18.26-.14.29-.11.28-.12.26-.14.25-.15.26-.15.25-.15.25-.16.25-.16.24-.16.25-.17.24-.17.24-.17.25-.17.24-.18.23-.18.23-.19.21-.2.21-.22.19-.22.19-.24.18-.23.18-.24.16-.25.16-.25.16-.26.15-.26.13-.26.13-.27.12-.28,0,0,.09-.22.12-.28.11-.28.11-.27.13-.28.13-.27.12-.27.1-.28.1-.28.09-.29.09-.29.08-.29.06-.29,0-.29,0-.3,0-.3,0-.3,0-.3,0-.29,0-.3,0-.3,0-.3,0-.3,0-.3,0-.3.05-.3.06-.29.09-.28.12-.28.13-.27.13-.27.13-.27.15-.26.18-.23.22-.21.25-.16.27-.11.29-.08.29-.07.29,0h.29l.14,0h.74l.3,0h.88l.29,0,.3,0h.29l.29,0,.29-.06.29-.07.28-.07.28-.12.26-.13.29-.07h.59l.28-.07.28-.09.28-.09.29-.07.29-.08.26-.12.22-.2.19-.23.19-.23.21-.22.21-.2.22-.21.21-.2.22-.21.2-.22.2-.22.16-.25.13-.27.13-.27.11-.28.09-.29,0-.29v-.6l0-.31.09-.27.16-.26.17-.25.13-.27.13-.26.16-.25.17-.25.17-.25.17-.24.18-.24h0l.19-.21.22-.19.24-.18.24-.18.21-.21.19-.23.17-.24.14-.27v0l.1-.25.09-.28.07-.29,0-.3,0-.29,0-.3,0-.3,0-.3v-.3l.08-.29.12-.28.19-.22.21-.21.24-.19.24-.17.26-.14.28-.1.28-.06.29,0,.3,0,.29,0h.29l.3,0h.88l.29,0,.29,0h.59l.29,0,.29-.06.29-.06.54-.11.29,0,.29-.05.28-.07.29-.08.18-.07.09,0,.24-.16.24-.18.26-.14.55-.23.25-.14.22-.14h0l.23-.18.22-.2.22-.21.2-.21.2-.22.07-.09.11-.15.16-.25.15-.26.12-.27.1-.29.1-.28.12-.27.13-.27.08-.29.06-.29.06-.3,0-.29.07-.29.09-.29.12-.27.09-.29.1-.28.09-.29.08-.29.08-.29.07-.29.06-.29,0-.3,0-.29,0-.3.06-.29.07-.29.08-.29.06-.3v-1.2l0-.3,0-.29,0-.3,0-.3,0-.3,0-.3,0-.3v-.3l0-.3,0-.29,0-.3.05-.3,0-.29,0-.3,0-.3,0-.3.06-.29.08-.29.08-.29.07-.29.06-.29.06-.3.07-.29.07-.29.09-.29.09-.28.09-.29.08-.28.09-.29.09-.28.09-.29.09-.29.09-.28.09-.29.1-.28.09-.29.1-.28.08-.29.08-.29.08-.28.09-.29.08-.29.06-.29,0-.3,0-.3,0-.3,0-.29,0-.3,0-.3v-.6l0-.3,0-.3-.05-.3,0-.29-.06-.3-.08-.29-.07-.29,0-.29.08-.29.09-.29.08-.29.05-.3.08-.28.09-.29.06-.29,0-.3,0-.3,0-.3,0-.3v-.3l-.06-.29-.08-.29,0-.3,0-.3-.07-.29,0-.29v-.31l0-.3.08-.28.16-.22,0,0,.18-.23.2-.22.22-.2.24-.16.28-.12.24-.15.23-.2.2-.22.18-.24.16-.24.16-.25.16-.26.16-.25.15-.26.14-.26.13-.27.1-.28.09-.29.09-.28.08-.29.08-.29.06-.3,0-.29,0-.31,0-.3.14-.25.2-.23.19-.23.18-.24.19-.23.19-.23.2-.22.23-.18.22-.14.07-.28,0-.3,0-.3,0-.3.05-.3,0-.3.06-.29,0-.3,0-.3,0-.29.09-.29.15-.26.21-.21.21-.2,0,0,.14-.2.17-.25.22-.19.28-.12.16-.23.1-.29.08-.29.09-.29.07-.29.05-.3V776l-.09-.28-.18-.24-.22-.21-.22-.19-.23-.19-.23-.19-.26-.14-.23-.17-.24-.21-.23-.15-.26-.14-.2-.22-.16-.25-.15-.26-.11-.28-.06-.29,0-.31,0-.29v-.3l0-.3.06-.3.07-.29.09-.28.12-.28.13-.27.15-.26.15-.26.13-.26.09-.29.07-.29.08-.29.07-.29.07-.29.06-.29.06-.3.08-.33,0-.25.07-.3.08-.28.09-.29.11-.28.1-.28.1-.28.09-.29.1-.28.1-.28.11-.28.11-.28.12-.27.14-.26.15-.26.14-.26.14-.27.15-.26.15-.25.17-.25.16-.25.13-.26.13-.28.13-.26.15-.26.15-.26.17-.32.09-.21.07-.29,0-.3.07-.3,0-.3,0-.29-.08-.29-.13-.27L1421,757l-.16-.25-.15-.26-.14-.26-.13-.27-.14-.27-.15-.25-.21-.22-.11-.27-.08-.29-.07-.29-.09-.29-.14-.26-.14-.27-.09-.28-.07-.29-.06-.3,0-.3,0-.6.08-.28.17-.25.19-.24.14-.26,0-.29v-.3l0-.3,0-.31V749l0-.18v-.12l-.06-.29-.06-.29,0-.3,0-.3,0-.29-.06-.3-.07-.29-.06-.29-.07-.3-.07-.29-.08-.28-.14-.27-.16-.25-.18-.24-.38-.45-.2-.22-.16-.25-.12-.27-.15-.26-.13-.27-.1-.28,0-.3,0-.3v-.3l0-.3,0-.29,0-.3,0-.3v-.9l0-.3,0-.29,0-.3,0-.3.06-.29.07-.29.05-.3,0-.3,0-.3v-2.1l0-.3-.05-.3-.06-.3-.06-.29,0-.3-.06-.29-.07-.29,0-.3,0-.3,0-.3-.09-.28-.07-.3,0-.29,0-.3,0-.3,0-.3.06-.29,0-.3,0-.3,0-.3,0-.3,0-.29,0-.3.05-.29.06-.3.1-.28.11-.28.11-.27.09-.29,0-.3.12-.27.17-.24.2-.22.19-.23.18-.23.2-.23.22-.2.25-.15.25-.16.22-.19.18-.24.16-.25.11-.28.05-.29,0-.3v-.9l0-.3,0-.3v-.3l0-.3v-.6l0-.29.1-.29.14-.26.19-.22.11-.28.15-.25.2-.22.22-.2.23-.18.27-.12.29-.07.28,0,.3,0,.28,0h.3l.29,0,.28,0,.29.06.29.06.28.08.27.12.26.14.27.07h.29l.29,0,.29-.07.27-.1.27-.12.27-.12.26-.14.26-.14.27-.1.28-.05.29,0,.29,0,.3,0h.58l.29,0,.28,0,.29.09.28.07h.28l.3,0,.28-.06.28-.09.27-.12.26-.14.26-.13.26-.12.28-.1.28-.1.25-.14.23-.19.21-.21.21-.21.21-.21.21-.21.2-.21.2-.22.19-.23.18-.23.17-.25.16-.25.14-.26.13-.27.12-.27.14-.27.16-.25.16-.24.16-.26.15-.25.14-.27.11-.27.08-.29.09-.29.12-.27.13-.27.12-.27.11-.28.1-.28.08-.29.06-.3.07-.29.13-.26.16-.25.55-.58-.25-.58-.13-.27-.13-.27-.12-.27-.09-.29-.06-.29,0-.31,0-.29-.09-.28-.18-.24-.23-.19-.25-.15-.26-.13-.26-.19.11-.43.28-.42.39-.46.34-.45.19-.41.17-.37.12-.6.18-.57.12-.29.11-.28.22-.57.1-.28.11-.29.22-.56.21-.57v0l.19-.55v0l.24-.53.26-.67.14-.48,0-.61v-.61l0-.62,0-.6.07-.61.11-.6h0l.16-.58v0l.21-.54.24-.57.29-.52.42-.43.43-.42.37-.48.31-.52.22-.57.12-.6v-.61h0l0-.6v0l0-.58v0l0-.6.2-.56.3-.53.23-.56v0l.17-.54.15-.59.1-.61,0-.61v-.61l0-.61-.07-.3-.06-.29,0-.3-.06-.31,0-.29-.05-.31,0-.3,0-.3,0-.3,0-.3-.08-.61,0-.3,0-.31,0-.3,0-.3,0-.31,0-.3,0-.31,0-.35,0-.25,0-.31,0-.3,0-.31,0-.3,0-.3,0-.31,0-.3v-.07l-.06-.54v-.61l0-.61,0-.61-.13-.59-.28-.54-.34-.5h0l-.36-.46,0,0-.36-.45v0l-.27-.52-.31-.52h0l-.26-.53-.24-.56-.25-.56-.44-.39-.48-.38-.36-.47-.17-.25-.17-.25-.37-.49h0l-.38-.44v0l-.18-.57,0-.37,0-.24v0l0-.59.08-.61,0-.61,0-.61v0l.06-.59.17-.58.15-.27.14-.26.29-.54.12-.59,0-.61-.11-.6v0l-.11-.57-.16-.58-.34-.5h0l-.33-.49v0l-.24-.53-.26-.55-.27-.54-.07-.6v-1.24l.18-.56.22-.21.2-.11.06,0,.5-.31.44-.41.52-.27.56-.21.51-.3.49-.35.2-.14,0,0,.24-.17.24-.17.25-.17,0,0,.14-.09.33-.21.42-.42.35-.51.36-.47.41-.44.4-.45.3-.52.28-.54.16-.26.15-.26.42-.81.38-.45.43-.42.41-.45.34-.49.4-.45.22-.2.23-.2.42-.42.2-.23.14-.1.1-.07.1,0,.48-.07.57.16.58.08.59,0,.57-.16.49-.33.46-.39.46-.37h0l.48-.33.31-.11.13,0,.12,0,0,0,.51-.2.27-.11.27-.12.56-.2.56-.16.58-.14.58-.08h.3l.29,0h.07l.33-.07.44-.18.56-.18h0l.53-.19.56-.21.53-.26.49-.32.47-.39.35-.47.36-.49.33-.48.13-.61.16-.59.24-.55"/>
</g></g></g></svg>
