<svg xmlns="http://www.w3.org/2000/svg" viewBox="0 0 1948.2 3756.13">
<defs>
    <style>.cls-1,.cls-2,.cls-3,.cls-4{fill:#ccc;stroke:#646464;stroke-width:2.13px;}.cls-1,.cls-2,.cls-3{stroke-linecap:square;}.cls-1,.cls-2{stroke-linejoin:bevel;}.cls-1,.cls-3,.cls-4{fill-rule:evenodd;}.cls-3,.cls-4{stroke-linejoin:round;}
    </style>    
</defs>
<title>Recurso 2arg</title>
<g id="Capa_2" data-name="Capa 2"><g id="svg2"><g id="layer1">
<path id="path4769" class="cls-1" d="M763.37,34.41l-.11-.14-.71-1.33-.81-1.06-1-1.35-2-2.86-1.44-1.6-.34-.51-.61-.91-1.63-2.28-.86-1.47-1.32-1.17-.3-.51-.4-.69-1.64-.06-1.82-.14L746,17.87l-.93-.18-1.51-.3-3.22-.67.12-1,.1-1.95.05-1.18,0-.84-.33-.51L739,9.77l-.85-1.25L737.06,7,737,7l-1.76-.81-1.53-.54-3-1.21-.83-.32-.61-.24-3.61-1.58-1.5-.53L723,.85l-.56.54-.31.52-.27.54-.28.54-.3.52-.23.55,0,.62-.07.38,0,.23-.1.6-.08.6.15.59.13.6.14.6.09.6-.09.61-.18.58-.21.57,0,.61-.06.61-.32.52-.19.56h0l0,.22-.08.39-.18.58-.39.44-.36.48-.21.56v.62l-.07.6-.18.59-.11.6-.23.55-.47.36-.26.54-.11.6,0,.21,0,.23,0,.16-.12.6.12.61,0,.59-.09.6-.17.59-.12.59V26.1l-.08.6-.19.58-.07.61,0,.45,0,.23-.14.52-.24.57,0,.57.11.6.07.61-.09.61-.17.58v.61l.16.59-.12.59-.24.56-.08.6-.47.26h-1.14l-.58,0-.53.18-.36.47-.19.58-.27.54-.27.54-.24.54-.52.24-.5.29-.24.55-.09.61-.08.37,0,.22-2.05.38-1.75.4-.21,0-1.41.3-1.79.58-.64.21-3.45.88-.08,0-3.17,1-4.11,1.32-.66.21-2.53.74-4.15,1.21-.57.16-1.49,2.45-.39.64-1.52-1L678.55,50l-1.35-.43-1.64,1L672,52.88l0,.14-.82,3.46-.73,3.09-.28,1.4-.2.79-.15.59-.11.6,0,.61v.91l0,.32-.08.61-.16.59-.18.66-.14.52-.11.39-.06.19-.19.58-.21.57-.21.58-.21.57-.24.56-.22.56-.12.6-.07.49v.12l0,.61,0,.62.1.6.23.56.24.56-3.33,1.55-.93.44-3.14,1.46-3,1.22-.95.39-3,1.25-2.21,2.7-.67.82L649.14,87l-2.45.12-1.85.07-1,0h-.38l.29,6.68,0,1.09v.18l.29,5.18-1.34,1-.85.6-4.11,2.94-1.38,1-.85.62L633,108.34l-1.86,3.24-.53.93-.11.2-2.69,5,.68.81.68.82,2.59,3.1,1.86,2.15.7.8,4.51,5.19.7.8.06.07,4.44,5.13.7.8,1.29,1.49-.45,1.63-.87,3.23-.29,1.05-1.84,6.81-.29,1.06L641,157.23l-.62,2.22-.29,1.05-1.89,6.8-.29,1-1.88,6.8-.3,1-1.85,6.67,0,.13,0,.18-.24.87-1.84,6.82-.28,1-1.84,6.81-.29,1.05-1.84,6.81-.23.87-.06.19-2,6.76-.31,1-.74,2.5.07.07,3.09,2.86.77.72.12.11,3.26,2.86,1.7,1.62.77.73,1.09,1,3.79,3.22.27.24.79.7,4.49,4,.61.59.63.6.1.16.22.34.19.58,0,.62-.22,2.06-.23,2.32-.42,2.09-.15.71.1.91.18.32.11.21.34.46.58.11.57,0,.55-.19.47-.36.49-.28.59,0,.58,0h.57l.41,0h.17l.56.13.56.14.58-.06,0,2-.13.82.32.54,2.47.57,1.29.3h.06l.17.34.58.06v.64l.07.3.14.28.17.26.22.22.25.18.27.14.26.15.2.23.17.26.16.28.15.27.15.27.14.28.14.28.14.28.14.28.14.28.14.28.14.28.14.28.16.27.17.25.2.24.17.19.22.3.15.27.15.28.19.24.23.2.24.18.24.2.22.21.22.22.21.22.21.23.2.23.2.24.2.24.2.23.2.24.21.26.16.16.06.06.26.09.28,0,.3-.09.3-.1.3,0h.9l.29,0,.3,0,.3,0,.3,0,.29,0,.29-.06.28-.11.29-.09.3,0h.3l.3,0,.28.1.24.19.21.22.2.24.17.26.15.28.07.16.06.12.16.28.14.28.1.29,0,.31-.06.32.06.31.13.29,0,.1.08.18.15.28.12.29.08.31.09.29.19.25.2.24.21.23.27.11.3,0,.29.07.29.07.29.09.29.08.28.11.28.1.28.11.28.11.11,0,.18.06.3.08.23.18.18.26.16.27.15.28.15.27.18.25.23.21.18.26.17.25.21.22.23.21.25.17.26.16.27.15.26.15.27.14.28.11.29.08.27.13.25.17.27.12.29.09.28.11.28.13,0,0,.22.1.28.13.28.11.28.08.3.06.29.06.28.1.27.14.27.15.27.12.29.1.28.08.3.08.29.06.29,0,.3,0,.29-.08.29-.07.29-.08.3,0,.3,0,.29,0,.29.08.29.12.25.15.23.21.25.18.25.18.28.1.3,0h.3l.3,0,.31,0,.22,0h.08l.29-.06.23-.16.13-.3.19-.25.23-.21.26-.18H694l.3.09.29.07.3,0h.3l.29,0,.3.05.3.07.28.11.12.27.11.31.11.21,0,.05.24.21.27.11.28-.12.16-.27.05-.31,0-.32.06-.31.05-.17,0-.13.09-.3.11-.3.14-.28.17-.26.2-.23.23-.2.23-.21.21-.23.24-.19.26-.15.29-.1.28-.09.28-.13.21-.22.29.07h.3l.28-.1.1-.16.06-.1.14-.3.16-.26.25-.17.27-.15.26-.16.26-.16.27-.16.08-.06.16-.12.21-.21.13-.28.07-.32,0-.32,0-.31,0-.32-.05-.31-.07-.31-.05-.31,0-.35v-.35l.1-.21.28,0,.34.1.29.05.3,0,.3,0h.3l.29-.05.26-.17.18-.25.11-.3.11-.29.1-.31.08-.3.06-.31.07-.31.11-.29.14-.28.15-.28.1-.3.14-.28.27-.21.24-.21,0-.22L708,262l-.25-.25-.16-.27-.11-.29-.09-.31-.07-.31-.07-.31-.05-.31v0l0-.3v-.31l0-.32,0-.32.05-.31.09-.3.14-.28.11-.24.16-.33.12-.29.1-.3.14-.27.2-.24.2-.24.18-.25.16-.27.19-.24.22-.23.17-.25.15-.27.14-.28.12-.3.1-.29.1-.31.17-.56.26-.53.2-.57,0-.55v-.08l-.14-.71-.1-.59.12-.6.07-.17.15-.38-.06-.62-.13-.59-.07-.61,0-.71,0-2,0-.94v-.35l0-1-.09-1,0-.29.23-.57.22-.57.22-.57,0-.6-.06-.62v-.61l0-.61v-.62l.13-.6.12-.6.21-.57.11-.59-.06-.53v-.08l0-.21-.05-.4,0-.61.06-.61.05-.62,0-.61.1-.53v-.07l.07-.61v-.61l0-.62-.05-.61,0-.61-.06-.61-.12-.61,0-.12-.06-.28,0-.2.32-.49.35-.5.17-.59L712,222v-.58l-.13-.1-.33-.3-.3-.52-.25-.56-.26-.65-.22-1-.24-1-.32-1.32-.32-1-.38-1.23-.69-2.24-.6-2v0l-1-3.54-.25-.88-.38-1.43-.17-.62-.39-1.39-.31-1.14.14-1.28.22-1.18.45-2.36.11-.59.28-1.46.71-3.64.41-2.34.35-2.06v-.06l.06-.32.39-2.13.24-.2.26-.17.18-.09.1-.05.28-.1.3-.08.27-.12.14-.29.2-.24.21-.23.21-.28.23-.15.26.12.29.17.29.09.29.05.3.05h.06l.19.22.21.25.17.2.42.41.4.43.48.35.47.34.22.07.34.1h.71l.38,0h.06l.53-.18.55-.12.51-.2.51.3.48.35.42.42h0l.43.39.45.4.21.55.47.37.35.35.07.06.35.49.38.46.18.1.33.18.55.16.58,0,.55-.16.49-.34.55-.12h.58l.57.05.57.06.58,0,.57.07.11,0,.46.09.54.2.36.2.15.08.48.34.49.32.46.37.45.38.45.39.32.27.13.12.44.38.45.39.47.35.46.36.21.24.19.21.45.39.47.35h0l.46.33.49.31.54.23.52.25.43.41.5.37.48.27.49.32.49.33.52.27.46.18.08,0,.55.2.54.2.2.08.34.12.54.23.53.24.83.39-.06,1.11-.09,1.61-.11,2.33v.55l0,1.58-.1,1-.11,1.1,0,.44-.1,2.75-.1,1.31-.08,1,0,1.53,0,.66-.05.45-.22,2,0,.32-.23,2.08v.1l0,2.28,0,.3-.06,1.11,0,.86v1.24l-.12,1.6,0,.54,0,.25-.08.52-.24.56-.25.55-.25.56-.29.53-.29.53,0,.08-.18.49-.11.6.11,1.11.36,1.24.29.89.36,1.11.28,1.09.42,1.31.35,1.1.27,1.06.17.67.14.65,0,.88v0l-.3.71v1.18l.1,1.05,0,.64v.31l.41.43.41.44.43.41.5.31,0,.61.18.56.3.12.16.07.07,0h.59l.58,0,.56-.1.49-.34.54-.25.49,0h.07l.2.12.29.18h0l.42.42.44.4.53.23.57.05.59.06.6.05h.63l.5-.2.54-.23.49-.33.48-.17.08,0,.48.22.6.3.14.08.73.31.74.37.69.38,1,.68.11.08,2.35,3.42,2.12,3.07.08.11,1,1.44.3.45,0,.31,0,.32,0,.31v.31l-.06.3-.11.33-.12.25-.06.31v.32l.11.28.21.25.25.12h.9l.28.08.26.15.22.2,0,.06.13.19.18.26.22.21.21.21.15.26.13.29,0,.05.11.24,0,.3,0,.32-.11.27-.24.19-.13.28-.1.3-.05.31v.07l0,.24-.07.32v.3l.14.26.2.24.15.27.1.3.12.28.2.23.24.19.21.21.17.26.06.11.08.17.07.3v.31l0,.31v.63l.06.31.13.28.06.06.15.16.24.18.23.2.21.22.19.24.18.25.07.09.11.15.15.17.05.06.21.23.18.24.09.3,0,.31V278l-.05.31-.07.3-.12.29,0,.16,0,.15.14.23.28.15.28.07.29.09.28.11.27.11.25.16.1.12.1.12.13.27.07.31,0,.31,0,.32.09.29.12.12.1.09.25.17.27.13.27.12.25.16.2.23.17.26.06.3v.63l0,.3-.08.3,0,.23v.71l0,.3.1.3.1.29.1.3.07.31.09.18,0,.09.22.21.25.16.27.14.24.18.22.21.16.16.06.05.22.2.22.21.23.19.24.18.26.16.25.16.26.16.2.17,0,0,.2.23.19.24.16.26.12.27h0l.08.3,0,.31v.32l0,.31-.09.29-.12.29-.15.27-.12.23-.12.34-.1.29-.09.3-.05.31v.32l.09.27.19.27.25.18.27.1.3.06.27.09.27.15.25.17.23.19.21.22.2.23.14.27.15.27,0,0,.19.19.23.2.22.2.2.24.21.21.23.2.24.18.26.15.25.16.24.18.16.26.12.29.09.29,0,.32v.31l.06.32.22.18.29.1h.3l.29,0,.29,0,.3,0,.31-.06.06,0,.07,0,.19,0,.12,0,.28.06.14,0,.06,0,.17.05.25.17.25.17.22.21.18.25.17.25.16.26v0l.13.26.09.3.18.24.22.21.22.21.22.21.23.2.26.17.27.1.3-.06.21-.2.15-.28.14-.27.12-.29.06-.3,0-.32.07-.29.08-.13.09-.14.14-.27.26-.13.28-.11.25-.18.23-.19.26-.16.28-.05.15,0,.17.05,0,0,.19.11.27.12.3,0,.29,0h.3l.29-.05.29,0,.29,0,.24.19.18.25v.31l0,.31.07.3,0,.31,0,.32v.31l.14.27.13.16.07.08.23.2.26.14.25.18.24.18.22.21.16.26.18.24.26.16.08,0h0l.16,0,.3.05h.59l.3,0,.28,0,.28-.13.22-.2.26-.13.29-.06.29-.07.29-.05.2,0h.1l.29,0,.29.06.28.11.29,0,.25,0,.34-.05.29-.06h.08l.21,0,.28-.07.23-.09.06,0h.28l.32.09.21.2.1.11,0,0,.08.09.09.29v.32l-.11.28-.2.24-.22.2-.23.22-.09.25.15.29.24.18.23.19.23.2.22.21.22.21.21.23.24.17.28.12.29,0,.26-.12.28-.11.28-.09.31,0h.28l.3,0h.29l.29,0,.24.06h.05l.28.11.27.13.27.13.27.12.28.12.28.06.3,0h.29l.3,0,.3,0,.28-.06.28-.14.22-.19.2-.24.22-.2.24-.19.25-.16.26-.15.26-.15.26-.15.26-.14.06,0,.22-.09.28-.09.29-.08.29-.05h.29l.3,0,.29,0,.25-.15.18-.25.18-.25.18-.25.2-.23.28-.1.27-.12.26-.15.26-.16L822,306l.25-.17.25-.16.26-.15.27-.13.26-.14.1-.08.15-.12.25-.17.25.07.25.2.1.09.15.11.19.13,0,0,.06,0,.06,0,.13.09.25.17.26.15,0,0,.22.11.27.14.25.16.26.15.25.17.24.19.21.21.18.25.17.26.16.26.15.27.16.26.17.26.18.25.18.25.18.26.21.2.16,0,.13,0,.29.08.28.1.26.14.25.17.23.19.15.12.09.07.24.19.22.2.07.07.15.13.23.2.24.18.24.2.21.21.2.23.19.24.19.24.16.26.1.29.09.3.06.18,0,.12.13.29.13.28.1.29,0,.31v.31l0,.23v.08l-.14.3,0,.26.24.21.25.17.26.16.21.12.32.15h0l.27.09.15,0,.14,0,.28.08.29.08.28.09.28.1.28.11.28.1.27.12.28.12.27.1.29.09.28.07.29.07.29.07.29.08.28.07.29.06.27.07.31.07.29.07.29,0h1.18l.3,0,.2,0H843l.28.09.29.09.28.07.29.06.29.07.29.08.28.09.28.09.28.1.28.1.28.11.28.1.28.11.27.11.28.11.28.09.29.08.28.08.28.1.28.12.28.1.29.06h.29l.3,0,.29,0,.26.06h0l.29.07.29.07.29,0,.3,0,.3,0,.3-.06.27-.1.22-.18.18-.26.13-.21,0-.06.16-.26.16-.26.16-.26.17-.26.2-.24.19-.24.16-.25,0-.09.07-.22,0-.31,0-.32-.05-.3-.18-.26-.21-.24-.07-.27.1-.29.13-.3.09-.3.08-.3.08-.3.11-.29.05-.13.06-.16.1-.3.07-.3,0-.31,0-.31,0-.31,0-.31.06-.31L855,312l.12-.29.12-.28.23-.52.11-.29.12-.29,0-.13.07-.15.15-.27.2-.22.26-.16.26-.14.28-.11.27-.12.16-.26,0-.32.16-.18.28-.08.27-.14.11-.28,0-.32.17-.32v0l.12-.16.08-.11.34.43,2.37,1.5,2.88,1.81,1.11.7,1.66,1.05.24.19.24.19.23.19.21.18,0,0,.22.2.22.22.21.22.2.22.2.23.21.23.2.22.19.24.18.25.15.27.12.29v.07l.05.23.06.31.09.3.14.28.17.25.21.22.25.17.25.16.26.16.26.15.29.07.28.09.19.22.19.25.22.22,0,0,.2.18.2.23.17.25.16.27.15.26.14.28.16.26.23.2.09.3.13.26.15.07.13.07.09.11.12.13.19.27.2.14.25-.19.26-.17.27-.14.27-.13.28-.14.16,0,.12,0,.26.12.25.2.09,0,.18.07h.29l.3-.06.29-.1.06,0,.2-.11.25-.18.22-.21.16-.26.13-.28.15-.28.14-.27.16-.26.2-.23.22-.21.17-.25.17-.26.16-.26.16-.26.16-.27.17-.25.17-.26.17-.25.19-.24.15-.16.06-.07.21-.21.22-.21.1-.11.11-.11.19-.24.17-.26.16-.27.07-.09.11-.16.22-.2.27-.11.29-.09.25-.17.23-.2.2-.23.15-.27.12-.28.11-.29.12-.3.14-.27.16-.26.19-.24.18-.25.18-.25.18-.24.17-.25.18-.26.17-.25.18-.25.17-.26.1-.16.06-.1.08-.13.08-.13.12-.28.12-.29.07-.16,0-.13.14-.16.06-.07.28,0,.3.09.29.07.29.05h.59l.29,0,.29-.06.29-.07.34-.07.38-.11.27,0h.25l.24.05.22.07.2.08.2.05h.2l.21-.07.1,0,.1,0,.26-.15.27-.16.26-.17.14-.08.12-.09.2-.13.06-.05.25-.18,0,0,.23-.18.23-.21.2-.24.17-.27.14-.29.13-.29.15-.28.15-.29.15-.28.16-.28.18-.26.19-.24.22-.24.22-.22,0,0,.2-.19.23-.21.22-.22.23-.22.23-.21.24-.21.24-.19.26-.18L900,302l.27-.16.27-.15.1,0,.18-.09.29-.1.3,0,.3,0,.31,0,.3-.06.3-.08.3-.07.3-.07.3,0h.3l.31,0,.3,0,.31,0h.05l.25,0,.31,0,.3,0,.3.07.3.08.29.1.3.08.3.05h.3l.3-.06.08,0,.22-.07.16-.09.11-.06.23-.2.23-.23.25-.19.27-.14.29-.12.27-.13.28-.14.29-.13.28-.11.3-.07.3,0,.31,0,.3-.05.12,0,.19,0,.35-.12.19-.14.17-.27.11-.32,0-.31v-.33l0-.33,0-.33.07-.3.08-.13.08-.14.16-.2,0,0,.22-.24.21-.24.22-.22.22-.23.19-.25.15-.27.13-.3.12-.3.13-.3.12-.29.12-.3.11-.3.11-.31.1-.3.07-.32.07-.32.08-.31.12-.29.14-.29.12-.2,0-.08.17-.27.18-.26.18-.26.15-.17.05-.07.21-.24h0l.21-.22.23-.22.24-.2.25-.18.26-.18.25-.19.23-.21.22-.22.22-.23.22-.22.23-.21.25-.2.26-.18.24-.19.21-.23.18-.26.17-.26.16-.28.14-.29.15-.29.13-.29.14-.29.13-.3.11-.29.1-.31,0-.09.08-.21.1-.31.13-.3.13-.29.12-.3.11-.3.09-.31,0-.32v-.32l0-.33v-.33l0-.31.08-.32.1-.31.12-.3.16-.27.2-.24.2-.25.18-.26.19-.26,0-.06.14-.21.15-.28.1-.3.11-.38.06-.26,0-.15,0-.17,0-.33,0-.32,0-.31-.1-.29-.16-.29-.17-.28-.15-.29-.14-.29-.15-.28-.12-.3-.08-.31,0-.32,0-.32v-.65l0-.32,0-.32,0-.33v-1.3l0-.14,0-.17,0-.14-.05-.17-.1-.21,0-.08-.14-.29-.13-.29-.12-.3-.1-.3-.09-.31-.07-.32,0-.32,0-.32v-1.3l0-.32,0-.33,0-.32v-5.17l0-.33,0-.32v-2.59l0-.39,0-.37,0-.39,0-.4,0-.39,0-.38v-.67l0-5.39v-11l0-5.37v-2.81l0-5.38V196.78h-.69l-1,0-4.62-.12h-.41l-1.59,0h-1.05l-5,.06h-3.44l-.47.36-.47.36-.46.38-.35.47-.26.56-.18.58-.31.51-.14.17-.24.29-.44.4-.44.4-.31.51-.26.56-.09.6,0,.2-.06.4-.15.59-.06.61-.09.61-.15.59-.22.57-.22.57-.15.39-.07.18-.22.56-.31.52-.13.16-.25.3-.45.39-.44.39-.3.27-.15.13-.42.42-.32.55-.48-.06-.12-.59-.47-.31-.45-.39-.28-.49v-.62l-.07-.6-.14-.58.21-.57-.17-.53-.52-.26-.17-.08-.37-.16-.29-.5-.43-.15-.1,0-.12.58-.43-.34-.25-.55-.29-.54-.4-.27-.15-.1-.36-.75-.31-.49-.23-.37-.38-.45-.3-.53-.37-.45-.48-.35-.38-.46-.36-.47-.45-.39-.46-.37-.42-.42-.33-.49h0l-.44-.34-.58-.12-.37-.1-.19,0-.55-.15-.55-.19-.55-.14-.5-.31-.49-.32-.49-.33-.5-.31-.52-.26-.53-.25-.53-.24-.19-.08-.34-.15-.54-.2-.56-.17-.49-.31-.51-.28-.41-.43-.38-.46-.39-.45-.36-.48-.47-.35-.4-.42-.57.1-.48.34h-.58l-.54.16-.57.06-.21.1-.32.15-.53.25-.56.09-.57-.08-.57.09-.55.17-.57.12-.57.08-.55.18-.5.3-.43.49-.39.4-.49.25h-.6l-.57.05-.45.34-.36.5-.4.45-.42.42-.44.4-.48.34-.55.16-.58,0-.58,0-.22-.08L859,197l-.5-.31-.49-.37-.49-.31-.53-.24-.55,0-.65.25-.49.24-.43-.17-.33-.53-.31-.56-.31-.52-.29-.53-.21-.38-.08-.15-.2-.59v-.59l.11-.2.18-.34.22-.57.16-.59,0-.61-.09-.63-.33-.46-.53-.29-.56-.16-.51-.27-.41-.43-.31-.55-.09-.57,0-.62-.06-.42,0-.19-.07-.36-.05-.24-.16-.59-.2-.58-.2-.58-.23-.56-.28-.53,0,0-.35-.4-.42-.43-.41-.44-.32-.5-.08-.21-.14-.36-.15-.59-.13-.6-.11-.61-.16-.59-.29-.52-.37-.49-.4-.43-.43-.41-.18-.17-.26-.23-.43-.4-.42-.42-.43-.41-.31-.26-.14-.11-.49-.34-.49-.31-.5-.31-.5-.31-.52-.26-.56-.16-.57-.11-.5-.25-.21-.41-.08-.14-.12-.59-.1-.62-.08-.6-.07-.62-.08-.6-.11-.49,0-.12-.11-.6,0-.1,0-.21.06-.28.2-.58.18-.59.22-.56.26-.55.27-.59.27-.5.2-.57,0-.61,0-.62v-.61l-.11-.61,0-.61.1-.6.22-.57.27-.55.21-.56.06-.61,0-.62,0-.23-.07-.37-.06-.61.05-.61.14-.6.11-.39,0-.2.16-.59.09-.6v-.62l0-.61v-.62l.09-.61.07-.6v-.62l0-.44,0-.17-.1-.6-.06-.61.08-.61.09-.6h0l.07-.61-.06-.6-.17-.6-.25-.55-.3-.53-.31-.51-.33-.51-.35-.48-.37-.5-.24-.33-.11-.16-.4-.43-.38-.09-.14,0-.6.08h-.17l-.4,0-.57,0-.58.05-.57,0-.57-.06-.55-.18-.54-.22-.51-.29-.54-.17-.57-.09h0l-.56-.05-.57,0-.57.08-.35,0-.22,0h-.57l-.58,0-.57-.05-.55-.16-.56-.14h-.57l-.58,0-.57,0-.56-.11-.18-.1-.32-.2-.48-.34-.46-.37-.44-.34,0,0-.47-.35-.47-.34-.48-.34-.49-.33-.48-.33-.39-.45-.34-.5-.32-.51-.14-.23-.17-.28-.36-.49-.26-.52v-.61l.05-.62v-1.23l0-.62v-.61l.07-.63.12-.44-.27.08,0-.68-.1-.4-.25-.36-.11-.15-.21-.55V124l.14-.56.18-.57-.19-.32-.13-.2-.52-.24-.52-.28-.36-.46-.23-.57-.16-.59,0-.61.09-.61.12-.6v-.07l.05-.54,0-.61v-.62l0-.61-.09-.56v0l-.2-.58-.21-.57-.21-.57-.23-.57-.25-.55-.25-.55-.26-.55-.23-.56-.09-.26-.1-.32-.16-.59-.1-.61,0-.61v-1.23l0-.61,0-.62v-1.22l.07-.33.06-.27.18-.58.2-.58.23-.56.32-.51.32-.51.28-.54.27-.54.15-.32.11-.23,0-.6,0-.62.05-.62-.25-.51-.55-.18-.57-.06-.56-.11h-.57l-.52-.22-.28-.55-.1-.61-.09-.6-.29-.52h0l-.41-.43-.55-.13h-.58l-.56,0-.56-.16-.12-.1-.34-.25-.31-.37.15-1,.12-.4.13-.6.08-.61.06-.61.09-.61,0-.2,0-.41V88l0-.62v-.6l-.21-.57-.08-.38,0-.22-.07-.3-.07-.3-.14-.63-.06-.06-.11-.49,0-.61.08-.61.12-.6.19-.58.2-.36.09-.17.35-.49.38-.46.37-.46.35-.49.3-.52.16-.49,0-.09.12-.6.16-.6.17-.58.15-.59.11-.61.09-.6,0-.62,1.26-1,0-.13.17-1,0-.15.07-.37,0-.41,0-.21-.32-.45,0-.6h0l.15-.59.25-.56.31-.51.42-.41.47-.36.49-.32.29-.42-.06-.59v-.06l.37-.43.09-.07.22-.17.16-.13.45-.37.45-.39.15-.18.24-.27.34-.49.27-.54.21-.57.13-.6-.09-.6-.11-.6-.12-.6-.2-.58,0-.17-.05-.43V57.8l.34-2.12.79-4.91.12-.75.39-2.41.08-1,.05-.62,0-.6.24-.56.24-.56.26-.56.37-.45.23-.08.32-.11.33-.17.19-.09.47-.36.26-.53,0-.61,0-.62V40l0-.61-.16-.59,0-.61.18-.58.29-.53.29-.53.21-.41.07-.13.21-.57-5.39.14-1.5,0h0l-6.08.14-1.5,0-3.32.08-2.77,0L802,36l-6.09.1-.67.69-.47.28h0l-.53-.13-.51-.27-6.28-1.77-.4-.11-.18-.05-.36-.11-.64.53-.43.4,0,.29,0,.23-.14.55,0,.07-.09.15-.14.07-.52-.07-.56,0-.55-.08-.55.07-.53.19-.58,0-.26.34-.09.12-.52.17-.52.23-.55-.11-.57,0-.52.23-.48.34H778l-.46.06-.55-.1-.57.06-.55-.16h-.57l-.53-.09-.44-.4-.13,0-.42-.14-.53-.23-.56-.16-.5.18-.47.36-.47.34-.35.1-.2.06-.56,0-.57-.1-.57,0-.55-.09-.52-.25-.56-.14-.35-.1-.2-.06-.47-.35-.46-.36-.49-.33-.32-.5-.46-.33-.53-.25Z"/>
</g></g></g></svg>

