<svg xmlns="http://www.w3.org/2000/svg" viewBox="0 0 1948.2 3756.13">
<defs>
    <style>.cls-1,.cls-2,.cls-3,.cls-4{fill:#ccc;stroke:#646464;stroke-width:2.13px;}.cls-1,.cls-2,.cls-3{stroke-linecap:square;}.cls-1,.cls-2{stroke-linejoin:bevel;}.cls-1,.cls-3,.cls-4{fill-rule:evenodd;}.cls-3,.cls-4{stroke-linejoin:round;}
    </style>    
</defs>
<title>Recurso 2arg</title>
<g id="Capa_2" data-name="Capa 2"><g id="svg2"><g id="layer1">

<path id="path947" class="cls-4" d="M777.3,1923.4h.82l.29,0,.3,0,.2,0,.09,0,.29,0h.65l.31,0,.22-.11.13-.22.06-.28.05-.31,0-.29.09-.24.49-.1.37.11.32.08.12-.53L782,1921l0-.29.39-.28.33-.08.32-.08.24-.14.1-.23,0-.28V1919l.07-.25.16-.17.26-.1.31,0,.33,0,.32-.06.26-.12.18-.2.11-.28.09-.31.1-.26.34-.1.25.21.28.21.27.09.29-.06.31-.11.3-.11.28-.06.25,0,.21.16.19.24.18.25.2.21.23.12.28,0h.3l.31,0,.32,0h.3l.3,0,.3,0,.31,0,.3.06.27.09.25.12.21.18.16.24.15.26.16.24.19.19.25.1.27,0h.3l.31,0,.32,0,.31,0h.3l.31,0H796l.31,0h.13l.18,0,.28.06.25.11.23.15.2.18.19.21.18.22.18.22.17.23.19.22.19.21.21.18.23.18.23.17.24.16.25.15.26.14.26.13.27.11.28.09.29.07.29.07.29.06.29.06.29.06.3,0,.3.05.28.07.28.1.27.11.28.12.26.13.25.15.23.16.2.2.16.24.16.26.15.25.17.22.19.17.24.1.27.06.29,0h.31l.31,0,.32,0,.31,0,.31,0,.3,0,.32,0,.31,0,.32,0,.3,0,.28-.07.26-.1.22-.14.19-.18.16-.21.15-.24.13-.25.13-.26.13-.26.18-.32.3,0h.92l.29,0,.29-.05.27-.09.26-.13.25-.16.24-.17.24-.18.24-.18.24-.17.25-.14.25-.11.27,0,.29,0,.3.1.29.12.27.14.22.18.19.23.19.22.23.15.26.05h.29l.3,0,.23,0,.08,0h0l.27,0,.3,0,.29,0,.28.1.26.14.27.14.27.1h.29l.29,0,.3-.07.3-.07.29,0,.31,0,.32.06.33.08.31.06.28,0,.4-.21.13-.24.09-.28.07-.3.06-.28.06-.29,0-.32v-.33l.16-.45.39.43.19.26,0,0,.22.19.47-.13.25-.2.23-.23.2-.22.16-.28.14-.31.13-.25.3-.07.17.19.17.27.18.28.21.24.24.13.3.08.31,0,.31,0,.27-.08.25-.14.24-.17.24-.18.26-.14.27-.1.28-.07.3-.06.3,0,.3,0h.59l.29,0,.29.09.29.08.29,0h.3l.3,0h.3l.3,0,.28.06.29.09.28.09.28.1.29.09.28.08.29.06.29,0h.3l.3,0,.29,0,.31,0,.29,0,.3,0h.3l.29,0,.3,0,.29.06.29.06.3.07.29,0,.29,0,.3,0h1.49l.3,0,.3,0h1.49l.3,0,.29,0,.29,0,.3.06.29.06.29.07.29.08.28.07.29.08.29.07.28.09.29.11.29.12.28.12.28.11.29.09.28.06.27,0,.28,0,.28-.07.27-.1.27-.12.27-.14.27-.14.27-.16.27-.14.27-.13.27-.12.28-.08.28-.06.28,0h.29l.28,0,.29.06.29.07.29.09.3.08.29.1.3.09.29.08.29.07.3,0,.29,0h.29l.3,0,.29,0,.58-.12.29-.08.3-.08.29-.08.29-.08.29-.06.3-.06.29,0,.29,0h.29l.29,0,.29,0,.3.06.29.07.29.08.29.09.29.08.29.08.28.08.28.09.28.11.28.1.28.09.29.06.29,0h.3l.31,0,.31,0,.3,0h.27l.31,0,.27.09.25.14.25.16.24.18.24.18.25.16.25.13.27.08.28,0h.59l.3,0,.31,0,.3,0,.31,0h.6l.29,0,.3.06.3.06.29.07.29,0h.3l.29,0,.29-.07.29-.09.3-.1.29-.1.29-.11.29-.09.28-.07.29,0h.27l.28,0,.26.08.26.12.25.14.26.16.25.16.26.17.25.16.27.14.27.12.27.08.29.07.29,0,.31,0,.3,0,.3,0,.3,0,.3,0,.29,0,.28.07.27.11.25.15.23.18.24.19.24.16.25.13.28.07.29,0,.29,0,.29,0,.3,0h3.92l.3,0,.22,0h.07l.28.07.28.09.27.11.27.12.27.12.26.13.27.12.27.12,1.14-.69H894l.13,0,.19.06.32.08H895l.34.05.35.06.34,0,.25.21.2.25.29.16.33.12.3.14.28.19.28.18.3.16.32.09.35,0,.35,0,.34,0,.34.08.33.1.34,0,.34,0,.35,0h.34l.35-.06h1.38l.35,0,.33.09.32.12.3.15.26.2.23.24.26.19.31.15.22.24.26.2.19.26.3.14.34.06.35,0,.35,0h.69l.35,0,.3.13.23.23.25.22.28.18.3.15.33.11.34.06h.69l.34,0,.34.08.33.08.34.07.35,0,.34,0,.32.11.33.11.31.13.3.15.29.17.31.15.31.13.32.13.32.12.3.15.29.16.3.17.29.16.29.18.23.23.3.16.31.12.32.12.32.13.32.12.31.13.31.14.3.15.3.16.3.16.29.17.32.12.33.09.32.12.28.19.29.16.3.16.32.13.29.16.25.22.19.14.39.19.32.12.32.11.32.11.32.12.33.11.32.1.34.09.32.11.32.14.3.14h0l.29.14.3.15.3.15.3.16.31.14.31.14.31.12.33.11.32.12.31.14.31.13.33.11.33.09.33.1.3.1.12,0,.23.08.31.13.32.13.31.14.25.2.07.31,0,.31.06.31.17.26.23.23.3.15.33.11.34.06.34,0,.35,0,.34,0,.34-.07h.35l.34.07h1l.34,0,.35,0,.33.07.34.09.32.11.33.11.26.2.24.22.27.2.26.2.21.25,0,.29-.2.26-.21.25-.21.24-.19.27,0,.29.29.19.27.18.3.18.13.24,0,.31.32.11.33.11.33.09.33.09.33.08.34.08.34.08.33.08.34.09.32.12.28.17.13.29.07.31.15.28.25.2.32.13.32.12.32.12.32.13.28.19.24.21.24.23.27.19.28.18.27.21.24.22.12.28.07.31.15.28.11.29.07.31.06.23,0,.07.17.26.33.11.63.26.3.15.29.18.33.09h.34l.34.08.33.1.32.11.32.13.35,0h.35l.34,0h.7l.35,0,.33.08.3.16.31.14.28.18.26.2.34.07h.35l.34-.06.35,0h.62l.41.06.34.08.34.06.35,0,.29.14.27.19.32.13.32.12.32.13.31.13.32.13.34.07.33.09.29.18.23.23.18.26.13.29.11.29.1.3.12.29.14.29.17.26.24.22.23.24.28.19.3.14.31.15.26.21.19.25.18.27.19.26.13.28v.63l-.13.27v.31l.05.31.24.21.29.18.31.14.34.06.31.13.3.17.3.16.3.16.28.17.25.22.25.22.28.17.3.17.3.15.3.16.31.15.32.12.33.09.34.07.26.18.21.26.18.26.12.29.19.24.31.15.32.12.34.09.23.23.24.22.3.16.31.13.28.19.29.17.25.21.2.26.13.28.05.3.25.22.33.08h.35l.34-.09.33.07.32.12.34.09.34.06.34,0,.35,0,.34.07.33.1.32.11.33.1.33.12.32.1.33.11.33.1.34.06.34.1.32.11.32.11.34.1.32.11.27.18.25.22.25.23.26.19.3.18.18.25.08.31,0,.31v.62l0,.3.08.31.17.26.28.2.31.12.34.09.34.08.33.09.34.09.33.08.33.1.3.15.3.17.31.14.3.15.31.15.29.17.29.17.31.15.32.13.32.12.32.11.24.12.34.22.29.17.32.14.33.09.34,0h.36l.34,0,.35,0,.34.06.34.08.34.06.35,0,.35,0,.34.05.35,0,.35,0h1l.35,0,.33-.11.3-.16.37,0-1.38-484.71-166.3,0,.09,2.51c.34,30,0,60.06-.11,90.09l-.1,20.35-314.07-.18-.51,18.84,5.92,0-1.21,157.8.25.12.28.11.28.1.28.11.28.1.28.09.29.09.29.08.28.08.3.06.29.06.3,0,.3,0,.3,0,.3,0h.9l.3,0,.3,0,.3,0,.3,0,.3,0,.3,0,.3,0h.91l.3,0,.3,0,.3,0,.3,0,.29,0,.3.05.3.06.29.06.3.06.29.06.29.07.29.08.29.08.28.1.28.1.28.11.27.11.29.11.27.1.29.1.28.07.29.06.3,0,.3,0h3.63l.3,0,.3,0,.3,0,.3,0,.3,0,.3,0,.3,0,.3,0,.3,0,.29,0,.3.06.29.06.3.06.29.06.3.06.29,0,.3.06.29,0,.3,0,.3,0,.3,0,.3,0h.6l.31,0h2.71l.3,0,.3,0,.3,0,.3,0,.3,0,.3,0,.3,0,.3,0,.3,0,.3,0,.3,0,.3,0,.3,0,.3,0h1.81l.3,0,.3,0,.29.07.29.07.29.08.29.08.28.09.29.09.29.09.29.08.29.08.3.07.29.08.29.1.26.12.46.33.19.21.17.2v0l.18.23.18.23.19.22.2.2.22.18.24.17.25.15.26.15.26.13.27.14.26.13.28.11.28.11.3.09.29.1.27.11.27.13.24.15.21.17.18.21.16.24.14.25.14.25.14.25.15.24.16.24.17.23.17.23.17.23.14.24.13.25.09.25,0,.26,0,.27,0,.27v1.66l0,.27.05.27,0,.27.05.27.06.27.07.27.07.26.07.27.07.27.08.26.08.26.1.26.09.26.1.26.09.26.09.26.09.27.07.26.07.27.06.27.07.26.08.27.08.26.11.26.1.25.11.26.12.25.13.25.13.25.13.24.13.25.15.24.16.23.16.23.16.23.17.23.16.23.14.24.14.25.13.24.13.25.14.24.14.25.17.23.2.23.18.23.1.24-.13.49-.14.26-.16.25-.13.26-.1.26-.09.26-.09.26-.09.26-.08.26-.1.26-.1.26-.11.26-.11.25-.11.25-.12.26-.13.24-.13.25-.12.26-.14.25-.16.23-.21.19-.24.15-.28.12-.29.12-.28.11-.28.12-.24.15-.21.18-.18.22-.16.23-.14.25-.13.25-.12.26-.13.25-.12.25-.11.26-.1.25-.1.26-.11.26-.11.25-.13.25-.13.27-.13.28-.16.25-.19.18-.23.1h-.28l-.31,0-.32-.06-.12,0-.21,0h-.3l-.3,0-.3,0-.3.06-.28.08-.3.09-.27.11-.26.14-.24.16-.17.13-.07,0-.23.17-.24.18-.25.16-.26.14-.26.13-.27.14-.25.14-.25.15-.24.17-.24.18-.22.18-.22.19-.22.19-.21.2-.21.2-.19.2-.19.22-.17.23-.16.23-.15.23-.15.24-.16.24-.16.23-.16.23-.16.23-.16.24-.15.24-.14.24-.12.25-.11.26-.1.25-.11.26-.13.24-.16.23-.2.21-.21.21-.18.22-.14.24-.09.25-.08.27-.06.27-.06.27.17.78.21.41.23.4.14.42.13.43.24.63.15.18.31.35.17.17.2.13.23.09.48.48.24.4.16.17.18.16.16.16.16.17.19.15.27.38.27.37.21.41.29.35.17.17.16.18.32.34.19.15.46.14.23.08.24.07.43.22.46.17.49,0h.75l.24,0,.24-.07.24-.06.24-.06.23-.07.24-.08.22-.1.23-.09.23-.09.23-.09.33-.34.43-.13.26,0h0l.21,0,.43.5.29.36.32.36.42-.13.18-.16.43-.22.41.14.15.43.16.42.2.65.08.21.08.21.09.44.3.59h.26l.48.42.19.66.1.44.11.43.14.66.13.44.18.41.25.39.31.35.33.34.22.11.23.09.23.07.25,0,.48-.12.24-.07.45.08.19.15.17.17.14.18.15.18.17.17.18.16.28.36.21.41.21.41.18.41.11.44.14.43.11.2.11.2.19.42.09.2.1.21.13.43.06.45.14.43.28.37.18.15.19.14.21.13.22.11.45.52.2.42.24.39.17.15.2.14.2.14.18.15.47.12.25,0,.24,0,.24.06.23.08.23.09.23.09.22.1.22.1.23.1.23.1.23.07.25.05.25,0,.45.15.12.66,0,.45.21.59.21.14.22.11.23.09.24.07.24.06.24.06.25,0,.48-.1.24-.06.25,0h.25l.24,0,.25.06.23.06.37.3.2.14.47.13.25,0h.75l.25,0,.23-.07.23-.09.23-.08.23-.09.23-.1.21-.11.21-.13.2-.13.47-.16.23-.09.19-.14.33-.33.3,0,.26.08.32.47.25.27.29,0,.29,0,.29,0,.3,0h.88l.29,0,.3,0,.29,0,.3,0,.29,0,.29,0,.3,0,.29,0,.3,0,.3,0h.58l.29,0,.29,0,.29.07.29.07.29.07.28.07.29.09.28.09.28.08.28.07.29,0h.3l.3,0,.3,0h.29l.29,0,.29.07.29.08.29.08.28,0,.29,0h.3l.29,0,.29,0,.29-.07.29-.06.29,0,.3,0,.29,0,.3,0,.29,0,.29,0,.3,0,.29,0,.3,0h.61l.3,0,.29,0,.27-.07.25-.12.24-.15.22-.19.22-.19.21-.2.21-.19.21-.2.19-.21.24-.12.31,0,.3,0,.23-.15.19-.2.18-.23.17-.22.2-.2.23-.15.29-.06.31,0,.28-.08.23-.16.22-.2.23-.17.26-.08h.28l.27,0,.34.06.3,0h1.77l.3,0h.59l.3,0,.29,0,.29,0,.3,0,.29,0,.29-.06.29,0,.29,0,.33,0h.34l.24.08.17.45,0,.28v.85l0,.26-.05.26,0,.27,0,.26,0,.27,0,.26,0,.27,0,.29,0,.29,0,.29v.27l0,.25.26.39.23.13.28.11.31.08.32.08.3.07.31.06h.36l.1.6-.09.28-.07.29,0,.27,0,.26.09.25.1.25.12.25.11.26.1.25.08.25,0,.27v.53l0,.26,0,.27,0,.27,0,.27v.26l0,.26.06.27.08.25.08.26.07.26,0,.26v.27l0,.27,0,.26,0,.27v.26l0,.27,0,.28,0,.29,0,.29.05.28.07.27.08.23.21.22.39.08.35-.07.32,0,.33,0,.32,0,.26.06.14.18.08.27.05.29.09.27.16.21.22.15.26.13.28.12.28.1.28.12.25.14.25.15.25.15.24.15.26.13.27.12.27.11.28.11.12.06.13.07.24.15.2.19.17.22.17.23.17.22.21.19.24.15.26.13.26.13.27.13.24.15.21.19.2.2.19.2.19.21.19.21.21.18.24.16.24.14.26.13.27.12.28.11.27.1.28.1.28.1.29.08.3.06.29.06.29.07.26.11.24.15.22.17.2.2.19.21.19.22.18.23.18.22.19.21.11.1.1.09.21.17.23.15.26.08.29,0H648l.31,0,.28.06.26.12.23.17.24.18.23.17.26.14.27.08.29.07.3.07.31.06.3,0,.31,0h.58l.27,0,.24-.13.2-.22.21-.23.21-.2.25-.1.29,0,.31,0,.32,0h.32l.31,0,.31,0,.27.06.25.1.19.16.15.22.11.27.11.28.13.26.16.23.21.17.25.14.26.12.27.11.29.1.28.1.28.11.26.13.24.16.24.18.24.17.24.16.25.12.27.07h.59l.31,0,.3,0h.31l.29,0,.28.07.27.1.28.12.27.12.27.12.27.1.28.08.29,0h.3l.3,0,.3,0,.3,0h.3l.29,0,.28.07.27.11.27.12.26.14.27.13.27.11.27.1.28.1.29.1.28.1.27.11.26.12.24.14.22.17.21.2.19.21.18.22.18.22.18.22.06.06.14.14.21.18.23.15.26.11.28.08.29.06.3,0,.3.06.3.06.28.08.27.11.26.15.24.16.25.16.25.14.27.09.29,0h.29l.31,0h.6l.29,0,.28.09.27.11.27.12.27.13.27.11.28.08.29.06.3,0h1.23l.24,0h0l.12,0,.16,0,.26.09.25.13.22.16.21.19.21.2.19.21.2.21.2.21.21.2.22.17.26.14.3.1.31.07.32.07.16,0,.12,0,.23.13.16.19.11.22.08.24.06.26,0,.26,0,.28,0,.28,0,.28,0,.28,0,.28.05.26,0,.26.05.27,0,.26,0,.27.05.26.06.26.08.26.09.25.11.25.12.24.15.24.15.24.16.23.16.24.16.24.15.23.13.24.11.24.09.24.06.25v.24l0,.26-.08.26-.1.25-.12.27-.12.26-.12.25-.1.26-.12.25-.13.24-.14.25-.12.25-.1.24,0,.25.05.26.15.27.17.27.11.24-.22.38-.32.14-.35.13-.28.13,0,.33.19.19.27.2.28.2.24.18.24.17.25.16.25.15.22.17.18.21.1.28.08.28.14.22.24.1.28,0,.31,0h1l.3,0,.28.06.24.11.2.19.15.24.12.28.13.28.13.25.17.2.48.12.3-.06.32-.09.32-.08.3,0,.09,0,.19,0,.53.28.28.06.32,0,.31-.06H695l.25.1.23.15.21.18.21.19.21.2.2.21.2.21.4.38.06.29,0,.31.07.28.28.16.36,0,.31-.12.32-.1.29,0,.26.12.24.18.25.15.29.07.31,0,.3,0,.25.12.19.22.16.28.15.26.62-.07.24-.24.26-.16.28,0,.32.14.29.1.36-.3.1-.27.12-.34.09-.15,0-.05.4.16.24.24.25.22.26.09.26-.08.27-.16.27-.18.27-.1h.07l.18,0,.26.14.26.18.26.14.28.09.29.07.3.06.29.06.28.08.27.11.25.14.23.18.22.19.23.18.24.14.28.1.29.06.31,0h.6l.26-.09.21-.26.21-.14.25.09.26.19.26.21.25.15.43-.17.18-.27.18-.28.2-.18.47.08.26.16.26.19.27.17.27.13.28,0,.3,0,.3-.08.29-.08.27-.12.27-.12.27-.1.29,0,.3,0,.3,0,.28-.07.28-.1.27-.12.27-.12.27-.12.26-.12.27-.11.27-.12.26-.12.26-.13.27-.13.25-.16.26-.16.25-.16.26-.15.26-.1.27-.07h.27l.28.07.29.11.28.12.29.11.29.07.3,0h.3l.3,0,.31,0,.3,0h.59l.27.08.24.2.23.24.21.16.33-.28.15-.29.2-.19.27-.06h.61l.32,0h1.2l.29,0,.29.07.27.1.27.12.28.11.29.11.31.15.3.13.28.09.39-.45,0-.33.08-.27.48-.11.32,0,.33,0h.31l.3-.1.31-.14.3-.15.28-.13.25-.06.18.2.22.26,0,.31,0,.32.08.27.06.27.08.27.11.24.18.19.26.16.3.12.28,0,.25-.1.23-.23.25-.11.27.1.27.19.27.16.42-.19.17-.31.16-.27.36.06.19.27.19.31.18.25.29,0,.1-.3.11-.35.13-.27.4,0,.25.16.26.21.26.21.27.16.27.07.26,0,.27-.13.27-.16.28-.13.29-.06.29,0,.3,0,.3,0,.3,0h1.55l.3,0,.29,0,.26.07.19.14.1.25.08.3.12.26.23.16.3.12.26.13.11.22,0,.28,0,.32,0,.31v.26l.26.25.28-.08.33-.12.34-.1.29,0,.25.18.24.22.23.1.24-.12.24-.26.17-.2.23-.17.22.36.07.29.07.33.08.31.11.26.3.15.37,0,.32-.12.32-.12.31-.06.31,0h.69l.22,0h.1l.26.07.15.63-.1.32-.08.3.2.32.31,0,.36,0,.32,0,.25.16.15.18.26.3.31,0,.3-.25.2-.29.2-.22.38.1.18.22.17.26.19.27.21.23.23.14.28,0,.32,0,.33-.07.32,0H763l.36.34.09.31.08.31.09.26.37.09.25-.16.27-.21.28-.18.28-.08.6,0h.6l.3,0,.3-.11.27,0,.22.17.2.23.21.2.26.08h.28l.3,0,.3,0,.31,0,.31,0h.67l.23,0,.29,0,.28.08.27.12.25.15.25.16.26.14.27.08h.3l.33,0,.32-.06.29,0,.43.22.11.27.1.29.13.26.21.15.26.09.3.06.31,0,.31,0,.31,0,.29,0,.3,0,.3,0,.3,0Z"/>
</g></g></g></svg>
