<svg xmlns="http://www.w3.org/2000/svg" viewBox="0 0 1948.2 3756.13">
<defs>
    <style>.cls-1,.cls-2,.cls-3,.cls-4{fill:#ccc;stroke:#646464;stroke-width:2.13px;}.cls-1,.cls-2,.cls-3{stroke-linecap:square;}.cls-1,.cls-2{stroke-linejoin:bevel;}.cls-1,.cls-3,.cls-4{fill-rule:evenodd;}.cls-3,.cls-4{stroke-linejoin:round;}
    </style>    
</defs>
<title>Recurso 2arg</title>
<g id="Capa_2" data-name="Capa 2"><g id="svg2"><g id="layer1">
<path id="path3685" class="cls-1" d="M766.63,1082.58v-1.22l.07-8.12,0-2,0-6.16.07-8.13.07-8.12,0-4.11,1.42-3.76,2.88-7.62,2.87-7.61,2.86-7.61,1.78-4.73,1.09-2.89,2.86-7.61.15-.4,2.7-7.22,2.85-7.62,1.45-3.88.34-.91.84-2.9,2.26-7.8.53-1.83,1.73-6,2.25-7.81,2.26-7.81,1.87-6.39-2.48-7-2-6.53-.6-1.69-1.06-3L794.32,920l-1.3-3.41-2.85-7.48-1.3-3.42-1.44-4.36L785.05,894l-.16-.44L782.1,886l-1.87-5.12-.87-2.53-2.65-7.68-1.35-3.9-1-2.91-.29-.88-2.28-6.9-.29-.81-2.77-7.64-.13-.36-.45-.16-7.05-2.53v-.61l0-7.56-1.69-1.64-5.8-5.66-5.79-5.66-5.79-5.66-5.78-5.67-.56-.55-2.23-2.19-.45-.26-3.18-1.81L727.67,806l-4.95-2.4-.37.29-.23.18-.24.18-.25.17-.26.13-.28.1-.29.09-.29.07-.29.05-.3,0-.29,0-.3,0h-.6l-.29,0-.29-.06-.29-.07-.29,0-.3,0-.29-.06-.28-.09-.29-.1-.27-.1-.28-.12-.28-.11-.27-.12-.27-.13-.24-.17-.23-.19-.22-.2-.23-.19-.25-.16-.26-.15-.27-.13-.28-.09-.29-.08-.28-.1-.28-.11-.27-.12-.28-.1-.29-.1-.28-.07-.29,0h-.9l-.3,0-.3,0-.29,0h-1.79l-.29,0-.29-.07-.28-.1-.27-.13-.25-.17-.22-.2-.21-.22-.19-.22-.17-.25-.15-.27-.12-.27-.09-.29,0-.29V799l0-.3,0-.3.08-.29.12-.26.19-.23.22-.22.2-.22.19-.23.2-.23.19-.23.17-.24.17-.25.17-.25.17-.24.18-.24.21-.22.2-.22.16-.25.1-.28,0-.3.06-.29.1-.28.13-.28.14-.27.11-.27.08-.29.06-.29,0-.3,0-.3,0-.3,0-.3,0-.3,0-.29.06-.3.07-.29.1-.28.14-.27.2-.23.25-.14.29-.09.3-.06.29-.07.3-.05.31-.06.27-.08.22-.17.15-.26.12-.3.08-.29.06-.3v-.29l-.09-.29-.14-.27-.17-.24-.45-.41-.25-.15-.27-.12-.27-.13-.27-.13-.27-.13-.26-.13-.27-.13-.27-.12-.27-.13-.27-.13-.27-.12h0l-.24-.12-.27-.12-.27-.13-2.89-2-.28-.2-6.16-4.66-1.65-1.24.17-6,0-.84-.17-3.94-3.28-.37-.07-.47-.11-.27-.17-.25-.14-.26,0-.29.13-.27.1-.29,0-.14,0-.13-.06-.24.08-.29-.05-.3.24-.17v-.25l.15-.26.22-.21,0-.27-.07-.3-.07-.29,0-.3.1-.28.12-.28.12-.27.1-.28v-.3l0-.3v-.9l0-.3,0-.29v-.3l0-.3,0-.3,0-.3,0-.29-.88-2.17-3.05-7.52-2.13-5.26L685,739l-7.84-1.69-7.83-1.69-7.84-1.71-1.78-.38-6.07-1.25-.85-.18-6.41-1.32-.55.25-3.7,1.64-3.64,1.6-1.42.63-3.35,5.61-3.45,5.75-1.38,0-1.57,0-6.45.12-2.6.05-5.42-.05-4.43,0-.31-.09-3.18-1-2.66-1.47-5.43-3-2.15-.42-2.79-.54-1.1-.21-1-.19-5.08-.3-1.88-.5h-1.79l-.3,0-.29,0-.29,0-.29.06-.28.08-.28.1-.28.11-.27.12-.27.12-.27.13-.26.14-.26.15-.26.14-.27.13-.27.11-.28.11-.27.1-.28.11-.28.1-.27.11-.28.12-.26.12-.27.13-.27.13-.26.14-.27.13-.26.14-.27.13-2.72.58-.33,0-3.9.54-.79,4.06-.34-.28-.21-.22-.2-.22-.17-.23-.16-.26-.13-.27-.1-.29-.1-.28-.08-.29-.08-.29-.08-.29-.07-.29-.1-.28-.16-.25-.19-.23-.19-.24-.19-.23-.18-.24-.1-.28-.07-.29,0-.31v-.3l.06-.28.11-.28.13-.28.11-.28.06-.29v-.32l0-.31-.14-.24-.23-.16-.29-.13-.28-.12-.27-.13-.27-.13-.29-.14-.24-.12-.26-.14-.25-.16-.25-.16-.24-.17-.24-.18-.23-.19-.22-.2-.21-.21-.19-.23-.19-.23-.18-.24-.17-.25-.16-.25-.14-.26-.13-.27-.12-.28-.11-.27-.1-.29-.09-.28-.1-.29-.1-.28-.78-4,.74-.86,0-.66-.72-.34-1.29.28-.16-.55v-.3l0-.3v-.9l0-.29,0-.3,0-.3,0-.3,0-.3.07-.29.08-.29.08-.29.06-.29,0-.16,0-.13,0-.3,0-.3-.06-.3-.09-.29-.21-.19-.3-.08h-.33l-.33,0,0-.14.15-.25.21-.28.18-.26.18-.25.17-.24.15-.26.13-.27.13-.27.14-.27.16-.27.09-.27,0-.28-.12-.28-.12-.29-5.51-.58-.35.08-.28.19-.19.17-.23.19-.23.18-.24.18-.26.15-.27.12-.29.09-.28,0-.3-.07-.29,0-.3,0-.27-.1-.26-.17-.27-.08-.27.15-.15.25-.14.27-.13.27-.16.26-.19.24-.22.17-.29.08-.3,0h-.3l-.29,0h-.3l-.34.09-.22.1-.27.12-.27.13-.25.15-.23.19-.2.22-.18.24-.18.24-.19.22-.22.22-.23.2-.26.12-.28,0-.31,0h-.3l-.29,0-.3,0-.29,0h-.59l-.29-.05-.28-.1-.27-.13-.26-.15-.25-.17-.25-.2-.18-.27v-.22l.1-.31.09-.3v-.29l-.13-.26-.19-.24-.18-.24-.19-.23-.18-.24-.12-.27-.05-.3,0-.3-.05-.29-.16-.26-.22-.19-.27-.14-.26-.13-.26-.15-.25-.17-.18-.24-.19-.22-.27-.12-.3-.07-.28,0-.26.15-.29.08-.36,0-.23,0-.29-.09-.21-.18-.14-.28-.12-.27-.11-.29-.12-.28-.18-.23-.24-.18-.28-.13-.28,0-.28.09-.28.13-.28.16-.28.17-.24,0-.21-.15-.19-.25-.2-.27-.21-.21-.23-.2-.24-.18-.25-.14-.28-.11-.28-.09-.29-.07-.33-.06-.25,0-.3,0-.29,0-.29-.07-.28-.08-.29-.08-.29-.07-.29,0-.31,0-.3,0h-.3l-.26.07-.21.18-.18.26-.18.26-.19.23-.21.22-.25.14-.31.07-.29,0-.23-.16-.22-.21-.21-.23-.23-.2-.22-.2-.22-.2-.2-.25-.14-.23-.11-.28-.08-.29-.08-.29-.06-.3,0-.29,0-.3,0-.3,0-.3v-.3l0-.3.08-.29.14-.27.13-.27.07-.29,0-.31,0-.29-.1-.3-.14-.29-.19-.19-.09,0-.17,0-.31,0-.32,0-.29,0-.3.05-.29,0-.3,0-.28,0-.3,0h-.3l-.29,0-.29-.05-.27-.1-.27-.14-.27-.13-.27-.09-.29-.05-.3,0-.29,0-.3-.05-.28-.07-.28-.09-.28-.09-.28-.1-.29-.09-.28-.07-.29-.06-.29-.05-.29-.07-.28-.08-.28-.11-.27-.12-.28-.1-.32-.08-.28-.07-.31,0-.26.07-.18.19-.15.26-.14.29-.14.29-.17.26-.17.26-.21.19-.26.1-.3.05-.3,0h-.3l-.3,0-.31-.07-.27-.11L504,706l-.08-.3-.08-.3-.14-.26-.15-.26-.17-.25-.18-.24-.14-.26-.07-.29-.05-.3.09-.26.12-.32.14-.35.12-.37.08-.21.07-.22.09-.2.11-.2.08-.21.07-.21.06-.22.07-.21.08-.21.1-.21.09-.2.09-.21.07-.21.06-.22.06-.21.05-.22,0-.22,0-.23v-.22l0-.23,0-.22,0-.22,0-.22,0-.23,0-.22,0-.22v-.23l0-.22,0-.23v-.67l0-.23,0-.22.06-.22.07-.21.06-.22,0-.22,0-.22.06-.22.06-.21.07-.22.09-.21.07-.21,0-.22,0-.22v-.9l0-.23v-.22l0-.23v-.23l0-.22,0-.22-.06-.22-.08-.21-.1-.21-.1-.19-.14-.18-.16-.14-.2-.12-.19-.11-.18-.14-.16-.16-.13-.18-.11-.19-.09-.21,0-.22,0-.22-.06-.22-.06-.21-.07-.22-.07-.21,0-.22V686l0-.22,0-.13,0-.09-.1-.2-.13-.18-.14-.18-.15-.16-.16-.16-.16-.16-.18-.13-.19-.11-.2-.09-.21-.07-.22-.07-.2-.08-.21-.07-.21-.08-.21-.08-.2-.08-.21-.07-.21-.08-.2-.09-.21-.08-.19-.1-.19-.12-.19-.12-.18-.13-.19-.13-.17-.14-.13-.17-.1-.21-.1-.2-.11-.2-.1-.19-.1-.21-.07-.21L498,681l-.06-.22-.06-.22-.07-.22,0-.22v-.22l0-.22,0-.22,0-.22.05-.23,0-.22.81-2.82.71-2.5-5-2.16-1-.43-6.21,3-2.79,1.36-4.72.51h-.13l-4.19.43-3.76.17-2.86.12-4.09,2.22-.49,0-8-.28-8-.28-8-.3-.05.16-.14.27-.12.28-.13.28-.11.28-.11.28-.11.29-.1.29-.11.28-.1.29-.1.29-.09.29-.08.29-.09.29-.1.29-.07.2-.12.38-.08.29-.07.3-.06.3-.05.3,0,.3v.31l0,.3,0,.31,0,.3-.05.3-.06.3-.06.3-.07.3-.08.29-.13.28-.08.29v.3l0,.31,0,.3,0,.31,0,.3,0,.31,0,.3,0,.3-.06.3-.09.29-.1.29-.1.29-.1.29-.1.29-.12.27-.16.27-.13.27-.08.29-.11.28-.17.26-.19.24-.19.23-.2.23-.2.23-.24.17-.28.12-.29.1-.29.06-.31,0-.3,0-.26.12-.22.21-.21.23-.22.21-.19.23-.11.26-.06.33,0,.3,0,.31-.12.27-.11.29-.06.3,0,.3v.31l0,.3,0,.31,0,.3-.06.3-.12.28-.16.26-.2.24-.24.17-.29.05-.3.07-.28.1-.29.08-.3,0-.29,0-.29-.11-.28-.11-.29-.08-.29-.07-.15,0-.15,0-.29,0-.3-.05-.3,0-.3,0h-.3l-.29,0-.3.08-.28.12-.25.16-.21.21-.19.24-.19.25-.22.19-.26.16-.25.18-.24.18-.24.19-.32.14-.23.22-.19.23-.12.27-.08.34v1.8l0,.3,0,.3,0,.29-.06.3-.07.29-.09.28-.09.29-.11.28-.11.28L422,708l-.14.26-.15.25-.18.24-.22.21-.22.2-.24.17-.25.17-.25.15-.26.15-.26.15-.26.13-.26.14-.27.13-.33.06-.18.14v.27l0,.3.05.31.05.32,0,.31,0,.29,0,.3v1.5l0,.3,0,.3v1.8l0,.3,0,.3,0,.3,0,.3-.1.28-.09.29-.11.29-.13.27-.17.23-.2.21-.22.21-.22.19-.24.18-.24.18-.25.18-.24.17-.25.16-.25.16-.26.15-.26.14-.26.14-.26.14-.26.14-.26.14-.26.16-.25.16-.25.16-.24.16-.25.17-.24.17-.24.17-.25.17-.24.17-.25.17-.24.17-.24.19-.19.21-.16.25-.14.27-.12.28-.12.27-.11.28-.1.28-.09.29-.09.29-.09.28-.07.29-.07.29-.07.3-.07.29-.1.43-2-.87-1.31-.3-.4,0-1.51-.1-2.51-.52-.17,0-.52,2.36-.84,2.32-1.2,2.81-1,2.38-.82,2.28-1,2.42-.2.46-.21.5-1.45.39-.74,0-2.62-.39-2.31,1.19-5,2.57.36.28.28.09.28.08.57.18.57.12.6,0h0l.58-.07h0L388,746l.59-.1.58,0,.57.16.29.1.28.09.55.21.54.26.24.17.24.17.5.29h0l.53.25.27.12.27.12.27.13.27.13.56.2.56.08h0l.58.12.58.15.56.2.28.08.29.09.58.07.57-.18h0l.54-.26.57-.06.6,0h.05l.54-.05h.6l.53.2.22.22.21.21.43.41.34.49.21.57.3.5.43.43.33.5.48.26h0l.23.55v0l.39.4.6.05h.59l.57.14.53.19h0l.28.09.28.1.58.08h0l.6,0h0l.56,0h0l.51-.27.59,0,.6,0,.55-.18h0l.5-.32h0l.55-.21.58-.14.79-.31,3.48,4,1.82,2.08,3.69,4.24,1.62,1.86,4.56,5.23,0,.3,0,.3-.05.6v.6l.06.58h0l.13.58h0l.21.56.25.54h0l.3.52.26.52v0l.24.54.18.57.14.57v0l.17.57.23.56.12.27.12.27.25.55.12.27.12.27.24.54h0l.22.56.12.59.25.54.29.52.23.54h0l.2.57.09.28.1.29.08.28.09.29.2.56.2.54v0l.17.58.15.57,4.83,5.28.66.67,5.66,5.78,1.58,1.61,4.11,4.14,2.14,2.14-.08.6-.1.57v0l-.25.55-.15.55.15.58h0l.23.56.12.58-.28.61-.29.11-.29.11-.51.29-.29.52,0,.63.46.24.55.23.5.33.45.37.16.58,0,.6,0,.61.39.44.53.27h0l.45.38.37.48.31.51.24.55.2.56.25.52,0,0,.14.26.14.27.3.49v0l.34.49.26.54.14.59.05.59-.08.58v0l0,.3,0,.29,0,.3,0,.3,0,.3,0,.29-.07.57v0l-.12.59-.3.5h0l-.35.48-.35.49-.37.47-.35.48-.17.58-.28.53-.41.44-.52.27-.6.05-.58-.14-.52-.31-.35-.45-.29-.53-.46-.41-.53.08-.4.44-.34.5h0l-.29.52h0l-.14.27-.13.27-.3.52-.38.46-.6.1h0l-.4.38-.22.59,0,.59-.05.61-.13.59.46.3.57.18.5.32.44.4.42.43.45.37h0l.46.39.37.48-.05.59-.44.37-.52.23-.05,0-.65.48.28.56.48.35.21.57,0,.64.05.51.07.58v0l.15.59.11.28.11.28.17.56h0l.13.59.09.58h0l0,.31,0,.3.1.58.34.49h0l.42.41h0l.46.38.27.53.12.59v.59h0v.6h0l-.06.58-.35.49-.4.45-.21.21L453,852l-.41.43-.4.46-.29.51-.12.59v.6l.08.6.08.6.1.59-.1.59-.24.55-.34.48h0l-.3.52-.22.56-.2.56-.19.57-.18.56h0l-.05.59.25.54h0l.37.48.45.38h0l.47.38.41.43.37.47.37.46h0l.48.46,0,0,.4.46,0,.4-.54.32-.32.16-.49.37h0l-.43.41-.39.46-.32.49h0l-.33.5-.37.47h0l-.5.3-.56.23L449,870l-.41.45-.34.49-.31.52-.15.26-.15.26-.14.26-.14.27-.26.49,0,0-.12.27-.13.27-.25.56h0l-.15.57,0,.59.15.6.19.53v0l.11.28.11.26v0l.22.54h0l.2.52,0,0,.21.57,0,.11.07.47v2.41l.09.57h0l.24.56.2.54v0l.17.5,0,.07.18.41.06.14.27.55.05.09.1.16.18.22h0l.44.39h0l.5.34.52.27h0l.58.11h0l.59.1.55.25.52.25,0,0,.56.2.61,0,.6-.08.49-.3h0l.36-.51h0l.25-.54h0l.15-.64.07-.31.07-.33.84.36.88.2,1,0h0l.58-.13h0l.5-.26.36-.48.28-.62.27-.59h0l.32-.41.43.07.53.48.51.36h0l.26.16.25.16.5.32.46.3,0,0,.78.43h0l.55.22h0l.58,0,.59-.11.6-.12.59,0,.6.06.59.06h.61l.59-.06.3,0,.3,0,.3,0,.3,0,.59,0,.87.22.56.25.55.26.55-.11h0l.54-.26.54-.3.28-.12.27-.13.27-.12.27-.13.27-.13.27-.13h0L478,884l.52-.31.58-.07h.61l.9.15.55.2.52.29.5.35.51.34.25.15.25.16.26.16.26.15.46.28.05,0,.48.25.05,0,.53.28.51.32.45.37h0l.39.34.07.05.72.51.59.13.6-.06h0l.57-.14.29-.07.3-.06.41-.09h0l.53-.27.56-.18.34,0h.25l.61,0,.58.12.53.13,0,0,.3.06.29,0,.55.1h0l.59,0h0l.58-.07.59-.12.6,0,.6,0,.59.13.56.2.56.17h0l.58.08h1.21l.59.07.58.16.56.22.54.25.52.31.52.26h0l.57.16.58.11h0l.29,0,.3,0,1.57.41h0l3.51.52,3.08,1.11.38.13.06.6.08.57v0l.13.56v0l.15.52,0,0,.16.58.21.55h0l.27.52h0l.39.46.51.28h0l.31,0,.29,0,.59.07h0l.59.11.56.1h0l.51.27.4.46.33.43,0,0h0l.37.47.31.51v0l.1.25.12.28.26.54.15.26.15.26.27.53.29.53.32.5.33.47,0,0,.38.46.44.39h0l.52.31.55.22h0l.58.09h1.21l.68,0,.82.23.17.47-.06.64,0,.65h0l.15.58.22.56.19.57.17.52v0l.23.53v0l.29.52h0l.28.53.12.28.12.28.3.5.51.33h0l.59-.09.58-.17.29-.09.29-.08.58-.14.6-.1.59-.09h.64l.56,0,.6-.05.62,0,.47.3.24.56.16.59.07.6.12.58.15.55v0l.18.57.11.28.11.28.11.28.1.28.21.57.19.55v0l.26.52h0l.47.37h0l.56.18h0l.58.15.49.34.42.35,0,0,.49.34.25.17.24.17.5.34.5.34.42.42.36.48.32.51.28.53.11.28.12.28.12.27.13.27.24.48,0,.06.28.53.31.52h0l.4.42.55.26.51.32.28.18.23.14.54.22h0l.59.11h0l.59,0,.5.55.24.44.24.39.42.42.16.24.17.25.39.43h0l.45.38h0l.44.38h0l.4.43.38.44h0l.41.39v0l.44.39.22.2.21.2.22.2.22.2.21.2.22.2.21.2.22.2.42.41.41.43.2.21.43.38h0l.46.34h0l.46.37.44.4.44.36h0l.51.27h0l.56.13h0l.56.17.52.29.25.16.25.16.5.31.5.28h0l.53.19h0l.28.09.29.09.51.16h0l.55.21.56.27.35.41v.61l.06.29.06.29,0,.59.22.53.39.43h0l.38.37,0,0,.44.37h0l.49.31h0l.26.14.2.11.32.17.25.15.26.15.51.3.49.31.49.34.24.17.24.17.48.35.47.35.23.18.23.18.24.18.23.18.24.17.24.17.46.32h0l.25.17.24.16.49.33.47.35.45.39.42.41.39.44.39.44.37.46.36.47.35.48.31.49.29.52.26.53.19.55.22.52v0l.26.52h0l.36.45h0l.41.43.43.39h0l.49.32h0l.49.33.43.4.2.22.2.22.4.39,0,0,.4.4v0l.39.45.36.46.31.5.3.51.17.24.11.16.23.32.29.51.38.45h0l.48.34.49.28,0,0,.58.19h0l.26.45.09.6.09.6.12.57.15.57.13.57.1.57v0l0,.57h0l-.18.57h0l-.2.56-.23.54-.32.48h0l0,.59.15.57.34.47h0l.37.45h0l.18.23.19.23.35.47.29.51.23.44,0,.08.29.49v0l.32.43.64.66h0l.43.37,0,0,.23.19.23.18.22.19.23.19.23.19.23.19.23.18.23.19.23.18.23.19.23.19.22.18.24.18.23.19.46.11.59.36.3.18.31.17.6.35.55.37h0l.51.43h0l.45.49h0l.39.48,0,0,.4.56.35.52,0,0,.18.29.19.29.18.29.18.29.18.3.15.23.21.36.19.29.18.29.37.58.4.52.61.33.61.33.57.36h0l.52.44h0l.49.48.51.47.53.43.58.36.61.33.61.31.56.29,0,0,.6.33.56.37h0l.55.4h0l.52.41,0,0,.52.45.47.47h0l.66.78.37.53,0,0,.19.29.08.11.11.18.25.38.13.19.35.59.33.6.4.55.47.49.5.48.25.23.26.23.5.47.47.47v0l.44.52.39.55h0l.37.56v0l.19.29.18.29.39.56.2.28.19.28.2.29.19.28.2.28.19.28.21.28.2.27.41.55.42.49,0,0,.46.48h0l.51.46.52.45.75.63,0,0,.53.44.26.22.27.22.54.42.6.36.31.17.7.7.31.6.26.6v0l.13.33.12.32.23.6,0,.05.21.51,0,0,.18.39.14.31.14.31.14.31.14.31.3.61.31.61.16.31.15.3.16.3.17.3.16.3.16.3.17.3.16.3.17.3.17.3.17.3.17.29.33.6.11.17.24.42.17.29.18.3.17.29.18.29.18.29.17.3.18.29.17.3.18.29.17.3.17.29.17.3.17.3.16.3.17.3.17.29.34.59.36.57h0l.39.57.4.55.57.76,0,0-.08,4.52-1.25,3.39-1.84,5-.78,2.11.31.42,5,6.85-.83,7.76-.88,8.08-.89,8.07-.88,8.08-.23,2,.29.62.27.61v0l.21.63h0l.13.65v0l0,.34.05.34.08.36.06.31.21.63h0l.34.58h0l.1.14.1.14.21.28.42.55h0l.34.58h0l.19.57v0l.08.36.07.65v0l0,.69h0l0,.7.06.68,0,.34,0,.34,0,.34,0,.33,0,.34,0,.35,0,.33,0,.34.07.68,0,.34,0,.34,0,.35,0,.34,0,.68.08.65v0l.13.65v0l.18.67.22.65.3.61.37.57.43.54h0l.48.51.77.69.56.39.6.35.31.16.31.16.6.34.29.19.3.18.29.19.29.19.58.38.56.41.77.66h0l.45.48,0,0,.22.26.22.27.45.52.47.5.51.47.26.23.26.23,7.53,0,.25.64.12.32.13.32.23.63h0l.19.63v0l.12.65v0l.07.68,0,.64v.39l0,.34v7.16l0,.68.05.73.07.65.15.67.24.62h0l.33.61.41.58.47.52.52.43.57.37.62.31.66.28.66.24.33.12.33.11.67.17.7.1.69.11.65.18h0l.34.12.34.12.33.14,1,.9.27.62h0l.21.62,0,0,.2.61,0,0,.14.65v0l.15.67.23.64.36.56.46.53.5.49.75.7h0l.53.61h.23l.32.25.27.22.26.22.26.23.24.24.22.27.2.28.19.29.19.29.17.3.18.3.19.28.23.24.26.23.21.16.35.25.28.2.29.19.29.2.29.19.28.21.28.21.27.22.27.22.27.22.28.21.28.2.29.17.31.16.31.14.33.12.33.1.34.1.34.08.35.07.34.07.34.06.35,0,.18,0,.16,0,.35,0,.35,0,.35,0,.35,0,.35,0,.35,0h1.5l.34,0,.3.07.22.14,0,.31-.08.4-.05.38,0,.34,0,.34,0,.43,8.2,1.32,8.21,1.31.4.06,4.51.2-.06-3.3.17-.3.16-.32.16-.31.16-.3.18-.3.2-.27.22-.25.25-.24.27-.22.29-.22.29-.2.31-.17.32-.15.31-.11.33-.08.34,0,.35,0h.71l.36,0,.36,0,.35,0,.34,0,.24,0,.11,0,.34,0,.35,0,.35.06.34.06.34.07.34.07.34.07.34.07.34.09.34.08.34.08.34.09.34.09.33.09.34.09.34.09.33.1.33.09.34.1.33.1.33.11h0l.32.11.33.11.16,0,.17.05.33.1.34.1.33.1.34.1.35.11.36.11.36.12.36.11.35.09.34.07.32,0h.3l.26-.09.17-.26.11-.38.11-.39.13-.32.13-.34.15-.32.22-.24.29-.19.34-.16.34-.08h.33l.34.07.33.13.32.16.31.17.29.19.28.21.26.22.27.23.27.22.27.21.27.22.27.22.27.21.29.18.36.22.38.17.24,0,.06-.24v-.33l0-.38,0-.39V1149l.06-.21.19-.4.22-.27.24-.27.26-.24.26-.22.29-.2.3-.17.31-.16.31-.16.31-.17.3-.18.3-.17.3-.17.3-.18.3-.17.3-.17.29-.18.3-.18.3-.18.29-.19.29-.19.29-.18.29-.19.13-.08.17-.11.29-.19.28-.19.29-.19.29-.19.29-.2.29-.19.29-.19.28-.19.29-.2.29-.19.28-.21.27-.21.28-.2.3-.18.31-.18.34-.13h.33l.33.08.32.12.32.13.33.15.32.15.33.13.33.12.32.13.33.12.33.11.34.08.34.06.34,0h.7l.35,0,.35,0,.35,0,.35,0,.35,0,.35,0,.34,0,.35,0,.34,0,.35,0,.35,0,.34,0,.35,0,.34,0,.34,0h0l.31,0,.35,0,.34-.06.35,0,.34-.06.34-.07.35-.06.34-.07.34-.06.35-.06.34,0,.35-.05.34,0,.35,0,.35,0,.34,0,.35,0,.35,0,.35,0h.32l0-2.65.07-8.12,0-5,0-3.07.07-8.13.07-8.12.07-8.12.07-8.12Z"/>

</g></g></g></svg>
