<svg xmlns="http://www.w3.org/2000/svg" viewBox="0 0 1948.2 3756.13">
<defs>
    <style>.cls-1,.cls-2,.cls-3,.cls-4{fill:#ccc;stroke:#646464;stroke-width:2.13px;}.cls-1,.cls-2,.cls-3{stroke-linecap:square;}.cls-1,.cls-2{stroke-linejoin:bevel;}.cls-1,.cls-3,.cls-4{fill-rule:evenodd;}.cls-3,.cls-4{stroke-linejoin:round;}
    </style>    
</defs>
<title>Recurso 2arg</title>
<g id="Capa_2" data-name="Capa 2"><g id="svg2"><g id="layer1">
<path id="path3744" class="cls-3" d="M676,1455.31l0,0,.15.25.15.24.16.24.15.24.15.25.12.27.15.24.21.19.24.15.25.15.26.13.27.14.27.12.27.13.26.13.27.13.26.14.28.12.27.13.26.14.24.16.21.19.18.22.17.24.15.25.14.26.11.26.08.26,0,.29v.29l-.06.28-.1.25-.17.24-.2.22-.19.22-.23.2-.23.2-.23.2-.19.21-.15.22,0,.25.11.28.16.27.16.23.18.23.18.22.19.23.17.23.15.24.13.25.14.25.15.25.16.24.16.23.18.23.17.23.11.16.21.31.14.25.13.26.12.26.13.25.14.25.16.23.18.23.2.2.22.2.22.19.22.2.21.2.19.21.17.23.15.25.14.25.14.25.16.23.18.23.19.21.2.22.2.21.19.22.17.23.17.23.16.24.15.24.14.25.14.25.13.25.13.26.12.26.11.26.11.26.11.26.09.27.1.27.09.27.08.27.08.27.06.28,0,.28,0,.28.06.27.07.27.1.27.12.26.14.25.15.24.15.26.13.25.11.25.09.27.05.28,0,.28,0,.28,0,.28,0,.29,0,.28,0,.27,0,.28,0,.29,0,.28,0,.27,0,.29v.28l.06.28.12.25.15.24.17.25.15.24.14.25.12.26.06.27,0,.29v.29l0,.27-.09.28-.13.26-.16.23-.23.18-.24.17-.2.22-.16.23-.12.26-.07.27,0,.29,0,.28,0,.27,0,.28,0,.29,0,.31.06.28,0,.28.06.28.07.27.12.26.17.25.15.25.07.26,0,.27-.08.28v0l-.08.26-.07.27v.27l.1.26.17.25.15.25.13.26.12.25.12.27.09.26.05.27,0,.28-.05.29,0,.28v.57l0,.28,0,.28.06.2.07.15.08.16.17.24.18.23.16.24.12.26.07.28.06.28,0,.28.05.28.06.28.09.27.11.25.17.23.21.2.23.2.21.2.19.22.12.25.07.27,0,.28,0,.29.06.28.11.26.15.24.17.25.15.24.11.26.07.27,0,.28v.85l0,.28,0,.29,0,.28,0,.28,0,.27,0,.29,0,.28,0,.27v.28l0,.28,0,.29,0,.28,0,.28,0,.28,0,.28,0,.28,0,.28,0,.28,0,.28,0,.28v1.69l0,.28,0,.28,0,.29,0,.27.05.28,0,.28,0,.28,0,.28,0,.28,0,.28,0,.28,0,.29.05.28,0,.28,0,.28v.28l0,.28-.08.27-.1.27-.12.26-.14.25-.17.24-.19.22-.18.23-.11.25,0,.28,0,.29-.07.27-.14.25-.19.23-.21.22-.18.23-.14.24,0,.26v.27l0,.27.07.29.07.28.07.29,0,.28,0,.28v.57l0,.28.07.27.12.26.13.25.16.24.14.25.14.25.16.25.15.25.13.25.1.26,0,.27v.55l0,.31,0,.28v.28l0,.29,0,.28,0,.27,0,.28-.05.28-.06.28-.07.27-.07.28-.08.26-.1.27-.11.27-.1.26-.1.27-.1.26-.11.27-.1.27-.09.27-.06.27,0,.28,0,.28,0,.29,0,.28,0,.28-.07.27-.12.26-.1.19-.17.32-.12.26-.13.26-.11.27-.08.26,0,.28,0,.28.05.27.07.28.07.28,0,.28,0,.28v3.67l0,.28v.85l0,.28,0,.28-.06.27-.07.28-.07.27-.07.28,0,.28,0,.27,0,.28v1.13l0,.28,0,.29,0,.27,0,.28,0,.28v.57l0,.28-.06.28-.11.26-.14.25-.13.26-.09.26,0,.29,0,.29,0,.28,0,.28-.08.26-.16.23-.21.21-.2.22-.17.24-.14.25-.13.26-.14.25-.16.24-.2.2-.26.14-.28.14-.23.17-.17.22-.13.26-.11.26-.11.27-.14.25-.17.24-.17.24-.16.24-.13.24-.09.27-.06.3,0,.28,0,.27.14.24.22.22.25.17.33.1.25.12,0,.22-.12.26-.15.29-.09.28-.07.3,0,.29,0,.26.18.19.29.14.26.16.18.23.12.27,0,.27v.28l0,.29-.09.27-.12.26-.17.23-.18.24-.17.24-.13.24-.07.27,0,.28v.86l0,.27-.07.28-.07.27-.09.27-.09.27-.08.27-.08.28-.06.27-.08.28-.08.27-.1.26-.13.26-.14.25-.13.25-.1.27-.08.27-.07.28,0,.28,0,.28v.28l0,.27.07.28.08.27.06.28.05.28,0,.29,0,.28v.28l0,.27-.12.26-.16.26-.12.26-.06.26v.28l0,.28.06.28.07.28.06.28.06.28.07.28.07.28,0,.28-.06.26-.15.24-.17.25-.12.26-.09.27-.08.27-.09.27-.09.27-.12.25-.15.25-.16.24-.14.25-.11.26-.09.27-.09.27-.08.28-.05.27,0,.28v.29l0,.28-.06.27-.09.27,0,.06-.08.21-.11.26-.12.26-.11.26-.11.27-.12.26-.12.26-.13.26-.11.26-.11.26-.09.26-.06.28,0,.28v.57l0,.28-.05.28-.06.28-.06.28,0,.27,0,.29,0,.27.07.27.1.28.08.27,0,.28v.56l0,.28,0,.29-.05.27-.07.29-.08.29-.09.27-.14.25-.21.14h-.36l-.31,0-.11.19,0,.26v.3l0,.31,0,.3v.28l0,.28,0,.28,0,.28.05.28.09.28.09.21.12.34.05.26-.07.25-.21.22-.18.24-.14.25-.13.26-.11.26-.09.27-.07.27-.05.28,0,.29v.28l0,.28.08.27.11.26.12.27.11.26.1.27.07.27.07.28.07.27.07.27.08.27.1.27,0,.61-164.07,0-.05,18.68,5.32-.06-.11,159.37-.3-.11-.27-.11-.28-.12-.27-.12-.27-.12-.27-.12-.27-.12-.27-.11-.28-.12-.27-.13-.27-.12-.27-.13-.26-.13-.3-.14-.25-.1-.27-.11-.28-.11-.28-.09-.28-.08-.29-.06-.3,0-.3,0-.3,0-.3,0-.3,0-.31,0-.3,0-.29,0-.3,0-.29-.07-.29-.09-.29-.08-.29-.09-.28-.09-.29-.08-.29-.07-.29-.06-.3,0-.3,0-.31,0h-.91l-.29,0-.29,0-.27.13-.26.17-.27.13-.28,0h-.3l-.29,0-.3,0-.3-.05-.3,0-.3-.06-.3-.06-.3-.06-.29-.05-.3,0-.31,0-.31,0-.29-.06-.28-.1-.25-.13-.21-.17-.2-.21-.19-.23-.18-.23-.19-.22-.19-.21-.2-.22-.2-.21-.18-.23-.15-.22-.1-.26,0-.26v-.57l-.05-.27-.07-.27-.07-.27-.09-.26-.12-.26-.13-.24-.17-.24-.18-.24-.2-.22-.22-.19-.23-.15-.28-.08h-.35l-.35,0-.48-.11v-.23l.08-.31.11-.33-.08-.46h-.06l-.23,0h-.36l-.57-.13-.08-.21v-.27l0-.3,0-.31,0-.29v-.3l0-.31v-.29l-.05-.25-.14-.18-.24-.09-.31,0h-.11l-.22,0H498l-.31,0-.29,0-.3,0-.3,0-.3,0-.3,0-.3,0-.3,0-.3,0-.3,0h-.59l-.3,0-.29.08-.29.09-.29.08-.29,0-.3,0-.31,0h-.61l-.29,0-.28-.07-.28-.11-.27-.12-.26-.13-.27-.14-.26-.15-.25-.14-.26-.15-.25-.17-.24-.2-.23-.2-.23-.18-.24-.12-.26,0-.27.1-.28.15-.28.16-.27.12-.27.12-.27.11-.27.12-.28.12-.56.08-.29,0-.3,0-.3,0-.31,0-.3,0h-.3l-.29,0-.27-.11-.26-.15-.28-.1-.29-.08-.29-.07-.29-.07-.29-.06-.3-.06-.31-.06-.33,0-.33,0-.28-.07-.2-.13-.1-.21V1767l0-.31,0-.3,0-.31,0-.26,0-.29,0-.28V1765l0-.25-.11-.23-.18-.21-.22-.18-.26-.17-.26-.17-.25-.18-.21-.19-.17-.22-.1-.27-.05-.29,0-.3,0-.29-.09-.24-.16-.18-.26-.06h-.32l-.34,0-.32,0-.25-.11-.2-.21-.19-.24-.21-.19-.27-.12-.61-.13-.28-.08-.24-.14-.1-.26-.1-.28-.21-.18-.27-.13-.29-.1-.29-.1-.31-.09-.3-.08-.3-.05h-.27l-.23.11-.19.21-.17.26-.2.23-.23.18-.24.16-.25.16-.25.15-.23.12h0l-.27.13-.28.1-.28.09-.29.09-.28.1-.27.11-.27.13-.26.13-.27.14-.26.13-.27.12-.28.1-.28.09-.29.08-.29.07-.29.07-.3.05-.3,0-.3,0-.31.06-.32,0-.32,0h-.3l-.28,0-.25-.08-.19-.18-.15-.25-.14-.27-.14-.27-.18-.22-.25-.13-.25,0h-.05l-.31,0-.29-.09-.23-.17-.2-.21-.22-.25-.19-.16-.25-.14-.27-.12-.29-.09-.3-.07-.3,0-.3,0h-.29l-.3,0-.3,0-.29.05-.3,0-.3,0-.31,0-.29,0-.3,0-.31,0-.3,0-.3,0-.3,0-.3,0h-.89l-.3,0-.3,0-.3,0-.29-.06L451,1760l-.29-.07-.29-.08-.29-.08-.29-.09-.29-.09-.28-.08-.3-.09-.29-.09-.28-.09-.29-.11-.27-.12-.25-.13-.23-.16-.2-.2-.17-.22-.16-.25-.15-.25-.16-.23-.17-.23-.19-.22-.18-.22-.18-.23-.16-.23-.14-.24-.11-.25-.06-.26-.05-.27,0-.28,0-.28v-2.49l0-.27,0-.27.05-.27.06-.28.05-.27,0-.27v-.27l0-.28-.05-.27,0-.27,0-.27.07-.27.09-.27.07-.26.05-.28.05-.27,0-.27v-.55l0-.28,0-.28-.07-.27-.1-.25-.15-.24-.15-.23-.18-.22-.18-.22-.2-.22-.19-.21-.19-.22-.18-.22-.16-.24-.16-.24-.16-.26-.15-.24-.17-.24-.18-.21-.21-.18-.23-.13-.28-.08-.3,0h-.33l-.31,0-.31,0-.28-.08-.22-.16-.18-.22-.17-.25-.17-.25-.19-.22-.23-.14-.27-.09-.29-.06-.3,0-.31,0-.31,0-.31,0-.29-.05-.28-.09-.25-.14-.25-.16-.23-.18-.23-.19-.22-.19-.2-.21-.19-.21-.19-.22-.2-.2-.21-.19-.24-.16-.27-.12-.28-.11-.28-.09-.29-.1-.28-.09-.28-.1L433,1738l-.28-.08-.29-.07-.29-.06-.3,0-.29,0-.3,0-.3,0-.29,0-.14,0-.16,0-.31,0-.3,0-.31,0-.29,0-.3,0-.28-.07-.27-.09-.25-.14-.24-.17-.22-.19-.23-.19-.24-.17-.25-.15-.27-.13-.27-.12-.27-.11-.28-.11-.27-.12-.27-.12-.25-.14-.24-.17-.24-.17-.24-.17-.24-.16-.26-.14-.27-.11-.29-.1-.29-.1-.29-.07-.3,0-.29,0-.29,0-.28.07-.28.1-.29.12-.28.11-.29.1-.28.07h-.29l-.3,0-.3-.07-.29-.07-.3,0h-.3l-.29,0-.3,0-.3,0-.3.05-.29,0-.3.06-.29.07-.28.08-.55.22-.27.12-.28.11-.27.11-.28.09-.29.08-.29.06-.29.07-.3,0-.29.06-.29.08-.29.08-.27.11-.28.12-.27.12-.28.11-.28.09-.29.05-.29,0H410l-.29,0-.31,0-.3,0-.3,0-.3,0h-3.64l-.31,0-.28.05-.23.11-.09.27,0,.33-.15.2-.26.08-.29.07-.3,0-.31,0-.32,0h-.32l-.31,0-.29,0-.27-.07-.25-.13-.24-.18-.24-.19-.24-.19-.24-.16-.27-.12-.58-.1h-.31l-.3,0-.29-.06-.29-.08-.28-.08-.28-.1-.29-.09-.27-.11-.28-.11-.27-.12-.26-.12-.26-.14-.26-.14-.25-.15-.26-.15-.25-.14-.26-.14-.27-.12-.27-.12-.27-.12-.28-.11-.27-.1-.28-.11-.27-.11-.28-.1-.28-.11-.27-.12-.27-.12-.27-.13-.26-.12-.28-.12-.27-.11L390,1733l-.28-.08-.3,0h-.93l-.3,0-.27-.08-.23-.13-.2-.2-.17-.24-.16-.25-.18-.23-.21-.2-.25-.13-.29-.09-.3-.09-.28-.1-.24-.15-.2-.2-.18-.23-.17-.24-.17-.24-.18-.23-.2-.19-.5-.23-.29-.05-.31,0-.31,0-.31,0-.3,0-.28-.08-.29-.09-.28-.1-.28-.11-.27-.12-.26-.14-.24-.15-.23-.18-.22-.18-.2-.2-.2-.21-.2-.21-.2-.21-.2-.21-.2-.21-.22-.19-.22-.2-.22-.2-.22-.2-.2-.2-.17-.22-.14-.23-.09-.24,0-.26v-.28l0-.29,0-.29v-.28l0-.27,0-.29,0-.28,0-.27-.06-.27-.09-.26-.12-.24-.16-.23-.19-.21-.22-.2-.22-.2-.22-.19-.24-.17-.27-.15-.27-.15-.25-.16-.2-.18-.14-.23-.09-.24-.06-.27,0-.27,0-.29v-.28l0-.29,0-.28-.18-.32-.14-.25-.14-.24-.14-.25-.13-.24-.12-.26-.1-.25-.07-.27,0-.26,0-.28,0-.28,0-.28,0-.27,0-.27,0-.28,0-.27,0-.28,0-.27,0-.28v-1.37l0-.28,0-.27,0-.27.05-.27.09-.27.1-.26.09-.27.08-.27,0-.26v-.27l0-.27-.08-.27-.08-.28-.07-.27,0-.27v-.27l0-.27,0-.28.05-.28.07-.27.08-.27.09-.26.12-.26.14-.23.22-.2.26-.18.26-.17.23-.18.16-.2.05-.24,0-.29-.1-.29-.15-.27-.19-.21-.22-.14-.26-.13-.28-.1-.29-.09-.3-.08-.3-.09-.29-.09-.28-.09-.28-.08-.29-.09-.29-.08-.28-.09-.27-.1-.27-.12-.25-.15-.24-.16-.23-.18-.23-.18-.24-.18-.23-.17-.25-.15-.26-.12-.27-.1-.29-.07-.3-.06-.31,0-.3,0-.33-.07-.24-.07-.27-.11-.25-.14-.24-.16-.25-.16-.24-.18-.23-.18-.22-.2-.21-.2-.2-.21-.19-.22-.16-.22-.13-.23-.06-.28,0-.31v-.3l0-.3-.06-.26-.12-.21-.19-.15-.26-.09-.29,0-.32,0-.33,0-.32,0-.3-.08-.26-.12-.25-.15-.48-.35-.23-.21-.21-.21-.17-.22-.15-.23-.11-.24-.06-.25,0-.27,0-.28,0-.29.05-.28,0-.29,0-.28.06-.28.07-.28.07-.28.07-.28,0-.27,0-.25-.09-.23-.17-.21-.22-.2-.25-.19-.24-.18-.22-.2-.23-.18-.23-.19-.24-.17-.23-.19-.21-.19-.19-.2-.16-.22-.12-.24-.08-.27-.06-.27,0-.28,0-.28-.06-.28-.08-.26-.12-.25-.13-.24-.15-.24-.15-.24-.17-.23-.18-.23-.18-.22-.19-.21-.19-.21-.2-.21-.2-.19-.22-.2-.22-.19-.24-.17-.23-.17-.25-.16-.25-.14-.26-.12-.27-.1-.34-.09-.24-.06-.29-.07-.29-.07-.29-.08-.28-.11-.27-.11-.27-.11-.27-.13-.26-.14-.25-.15-.23-.16-.22-.19-.21-.2-.19-.2-.19-.22-.19-.22-.19-.22-.19-.21-.2-.2-.21-.19-.23-.17-.06,0-.19-.12-.27-.12-.29-.1-.29-.09-.29-.1-.29-.09-.27-.11-.25-.14-.22-.16-.2-.2-.17-.21-.15-.23-.14-.24-.14-.26-.12-.26-.12-.26-.13-.26-.13-.25-.13-.25-.12-.25-.12-.25-.12-.26-.11-.26-.12-.25-.13-.25-.13-.25-.14-.24-.15-.23-.18-.21-.19-.21-.21-.19-.22-.18-.23-.18-.24-.18-.24-.17-.23-.17-.23-.18-.26-.18-.22-.15-.24-.17-.24-.16-.23-.17-.23-.18-.2-.19-.2-.2-.19-.22-.18-.23-.16-.23-.15-.24-.14-.24-.11-.25-.08-.26-.07-.28-.06-.27-.06-.27-.07-.27-.09-.26-.12-.25-.16-.23-.18-.22-.18-.22-.18-.22-.17-.23-.15-.24-.14-.24-.15-.24-.14-.24-.14-.24-.15-.24-.15-.24-.15-.23-.16-.24-.16-.23-.16-.23-.18-.22-.19-.21-.21-.2-.22-.18-.23-.19-.22-.18-.22-.19-.21-.19-.17-.22-.16-.23-.13-.24-.12-.26-.1-.26-.09-.27-.08-.26-.07-.27,0-.28,0-.27,0-.28,0-.28-.07-.26-.1-.25-.17-.27-.15-.2-.18-.22-.17-.23-.15-.24-.11-.25-.1-.28-.06-.28,0-.28,0-.25.12-.24.18-.23.21-.21.2-.23.18-.22.1-.24,0-.27-.05-.28-.09-.28-.11-.26-.13-.24-.15-.24-.17-.23-.17-.23-.17-.23-.15-.23-.14-.25-.13-.25-.12-.25-.12-.26-.09-.26-.07-.27,0-.27v-.27l0-.27,0-.28,0-.28,0-.28v-.27l0-.27-.07-.26-.12-.26-.14-.25-.12-.26-.07-.26,0-.28,0-.28,0-.28,0-.29,0-.28v-.27l0-.26-.09-.24-.14-.24-.18-.23-.2-.22-.23-.2-.25-.17-.24-.15-.26-.12-.27-.11-.27-.1-.29-.09-.29-.08-.3-.06-.29,0-.3-.05-.29,0-.3,0-.3,0h-.92l-.3,0-.29,0-.28.07-.26.08-.23.15-.2.2-.18.23-.18.24-.19.23-.21.2-.23.18-.25.18-.26.15-.26.08-.28,0-.35,0-.23,0-.29-.08-.3-.08-.29-.08-.29,0-.31,0-.3,0-.3,0-.29-.06-.27-.09-.25-.13-.24-.15L317,1643l-.23-.17-.24-.19-.22-.18-.22-.2-.21-.2-.2-.21-.18-.21-.18-.22-.16-.22L315,1641l-.12-.25-.11-.25-.1-.26-.1-.27-.1-.27-.09-.26-.11-.26-.11-.25-.12-.26-.12-.25-.11-.25-.12-.26-.1-.26-.09-.26-.08-.26-.07-.27-.06-.27-.06-.27-.05-.27,0-.27,0-.28,0-.27,0-.28v-.55l0-.27,0-.28,0-.28,0-.27v-.55l0-.27-.06-.26L313,1632l-.1-.26-.12-.29-.1-.23-.11-.26-.1-.26-.1-.26-.08-.26-.09-.27-.08-.27-.08-.27-.08-.27-.07-.27-.06-.27,0-.27,0-.27v-.26l.07-.27.11-.25.12-.26.13-.26.1-.26.06-.27,0-.27,0-.27,0-.28v-1.93l0-.28v-.27l0-.27,0-.28,0-.27,0-.28,0-.27,0-.27,0-.28,0-.27-.05-.27-.06-.27-.06-.27-.06-.27-.07-.27-.07-.26-.07-.27-.07-.28-.07-.28-.07-.28-.09-.27-.12-.25-.15-.21-.2-.18-.25-.12-.28-.1-.13,0-.16-.06.05-.27.05-.27,0-.27,0-.29,0-.28,0-.28,0-.28.05-.27.09-.26.12-.23.16-.21.21-.19.23-.17.26-.16.25-.16.25-.16.23-.18.23-.17.23-.18.07-.05.17-.13.22-.18.22-.18.2-.2.18-.21.17-.23.16-.23.15-.24.14-.25.12-.26.1-.26.08-.26.06-.27.05-.27,0-.27v-.84l0-.28,0-.28-.05-.27-.06-.26-.12-.24-.15-.24-.17-.24-.18-.23-.17-.22-.18-.22-.19-.21-.19-.21-.2-.21-.19-.21-.19-.21,1-.19.1-.25-.06-.29-.16-.23-.19-.23-.21-.21L313,1603l-.25-.14-.29-.08-.3-.06-.3-.07h-.95l-.3,0-.32,0-.32-.08-.2-.15,0-.25.08-.3.08-.29.06-.29.06-.28.08-.27.14-.23.23-.19.25-.17.26-.15.26-.15.23-.18.19-.22.19-.22.21-.2.24-.17.24-.17.24-.18.23-.18.21-.2.21-.2.21-.21.24-.17.27-.13.28-.12.24-.17.22-.26.09-.38-.35,0-.32.06-.29.09-.29.09-.29.06-.3,0-.3,0-.31,0-.3,0H312l-.29,0-.3-.06-.29-.09-.28-.11-.26-.14-.25-.16-.24-.18-.23-.19-.2-.2-.18-.23-.16-.24-.15-.25-.13-.27v-.26l.16-.25.19-.24,0-.25-.18-.26-.05-.25.16-.26.11-.26.08-.27.07-.28.09-.27.08-.27-.12-.27,0-.24.17-.24.21-.22.23-.19.25-.16.26-.14.27-.13.29-.08.3,0h.3l.3,0,.3.06.29.06.32.08.3,0,.24-.12.19-.24.1-.28v-.27l-.06-.29,0-.37.06-.18.15-.25.14-.26.14-.25.2-.19.26-.15.27-.11.29-.11.28-.11.28-.12.27-.11.28-.11.28-.12.27-.11.27-.12.29-.11.28-.11.27-.12.26-.14.24-.16.23-.19.22-.19.21-.2.22-.2.21-.2.22-.2.24-.18.28-.16,0-.27-.14-.22-.21-.19-.26-.16-.25-.15-.27-.14-.25-.15-.23-.18-.17-.25-.23-.15-.3,0-.32,0-.29.07-.28.14-.27,0-.27-.18-.27-.09-.25.12-.24.2-.24.18h-.3l-.25-.17v-.56l-.05-.29-.09-.27-.21-.19-.26-.16-.16-.23-.05-.28,0-.28,0-.28v-.85l0-.29v-.3l.1-.23.22-.18.28-.16.25-.16.28-.15.28-.15.24-.17.14-.21,0-.27,0-.29-.07-.3L316,1576l-.14-.24-.19-.23-.19-.23-.18-.23-.14-.24,0-.28,0-.29V1574l0-.28v-.28l0-.28-.07-.27-.09-.27-.11-.27-.11-.26-.12-.26-.14-.25-.14-.25-.15-.25-.17-.23-.18-.23-.2-.21-.2-.21-.22-.19-.25-.17-.2-.2-.15-.24-.13-.26-.1-.27-.07-.27-.05-.28,0-.28-.07-.28-.08-.27-.09-.27-.11-.26-.14-.25-.23-.31-.13-.14-.19-.22-.18-.23-.16-.24-.15-.24-.14-.25-.13-.26-.13-.26-.12-.25-.11-.26-.09-.28-.07-.28,0-.29.08-.26.15-.23.18-.23.2-.22.22-.21.21-.2.23-.18.25-.16.25-.16.23-.19.24-.19.2-.2.15-.23.09-.27.06-.29v-.3l0-.26,0-.28-.06-.28-.08-.28-.08-.27-.1-.27-.15-.24-.22-.19-.24-.17-.24-.17-.22-.2-.19-.21-.19-.23-.18-.22-.18-.23-.17-.23-.15-.24-.12-.26-.1-.27-.07-.27,0-.28V1554l0-.28.07-.27.1-.27.1-.27.13-.25.15-.24.15-.25.14-.25.13-.25.15-.25.19-.22.23-.19.26-.13.29-.06h.3l.31,0,.31,0,.32,0,.23-.12.05-.28-.08-.29-.13-.25-.19-.24-.21-.19-.26-.14-.27-.13-.25-.16-.22-.19-.21-.2-.21-.21-.21-.2-.2-.21-.2-.22-.17-.22-.13-.25-.06-.28-.07-.28-.09-.18,0-.08-.15-.25-.18-.22-.21-.2-.23-.19-.22-.19-.21-.2-.2-.21-.2-.21-.2-.21-.19-.22-.19-.21-.19-.22-.2-.22-.19-.21-.19-.22-.18-.23-.19-.22-.12-.26,0-.27,0-.29,0-.28,0-.28.05-.28,0-.28.05-.28,0-.28,0-.28,0-.28-.06-.28-.07-.27-.07-.28,0-.28,0-.28.05-.28.06-.27.07-.28.08-.27.1-.27.12-.25.15-.25.15-.24.13-.26.14-.27.15-.23.2-.19.27-.11.3-.08.28-.12.25-.17.21-.21.13-.24v-.27l-.05-.3,0-.33,0-.23v-.28l0-.28-.05-.28,0-.28,0-.28,0-.28,0-.27-.05-.29,0-.28,0-.28-.05-.28-.07-.27-.09-.26-.15-.25-.18-.22-.2-.22-.19-.22-.21-.21-.24-.17-.26-.13-.28-.09-.29-.09-.28-.09-.29-.09-.28-.09-.29-.07-.29-.09-.3-.07-.29,0-.3,0-.29,0-.3.07-.29.07-.29.06-.29.08-.29.1-.29.08-.29,0-.29-.06-.29-.1-.27-.13-.25-.16-.24-.17-.26-.14-.28-.07H299.4l-.3,0-.3.07-.3,0-.28,0-.29-.08-.28-.1-.28-.12-.27-.13-.26-.15-.24-.15-.23-.19-.21-.21-.18-.24-.15-.23-.08-.27,0-.29-.05-.28,0-.28-.05-.28-.08-.27-.13-.25-.18-.24-.2-.2-.26-.16-.28-.12-.26-.14-.14-.22,0-.3.08-.28.1-.26.12-.26.13-.26.14-.25.17-.23.18-.23.19-.22.22-.2.21-.21.17-.22.08-.26v-.29l-.06-.29-.13-.26-.17-.26-.14-.25,0-.24.13-.24.22-.24.18-.22.18-.24.17-.22.18-.23.19-.22.19-.21.2-.22.21-.2.21-.2.23-.18.23-.19.24-.18.24-.16.26-.12.29-.07.3,0,.36,0h.85l.29,0,.29.09.29.06.3,0,.29,0,.29.07.29.07.29.07.3.06.3,0h.89l.3,0,.3,0,.3,0,.29,0,.3-.05.3,0h.29l.31,0,.3,0,.28,0,.27-.1.27-.15.27-.13.42-.26.25-.16.25-.15.27-.13.35-.11.22-.05.29-.07.28-.09.27-.12.27-.14.25-.15.25-.16.23-.17.21-.2.18-.23.14-.25.11-.26.1-.27.09-.27.09-.27.1-.27.13-.25.14-.25.16-.24.19-.22.24-.16.27-.14.27-.12.27-.12.26-.14.25-.16.23-.19.2-.2.17-.25.14-.25.11-.27.06-.27,0-.26-.11-.27-.14-.27-.12-.25-.14-.26-.11-.26-.09-.27-.07-.28,0-.28,0-.27.12-.25.16-.25.14-.26.05-.28,0-.28-.07-.27-.11-.27-.12-.26-.13-.25-.12-.26-.11-.26-.09-.27-.07-.27-.06-.28,0-.28V1498l0-.28,0-.28,0-.28,0-.28v-.29l.05-.27.08-.27.11-.27.11-.26.11-.26.1-.27.09-.27.1-.26.11-.26.13-.26.14-.25.15-.24.15-.25.16-.24.15-.24.15-.24.14-.25.14-.25.15-.24.16-.24.18-.22.19-.23.17-.22.17-.23.18-.24.16-.23.17-.23.16-.24.15-.24.13-.26.11-.26.09-.27,0-.28,0-.28v-.57l0-.28-.06-.27-.05-.28,0-.29v-.28l.05-.27.08-.27.1-.27.11-.27.11-.26.12-.26.12-.26.12-.25.11-.26.11-.27.08-.27.09-.27.12-.25.18-.23.19-.22.18-.23.16-.24.16-.23.14-.25.11-.26.09-.27.08-.27.08-.27.09-.28.07-.27v-.28l0-.29,0-.27.13-.26.17-.23.26-.27.16-.13.22-.19.22-.19.2-.21.18-.22.16-.24.17-.23.19-.23.18-.22.16-.24.09-.26.06-.28.05-.28.05-.28.08-.27.09-.27.09-.26.08-.28.09-.27.11-.26.15-.24.17-.23.18-.23.18-.23.17-.23.16-.24.17-.25.18-.26.18-.26.16-.26.14-.25.09-.23,0-.2-.25-.08-.38,0-.23-.16-.17-.24-.16-.25-.17-.23-.18-.22-.19-.22-.19-.22-.19-.22-.19-.22-.19-.21-.23-.18-.27-.13-.26-.14-.26-.13-.27-.12-.27-.12-.28-.1-.29,0-.3,0-.28-.11-.12-.24,0-.29,0-.28.05-.28.08-.27.1-.27.1-.27.08-.27.05-.3.06-.28.12-.24.23-.13.32,0,.25-.13.16-.25.09-.27,0-.28,0-.28,0-.29,0-.29.14-.22.23-.17.26-.17.22-.19.21-.2.2-.21.19-.21.17-.23.15-.25.13-.25.13-.26.15-.24.14-.25.15-.25.15-.24.18-.22.2-.21.18-.22.16-.24.15-.25.14-.25.15-.24.17-.23.18-.22.21-.21.21-.2.21-.2.21-.2.21-.2.11-.1.1-.1.2-.2.18-.19.23-.23.18-.22.14-.25.1-.27.08-.27.06-.28,0-.28,0-.27-.12-.26-.14-.26-.08-.27,0-.28v-.28l.11-.26.14-.25.08-.28.05-.27,0-.28,0-.28,0-.28,0-.28,0-.28,0-.28,0-.28.07-.28.1-.28.16-.22.25-.14.29-.09.29-.1.24-.15.2-.21.18-.23.17-.23.16-.24.16-.24.24-.26.16-.15.23-.18.25-.15.25-.16.22-.19.22-.21.16-.23,0-.26,0-.3,0-.28.07-.27.07-.28.09-.27.09-.27.1-.26.1-.27.12-.26.13-.25.16-.23.2-.22.2-.21.22-.19.23-.18.21-.2.14-.24.12-.26.15-.25.18-.22.18-.24.15-.23.15-.24.14-.25.14-.25.13-.25.14-.25.15-.24.15-.25.14-.25.12-.26.11-.26.09-.27,0-.28.16-.23.2-.21.2-.21.21-.2.23-.18.22-.19.23-.17.28-.12.25-.14.21-.2.2-.21.19-.22.19-.21.21-.2.24-.17.19-.23.21-.17.31,0,.2-.18.14-.25.18-.23.22-.18.24-.18.23-.17.23-.18.23-.18.22-.18.23-.19.23-.18.25-.16.26-.15.23-.18.17-.21.08-.27.06-.29.09-.27.12-.26.08-.27.08-.27.16-.23.2-.22.2-.21.21-.2.24-.15.27-.13.27-.11.28-.11.27-.12.27-.12.23-.17.23-.18.22-.2.19-.21.14-.24.09-.28.06-.28v-.28l0-.28-.06-.28-.11-.26-.15-.25-.16-.24-.16-.23-.15-.25-.16-.24-.13-.25-.11-.26-.09-.27,0-.28v-.28l.06-.28.1-.27.1-.26.13-.26.14-.24.17-.24.17-.23.17-.23.16-.24.16-.24.14-.25.08-.27,0-.28v-.28l0-.28.06-.28.08-.27.09-.27.1-.27.1-.26.08-.27.07-.27.07-.28.07-.27.07-.28.08-.27.08-.27.1-.27.11-.26.12-.25.13-.26.13-.25.13-.24h0l.18-.23.17-.23.16-.23.14-.25.14-.25.11-.26.1-.27.1-.27.1-.26.16-.24.2-.2.17-.16.31-.16.28.09.25.16.23.18.24.16.27.11.26.13.23.17.23.19.23.17.26.15.26.13.26.13.29.07.29.06.35,0H358l.29,0,.3-.06.29,0,.28-.08.29-.08.28-.1.28-.07.29,0,.29.09h.3l.29-.06.28-.1.21-.19.15-.25.13-.26.16-.23.2-.21.22-.19.23-.17.27-.12.28-.09.29-.07.29,0,.3,0,.29,0,.3,0,.29,0,.3,0,3.88-1.7,1.79-.79-2.55-5.31-.12-.4v-1.29l0-.28,0-.28,0-.29,0-.27-.08-.28-.12-.26-.15-.24-.18-.22-.2-.21-.2-.21-.08-.1-.1-.13-.16-.24-.08-.11-.08-.13-.17-.22-.21-.2-.24-.16-.26-.14-.26-.14-.26-.15-.25-.15-.19-.2-.19-.24-.15-.26-.1-.26v-.26l.09-.27.16-.33.09-.2.12-.26.12-.26.05-.28v-.3l.09-.25.18-.21.2-.2.21-.2.22-.19.22-.19.23-.19.22-.2.22-.19.21-.2.21-.2.18-.22.15-.24.11-.26.1-.27.07-.28.07-.27.05-.28,0-.28,0-.28,0-.28,0-.28v-.57l-.66-2.93-.4-1.67-.73-2.41v-.47l.1-.2.09-.23v-.58l0-.29-.05-.28-.06-.28-.07-.28-.07-.28-.1-.27-.11-.27-.11-.27-.12-.27L366,1375l-.14-.25-.14-.26-.19-.34-.08-.17-.12-.27-.13-.26-.14-.26-.14-.25-.13-.26-.13-.26-.14-.25-.16-.25-.16-.25-.17-.23-.22-.21-.08-.27,0-.29v-.29l0-.29,0-.29v-.57l0-.29,0-.29,0-.28-.1-.28-.05-.28v-.29l-.05-.28-.06-.28-.08-.28-.07-.28-.07-.29-.05-.28-.06-.28-.06-.28,0-.29-.05-.29,0-.08,0-.2-.15-.25-.18-.23-.14-.25-.11-.27-.09-.28-.07-.28-.06-.28-.07-.28L362,1362l-.06-.28-.07-.29-.07-.28,0-.28,0-.29,0-.29,0-.29v-.28l0-.29,0-.29,0-.29,0-.28,0-.29,0-.29,0-.29,0-.28v-.87l0-.28.07-.28.07-.29,0-.28.07-.28.08-.28.09-.27.09-.28.09-.28.11-.26.13-.26.13-.26.14-.26.18-.23.17-.24.16-.24.14-.25.11-.27.14-.26.15-.25.15-.25.14-.25.14-.26.15-.25.13-.26.09-.27.06-.29,0-.29,0-.28-.06-.29-.05-.28V1348l-.06-.28-.1-.28-.11-.26-.14-.26-.13-.26-.14-.26-.14-.25-.14-.25-.16-.25-.15-.25-.14-.26-.12-.26-.12-.27-.1-.27-.07-.28-.06-.28-.07-.33,0-.24,0-.28,0-.29,0-.29,0-.28,0-.29,0-.28,0-.29,0-.29,0-.29.05-.28.06-.29,0-.28.06-.28.05-.29.05-.28,0-.29,0-.29,0-.28.06-.29.06-.28,0-.28v-.58l0-.29,0-.28,0-.29,0-.29,0-.28,0-.29v-1.16l0-.28.11-.27.05-.28v-.29l0-.29,0-.28.05-.29.06-.28.06-.28,0-.29v-1.15l0-.29,0-.29,0-.29,0-.28V1328l0-.29.05-.28.06-.28.14-.26.17-.23.18-.24.22-.2.22-.19.23-.19.23-.18.23-.19.23-.18.25-.17.25-.15.26-.15.23-.18.19-.22.16-.25.08-.28.05-.28.05-.29,0-.28v-.29l0-.29,0-.29v-.29l.08-.27.1-.28.09-.27.13-.26.15-.25.19-.23.24-.17.25-.15.27-.13.28-.11.28-.09.3-.06.29,0,.3,0,.31,0,.29,0,.3-.06.27-.11.24-.18.21-.2.23-.19.23-.19.23-.18.24-.18.23-.18.24-.18.23-.19.23-.18.23-.19.23-.18.22-.19.19-.22.09-.28.14-.34.11-.27.11-.27.13-.26.09-.27.05-.28.06-.37,0-.2.05-.28v-.58l0-.29-.06-.28-.07-.28-.09-.28-.08-.28,0-.29,0-.28-.07-.28-.09-.28-.09-.27-.09-.28-.1-.27-.14-.26-.19-.22-.16-.24-.07-.28-.08-.28-.1-.27,0-.1,0-.1,0-.07-.16-.24-.11-.27-.1-.26-.23-.37-.21-.38-.16-.25-.11-.26-.08-.28-.06-.29-.06-.28,0-.28-.17-.24-.19-.23-.17-.23-.09-.28-.08-.28-.07-.28-.17-.19-.18-.24-.15-.24-.17-.24-.1-.28-.22-.19-.25-.15-.14-.25-.1-.28-.14-.25-.18-.23-.18-.23-.18-.23-.19-.23-.19-.22-.18-.23-.18-.23-.13-.26-.12-.26-.13-.27-.13-.25-.15-.25-.14-.26-.12-.26-.12-.27-.14-.25-.15-.25-.17-.24-.18-.24-.2-.21-.23-.18-.25-.15-.26-.15-.25-.17-.23-.18-.21-.21-.21-.2-.24-.18-.25-.16-.24-.17-.23-.19-.21-.2-.19-.22-.2-.26-.16-.2-.2-.22-.19-.22-.16-.24-.14-.26-.14-.25-.15-.25-.17-.25-.24-.17h-.29l-.26.13-.25.18-.22.19-.18.23-.16.25-.13.26-.09.27-.09.28-.06.28-.07.28-.06.28-.08.28-.11.27-.13.26-.16.24-.16.25-.1.26-.11.36-.1.18-.15.25-.16.25-.14.25-.1.27-.09.28-.1.27-.11.27-.15.25-.16.24-.15.25-.15.25-.12.27-.11.26-.11.27-.1.27-.11.27-.11.27-.09.28-.19.22-.22.2-.25.16-.26.14-.25.16-.24.16-.26.15-.25.16-.26.15-.25.15-.26.14-.26.14-.27.13-.27.12-.28.11-.28.1-.29.09-.29,0h-1.5l-.29-.08-.27-.14-.23-.17-.27-.14-.26-.13-.27-.14-.23-.17-.19-.23-.18-.23-.18-.23-.17-.24-.17-.24-.15-.25-.11-.26-.1-.28-.09-.27L348,1300l-.16-.24-.09-.27-.05-.29,0-.28-.08-.28-.06-.28,0-.29,0-.29,0-.29v-.58l0-.28,0-.29v-.58l-.05-.28-.08-.28-.08-.28-.09-.27-.07-.28-.07-.28v-.29l0-.29,0-.29-.06-.28-.06-.28-.07-.28-.08-.28-.08-.28-.08-.28-.07-.28-.09-.27-.09-.28-.1-.27-.12-.26-.12-.27-.12-.26-.09-.28-.07-.28-.07-.28-.09-.27-.06-.28,0-.29-.07-.28-.1-.27-.06-.29-.06-.28-.08-.27-.11-.28-.1-.27-.11-.26-.12-.27-.13-.26-.18-.28-.12-.22-.05-.28,0-.29.13-.26.07-.28.09-.28.12-.26.1-.27.06-.3-.12-.24-.21-.22-.14-.26-.12-.26-.13-.26-.13-.26-.14-.25-.17-.25-.11-.26v-.87l.12-.26.14-.26.08-.28.1-.27.06-.28,0-.29,0-.38v-.2l-.05-.28-.11-.27-.06-.28-.18-.23-.16-.24-.07-.28-.05-.29,0-.28,0-.29-.06-.28-.07-.28-.13-.26-.15-.25-.18-.24-.16-.24-.17-.23-.21-.21-.19-.23,0-.29.2-.19.19-.21,0-.29.11-.27.2-.21.21-.21.18-.23.21-.21.22-.2.25-.15.29,0,.3,0,.3,0,.3-.06.29,0,.29-.06.29-.08.28-.1.27-.12.28-.11.24-.16.24-.17.19-.23.16-.24.13-.26.09-.28.08-.28.1-.27.09-.27.09-.28.08-.27.1-.28.07-.28,0-.28,0-.29,0-.29,0-.28,0-.29v-.29l0-.29-.06-.28,0-.28v-.29l-.06-.29-.06-.28v-.29l.1-.27.22-.2.22-.2.18-.22.17-.24.17-.24.16-.24.12-.26.16-.25.12-.26,0-.29,0-.29V1259l0-.29,0-.29,0-.29v-.29l0-.28.18-.45.11-.31.13-.22.17-.23.21-.21.23-.18.2-.21.2-.22.09-.27,0-.29,0-.29-.14-.26-.07-.27-.22-.2-.26-.13-.29-.08-.29-.09-.28-.09-.28-.09-.3,0-.27-.09-.28-.11-.28-.1L348,1253l-.24-.17-.24-.18-.25-.15-.25-.16-.2-.21-.18-.24-.18-.23-.17-.23-.21-.21-.21-.2-.12-.26-.1-.27-.09-.28-.12-.26-.14-.26-.12-.26-.1-.28,0-.28,0-.3-.1-.26-.15-.22v0l-.21-.22-.25-.14-.21-.21-.19-.22-.21-.2-.25-.15-.3-.06-.3,0h-.31l-.17-.19-.09-.29-.1-.29-.22-.32-.31-.37-.18-.23-.18-.23-.18-.23-.21-.21-.22-.19-.23-.18-.23-.18-.24-.17-.2-.21-.15-.25-.1-.28-.08-.28,0-.28v-.58l0-.29,0-.28-.11-.27-.1-.27-.14-.25-.2-.22-.23-.18-.27-.12-.26-.14-.28-.12-.26-.13-.21-.21-.12-.26,0-.29v-.29l0-.28v-.87l-.15-.24-.17-.23-.14-.26-.12-.26-.11-.27-.13-.26-.12-.27-.09-.27L336,1235v-.29l0-.29,0-.28,0-.29v-.29l.09-.27.06-.28v-.29l0-.29,0-.28v-.59l0-.28,0-.29,0-.28v-.58l-.09-.27-.14-.26-.08-.27v-.29l0-.29,0-.29v-.28l-.07-.28-.12-.27-.13-.26-.13-.26-.12-.26-.09-.28,0-.28v-1.46l-.08-.25-.24-.17-.28-.12-.36-.11-.22,0-.26-.13-.16-.24,0-.3.07-.28.1-.27.11-.26.1-.28.1-.27.12-.26.11-.27.08-.28.12-.26.13-.26.17-.24.19-.22.18-.23.18-.23.19-.22.23-.18.26-.14.27-.11.27-.14.26-.13.26-.15.25-.15.25-.15.41-.42.46.26.59.15.49.29.43.4.21.21.2.21.39.44.39.44.43.4.11.56,0,.29,0,.29.12.56.13.57.15.55.24.54.43.38.45.36.59.11.59,0,.59-.11.55-.21.43-.39.36-.46.3-.5.26-.52.11-.27.12-.27.24-.52.24-.53v-.58l0-.57v-.58l-.06-.58,0-.57.32-.47.5-.32.5-.33.47-.34.44-.4.42-.41.48-.33.26-.13.27-.14.5-.29.51-.31.53-.25.6-.1.51.25.44.39.55.21.58-.1.55-.22.54-.25.5-.09h.08l.59.08.58.14.05,0,.47.23.48.35.46.36.39.44.47.34.57.16.29.09.28.08.58.12.6,0,.29,0h.3l.59,0,.59-.06.57.13.48.34.48.34.55.19.6,0,.59,0,.55-.25.2-.52.09-.58.12-.56.3-.5.42-.41.41-.41.46-.37.56-.17.59,0,.54-.23.53-.23.6,0h.6l.59,0,.59.07.57.14.58.15.29,0,.29,0,.59.12.56-.16.55-.23.54-.25.38-.43.42-.41.55-.2.54-.23.43-.4.34-.48.18-.55,0-.57v-.58l0-.57.22-.54.14-.57-.15-.54-.23-.54-.26-.52-.14-.25-.13-.26-.31-.5-.24-.52,0-.55.31-.5.2-.54.05-.57-.12-.57,0-.57.09-.57v-.57l.06-.58,0-.58,0-.57-.05-.58-.08-.57-.11-.57-.18-.54-.28-.52-.42-.39-.45-.36-.22-.54-.18-.55-.21-.54-.17-.55.09-.57.09-.27.09-.28.05-.57.23-.53.29-.51.42-.4.23-.18.19-.15.71-.61.35-.45.3-.5.37-.45.44-.38.46-.37.42-.42.32-.48.24-.52.2-.22.2-.21.33-.47.05-.06.33-.39.34-.47.52-.27.47-.36.28-.5.16-.56.38-.44.2-.22.19-.21.39-.44.11-.57-.11-.56-.06-.58.08-.57.19-.54.4-.43.14-.25.15-.25.3-.49,0-.56-.07-.57.1-.57.3-.49.21-.56-.14-.52-.15-.56-.06-.29-.05-.28v-.57l.31-.49.29-.5.16-.55.37-.45.5-.29.57.09.58,0,.45-.35.46-.35.57-.07.44.37.55.23.57.16.55,0,.53-.28.5-.31.27-.12.26-.13.51-.29.32-.26.35-.3.49-.33.4-.41.37-.45.56-.14.58-.08.37-.44.13-.57.22-.53.41-.41.43-.4.39-.44.35-.46.36-.46.55-.2h1.18l.59-.07.53-.25.48-.33.46-.41.5.07.43.4.2.54.51.25.6,0,.52-.24.46-.38.33-.47.43-.21.51.34.56.18.48.31.47.36.49.32.54.23.27.1.28.11.26.12.27.13.55.2.57.17.58.11.59-.06.46-.32.32-.5.39-.43.49-.32.54-.25.59,0,.51-.26.3-.49.25-.53.25-.39.16-.25.14-.25.24-.52.14-.57.11-.56.12-.56.27-.52.48-.33.43-.39.4-.43.43-.39.48-.33.52-.27.57-.17.53.15.46.39.48-.11.39-.46.53-.26.58-.12h.59l.56-.14.51,0,.49,0,.25-.73-.24-.54-.24-.59-.14-.58.27-.41.6-.28.49-.36.51-.3.58-.17.6-.09.6,0,.56.1h0l.61.08.55.21.17.53,0,.15v0l-.09.41-.06.58,0,.1.15.46.34.49.29.48.26.45,0,.52-.16.54.06.56.38.42.25.16.25.16.55.2.5.29.36.44.15.56,0,.58.11.56.31.49.21.2.21.2.21.2.22.2.42.38.4.38.21.54.39.42.51.26.36.44.41.41.5.31.43.38.41.39.46.36.23.52.14.11.31.26.47.35.48.33.54.24.59,0h.59l.59,0,.58-.06.58-.13.58-.12.54-.22.39-.44.36-.45.46-.36.57-.14.59,0,.59,0,.85,0-.09,2.81.06,5.33.09,8.14-.09,8.14v1.08l7.23.41,2.91.16,5.44.1,8.36.14,2.32,0h.13l.27-.28,3.87-3.82,4.28-4.23,1.51-1.63,4.78-5.12.31-.32.19-.18.22-.2.43-.39.48-.33.22-.21.2-.19.46-.36.3-.5.14-.25.15-.25.26-.52.21-.54.17-.55.13-.56.07-.58,0-.57,0-.58.08-.53v0l.05-.28.05-.29.07-.57.06-.57.07-.58.07-.59.55,0,.14,0,.32.1.1,0,.57.15.29.07.28.07.58.12.58.11.29.06.29.06.57.17.59,0h.59l.59-.06h.58l.59-.09.28-.1.27-.11.2.5,0,.58-.18.55.17.49.52.28.58.09.59,0,.59,0,.59-.07.59-.06.59,0,.58-.11.58,0,.51.3.35.06.21,0,.52-.27.68-.26h.45l.55.21.3.48.53.2.57-.13.55-.22.51-.28.49-.33.24-.18.23-.17.24-.17.23-.18.49-.32.5-.31.51-.29.57-.15.59,0,.16,0,.13,0,.29.07.57.16.57.13.59,0,.58-.1.56-.2H529l.29.06.29.07.58.11.59,0,.58-.11.29-.06.29,0,.58-.11.58-.08.56-.19.53-.24.55-.24.53-.24.53-.26.27-.12.26-.12.53-.27.52-.27.51-.29.41-.41.38-.45.45-.36.6-.11.36.4.55-.11.45-.37.16-.56.37-.45.57-.06.49.32.58,0,.58,0,.23.34.29.43.6,0,.57-.15.55-.2.13,0,.44-.07.28.09.28.1.5.31.57.09.29-.07.29-.06.52-.15.88-.3.59-.09.54.19.44.37.17.56,0,.57,0,.58.14.57.51.25.59.1.39.28.55.2.56.23.23.46,0,.58v.58l0,.57v.58l.11.56.09.55.41.43.35.46.08.57.24.54.4.37.61,0,.55.16.5.33.54.17h.19l.39,0,.57.17.57.16.21.2.22.21.16.51.12.56.09.57.46.36.55.16.53.27.56.17.53.25.4.43.37.46.52.15.3,0,.29,0h.59l.59,0h1.19l.54-.2.58-.06.3,0,.29,0,.58.11h0l.25.06.28.07.58.1h.53l.85-.36.59,0,.3,0,.29,0,.52.27.41.42.3.49.41.41.54.19H577l.41-.38.31-.51.54-.18.56.16.41.42.59,0,.46-.32.29-.5.11-.1.32-.25.56.25.51.28.52.28.57.16.29,0,.3,0,.58.07.57-.14.52-.27.52-.27.59-.06.57.15.46.36.56.17.58,0,.29-.07.29-.07.58-.1h.59l.55.21.54.24h.58l.53-.24.5-.31.48-.33.42-.4.48-.34.32-.47.35-.43,0,0,.56.06.11.56.22.56.76.64.39.89.18.23.18.23.17.24.17.23.33.48.26.52.34.45.37.43.23.53.22.5.06.57,0,.57v.58l0,.57.21.54.12.56.17.55.15.55.29.51.27.51.41.4.48.33.51.3.48.34.48.33.52.28.53.25.49.32.35.47.47.32.53.22.3,0,.29,0,.59-.06.59,0,.53.24.42.4.33.48.28.51.15.56,0,.28v.28h0l0,.28.07.29v.57l0,.29.05.28.11.27.13.26.08.19.15.34.12.27.14.26.14.25.18.23.26.13.28.11.28.08.31,0,.26.1.26.15.23.19.17.23.14.26.17.23.14.26.11.27,0,.28,0,.29,0,.29.07.27.1.28.08.27.08.28.07.28.06.29v.29l0,.25.1.3.1.27.11.27.08.22,0,0,.1.28,0,.28v.29l0,.29,0,.29.11.26.18.22.2.22.2.22.19.22.15.25.1.27.06.28.06.28.07.29,0,.28v.29l0,.29,0,.28v.29l.05.29.1.27.09.27.08.28.07.28.06.29v.28l-.05.29,0,.29v.57l0,.29.08.28.13.26.16.24.15.25.11.27.09.27.14.26.14.25.14.26.13.26.07.28v.29l-.06.28-.1.27-.14.26-.14.25-.13.27-.06.27,0,.29,0,.3.09.27.16.23.2.22.2.22.21.21.2.2.21.22.2.21.2.21.18.22.18.23.19.23.2.21.13.26.11.27.12.27.1.28.09.27.07.28,0,.28,0,.28-.08.29,0,.29,0,.28,0,.29.09.27.09.28,0,.28,0,.29-.05.29-.06.28-.07.28,0,.28.1.28.11.27.12.26.14.26.16.24.15.25.09.28.06.28,0,.28.05.29.06.28.06.28.06.29.07.28.11.27.11.27.13.26.16.24.24.17.26.14.26.14.27.13.26.14.17.1.34.19.28.11.27.12.25.16.23.17.2.22.16.24.15.25.14.25.13.26.11.27.11.27.11.27v.28l0,.28,0,.29v.58l0,.29,0,.29.15.22.14.24.08.28.13.26.12.26.12.27.16.24.16.24.15.25.14.26.07.29,0,.28-.25.18,0,.23.23.21.14.25.06.28v.58l-.07.27-.23.19-.27.13-.25.15-.25.17-.21.2-.17.23-.15.25-.14.26-.09.27-.1.27-.16.25-.12.26-.08.28-.06.28,0,.29,0,.29,0,.28,0,.29.07.28.07.28.08.28.08.27.09.28.09.27.08.28.08.28.09.28.09.27.07.28.09.27.06.26-.06.29,0,.29v.58l0,.28,0,.29,0,.28,0,.28-.05.29-.09.27-.1.28-.06.28,0,.29v1.15l0,.29-.17.24-.19.22-.15.25-.13.26-.15.25-.12.26,0,.28v.3l0,.28-.05.29-.07.28-.08.27-.11.28-.09.27.08.27.13.27.12.26.11.27.12.27.13.26.18.23.18.22.18.24.13.19.2.29.15.24.12.27.06.28,0,.29v1.15l0,.28-.05.29,0,.28,0,.29-.11.27-.14.25-.15.26-.06.28,0,.29.05.28.1.28.08.27.09.28.07.28.05.28,0,.29,0,.29-.07.28-.07.28-.07.28,0,.29-.1.27-.12.26-.15.25-.16.24-.13.27-.07.28.07.27.14.26.21.22.24.18.19.21-.07.29.09.27.17.23.22.17.14.25.1.27.09.28.09.27v.29l0,.29,0,.29-.14.25-.09.27,0,.28,0,.29v.29l0,.29,0,.29,0,.14,0,.14,0,.29.06.28,0,.29v1.73l0,.17v.11l0,.29,0,.28.05.29.1.27.1.27.12.27.14.25.16.25.16.24.16.25.17.24.1.26,0,.29,0,.29,0,.28,0,.29,0,.29,0,.29-.07.27-.09.28-.08.28,0,.28v.29l-.06.28-.11.27-.08.28-.07.28,0,.29,0,.28,0,.29v.58l0,.28v.58l0,.29v.86l0,.29,0,.29,0,.28,0,.21,0,.37v.58l0,.28.09.28.17.24.07.27,0,.29,0,.29,0,.29v.28l0,.29,0,.29,0,.29,0,.28,0,.29,0,.29v.86l0,.29.07.28.06.29.08.28.11.26.19.21.24.19.2.17.25.21.22.2.19.22.17.24.15.24.16.25.17.24.18.24.17.24.12.25v.29l0,.29,0,.29,0,.28-.09.28-.23.48,0,.29,0,.28,0,.29v1.73l0,.29.09.27.14.26.17.24.13.26,0,.28,0,.29,0,.29-.06.28-.07.28-.1.27-.17.26-.19.25-.09.24.08.26.17.26.15.26v.28l0,.14,0,.15V1314l0,.29,0,.29,0,.29,0,.29,0,.28.12.26.15.25.16.25.16.25.17.23.18.23.16.25.13.25.15.26.15.25.11.27.06.28.07.28.13.26.16.25.18.23.19.22.19.22.2.22.2.21.25.17.26.15.14.24.09.27.07.28.07.29.09.28.09.27.1.28.08.27.09.28.08.28.07.28.07.28.05.28.06.29.08.27.11.27.12.27.1.27.12.26.14.25.17.25.18.24.22.18,0,0,.23.09.58.19.26.14.26.15.25.16.2.21.12.27.09.27.08.28.06.28.06.29,0,.28.06.29.06.28.09.28.13.25.15.25.16.25.17.24.17.23.18.23.19.23.21.21.22.19.23.19.24.17.23.19.25.15.2.08.37.12.29.08.29.08.29.06.29.07.29.08.29.1.27.12.23.18.19.22.16.25.14.25.07.28v.29l0,.29v.58l.09.27.19.23.19.23,0,.27,0,.29,0,.29,0,.28,0,.29-.05.29,0,.28v.27l0,.31,0,.29,0,.28,0,.29,0,.29,0,.28,0,.29,0,.28.05.29.06.28.06.28,0,.29,0,.29v.86l0,.29,0,.29.11.26.17.25.18.22.2.22.21.21.23.18.25.17.23.18.23.2.19.21.18.24.2.21.23.18.25.16.26.15.27.15.26.13.29.1.27.11.27.13.26.15.25.16.25.16.26.14.28.11.28.11.27.12.26.14.26.16.25.16.23.18.22.2.21.21.21.2.2.21.21.21.21.2.24.19.23.18.22.2.22.2.21.2.21.21.2.22.19.22.18.23.14.25.12.27.08.28,0,.29,0,.28,0,.14,0,.14.08.28.06.28,0,.29v1.45l0,.29.06.27.13.26.18.24.18.23.2.22.19.22.2.22.19.23.19.22.19.22.19.22.2.22.19.22.2.22.19.22.19.23.17.24.17.24.16.24.13.26.13.26.2.22.2.21.14.25.09.28.08.28.07.27h0l0,.29.05.28,0,.29,0,.29-.06.28.13.25.11.18.19.32.16.25.16.25.15.25.15.25.18.24.15.24.15.26.12.26.12.26.15.26.2.21.24.18.23.19.25.16h.3l.27.12.27.13.25.16.24.18.25.17.26.13.29.1.28.1.23.19.11.26,0,.29.08.25.15.29.17.23.26.13.29.08.27.13.26.14.28.11.3,0,.3,0,.29.06.21.21.21.2.24.18.25.17.24.16.24.18.22.21.17.23.12.27v.29l0,.29,0,.28v.29l0,.29-.14.26v.27l.1.28.11.28.06.28.06.28.09.27.16.24.1.27.08.28.1.27.14.26.1.27.09.27.11.51.12.23-.07.4-.16.55-.09.61-.11.8-.38,1.43-.41,1.51-.18.87.2.22.15.24,0,.32v.4l0,.17v1.67l0,.28v.29l0,.28-.06.28-.09.27-.15.24-.2.23-.21.22-.2.23-.15.22-.06.24.07.26.16.26.19.25.18.23.23.19.23.19.16.22.09.26,0,.29v.29l0,.28-.05.28-.1.28-.14.24-.2.2-.24.17-.24.18-.22.19-.23.19-.21.21-.17.22-.12.26-.09.28,0,.29,0,.26.13.25.15.25.16.24.13.26.1.27.08.27.07.28,0,.27v.28l0,.29v.28l.1.27.14.26.06.26-.09.25-.18.25-.16.26-.17.28-.18.21-.23,0-.26-.11-.27-.17-.28-.16-.27-.14-.27-.17-.19-.09-.33-.07-.13.07-.12.08-.2.25-.08.26,0,.28.09.29,0,.28-.08.28-.17.27-.22.12-.26-.07-.29-.16-.28-.13-.31-.18-.31-.16h-.21l-.11.19-.1.23-.08.27-.06.28-.06.3,0,.31-.05.31-.06.29-.07.28-.06.28-.08.28,0,.28,0,.27,0,.27.12.27.13.26,0,.27,0,.28-.06.28-.06.28v.35l0,.21.05.28,0,.28,0,.28.05.28,0,.28v.29l0,.29,0,0-.07.21-.21.18-.3.15-.21.18,0,.25,0,.28.09.29.1.28.13.25.17.24.15.25.09.25,0,.29v.29l0,.28-.06.27-.1.27-.14.25-.17.24-.21.21-.28.18-.26.17-.13.18.07.23.21.23.23.24.2.22.21.2.19.21.14.24.08.27,0,.29.05.28.07.3.1.28h.23l.29-.12.31-.13.28-.06.22.14.09.16.17.39,0,.29,0,.29-.09.26-.23.2-.18.22,0,.27.09.3.09.3,0,.27-.09.2-.26.13-.34.07-.31,0-.33-.07-.33-.1-.2,0-.08.22v.31l0,.33.1.28.17.2.24.18.26.17.23.19.19.21.19.22.21.19.25.16.26.15.25.15.23.17.2.2.17.24.13.26.11.26.09.27.08.28.06.28,0,.27v.28l0,.28-.07.28,0,.28,0,.28,0,.28-.06.27-.09.28-.11.27-.09.27,0,.27v.27l.07.27.1.27.11.27.08.27.06.21.09.35.05.27v.28l0,.28,0,.28,0,.28-.05.28,0,.28-.06.28-.06.27,0,.28,0,.28v.57l0,.28,0,.28,0,.28,0,.28.06.28.08.27.11.26.13.25.14.25.14.25.13.26.12.25.12.26.11.27.19.49v0l.1.27.09.27.09.27.1.35.07.19.07.27.08.27.07.28.06.28.06.27.05.28,0,.28,0,.28,0,.28,0,.28v.29l0,.28.09.26.13.25.15.25.16.24.14.25.16.24.15.24.15.24.17.24.16.24.16.24.13.24.1.27.07.28.07.27.08.28.1.26.13.25.14.25.17.24.16.23.18.23.19.21.2.21.21.2.21.2.22.19.23.19.22.2.17.22.14.24.1.27.1.27.08.28.08.27.07.27.06.28.08.27.09.27.11.21"/>

</g></g></g></svg>
