<svg xmlns="http://www.w3.org/2000/svg" viewBox="0 0 1948.2 3756.13">
<defs>
    <style>.cls-1,.cls-2,.cls-3,.cls-4{fill:#ccc;stroke:#646464;stroke-width:2.13px;}.cls-1,.cls-2,.cls-3{stroke-linecap:square;}.cls-1,.cls-2{stroke-linejoin:bevel;}.cls-1,.cls-3,.cls-4{fill-rule:evenodd;}.cls-3,.cls-4{stroke-linejoin:round;}
    </style>    
</defs>
<title>Recurso 2arg</title>
<g id="Capa_2" data-name="Capa 2"><g id="svg2"><g id="layer1">
<path id="path3899" class="cls-1" d="M1849.32,497l.15.17.21.21.23.2.23.19.23.19.23.19.22.2.18.15.27.24.25.17.24.17.22.19.22.21.2.23.17.25.14.27.1.29,0,.3v.32l0,.31-.1.28-.17.24-.22.22-.22.21-.21.21-.22.2-.23.19-.24.18-.25.15-.26.15-.25.16-.25.16-.24.17-.24.17-.25.18-.23.18-.24.18-.22.19-.23.2-.22.2-.25.18-.18.23-.12.28-.08.3-.07.3,0,.3v.31l.05.3.07.31.09.29.12.28.14.26.15.27.16.26.17.25.17.25.19.23.23.19.21.22.19.24.15.22.15.3.09.3.07.3,0,.31v.3l-.09.28-.16.27-.14.27-.11.29-.1.29-.1.29-.1.29-.11.28-.13.27-.15.27-.17.25-.18.24-.18.24-.19.25-.17.24-.19.24-.18.24-.18.24-.19.24-.17.24-.18.24-.06.08-.12.17-.17.25-.16.26-.13.27-.11.28-.1.3-.09.29-.09.29-.09.29-.08.3-.07.3,0,.3,0,.3v.31l0,.31,0,.3v2.77l0,.3,0,.3-.07.3-.07.3-.09.3-.09.29-.11.28-.11.29-.14.27-.16.26-.17.25-.18.24-.2.22-.22.24-.18.22-.19.23-.18.24-.19.24-.18.24-.19.23-.19.23-.19.24-.19.23-.19.24-.2.22-.2.22-.22.21-.22.2-.15.13-.31.25-.23.18-.24.19-.23.19-.23.18-.23.2-.22.2-.22.2-.23.19-.23.2-.23.18-.24.18-.24.17-.24.18-.25.17-.24.18-.22.19-.21.22-.19.24-.17.25-.15.26-.14.27-.13.28-.12.28-.12.28-.13.27-.13.28-.13.29-.1.28-.07.29v.3l0,.31,0,.31,0,.31,0,.24v.06l0,.31,0,.31,0,.3.07.29.09.29.12.29.12.28,0,.07.09.21.13.27.14.28.14.27.14.27.09.2,0,.07,0,0,.1.24.12.28.1.29.09.29.08.26.08.33.07.3.07.3,0,.31,0,.3,0,.3,0,.3-.08.31-.09.29-.12.28-.13.27-.15.27-.16.26-.17.25-.16.25-.16.26-.15.26-.17.25-.18.24-.19.24-.2.23-.18.24-.13.19,0,.06-.16.26-.16.25-.19.24-.21.21-.21.22-.2.22-.19.25-.2.23-.24.12h-.3l-.31,0h-.59l-.27-.08-.26-.14-.26-.17-.24-.18-.22-.19-.22-.21-.22-.21-.21-.2-.23-.21-.25-.15-.28-.1-.28-.09-.29-.06-.29,0-.29,0-.29.06-.29,0-.3,0h0l-.28,0-.29,0-.29,0-.29,0-.3,0-.29,0-.29,0-.29,0-.29.06-.29.06-.29.08-.28.09-.27.11-.25.14-.25.18-.22.2-.22.2-.21.22-.21.22-.19.22-.2.24-.18.24-.17.25-.14.27-.11.28,0,.2-.1.4-.06.3,0,.31v.3l0,.3.06.3.07.3.07.3,0,.31,0,.3.07.3.11.28.11.29.06.3,0,.3,0,.31,0,.3v.31l0,.31v.31l0,.3-.08.3-.11.28-.12.28-.11.29-.11.28-.1.29-.11.28-.11.29-.12.28-.13.27-.13.28-.14.28-.15.27-.15.26-.18.23-.22.2-.26.16-.27.12-.28.09-.3,0-.29,0-.3,0-.29,0h-.88l-.3,0-.29,0-.29-.06-.29,0h-.54l-.34,0-.29,0h0l-.26,0-.3,0-.29,0-.29.06-.27.09-.28.11-.27.12-.27.13-.2.08-.07,0-.28.11-.27.1-.28.09-.29.08-.29.07-.29,0-.29,0-.29,0-.29,0-.3.07-.26.11-.24.17-.23.2-.23.2-.25.16-.26.15-.25.16-.21.21-.18.24-.18.25-.17.25-.16.26-.17.25-.16.26-.17.25-.21.21-.23.19-.25.17-.25.16-.26.14-.27.13-.27.12-.27.12-.26.13-.26.16-.24.17-.24.18-.24.17-.27.14-.27.13-.25.16-.2.21-.15.27-.17.26-.18.23-.2.23-.2.23-.19.23-.14.27-.13.28-.14.27-.15.27-.12.28-.06.25v0l0,.31,0,.31v.3l0,.31.07.29.1.3.09.29.08.3.07.29.1.29.12.28.13.28.11.28.07.3,0,.19.13.39.11.29.1.29,0,.08.07.21.08.29.06.3,0,.31v.31l0,.31-.12.27-.17.26-.2.23-.22.19-.27.13-.29.08-.29.06-.29,0-.29,0-.4.06-.27.11-.28.1-.28.1-.28.09-.28.09-.28.09-.29.07-.28.07-.29.07-.29.07-.28.08-.29.07-.31,0-.28,0-.29,0-.28-.07-.28-.1-.28-.11-.27-.13-.25-.15-.23-.2-.19-.24-.16-.25-.15-.27-.17-.25-.19-.23-.21-.22-.21-.21-.23-.2-.24-.18-.26-.14-.27-.12-.29-.08-.29,0h-.29l-.29,0-.3.06-.29.05-.29,0-.28.08-.27.12-.27.14-.24.16-.22.21-.2.23-.15.27-.16.25-.18.25-.2.23-.22.19-.26.14-.24.07,0,0-.29.06-.28-.06h-.88l-.3,0-.29,0-.29,0-.29.06-.29.06-.29,0h-2.06l-.3,0h-.29l-.3,0-.29,0-.28.06-.29.07-.29.08-.28.08-.13,0-.15.05-.22.07-.34.14-.26.13-.27.13-.26.14-.26.15-.24.17-.22.2-.22.21-.22.21-.24.18-.24.17-.25.18-.22.19-.21.21-.2.23-.18.24-.18.25-.18.24-.18.24-.18.25-.15.26-.15.26-.15.27-.13.27-.14.28-.12.27-.12.29-.09.29-.1.29-.11.28-.14.27-.15.27-.16.26-.14.27-.11.28-.1.29-.1.29-.08.3-.07.3-.06.3v.3l.08.31v.3l-.1.28-.13.28-.14.28-.08.29,0,.31v.31l0,.31.05.3.11.28.14.26.15.28.12.28.07.31,0,.13,0,.18,0,.32v.3l-.07.27-.2.22-.27.18-.25.17-.26.15-.27.13-.28.11-.28.08-.29.06-.3,0h-.29l-.29-.05-.22-.06-.07,0-.28-.09-.28-.1-.28-.1-.39-.09-.68-.13-.45,0h-1.17l-.3,0h-.29l-.3,0-.29,0-.3,0h-.29l-.29,0-.3.05-.29.07-.27.11-.25.15-.24.19-.22.21-.2.22-.19.24-.17.25-.15.27-.12.28-.11.28-.06.3,0,.31v.31l0,.3.05.3,0,.31,0,.3,0,.31v.62l0,.31-.06.3-.13.27-.2.23-.13.1-.11.08-.26.16-.28.16-.27.12-.28.06-.27-.05-.27-.15-.27-.15-.29-.07-.29,0H1756l-.29,0-.27.07-.26.16-.23.21-.19.23-.18.25-.19.37-.07.18-.09.29,0,.31,0,.31,0,.3,0,.31v.62l0,.3.09.29.15.26.16.27.13.27.13.29.13.28.14.26.17.24.23.18.28.13.26.15.22.2.22.21.21.21.24.19.24.19.18.23.14.27.11.29.1.29.08.3.08.29,0,.31.05.3.06.31.06.31.06.31v.3l-.06.29-.12.26-.18.25-.21.24-.21.23-.21.22-.23.18-.23.2-.19.23-.13.29,0,.3,0,.3,0,.31.05.3,0,.31,0,.3,0,.31,0,.3,0,.3,0,.22,0,.09,0,.3,0,.31v.61l0,.31,0,.3,0,.31-.05.3-.07.3-.07.3-.09.3-.12.28-.13.26-.17.26-.19.24-.22.22-.22.19-.26.14-.28.1-.29.09-.27.12-.25.17-.24.18-.23.2-.21.21-.22.2-.25.17-.25.15-.27.13-.27.14-.26.15-.24.17-.24.19-.24.19-.24.18-.26.14-.27.09-.29,0h-.61l-.29.05-.27.11-.25.16-.25.18-.24.18-.25.17-.25.17-.22.2-.19.23-.15.26-.14.28-.16.26-.19.23-.21.22-.21.22-.18.24-.16.26-.15.26-.13.28-.1.28-.07.25,0,.05-.08.29-.11.29-.12.28-.13.28-.1.29-.09.29-.1.29-.14.27-.17.26-.21.23-.23.17-.27.12-.29.08-.3,0-.33,0h-.26l-.29,0-.3,0h-1.18l-.3,0L1740,641l-.29-.08-.28-.09-.29-.09-.28-.09-.29-.07-.29-.06-.29-.07-.28-.06-.09,0-.2-.05-.28-.1-.28-.09-.28-.11-.28-.11-.27-.11-.27-.12-.28-.11-.28-.11-.28-.08-.29-.07-.28-.09-.27-.12-.27-.13-.26-.14-.26-.15-.25-.16-.24-.18-.24-.19-.22-.2-.21-.21-.21-.22-.21-.22h0l-.18-.22-.19-.25-.17-.25-.15-.26-.15-.27-.13-.27-.1-.29-.09-.29-.08-.3-.07-.29-.06-.3-.07-.3-.1-.4,0-.2-.08-.3-.08-.29-.11-.29-.14-.27-.14-.27-.15-.27-.16-.26-.16-.26-.17-.25-.18-.24-.2-.23-.21-.21-.23-.2-.25-.19-.25-.16-.27-.13-.27-.11-.28-.06-.3,0h-.3l-.3,0-.3,0-.29.05-.29.06-.28.07-.29.08-.29.07-.29.07-.29.07-.28.07-.29.07-.29.06-.29.06-.29.06-.29,0-.3,0-.29,0-.29,0h-.6l-.29,0-.29,0-.29,0-.29-.05-.25,0h0l-.29-.05-.29,0-.3,0-.3,0-.29,0-.27-.11-.25-.14-.26-.16-.24-.17-.25-.17-.24-.18-.24-.18-.24-.18-.25-.18-.49-.34v1.55l-.14.23-.27.15-.24.18-.21.21-.21.23,0,.3,0,.31.12.28.08.28,0,.32,0,.29.2.24.14.26v.31l0,.31v.62l0,.3-.1.29-.14.27-.19.24-.17.25-.13.27-.05.3v.31l-.06.61-.09.3-.11.28-.18.24-.19.24-.19.23-.25.17-.25.17-.23.2-.1.28v.61l0,.31.06.3,0,.3v1.55l.07.28.18.23.23.21.24.19.25.17.25.17.21.21.16.26.13.27.12.29.11.28.13.28.12.28.08.29,0,.31.05.3.08.3.09.29.12.28.13.28.15.26.18.24.25.17.23.19.15.26.12.29.13.27.21.22.24.18.24.17.25.17.25.16.21.14.27.21.19.24.19.24.24.19.25.17.24.18.19.21.12.49,1.05,2,0,.06,1.49,1.8.19.24.07.09,1.36,2.71.83,1.66,1.86,4.46.57,1.31,1.37,3.19,0,.07,2.43,3.86.36.58,1.24,2.35.26.5.07.15.75,1.89.15.36.55,1.52.34.92,0,.31,0,.31-.09.28-.17.25-.2.23-.2.24-.15.26-.13.28-.15.26-.15.27-.09.29,0,.31,0,.3.08.3.15.26.2.23.17.25.17.26.15.26.15.27.15.28,0,.1,0,.19v.29l0,.3-.08.3-.08.3-.08.3,0,.31v1.22l0,.31v.31l0,.3.08.3.12.28.16.25.18.25.19.24.18.24.19.24.15.26.09.29.06.31,0,.3.08.3.1.3,0,.29-.07.29-.13.28-.13.29-.09.29-.09.31,0,.3.08.28.14.27.15.21,0,0,.19.25.17.25.19.24.19.23.18.25.14.27,0,.3.05.29.11.29.14.28.18.24.21.22.2.22.18.25.16.25.21.23.23.18.24.19.22.2.23.2.33.14.47.1.2,0,.7.35.2.23.24.16.29,0,.27.12.26.14.24.17.22.19.19.23.11.18,0,.08.15.26.2.22.2.21.12.28.07.3,0,.3,0,.3-.11.28-.12.27-.16.26-.14.26-.07.29v.3l.11.28.17.25.19.23.24.17.27.12.28.09.28.06.29,0h.29l.29.06.28.1.26.16.14.23,0,.31,0,.31,0,.3v.29l.08.29.1.29.16.24.22.2.24.18.27.13.28.08.29,0,.29,0h.3l.22.17.19.24.21.21.27.14.26.15.16.22.09.31.08.3.15.21.31-.09.25,0,.15.24.13.29.17.25.24.18.25.15.27.13.2.22.18.24.2.22.22.18.28.1.19.23.2.22.19.23.17.26.21.18.3,0,.29.07.38.24.07-.29.1-.29.13-.27.16-.26.18-.23.23-.2.25-.15.28-.08.3,0h.58l.29.05.29.09.28.14.16.17,0,0,.09.28,0,.32v.3l-.06.3-.09.29-.07.3-.06.29v.3l.08.3.15.25.22.2.25.17.25.16.27.13.25.15.2.21.2.23.22.19.25.17.26.14.28.09.3,0,.28,0,.28-.13.17-.24.12-.27.1-.28.1-.29.09-.29.09-.29.08-.29.07-.29.07-.3,0-.29.06-.3.06-.29.07-.3.08-.29.12-.27.16-.26.21-.21.26-.14.28-.1.28-.08.29-.05.29,0,.29-.06.29-.07.27-.11.23-.17.19-.24.16-.26.14-.27.1-.28v-.29l0-.31v-.3l.07-.29.07-.29.1-.29.1-.28.12-.29.19-.23.25-.13.29-.09.3,0h.28l.3,0,.28.11.23.16.19.24.17.25.17.25.17.25.17.24.2.22.2.23.22.2.24.16.28.12.29.07h.28l.28-.1.27-.15.23-.18.17-.24.15-.27.14-.26.14-.27.15-.26.18-.24.17-.24.16-.25.13-.27.13-.27.13-.27.14-.27.15-.26.17-.25.17-.24.19-.22.23-.19.26-.13.27-.14.25-.15.24-.17.24-.17.25-.16.27-.13.26-.11.27-.12.28-.11.08,0,.18-.08.26-.15.26-.16.2-.21.15-.25.15-.26.12-.28.12-.27.12-.28.12-.29.09-.3v-.29l-.08-.27-.13-.27-.17-.27-.16-.26-.16-.25-.16-.25-.17-.25-.17-.24-.17-.25-.17-.24-.12-.39,0-.31.12-.25.08-.3.12-.27.2-.23.24-.19.26-.15.27-.13.26-.14.26-.16.27-.09.3,0,.3,0,.28-.09.29-.08.31,0,.3,0,.29-.07.25-.13.18-.23.13-.3.11-.29.1-.29.06-.3,0-.3v-.31l0-.31,0-.3.07-.3.09-.29.09-.29.1-.29.11-.29.14-.27.17-.28.18-.21.21-.23.23-.2.24-.17.28-.08h.47l.43,0,.3,0,.29,0,.29,0,.3.05.29,0,.29,0,.3,0,.29,0,.29.06.3,0,.29.07.31.07.29,0,.27-.07.23-.19.22-.23.2-.23.19-.24.17-.24.18-.25.18-.25.18-.24.17-.25.17-.26.16-.25.16-.26.16-.26.17-.25.16-.26.15-.26.15-.27.14-.27.15-.26.16-.26.18-.25.2-.21.25-.17.26-.16.24-.19.19-.23.19-.24.21-.21.23-.2.24-.19.3-.22.19-.13.26-.15.26-.12h0l.28-.07.3,0h.3l.3,0,.29.06.29.1.25.15.24.18.22.22.2.23.18.23.16.27.15.27.14.26.14.28.14.27.17.25.17.25.19.24.19.24.2.22.25.18.29,0,.29,0,.3-.07.29-.07.3-.07.23-.17.13-.29,0-.31,0-.3,0-.31v-.92l0-.31,0-.3.06-.3.06-.31.09-.29.17-.24.23-.21.25-.17.28-.08h.3l.29-.09.28-.12.28-.11.28,0,.39,0,.2,0,.29.07.29,0,.3.05.29,0,.29,0,.3,0,.29,0,.3,0,.29,0,.3,0,.29,0,.3,0,.29.06.29,0,.3,0h.89l.29,0,.3-.08.26-.13.13-.28.08-.3.06-.31,0-.3-.1-.28-.13-.28-.1-.31-.12-.27-.21-.19-.27-.13-.29-.12-.25-.16-.23-.18-.25-.18-.26-.15-.24-.17-.22-.21-.2-.23-.2-.23-.22-.2-.26-.14-.27-.14-.24-.19-.22-.19-.23-.2-.22-.21-.22-.21-.2-.22-.22-.22-.18-.24,0-.29.07-.3.08-.3.07-.21,0-.08.13-.27.16-.26.17-.26.18-.26.21-.2.27-.07.31,0,.3,0h.6l.3,0h.29l.27.11.26.16.21.22.16.26.19.23.2.23.21.22.22.2.22.21.23.2.23.19.26.19.23.15.29.07.3,0,.3,0,.29,0,.29-.08.26-.15.18-.24.19-.25.19-.23.19-.23.22-.21.24-.18.24-.18.23-.19.22-.2.23-.21.21-.22.21-.22.21-.21.09-.06.15-.11.29-.09.3,0,.29,0,.3.07.29,0,.29,0,.29-.07.28-.09.29-.09.29,0h.3l.29-.05.29-.08.28-.1.29-.08.28-.1.21-.21.17-.25.14-.27.15-.27.15-.27.15-.26.15-.26.17-.25.2-.23.15-.26.14-.28.13-.27.14-.27.13-.28.12-.28.12-.37.06-.21.08-.3.1-.29.14-.27.12-.28,0-.3v-.92l0-.31,0-.3,0-.31,0-.3,0-.31,0-.3-.05-.31,0-.3,0-.3,0-.31v-.3l0-.31,0-.3,0-.31,0-.3,0-.31,0-.3,0-.31,0-.3V662.8l0-.32,0-.29,0-.09.06-.21.1-.29.12-.29.15-.26.19-.24.23-.2.25-.16.27-.1.3-.07.29,0,.3,0,.29,0,.3,0h.3l.29,0,.3,0,.29,0,.29,0,.42-.09.19,0,.25-.2.07-.22,0-.33.1-.29.17-.26.19-.24.17-.26.1-.27.08-.3,0-.3,0-.31,0-.31,0-.3,0-.31v-.61l0-.31,0-.3,0-.3,0-.31.05-.3.06-.3.07-.3.07-.3.08-.29.07-.3.13-.33.11-.28.11-.29.12-.28.11-.28.13-.28.15-.27.17-.25.19-.24.2-.3.2-.19.23,0,.26.18.24.24.16.25.08.3.07.31.11.29,0,.09.08.18.12.29.12.28.11.28.1.29.09.29.1.29.11.28.13.28.13.28.15.26.16.26.17.26.2.22.26.14.29.09.29,0h.3l.3,0,.3,0,.28-.08.23-.19.21-.23.22-.2.23-.2.22-.2.22-.21.2-.26.24,0,.27.14.27.16.28.1.29.09.28.08.29.08.29.07.28.08.3.07.29,0h.29l.3,0,.3-.05.29,0,.29,0,.27.09.25.16.29,0,.29-.09.27-.13.2-.23.13-.28.07-.3,0-.3,0-.31v-.31l0-.3,0-.3,0-.31,0-.3,0-.3-.09-.29-.12-.29-.08-.29,0-.31v-.61l0-.31,0-.3.12-.28.13-.3.17-.24.16,0,.12,0,.31.09.23.15.08.29.07.31.16.26.19.24.16.25.11.34,0,.25.09.29.14.28.15.27.16.25.19.24.22.2.26.15.28.1.28.12.27.17.26,0,.26-.14.24-.21.18-.24.1-.3.1-.29.1-.29.1-.29.13-.27.15-.27.14-.27.09-.29.06-.3,0-.3.07-.3.09-.29.11-.29.11-.28.12-.28.1-.29.07-.3,0-.3,0-.31.08-.29.1-.29.12-.28.12-.28.12-.28.11-.28.12-.29.12-.28.14-.27.13-.27.07-.3,0-.3,0-.31,0-.32.12-.26.21-.23.08,0,.17-.12.27-.08.39.11.19.07.27.13.25.17.22.19.22.21.21.22.21.22.22.21.23.19.22.21.21.21.17.25.15.27.12.28.07.29.09.3.11.28.13.28.14.27.14.27.17.25.19.24.23.19.26.14.28.12.3.08.28,0,.21-.21.19-.26.18-.23.19-.24.19-.23.2-.23.18-.25.17-.25.2-.22.25-.16.27-.13.28-.12.29-.05h.89l.29-.06.29,0h.3l.29,0,.29.06.29.07.29.07h.29l.3-.05.28-.08.29-.09.27-.11.27-.14.23-.2.18-.24.13-.27.08-.3,0-.31v-.3l-.07-.3-.09-.3-.12-.28-.18-.24-.19-.24-.17-.25-.22-.2-.26-.14-.09-.28-.05-.31-.1-.29-.21-.23-.11-.26.07-.31.15-.27.27-.08.3,0,.32,0,.27,0h.3l.3,0,.28.08.28.15.27.1.28,0,.27-.14.25-.19.19-.22.14-.28.13-.28,0-.08.08-.21.15-.26.23-.17.28-.12.27-.14.12-.27h.27l.3.09.28.1.27.14.26.15.23.18.21.23.19.23.18.24.17.26.14.26.12.28.12.29.13.27.16.26.17.25.19.23.21.23.19.23.18.24.19.23.18.25.19.23.18.25.19.23.18.24.16.26.13.28.23.18.27.15.27.11.29.13h.28l.25-.15.28-.26.16-.17,0-.31v-.31l0-.31,0-.3,0-.31v-.3l0-.31,0-.3,0-.3,0-.31,0-.3V637.1l0-.31.1-.29.19-.24.29-.07.29,0,.24.17.23.21.22.22.19.22.2.24.21.21.22.2.22.21.22.2.19.24.17.25.18.25.21.21.22.2.21.22.18.24.17.25.18.25.16.26.19.23.26.18.28.1.27,0,.28-.12.28-.13.27-.13.2-.22.17-.25.14-.28.12-.39,0-.2v-.61l.06-.3.05-.3,0-.31,0-.3,0-.3.11-.28.09-.3.07-.29.16-.26.18-.25.19-.24.2-.21.26-.15.28-.11.29-.08h.29l.3,0h.29l.3,0,.29,0,.29,0,.27-.12.26-.15.26-.16.25-.16.22-.21.15-.26.17-.26.13-.27.06-.3,0-.31v-2.15l0-.3V629l.06-.3.12-.28.12-.28.06-.3,0-.12v-.18l0-.31.14-.27.12-.28.11-.28.1-.27v0l.13-.27.16-.26.07-.3,0-.3,0-.31v-.61l0-.3.07-.3,0-.3,0-.31v-.3l.1-.29.1-.29,0-.14,0-.16.07-.3.07-.3.14-.27.14-.26.16-.27.16-.25.2-.22.25-.17.31-.19.22,0,.3.06.25.16.19.23.17.26.14.27.11.28.09.3,0,.29v.31l0,.31-.06.3-.11.28-.15.27-.11.3,0,.29.2.23.22.21.24.19.27.11.28.08.3.05.29,0h.3l.29,0,.28.09.29.09.28.07.3,0,.29,0,.29.06.28.1.28.1.29,0h.3l.29,0,.29,0,.3,0,.29,0,.29-.06.29-.09.28-.12.23-.17.2-.22.19-.25.2-.22.19-.24.2-.23.19-.23.18-.24.16-.26.15-.26.16-.26.18-.25.17-.24.16-.26.21-.22.22-.2.22-.22.21-.21.25-.14.3-.06.21-.21.2-.22.21-.21.21-.22.2-.23.21-.22.2-.23.21-.23,0,0,.17-.19.19-.23.19-.23.2-.24.18-.23.18-.24.18-.24.12-.26,0-.32v-.32l0-.34,0-.31v-.3l0-.31,0-.31.13-.26.2-.22.21-.23.22-.2.23-.2.26-.16.28-.05.3,0h.6l.29,0,.29.07.29.09h.28l.27-.14.3,0,.28,0,.27-.15.17-.24.1-.3,0-.3.07-.3.08-.29V611l0-.31,0-.3.08-.29.15-.27.08-.29v-.31l.08-.29.17-.26.19-.24.26-.13.3,0,.29,0,.28.08.29.08.29.08.27.11.24.17.19.24.21.22.21.21.22.21.23.2.17.24.11.31.21.15h.32l.28-.08.26-.14.25-.18.22-.21.2-.22.19-.24.19-.23.17-.25.14-.27.09-.3.11-.28.11-.28.09-.3.07-.29.09-.3.09-.29.09-.29.09-.3v-.3l.08-.3.22-.2.28-.07.32,0,.28,0,.28.08.26.14.22.21.18.24.18.25.16.26.15.27.14.27.12.28.12.28.11.28.1.29.1.29.11.29.14.27.18.23.22.22.22.2.27.17,0-.24,0-.31,0-.3.07-.3.05-.3,0-.31,0-.31.08-.29.18-.24.19-.24.2-.23.24-.15.29,0,.29-.08.29,0,.29,0,.3,0,.29,0,.31,0,.14-.18-.12-.3-.29-.08-.29-.07-.29-.06-.29,0H1929l-.31,0-.27-.1v-.3l.06-.31.26-.12.3-.05.29,0,.25-.16.21-.22.2-.23,0-.29v-.32l0-.31-.1-.29-.19-.23-.24-.18-.27-.15-.25-.15-.18-.27,0-.26.31-.1.27.09.24.19.22.2.23.2.24.18.25.16.28.14.27,0,.26-.14.26-.16.25-.17.3-.06.21-.24.13-.26-.19-.19-.21-.2-.25-.17-.25-.16-.19-.24-.16-.25-.26-.13-.27-.14-.26-.17-.08-.26,0-.31,0-.3,0-.31v-.31l.08-.31h.23l.27.14.26.14.26.14.27.13.27.12.28.1.29.08.29-.1.07-.27,0-.32-.44-.35-.26-.15-.26-.14-.26-.14-.25-.16-.2-.23-.09-.29,0-.31,0-.3-.12-.28-.12-.28-.07-.3V595l.16-.2.31,0,.29.07.26.13.23.2.21.22.21.22.19.23.2.22.22.21.23.19.25.16.29.09.31.06.17-.15,0-.33-.13-.28-.22-.19-.3,0-.27-.1-.21-.23,0-.3v-.31l-.06-.3-.1-.28-.12-.28-.14-.36,0-.22.28,0,.28.11.25.15.23.19.22.21.2.24.27,0,.28-.12.25-.17.21-.21.18-.24.18-.25.3,0,.15-.23v-.31l-.13-.28-.19-.23-.17-.25-.14-.27-.2-.23-.13-.26,0-.31v-.31l.11-.28.2-.23.27-.09.24.17.24.18.27.12.28.11.29,0,.29,0,.24-.2.13-.27v-.31l0-.32-.1-.28-.26-.15-.23-.2,0-.29.27-.09.31,0,.28,0,.28-.12.29,0,.29-.06.27-.17-.06-.23-.12-.29v-.31l-.09-.29-.28-.08-.3,0h-.29l-.26-.32.27-.2.19-.24.08-.3,0-.3.11-.29.21-.21.25-.17.29,0,.29.06.29,0h.3l.27-.08.18-.24,0-.3V584l0-.31,0-.31,0-.21,0-.09-.13-.27,0-.3.09-.3.15-.29.26-.07.3.06.28.09.27.14.28.11.27.12.07.29.1.25.3.09.32,0,.14-.17-.1-.31-.24-.2-.06-.3-.1-.26-.28-.13-.28-.11-.28-.12-.2-.19,0-.32.17-.24.19-.24.19-.24.2-.22.22-.21.22-.2.39-.07.19,0,.11-.26,0-.31-.15-.26-.2-.25,0-.27.18-.25.2-.21,0-.3-.09-.29-.24-.18h-.29l-.3,0h-.29l-.16-.25-.22-.22-.09-.25.05-.32.08-.29.17-.25.12-.28.08-.3.05-.3.12-.28-.26-.08-.29,0-.16-.33v-.22l.26,0,.25.18.28.08.29,0,.27.12.3,0,.3,0,.24.13.22.22.26.17.28,0,.24-.18,0-.31-.1-.28-.17-.26-.23-.19-.23-.19-.2-.23-.16-.25-.16-.26-.18-.25-.22-.22-.26-.11-.23.15-.12.3-.13.3h-.24l-.3-.12-.28-.12V572l.15-.26.16-.18v-.32l-.08-.28-.25-.17-.19-.24-.1-.29-.1-.29-.13-.27-.16-.26-.21-.21-.28-.11-.26-.13-.12-.28h.58l.3,0,.17-.21-.07-.3-.06-.3,0-.31-.06-.29-.22-.2-.22-.22-.18-.24-.11-.28-.08-.29-.06-.31-.06-.3-.08-.31.17-.2.27-.16.25-.16.22-.2.21-.22.08-.29,0-.34-.15-.16-.32,0-.29-.08h-.3l-.22.19-.06.3,0,.28-.25.2-.28.06-.3,0-.29,0-.31,0-.23-.08,0-.3,0-.33-.16-.26-.21-.22-.12-.29.08-.25.31.06.23.2.27.14.28.05.29-.08.24-.16.17-.26.15-.27.06-.29v-.63l-.09-.27-.26-.15-.27-.15-.07-.29-.14-.2-.26-.15-.19-.24-.17-.24-.26.15-.16.25-.11.3-.13.28-.23-.13-.29-.08-.29,0-.23-.17-.08-.29,0-.31.12-.27.2-.24.16-.25-.26-.16-.29-.07-.27-.08-.08-.3-.06-.31-.16-.25-.21-.21,0-.3.1-.29.3,0,.23.16.16.27.16.25.26.14.33.23.16.11.28.12.27-.12.21-.22.08-.29,0-.31-.08-.29.08-.3.08-.3.1-.28.15-.27.09-.3-.14-.25-.21-.22-.3-.07-.24-.14-.09-.3v-.31l.15-.23.28.07.15.27.1.3.26.07.26-.16.22-.18.06-.31.3-.09.19-.1v-.3l-.21-.23-.26-.15-.24-.18v-.29l.22-.19.2-.22.26-.18.16-.19-.21-.24-.1-.29,0-.3v-.31l-.08-.29-.21-.2-.09.3,0,.32-.11.2-.25-.21-.16-.26-.14-.27-.14-.28-.22-.15-.3.07-.28.07-.36,0-.2-.07-.23-.19-.13-.27-.18-.22-.2-.1,0-.34.25-.11.27.15.24-.15.22,0,.19.21.24-.2.13-.27.09-.3,0-.31.24-.15.27-.07.17-.25.07-.3v0l.07-.26,0-.3-.1-.29-.09-.29-.1-.3-.06-.29.13-.28.18-.24v-.3l0-.31v-.31l0-.31v-.3l.08-.29.3-.07.15-.24.12-.29.09-.29.08-.29,0-.3,0-.31.06-.3.05-.31.15-.26.28,0,.29.05.24-.17.17-.26v-.3l-.15-.26-.26-.17-.29-.05-.25.14-.23.2-.26.22-.2.16-.23.2-.2.22-.14.28-.24.09-.3-.12-.06-.24.16-.27.17-.26.19-.22.24-.18.14-.26-.13-.28-.14-.27-.23-.19-.25-.15-.23-.13.24-.2.28-.09.18-.23h.27l.21.21.22.19.27-.13.08-.29,0-.31v-.6l0-.29.12-.28,0-.27h-.31l-.25.17-.27.07-.2-.24-.05-.3,0-.3.06-.31.08-.3.11-.28,0-.31.08-.29.22-.17.28.13.27.12.29,0,.28-.08.3.06.17.23.26.12.28-.08.12-.27-.05-.3-.13-.28-.12-.27.19-.24.22-.2,0-.31.24-.15.19-.22,0-.3-.07-.3-.08-.3-.08-.3-.15-.24-.27.07-.24.19-.23.2-.26-.05-.11-.27,0-.31-.27-.09-.3,0,0-.28.19-.17.29,0,.11-.11.11-.11.27-.1.28.07.25.16.24-.16,0-.3,0-.3,0-.34.1-.25.07-.3-.09-.28-.09-.3.14-.23.29,0,.27-.11.2-.23.2-.2.09-.29,0-.31v-.3l-.19-.23-.29-.06-.05-.27,0-.3-.19-.22-.24-.19,0-.3,0-.28-.28-.09-.08-.22v-.32l0-.3.08-.3v-.61l-.05-.29-.19-.23-.22-.21-.19-.23.11-.23.26-.16.19-.23,0-.31-.07-.2-.12-.2.12-.29.14-.29.15-.27,0-.3.15-.26.25-.16.23-.2,0-.28-.09-.3,0-.3.12-.28.17-.25.17-.26.08-.29.11-.27.26-.16.24-.17.25-.17.12-.28v-.24l.29-.12.19-.21,0-.31V514l.28,0,.13-.21,0-.31.12-.27.21-.22.18-.24.06-.3v-.31l.13-.26.08-.3.24-.17,0-.31.21-.21.24-.18.21-.21.16-.26.18-.24.1-.29.08-.3,0-.3v-.61l0-.3.1-.29.1-.29.1-.28,0-.31v-.31l-.05-.3-.08-.3-.11-.28-.16-.26-.13-.27-.13-.28-.13-.27-.09-.29-.06-.3,0-.31,0-.3,0-.31,0-.3.09-.29.07-.3.06-.3,0-.3.06-.31.06-.3,0-.3v-.3l0-.31v-.31l-.15-.26-.18-.24-.2-.24-.2-.21-.23-.2-.24-.18-.25-.15-.23-.18-.19-.24-.16-.26-.13-.27-.15-.27-.11-.28,0-.31,0-.3-.07-.3-.12-.28-.1-.31-.2-.15-.31,0-.29-.05-.29-.07-.29-.07-.26-.11-.21-.22-.23-.19-.2-.21-.1-.29,0-.31,0-.31,0-.3-.07-.3-.11-.3-.21-.18-.29-.07-.26-.13-.24-.19-.25-.15-.28-.08-.29-.06-.28-.09-.28-.11,0,0-.2-.12-.23-.19-.21-.21-.16-.25-.11-.29-.14-.27-.13-.28-.1-.28-.1-.29-.1-.29,0-.3v-.92l0-.31,0-.31v-.61l0-.3.09-.29.11-.29.18-.24.16-.26.19-.23.19-.24.18-.23.17-.25,0-.3,0-.31-.08-.29-.16-.26-.22-.18-.28-.09-.3-.24-.11-.18-.14-.27-.21-.2-.3,0-.28,0-.24-.18-.19-.24,0-.3-.08-.29-.26-.15-.25-.15-.31,0-.21-.13-.07-.32-.09-.3-.11-.28-.28-.07-.29-.08-.24-.14-.09-.31v-.3l-.13-.27-.11-.29-.08-.28-.15-.21-.2-.22-.1-.29-.34-.48-.16-.26-.14-.28-.13-.28-.11-.29-.13-.28-.2-.24-.28-.08-.29.07-.26.14-.27.15-.27.14-.28.12-.25-.13-.23-.19-.23-.23-.21-.23-.18-.24-.15-.27-.17-.26-.22-.23-.15-.24.09-.31.1-.32,0-.3-.16-.23-.27-.18-.23-.2-.1-.28,0-.32-.08-.3-.15-.27-.15-.27-.1-.31v-.31l.13-.26.19-.25.2-.24.2-.23.19-.24.12-.28,0-.32,0-.31v-.31l.1-.29.14-.28.16-.27.15-.27,0-.3-.08-.31-.07-.32-.21-.17-.3-.05-.28-.11-.22-.21-.19-.24-.23-.21-.28-.13-.08-.29.12-.27.24-.19.26-.17.26-.16.23-.18.12-.29v-.31l-.14-.28-.18-.25-.15-.27-.08-.3,0-.31,0-.31,0-.32,0-.29-.15-.28-.17-.26-.22-.23-.18-.24,0-.29.14-.3.15-.27.19-.24.22-.21.2-.22.13-.29.15-.27.2-.23.09-.29,0-.31,0-.32.15-.27.26-.13.28.13.27.11.17-.26-.11-.27-.14-.28-.07-.32v-.31l.18-.22.22-.23.15-.26,0-.3-.12-.3-.13-.28-.14-.28-.12-.28-.07-.32-.15-.25-.24-.18-.25-.17-.22-.21-.22-.23-.16-.26v-.3l.13-.29.22-.21.29-.1.26-.14.19-.24.11-.29,0-.33-.06-.32-.2-.19-.29-.05-.26-.15-.23-.2-.27-.13-.29-.09-.29-.05h-.3l-.31.11-.17-.08.07-.35.19-.25.14-.27v-.31l0-.31-.08-.31-.13-.27-.18-.26-.15-.26-.09-.31v-.3l.14-.31.23-.09.29.16.27.05.24-.21.1-.36,0-.25,0-.32.11-.28.22-.23.06-.28,0-.32,0-.32.05-.31-.14-.25-.24-.21-.24-.19-.25-.18-.19-.22-.08-.31-.11-.29-.19-.23-.22-.21-.23-.2-.25-.17-.24-.19-.23-.19-.23-.19-.23-.2-.23-.21-.23-.18-.34-.24-.15-.11-.24-.19-.23-.2-.26-.13-.29-.07-.3-.08-.27-.09,0-.31,0-.31,0-.31.09-.3-.11-.29-.24-.11-.3.09-.25.16-.2.24-.2.24-.22.23-.21-.11-.2-.27-.23-.07-.21.24-.14.29-.26.14-.25-.1-.12-.3-.13-.28v-.33l-.16-.22-.28-.14-.3-.09-.29-.07-.18-.22-.13-.3-.18-.26-.26-.25-.19-.1,0,.3,0,.35,0,.31-.1.3-.07.28.19.26.18.25.15.27v.3l-.08.31-.14.28-.16.27-.18.24-.3,0-.23-.19-.16-.26-.3-.09-.06-.24,0-.32-.07-.31-.06-.3,0-.31v-.31l-.08-.3,0-.32-.2-.21-.24-.19v-.32l-.24-.14-.28.09-.26.15-.19-.09.11-.3.1-.31v-.31l-.07-.27.18-.25-.14-.26-.21-.25-.21-.22-.23-.2-.22-.2-.23-.2-.24-.19-.23-.2-.24-.19-.23-.19-.23-.19-.23-.2-.22-.21-.2-.22-.13-.28-.11-.29-.19-.25-.24-.18-.28-.08-.31,0-.3,0-.29.07-.23.17-.17.27-.19.24-.19.24-.19.24-.18.26-.19.24-.23.17-.29.06h-.31l-.27-.11-.27-.15-.27-.12-.24-.18-.18-.24-.16-.27-.14-.27-.13-.28-.16-.27-.18-.25-.2-.23-.22-.22-.25-.14-.29.06-.3.1-.26.14-.09.27,0,.33,0,.31,0,.31-.07.3,0,.31v.31l0,.32,0,.31-.09.3,0,.3,0,.31.07.3,0,.31V432l0,.32,0,.31,0,.31-.06.31-.1.29-.19.24-.26.17h-.28l-.22-.22-.16-.26-.15-.28-.17-.25-.15-.27-.07-.3-.06-.31-.09-.29-.16-.27-.18-.25-.15-.26-.15-.27-.15-.27-.28-.45-.14-.26-.12-.29-.1-.29-.08-.3,0-.31,0-.31v-.62l0-.32,0-.3.1-.29.13-.28.14-.28.13-.28.11-.29.13-.28.18-.25.19-.24.18-.25.14-.27.12-.28.11-.3.13-.28.12-.29.14-.27.21-.31.13-.2.14-.27.1-.3.09-.3.07-.31v-.3l-.11-.29-.16-.27-.22-.22-.28-.08-.3,0-.29.06-.28.09-.28.11-.27.13-.25.16-.21.22-.2.23-.2.23-.19.24-.2.23-.19.24-.21.22-.24.18-.21.21-.23.36-.1.16-.19.25-.2.22-.2.23-.18.25-.18.24-.2.24-.21.22-.23.19-.27.14-.29.07-.29,0-.18,0-.11,0-.29-.07-.29,0-.29-.05-.29-.06-.29-.07-.3,0h-.29l-.3,0-.27.11-.26.17-.22.2-.14.27-.07.31,0,.31.07.3.09.3.18.25.23.19.27.12.28.12.25.17.25.17.27.11.28.11.25.16.22.22.19.24.14.27.07.31,0,.33-.19.18-.29.08-.31.05h-.29l-.3,0h-.3l-.29,0-.29-.07-.27-.11-.27-.15-.26-.15-.25-.16-.25-.16-.26-.16-.26-.15-.26-.14-.24-.2-.23-.22-.24-.13-.31,0-.24.17-.12.29,0,.32,0,.31,0,.31v.31l0,.31,0,.31,0,.32,0,.33-.06.29-.18.21-.3.13-.29.08-.31,0-.26-.09-.21-.2-.18-.26-.19-.26-.21-.22-.23-.2-.21-.22-.19-.24-.17-.25-.13-.28-.12-.29-.11-.29-.12-.28-.16-.27-.16-.26-.08-.3-.07-.31-.16-.25-.25-.19-.27-.13-.29-.09-.29,0-.29,0-.29.08-.28.1-.29.09-.28.1-.27.13-.24.18-.24.19-.26.14-.28.11-.27.11-.28.12-.29.13-.26.15-.15.22v.33l-.09.29-.2.25,0,.29,0,.32v.31l0,.32-.06.32-.09.29-.14.26-.22.18-.29.14-.27.14-.26.16-.28.08h-.3l-.29-.05-.24-.18-.22-.21-.24-.2-.24-.18-.28-.09h-.31l-.26.11-.26.17-.24.18-.24.2-.17.25-.13.28-.09.3,0,.3v.95l0,.31-.06.3-.09.3-.11.29-.11.29-.1.3-.14.27-.24.24-.21.15-.26.16-.26.16-.24.18-.25.17-.23.21-.16.25-.14.27-.14.29-.14.27-.17.25-.22.21-.24.19-.25.17-.27.13-.28.11h-.29l-.28-.1-.28-.11-.31,0-.15-.05-.12,0-.11-.26,0-.33-.13-.28-.17-.26-.23-.31-.14-.17-.2-.23-.17-.26-.17-.25-.19-.24-.2-.24-.19-.23-.18-.25-.22-.2-.26-.15-.24-.18-.22-.22-.25-.17-.23-.18-.21-.23-.23-.2-.23-.19-.25-.17-.27-.12-.29-.07-.3,0h-.3l-.29.05-.29.07-.28.1-.22.2-.24.18-.27.13-.28.1-.29.05-.3,0-.29-.07-.27-.12-.25-.17-.2-.24v-.31l0-.31.06-.3,0-.31,0-.31v-.31l-.11-.3-.2-.22-.24-.19-.26-.14-.27-.14-.25-.16-.1-.05-.17-.08-.28-.09-.29-.07-.29-.05-.3,0-.29,0h-.3l-.29,0-.3,0h-.29l-.29,0-.29.08-.29,0-.3,0-.32,0-.23.13-.07.29V432l0,.31,0,.31v.62l0,.31,0,.31,0,.31.06.31,0,.3v.32l0,.3.06.17,0,.12.11.3.1.29.09.3.1.29.1.3.09.29.1.3.08.29.08.31.07.31,0,.3-.07.3-.18.24-.23.21-.22.2-.28.12-.29.08-.29,0-.28-.06-.28-.13-.27-.13-.27-.11-.3,0-.28-.1-.27-.13-.28-.09-.29-.06-.29-.09-.28-.08-.29-.05h-.3l-.29,0-.3.06-.27.12-.24.18-.25.18-.19.23-.15.27-.13.28-.11.29-.05.31v.31l0,.31.07.3.07.31.09.3.09.29.09.3.1.29.1.29.11.3.11.29.11.29.13.32.11.25.12.28.13.28.13.28.16.27.16.26.12.28.09.3.07.3.08.3.07.31.07.3.06.31,0,.31-.06.3v.09l0,.22,0,.31,0,.31.07.31.09.29.12.29.12.28.09.3.08.3.12.29.19.36.11.18.16.26.17.26.18.25.19.23.23.2.2.22.19.25.18.24.18.25.18.25.19.24.18.25.19.23.19.25.12.28.09.3.14.27.17.26.12.28.06.31,0,.31.05.31v.31l0,.3-.08.31-.08.3-.1.29-.11.29-.11.29-.14.28-.15.27-.14.27-.11.29-.06.31-.09.29-.14.27-.16.27-.13.28-.09.29-.09.3-.1.3-.12.28-.14.28-.08.3-.07.3-.09.3-.1.27v0l-.11.29-.12.29-.11.29-.12.28-.07.3-.06.31-.07.3-.06.31-.06.3-.07.31-.1.3-.13.29v.29l.12.28.16.28.16.26.17.26.16.26.13.28.1.3.11.29.12.29.17.28,0,.28,0,.09-.07.2-.12.29-.14.29-.1.29-.06.31-.06.3-.08.31-.13.28-.18.24-.13.12-.11.1-.25.13-.29.08-.3,0-.3,0-.29,0-.29-.06h-.3l-.29-.06-.28-.11-.28-.1-.29,0-.3,0-.3,0-.29,0-.28.11-.25.17-.21.22-.2.23-.15.27-.09.3,0,.31v.31l.06.31.1.28.15.25.23.19.29.15.31.14.22.2.21.2.09.29.12.28.13.27.16.26.17.25.15.26.14.28.11.28.11.28.12.29.12.27.12.28.13.28.12.28.12.28.1.28.1.29.1.29.09.29.07.18.08.21.07.18.11.29.09.29.07.3.07.3,0,.3.06.3,0,.3.05.3,0,.31,0,.3,0,.31,0,.31,0,.31v.32l0,.28-.14.25-.22.22-.21.23-.17.25-.16.25-.17.26-.17.25-.17.25-.18.24-.17.24-.2.24-.2.22-.18.24-.14.27-.15.28-.12.28-.11.29-.07.28,0,.3.12.29.12.29.12.28.13.28.13.27.14.27.15.27.15.26.17.25.18.24Z"/>


</g></g></g></svg>
