<svg xmlns="http://www.w3.org/2000/svg" viewBox="0 0 1948.2 3756.13">
<defs>
    <style>.cls-1,.cls-2,.cls-3,.cls-4{fill:#ccc;stroke:#646464;stroke-width:2.13px;}.cls-1,.cls-2,.cls-3{stroke-linecap:square;}.cls-1,.cls-2{stroke-linejoin:bevel;}.cls-1,.cls-3,.cls-4{fill-rule:evenodd;}.cls-3,.cls-4{stroke-linejoin:round;}
    </style>    
</defs>
<title>Recurso 2arg</title>
<g id="Capa_2" data-name="Capa 2"><g id="svg2"><g id="layer1">

<path id="path3708" class="cls-3" d="M393.05,2034.3l.33-.11.33-.1.34-.08.34-.07.35,0,.35-.05.35,0h.35l.34,0,.33.11.33.12.32.13h.35l.35,0,.35,0,.33-.09.33-.13.32-.12.31-.15.26-.2.23-.24.24-.23.25-.21.25-.22.25-.22.24-.22.24-.22.24-.23.23-.23.23-.24.23-.23.23-.23.25-.22.26-.21.26-.21.27-.19.34-.09.33-.09.34-.08.34-.08.34-.07.33-.1.32-.13.32-.13.32-.12.32-.12.33-.12.32-.12.28-.18.2-.26.26-.21.27-.2.24-.22.21-.25.19-.26.18-.26.17-.28.2-.25.25-.21.3-.17.31-.14.31-.14.31-.16.27-.19.21-.25.2-.26.17-.27.23-.22.29-.19.27-.18.28-.2.28-.18.28-.19.25-.22.2-.25.16-.27.15-.29.09-.29.07-.31.06-.3.1-.3.11-.29.11-.3.12-.29.14-.28.22-.24.23-.23.21-.25.21-.25.19-.27.15-.27.13-.29.14-.28.13-.29.16-.27.18-.27.19-.26.2-.25.23-.24.22-.23.21-.25.18-.27.17-.27.19-.26.19-.26.19-.26.19-.26.19-.26.19-.25.2-.26.21-.25.21-.24.22-.25.2-.25.19-.26.22-.31.14-.22.17-.27.15-.28.14-.28.13-.29.15-.28.21-.24.25-.22.27-.2.27-.2.28-.19.29-.18.25-.21.16-.27.1-.31.22-.22.25-.22.26-.21.26-.2.27-.21.26-.2.26-.2h0l.25-.21.23-.24.22-.24h0l.64-.23.35,0h1l.34,0,.35-.07.34-.06.33-.08.33-.11.33-.11.32-.12.28-.18.24-.2.35,0,.34-.07.28-.18.26-.22.2-.25.17-.27.18-.27.18-.26.22-.25.3-.14.34-.09.3-.15.31-.14.34-.09.31-.13.24-.23.25-.21.26-.21.16-.21,0,0,.26-.21.33-.1.35.05.31.13.27.2.29.16.35,0,.35-.06.33-.11.32-.12.32-.11.33-.11.34-.06h.35l.35,0,.33-.09.33-.12.33-.08.35,0,.35,0,.34-.07.33-.07.35,0h.35l.36,0,.3-.12.25-.22.25-.23.26-.2.3-.16.31-.14.32-.12.32-.14.32-.13.35,0,.29.12.12.31.29.16.34.09.36,0,.33-.06.28-.17.27-.22.26-.21.25-.22.23-.23.23-.24.16-.27,0-.31v-.31l0-.31.06-.29.17-.28.2-.26.2-.25.26-.21.3-.15.32-.14.3-.15.19-.26.16-.27.2-.25.26-.22.29-.17.33-.09.34-.08.29-.18.27-.19.29-.17.28-.2.19-.25.12-.29.05-.35.05-.31.07-.3.1-.3.18-.27.28-.17.33-.12.34-.08.29-.16.22-.24.14-.29.13-.29.13-.28.16-.28.2-.25.23-.23.27-.2.27-.2.28-.18.29-.18.29-.17.29-.16.31-.15.32-.12.33-.1.33-.09.35-.05.35,0,.33-.08.31-.1.32-.16.29-.17.33-.12.31-.13.24-.22.19-.26.19-.27.15-.27.13-.29.12-.29.1-.3.08-.3.09-.3.09-.29.17-.28.19-.25.23-.24.2-.25.14-.29,0-.3v-.93l0-.31v-.31l0-.31,0-.31,0-.31-.11-.29-.15-.28-.05-.3.12-.29.19-.26.24-.23.28-.22.14-.26v-.29l-.06-.32-.08-.31,0-.32.15-.27.18-.26.11-.3v-.61l.24-.23.32-.12.17,0,.17,0h.7l.32-.1.3-.16.32-.12.34-.09.33-.09.34-.06.32-.12.19-.26.19-.26.3-.15.3-.15.27-.2.27-.2.14-.12h3.75l.11-.06.24-.22.22-.25.22-.24.24-.22.27-.2.28-.18.28-.18.3-.16.31-.13.33-.11.31-.13.33-.12.32-.12.28-.17.2-.25.22-.25.26-.21.23-.22.16-.28.16-.27.15-.28.11-.29.06-.31v-.31l0-.31-.07-.3-.09-.3-.19-.26-.21-.24-.19-.27-.16-.27-.11-.29,0-.31v-.31l.07-.31.12-.28.22-.24.26-.21.28-.18.29-.17.31-.14.32-.14.28-.17.17-.27.12-.29.12-.29.12-.29.12-.29.22-.24.27-.2.26-.19.24-.23.24-.22.3-.16.29-.17.22-.24.25-.21.3-.16.27-.19.23-.24.27-.18.29-.18.25-.21.24-.22.2-.26.18-.26.21-.25.17-.27.18-.26.21-.25.22-.24.22-.24.25-.21.3-.16.27-.2.26-.2.25-.22.28-.17.31-.14.31-.14.3-.16.3-.16.32-.11.33-.09.29-.17.28-.19.31-.14.33-.08.34-.09.32-.1.33-.09h.35l.35,0,.34.06.35,0,.35,0,.29-.14.26-.21.26-.22.24-.22.19-.26.27-.19.24-.22.27-.19.29-.17.29-.18.27-.19.28-.18.28-.18.3-.15.32-.13.29-.16.27-.21.24-.22.18-.26.27-.19.29-.17.28-.19.29-.17.33-.1.34,0,.35,0,.34.06.29.16.34.07.35,0,.34-.06.32-.12.31-.13.31-.11.2-.26.22-.24.25-.21.25-.22.28-.18.33-.09.29-.15.22-.25.29-.15.32-.09h0l.34-.06.29-.15.27-.21.27-.19.23-.23.21-.25.25-.21.29-.17.31-.14.33-.11.32-.1.34-.08.34,0h.36l.38-.11.22-.15.3-.17.3-.14.34-.08.32-.11.34-.09.33-.07.32-.12.32-.13.33-.07.32-.12.31-.14.31-.15.32-.11.34-.07.34,0,.35,0,.35,0,.34,0,.29.16.23.25.18.25.33.1h.35l.35,0,.69,0,.34,0h.35l.35,0,.32-.1.3-.16.3-.16.26-.2.23-.23.13-.29.22-.24.24-.22.25-.22.26-.2h.69l.35,0,.34,0h.09l.26,0h.21l.13,0,.32.11.33.07.16.28.28.18.32.15.3-.08.33-.08h.35l.34,0,.33.11.32.12.27.19.24.23.27.19.33.1.34,0,.34,0,.35,0,.34.07.34.07.33.09.33.1.33.07.34.07.34.08.32.1.34.08.33.07.34.07.34.07.34.06H539l.34,0,.34,0,.33-.1.33-.1.33-.08.28-.18.27-.2.28-.18.3-.14.35,0h1l.34,0,.35,0h0l.33,0h.7l.34-.06.09,0,.24,0,.07,0,.24-.11.21-.25v-.09l0-.22.05-.3,0-.31v-.31l0-.3-.1-.3-.1-.29-.15-.28-.26-.2-.26-.19-.27-.2-.21-.24-.2-.26-.26-.2-.26-.19-.22-.23-.3-.16-.23-.24-.18-.26-.18-.26-.17-.18-.06,0-.17-.27-.15-.28-.11-.3-.06-.3v-.31l.05-.3-.1-.3-.3-.15-.31-.13-.41-.07-.23-.11-.3-.16-.29-.17,0-.16,0-.14v-.31l.09-.3.08-.3,0-.3,0-.31-.07-.3-.29-.17-.2-.22,0,0-.18-.26,0-.31V1929l0-.2,0-.31,0-.3v-.31l0-.31-.12-.28-.22-.24-.19-.26-.12-.29-.15-.28-.13-.28-.07-.31v-.31l.06-.3,0-.31v-.31l-.09-.29-.14-.29-.25-.21-.25-.21-.24-.23-.21-.24-.09-.3-.1-.3-.14-.28-.13-.29-.13-.28-.15-.28-.15-.28-.07-.3-.09-.31-.08-.3-.11-.29-.19-.26-.14-.28-.12-.29h0l-.11-.28-.06-.31-.08-.3,0-.31,0-.3,0-.31-.08-.3-.07-.31,0-.31-.07-.3-.07-.3v-.31l-.1-.3-.2-.24-.26-.21-.23-.23-.22-.24-.29-.15-.28-.17-.25-.22-.25-.21-.27-.19-.31-.15-.31-.13-.32-.12-.33-.1-.29-.16-.24-.22-.26-.21-.26-.2-.28-.18-.29-.18-.29-.16-.27-.19-.16-.15-.08-.07-.24-.22-.31-.14-.32-.12-.3-.15-.28-.18-.32-.13-.33-.09-.33-.09-.32-.11-.3-.16-.31-.12-.33-.11-.32-.11-.32-.12-.31-.14-.22-.23-.25-.22-.29-.16-.28-.19-.13-.21,0-.06.23-105.23,0-19.2v-.24l-.3-.11-.27-.11-.28-.12-.27-.12-.27-.12-.27-.12-.27-.11-.27-.12-.27-.12-.27-.12-.27-.13-.27-.13-.27-.12-.29-.14-.25-.11-.28-.11-.27-.1-.28-.09-.29-.08-.29-.06-.29-.05-.3,0-.3,0-.3,0-.31,0-.3,0-.3,0-.3,0-.29-.06-.29-.06-.29-.08-.29-.09-.29-.09-.28-.09-.29-.08-.29-.07-.29,0-.3,0-.3,0-.3,0-.31,0h-.6l-.3,0-.29,0-.27.13-.26.17-.27.13-.28,0-.29,0-.3,0-.3,0-.29,0-.3,0-.3-.06-.3-.06-.3,0-.3-.06-.29,0-.31,0-.31,0-.29-.07-.28-.09-.25-.13-.21-.18-.2-.21-.19-.22-.18-.23-.19-.22-.19-.21-.2-.21-.2-.22-.18-.23-.14-.22-.1-.25,0-.27v-.28l0-.28-.05-.27-.07-.27-.07-.27-.09-.26-.11-.26-.14-.23-.16-.24-.18-.24-.2-.22-.22-.19-.24-.15-.28-.08-.34,0-.36,0-.47-.1,0-.24.09-.3.1-.33-.07-.46h-.07l-.22,0h-.37l-.56-.13-.08-.21v-.27l0-.3.05-.31v-.28l0-.3,0-.31v-.3l-.05-.24-.15-.18-.23-.09-.31,0h-.67l-.31,0-.29,0-.3,0-.3,0-.3,0-.3,0-.3,0-.3,0-.3,0-.3,0-.3,0h-.29l-.29,0-.29.08-.29.09-.29.08-.3,0-.3,0-.31,0h-.6l-.29,0-.28-.07-.28-.1-.27-.12-.27-.13-.26-.14-.26-.15-.26-.15-.25-.15-.25-.16-.24-.2-.23-.2-.23-.18-.24-.12-.26,0-.27.09-.28.16-.28.16-.27.12-.27.11-.27.12-.27.12-.28.11-.55.08-.3,0-.3,0-.3,0-.3,0-.3,0h-.3l-.29,0-.27-.11-.27-.15-.28-.1-.28-.08-.29-.07-.3-.07-.29-.06-.29-.07-.31,0-.33,0-.33,0-.28-.07-.21-.12-.09-.22V1767l0-.31,0-.3,0-.32,0-.25,0-.29,0-.28V1765l-.05-.26-.11-.23-.17-.2-.22-.18-.25-.18-.26-.16-.26-.18-.21-.19-.17-.22-.1-.26,0-.3,0-.3,0-.29-.09-.24-.16-.17-.25-.07h-.32l-.34,0h-.32l-.26-.11-.2-.21-.19-.23-.21-.2-.26-.11-.61-.14-.28-.08-.24-.14-.1-.26-.1-.27-.22-.18-.27-.13-.28-.11-.29-.09-.31-.09-.31-.09-.29,0H471l-.23.11-.19.21-.18.26-.19.22-.23.18-.24.17-.25.15-.25.15-.23.12h0l-.27.13-.28.1-.28.09-.29.09-.28.1-.27.11-.27.13-.26.13-.26.14-.27.13-.27.12-.27.1-.29.09-.28.08-.3.07-.29.06-.29.05-.3,0-.3,0-.31,0-.32,0-.32,0h-.3l-.28,0-.25-.08-.19-.17-.15-.25-.14-.28-.14-.26-.18-.22-.25-.13-.25,0h-.05l-.31,0L460,1761l-.23-.17-.19-.21-.23-.25-.19-.16-.25-.14-.27-.11-.29-.09-.3-.07-.3,0-.29,0h-.3l-.29,0-.3,0-.3,0-.3,0-.3,0-.3,0-.3,0-.3,0-.3,0-.3,0-.3,0-.3,0-.3,0h-1.19l-.3,0-.29,0-.3,0-.29-.06-.29-.08-.29-.08-.29-.08-.29-.09-.28-.08-.29-.09-.29-.08-.29-.09-.29-.1-.28-.1-.27-.12-.25-.13-.24-.16-.19-.2-.17-.22-.16-.24-.15-.25-.16-.24-.17-.22-.19-.22-.19-.23-.18-.22-.16-.23-.13-.24-.11-.25-.07-.26,0-.27,0-.27v-3l0-.27.05-.27.06-.27.05-.27,0-.27,0-.27,0-.28-.05-.27,0-.27,0-.27.08-.27.09-.26.06-.27.06-.27.05-.27,0-.27v-.55l0-.28,0-.28-.06-.27-.11-.25-.14-.23-.16-.23-.17-.22-.18-.22-.2-.22-.19-.21-.19-.22-.18-.22-.17-.23-.15-.25-.16-.25-.16-.24-.16-.24L443,1743l-.21-.18-.23-.13-.28-.07-.3,0h-.64l-.31,0-.27-.08-.23-.15-.18-.22-.17-.26-.17-.25-.18-.21-.24-.14-.27-.09-.28-.06-.31,0-.31,0-.3,0-.31,0-.29-.06-.28-.09-.26-.13-.24-.16-.23-.19-.23-.18-.22-.19-.2-.21-.19-.21-.19-.22-.2-.2-.22-.19-.23-.15-.27-.13-.28-.1-.28-.1-.29-.09-.28-.1-.28-.1-.28-.09-.29-.08-.28-.07-.3-.05-.29,0-.3,0-.3,0-.29,0-.3,0-.14,0-.16,0-.3,0-.31,0-.3,0-.3,0-.29,0-.29-.07-.27-.09-.25-.14-.23-.17-.23-.19-.23-.19-.23-.17-.25-.15-.27-.13-.27-.11L426,1736l-.28-.12-.27-.11-.27-.13-.25-.14-.24-.16-.24-.17-.23-.18-.25-.15-.25-.14-.28-.11-.28-.1-.3-.1-.29-.07-.3,0h-.28l-.29,0-.29.07-.28.1-.28.12-.29.11-.28.1-.29.06-.29,0-.29,0-.3-.07-.3-.07-.29,0h-.3l-.29,0-.3,0-.3,0-.3,0-.29,0-.3.06-.29.07-.28.08-.55.21-.27.12-.28.12-.27.11-.28.09-.29.07-.29.07-.29.06-.29.06-.3.06-.29.07-.28.08-.28.11-.27.12-.28.12-.27.11-.28.09-.29,0-.29,0h-.6l-.3,0-.3,0-.3,0-.3,0h-3.64l-.31,0-.28,0-.23.11-.08.27,0,.33-.15.19-.26.08-.28.07-.3,0-.32,0-.32,0h-.31l-.31,0-.29,0-.27-.08-.25-.13-.24-.17-.24-.19-.24-.19-.24-.16-.27-.12-.58-.09-.31,0-.3,0-.29-.06-.29-.07-.28-.09-.28-.09-.28-.1-.28-.11-.28-.11-.27-.11-.26-.13-.26-.14-.25-.14-.26-.15-.25-.14-.26-.14-.26-.14-.26-.12-.28-.12-.27-.11-.27-.11-.28-.11-.27-.11-.28-.1-.27-.11-.28-.11-.27-.11-.27-.12-.27-.13-.27-.13-.27-.12-.27-.11-.27-.1-.29-.08-.29,0-.31,0h-.63l-.29,0-.27-.07-.24-.13-.2-.2-.17-.23-.16-.25-.18-.24-.2-.19-.26-.14-.28-.09-.3-.08-.28-.1-.24-.15-.2-.2-.19-.23-.16-.24-.17-.24-.18-.22-.2-.19-.5-.23-.29,0-.31,0h-.31l-.31,0-.3-.05-.29-.08-.28-.08-.28-.1-.28-.11-.27-.12-.26-.14-.24-.16-.23-.17-.22-.18-.2-.2-.2-.21-.2-.21-.19-.21-.2-.21-.21-.2-.21-.2-.23-.19-.22-.2-.22-.2-.19-.2-.18-.22-.14-.22-.09-.25,0-.26,0-.28,0-.28,0-.29v-.28l0-.27,0-.28,0-.28,0-.28-.06-.26-.08-.26-.12-.24-.16-.23-.2-.21-.21-.2-.22-.2-.22-.19-.24-.16-.27-.16-.27-.14-.25-.16-.2-.19-.14-.22-.09-.24-.06-.27,0-.27,0-.28v-.29l0-.28,0-.28-.18-.32-.14-.25-.15-.24-.13-.25-.13-.24-.12-.25-.1-.26-.07-.26-.05-.27,0-.27,0-.28,0-.27,0-.28,0-.27,0-.28,0-.27,0-.27,0-.27,0-.28v-1.37l0-.27,0-.27,0-.27,0-.27.09-.27.1-.26.09-.27.08-.26,0-.27V1709l-.05-.27-.08-.27-.08-.27-.07-.27,0-.27v-.27l0-.28,0-.27.05-.28.07-.27.08-.27.09-.26.12-.25.14-.23.21-.2.26-.18.27-.17.23-.18.15-.2.06-.24,0-.29-.1-.29-.15-.27-.19-.2-.22-.15-.26-.12-.28-.1-.29-.09-.3-.08-.3-.09-.29-.09-.28-.09-.28-.09-.29-.08-.29-.08-.28-.09-.27-.1-.27-.12-.25-.15-.24-.16-.23-.17-.23-.19-.23-.17-.24-.17-.25-.15-.25-.13-.28-.09-.29-.07-.3-.06-.3,0-.3,0-.34-.07-.24-.07-.26-.11-.25-.14-.25-.16-.24-.16-.24-.18-.23-.18-.22-.2-.22-.2-.19-.21-.19-.21-.16-.22-.13-.23-.06-.28,0-.3v-.31l0-.29-.06-.26-.12-.21-.19-.15-.26-.09-.29-.06-.32,0-.33,0-.32,0-.3-.07-.26-.11-.24-.16-.49-.35-.23-.2-.2-.22-.18-.22-.15-.23-.11-.23-.06-.25v-.55l0-.29.05-.28,0-.28,0-.28.06-.28.07-.28.08-.28.06-.28,0-.26,0-.26-.09-.23-.17-.21-.22-.2-.24-.18-.25-.19-.22-.19-.22-.18-.24-.18-.23-.18-.23-.18-.22-.19-.19-.21-.16-.22-.11-.24-.08-.26-.06-.27,0-.28,0-.28-.05-.27-.08-.27-.12-.24-.13-.25-.15-.24-.16-.23-.16-.23-.18-.23-.18-.22-.19-.21-.19-.21-.2-.2-.2-.2-.22-.19-.22-.19-.23-.18-.24-.16-.25-.16-.25-.14-.26-.12-.27-.1-.34-.09-.24-.06-.29-.07-.29-.07-.29-.08-.27-.1-.28-.11-.27-.12-.27-.13-.25-.13-.26-.15-.23-.17-.22-.18-.2-.2-.2-.21-.18-.21-.19-.22-.19-.22-.2-.21-.2-.2-.21-.19-.23-.17-.05,0-.19-.11-.27-.12-.29-.1-.29-.09-.29-.1-.29-.09-.27-.12-.25-.13-.22-.16-.19-.19-.18-.22-.15-.23-.14-.24-.13-.25-.13-.26-.12-.26-.13-.26-.13-.25-.13-.24-.12-.25-.12-.26-.12-.25-.11-.26-.12-.25-.12-.25-.13-.25-.15-.24-.15-.22-.17-.22-.2-.2-.21-.2-.22-.18-.23-.18-.24-.17-.23-.17-.24-.17-.22-.18-.26-.19-.22-.14-.24-.16-.24-.17-.24-.16-.22-.18-.21-.19-.19-.21-.19-.21-.18-.23-.17-.23-.15-.24-.13-.24-.11-.25-.08-.26-.07-.27-.06-.27-.06-.28-.07-.26-.09-.26-.12-.25-.16-.23-.18-.22-.18-.22L337,1666l-.17-.23-.15-.23-.14-.24-.14-.24-.14-.24-.15-.24-.15-.24-.15-.23-.15-.24-.16-.23-.16-.24-.16-.22L335,1663l-.18-.21-.21-.2-.22-.18-.24-.18-.22-.19-.22-.18-.2-.2-.18-.21-.15-.23-.14-.25-.11-.25-.11-.26-.09-.27-.08-.26-.06-.27-.05-.27,0-.28,0-.27,0-.28-.07-.26-.11-.25-.17-.27-.14-.19-.18-.23-.18-.22-.14-.24-.11-.25-.1-.28-.07-.28,0-.27,0-.26.12-.24.18-.22.21-.22.2-.22.17-.23.1-.23,0-.27,0-.28-.09-.27-.12-.26-.13-.25-.15-.23-.16-.23-.17-.23-.17-.23-.15-.23-.14-.25-.13-.25-.13-.25-.11-.25-.1-.26-.06-.27,0-.27v-.27l0-.27,0-.28,0-.28,0-.27v-.27l0-.27-.08-.26-.12-.26-.13-.25-.12-.25-.07-.27,0-.27,0-.28,0-.29,0-.28,0-.28V1645l0-.26-.09-.24-.14-.24-.18-.22-.2-.22-.23-.2-.25-.17-.25-.15-.25-.12-.27-.11-.27-.1-.29-.09-.29-.07-.29-.07-.3,0-.3,0-.29,0-.29,0-.3,0h-.93l-.3,0-.29,0-.28.07-.26.09-.22.14-.2.2-.18.23-.18.24-.19.23-.21.19-.23.19-.25.17-.26.15-.27.09-.27,0-.35-.05-.23,0-.29-.08-.3-.08-.29-.07-.3,0-.3,0-.3,0-.3,0-.29-.06-.27-.1-.25-.13-.24-.14-.24-.16-.23-.18-.23-.18-.23-.18-.21-.2-.21-.2-.2-.21-.19-.21-.18-.22-.16-.22-.14-.23-.13-.25-.11-.25-.1-.26-.1-.27-.09-.26-.1-.26-.1-.26-.11-.26-.12-.25L314,1639l-.12-.25-.11-.26-.1-.25-.1-.26-.08-.27-.06-.26-.07-.27,0-.27-.05-.27,0-.27,0-.28,0-.27,0-.27,0-.27,0-.28,0-.27,0-.28,0-.28,0-.27,0-.27v-.27l0-.27-.07-.26-.08-.26-.09-.26-.12-.29-.1-.23-.11-.26-.11-.25-.09-.26-.09-.27-.08-.26-.08-.27-.08-.27-.08-.27-.07-.27-.06-.27,0-.27v-.53l.07-.26.11-.25.12-.26.13-.26.1-.26.06-.26,0-.27,0-.28v-1.92l0-.27v-.28l0-.27,0-.27,0-.28,0-.27,0-.27,0-.28,0-.27,0-.27-.05-.27-.05-.27,0-.27-.06-.27-.06-.26-.07-.27-.07-.27-.07-.26-.07-.28-.07-.28-.08-.28-.09-.27-.11-.24-.15-.22-.2-.17-.25-.13-.28-.1-.13,0-.16-.06-.05.27-.05.27,0,.27,0,.27,0,.27,0,.28,0,.24,0,.3,0,.27,0,.28,0,.27,0,.27V1622l0,.27,0,.28,0,.31-.06.3-.11.25-.16.15-.24,0-.3,0-.32-.07-.32-.07-.3-.06-.29-.09-.28-.1-.28-.06h-.29l-.33.11-.19.17,0,.22.19.27.19.24.26.26-.2.23-.29.06-.33,0-.34,0H305l-.45,0-.3,0-.29-.06-.28-.07-.26-.1-.25-.14-.22-.18-.21-.21-.21-.2-.21-.2-.2-.2-.2-.2-.35-.39-.26-.32-.21-.19-.23-.18-.22-.17-.23-.18-.23-.17-.24-.16-.25-.16-.24-.15-.26-.13-.26-.14-.29-.14-.29-.12-.28-.1-.29,0-.25,0-.26.1-.25.15-.24.19-.22.22-.18.24-.14.23-.1.25-.08.26-.06.27-.05.27,0,.28,0,.28-.05.27-.07.27-.08.27-.09.26-.1.26-.1.26-.12.26-.12.25-.13.24-.14.24-.17.22-.2.19-.22.18-.24.17-.25.17-.23.17-.23.17-.24.17-.23.17-.22.18-.2.2-.18.21-.16.23-.15.24-.14.24-.1.2-.16.3-.13.24-.13.25-.11.25-.12.25-.11.26-.11.25-.11.26-.1.26-.09.26-.1.26-.09.26-.11.26-.12.24-.14.24-.16.25-.18.26-.19.24-.2.19-.23.15-.24.07h-.27l-.28-.06-.3-.1-.3-.1-.3-.11-.29-.07-.3-.08-.3-.1-.29-.08-.29,0h-.28l-.26.07-.25.12-.23.17-.23.19-.23.21-.21.2-.22.19-.22.19-.22.19-.21.21-.19.21-.16.22-.14.23-.12.27-.1.31,0,.29v.27l.09.21.2.15.27.1.32.08.32.09.3.1.24.15.17.2.14.24.11.25.1.27.07.28.06.28.05.28,0,.27,0,.27-.05.28-.08.27-.11.26-.13.23-.16.23-.18.23-.18.22-.16.23-.13.25-.11.25-.1.26-.08.26-.09.26-.09.26-.1.26-.11.26-.1.26-.1.26-.08.26-.06.27,0,.27,0,.27v3.29l0,.28,0,.28,0,.28v.28l0,.26-.06.26-.11.24-.15.24-.17.23-.19.22-.19.22-.19.21-.2.21-.21.19-.21.19-.22.19-.2.2-.2.22-.19.23-.2.22-.21.17-.25.1-.28,0h-.3l-.31-.05-.3-.07-.29-.08-.26-.12-.25-.15-.25-.16-.26-.14-.28-.07-.31,0-.31,0-.29,0-.25-.11-.22-.17-.21-.19-.2-.2-.19-.22-.19-.23-.18-.22-.17-.22-.16-.24-.14-.24-.15-.24-.17-.22-.21-.2-.25-.22-.26-.16-.26-.05-.24.07-.25.12-.24.16-.24.19-.24.2-.23.2-.22.19-.19.21-.19.22-.18.22-.18.22-.2.2-.22.18-.24.15-.27.13-.28.12-.29.1-.29.08-.29,0h-.28l-.28,0-.29-.07-.29-.1-.28-.11-.28-.13-.2-.1-.3-.18-.23-.17-.22-.19-.22-.19-.21-.19-.23-.18-.23-.17-.26-.19-.28-.2-.28-.18-.26-.13-.23,0-.36.24-.15.25-.13.29-.1.31-.09.29-.07.26-.06.27,0,.28,0,.28v.28l0,.27,0,.26.1.26.12.25.14.25.12.25.11.26.11.25.12.26.1.25.07.27.07.27,0,.27,0,.28v.27l0,.27,0,.3-.07.31-.09.28-.14.22-.21.11-.27,0-.31,0-.34-.08-.33-.07-.3,0-.26,0-.2.15-.17.19-.14.24-.13.26-.12.28-.12.28-.13.26-.14.25-.15.24-.14.25-.14.24-.16.23-.19.21-.21.19-.24.18-.25.17-.27.13-.28.09-.27,0h-.29l-.29-.06-.29-.07-.3-.1-.29-.09-.28-.09-.27-.11-.27-.12-.26-.13L255,1661l-.27-.11-.27-.1-.29-.08-.28-.08-.29-.06-.29-.06-.29,0-.3,0-.3,0h-.3l-.29,0-.29,0-.3.06-.29.07-.28.09-.27.11-.26.13-.23.16-.23.19-.21.2-.19.21-.17.22-.18.23-.16.23-.15.24-.14.24-.13.25-.11.25-.09.26-.05.27,0,.27,0,.28,0,.27v.27l0,.28,0,.27,0,.27v1.1l0,.27-.05.27-.08.27-.12.26-.11.26-.08.26,0,.27,0,.26.06.26.08.27.09.27.09.26.08.27.06.27,0,.27,0,.27v.28l0,.27,0,.27,0,.28,0,.27.05.27.06.27.06.27.07.26.08.27.1.25.1.26.12.25.13.25.13.24.13.25.13.25.15.24.16.25.13.24.09.25,0,.27,0,.27-.07.28-.08.28-.05.27v.26l.09.25.13.24.17.24.19.23.18.22.19.21.22.2.23.2.21.2.16.22.09.24,0,.26v.28l0,.29-.06.28-.08.27-.09.25-.12.26-.14.25-.16.23-.18.23-.19.21-.21.18-.25.16-.27.14-.28.1-.28.07-.29,0-.3,0h-1.2l-.29,0-.29,0-.29.07-.29.08-.28.07-.29.06-.32.06-.35.07h-.3l-.18-.12-.1-.22-.06-.25,0-.28,0-.29,0-.3,0-.3,0-.28-.06-.27,0-.28-.07-.27-.11-.25-.15-.23-.21-.23-.23-.22-.25-.18-.26-.11-.26,0-.28,0-.29.08-.31.1-.29.14-.27.15-.24.18-.19.19-.14.21-.11.25-.07.27,0,.29,0,.29v.84l0,.27.06.27.07.27.07.27.07.27.05.27,0,.27,0,.27v1.1l0,.27,0,.27-.07.26-.1.26-.1.26-.1.26-.11.29,0,.27,0,.27,0,.27,0,.28,0,.27,0,.27,0,.28,0,.27v1.38l0,.27,0,.27-.07.26-.07.27-.09.26-.09.26-.11.26-.12.25-.11.26-.13.24-.13.25-.13.24-.14.24-.15.24-.15.24-.16.23-.16.23-.16.23-.17.23-.16.23-.16.23-.17.23-.18.22-.17.22-.18.22-.18.23-.17.22-.16.23-.14.24-.15.24-.14.26-.13.26-.11.26-.07.26,0,.26,0,.26.06.27.08.27.1.27.13.26.15.25.16.23.18.22.21.18.24.17.23.14.3.15.27.14.26.15.24.16.22.18.17.2.12.23.07.27,0,.28,0,.29,0,.28,0,.28,0,.27,0,.27,0,.27,0,.28,0,.27,0,.27,0,.28,0,.27,0,.27,0,.27,0,.28,0,.27,0,.27.07.27.09.26.12.26.18.29.21.23.22.09.22-.07.22-.14.23-.19.23-.22.23-.21.25-.2.25-.15.27-.12.3-.11.3-.1.3-.06.29,0h.28l.27.09.26.18.21.24.11.24v.25l-.07.28-.12.28-.16.25-.18.2-.23.17-.26.15-.26.16-.24.17-.2.19-.17.22-.16.24-.15.23-.16.24-.17.23-.16.25-.15.26-.16.26-.18.22-.2.17-.24.1-.27.05h-.29l-.3,0-.31,0-.32,0-.31,0-.31,0-.29,0-.3,0-.3,0-.29,0-.3,0-.29,0-.3,0-.29,0-.3-.05-.3,0-.3,0h-.59l-.31,0-.3,0-.3.07-.27.09-.25.14-.24.16-.23.19-.22.2-.2.22-.17.23-.15.23-.11.24v.28l.07.29.12.25.13.24.16.24.16.24.19.22.19.21.21.2.23.17.24.14.27.12.27.11.29.11.28.1.28.11.27.13.27.12.28.12.27.12.26.14.24.16.21.18.18.21.16.23.14.24.14.25.13.25.14.24.16.24.18.22.2.2.2.2.21.2.21.19.2.21.19.21.21.22.21.22.19.22.13.24.06.24v.26l-.07.26-.1.26-.12.27-.12.27-.09.27-.09.26-.1.26-.09.26-.09.26-.08.27-.06.26,0,.27,0,.28v2.74l0,.27-.05.27-.05.27-.07.27-.09.27-.1.25-.12.25-.15.24-.15.22-.16.25-.15.24-.12.25-.12.25-.11.26-.1.26-.09.26-.09.27-.06.26-.05.27,0,.27,0,.28.05.28.08.26.12.25.14.23.17.23.18.22.19.21.19.22.19.22.17.22.17.23.17.22.18.23.17.22.18.22.2.21.21.19.22.19.23.19.22.19.19.21.15.23.14.28.11.3,0,.29,0,.23-.16.16-.23.12-.29.09-.32.08-.33.07-.31.08-.28.1-.28.1-.28.11-.27.11-.28.11-.27.11-.27.12-.3.11-.3.12-.29.12-.25.15-.18.18-.09.22,0,.26,0,.29.05.29,0,.29v.29l-.06.26-.11.24-.16.23-.18.23-.19.21-.18.18-.22.25-.19.21-.19.22-.2.21-.2.21-.21.18-.24.17-.25.15-.26.12-.28.11-.28.11-.27.11-.27.13-.27.14-.29.14-.27.14-.23.17-.16.2-.08.24,0,.26v.28l0,.29,0,.29v1.93l0,.27-.07.28-.08.27-.1.28-.08.27,0,.26,0,.25.09.25.14.24.18.24.21.22.21.2.22.19.27.13.3.09.3.1.26.12.17.2.14.24.1.28.07.29,0,.28,0,.27-.08.25-.11.24-.14.24-.16.23-.17.24-.18.23-.18.23-.16.24-.15.24-.15.24-.15.24-.14.24-.14.24-.14.24-.12.25-.13.25-.12.25-.12.26-.1.25-.09.26-.09.27-.1.28-.09.28-.07.28,0,.27v.26l.07.23.17.21.25.18.28.16.29.13.27.1.29.07.29.07.29.06.3,0,.31,0,.3,0,.3,0,.29,0h.3l.3,0,.3,0,.3,0,.3,0h.3l.31,0,.31,0,.29.09.25.13.21.18.19.2.17.23.17.23.17.24.18.23.19.21.22.19.22.18.23.18.24.17.23.17.24.17.22.19.21.19.22.2.21.2.2.22.2.21.16.23.13.24.08.25,0,.26v.28l0,.28,0,.28,0,.28v.55l0,.27v.55l0,.27,0,.28.07.28.07.27,0,.27v.27l-.05.25-.09.25-.14.25-.16.23-.17.24-.18.23-.18.22-.19.22-.21.21-.23.21-.23.2-.2.2-.16.22-.08.24,0,.25,0,.26.06.27.08.28.09.28.08.28.06.27,0,.28,0,.27,0,.28,0,.28,0,.27,0,.28v.55l0,.26,0,.27-.07.26-.09.26-.12.26-.15.26-.16.24-.17.22-.19.21-.21.19-.22.18-.24.16-.26.16-.27.14-.26.14-.27.13-.27.12-.27.11-.28.1-.28.09-.29.08-.29.09-.29.08-.38.12-.23.18-.26.17-.25.16-.26.17-.24.18-.21.19-.17.2-.13.23-.09.25-.06.26,0,.27,0,.28v1.41l0,.28.08.27.1.28.09.27.06.27,0,.26-.05.25-.11.23-.15.23-.19.22-.2.21-.21.22-.21.21-.2.22-.17.23-.16.23-.17.24-.17.24-.15.24-.14.25-.12.25-.08.25,0,.26v.27l0,.27,0,.28.07.27.07.28.09.27.09.26.09.26.11.25.12.25.12.25.13.25.13.25.13.25.12.25.12.25.11.26.08.29.08.28.1.27.14.23.19.17.24.12.28.08.31,0,.31,0,.32,0,.31.06.3.06.32,0,.32,0,.3.06.28.09.23.12.17.2.11.28,0,.31,0,.28-.14.22-.25.19-.27.19-.22.19-.07.22.05.25.12.25.15.25.17.26.15.21.17.28.15.23.17.23.17.23.18.22.18.22.19.21.2.2.21.2.21.2.21.2.21.19.2.2.24.21.28.19.26.2.18.21v.45l-.1.24-.12.24-.16.25-.17.25-.19.24-.21.24-.21.21-.21.2-.22.18-.25.13-.28.11-.29.08-.31.07-.31.06-.29.08-.29.06-.3.05-.3,0-.29,0-.29.08-.29.09-.29.09-.28.1-.28.11-.27.11-.28.13-.36.18-.2.16.35.18.31.06.34.06.35.05.33,0,.29,0,.3,0,.31,0,.3,0,.3,0,.3,0,.29.05.3,0,.3.06.3,0,.3.07.29.07.28.09.28.1.27.12.27.13.27.14.27.14.27.15.26.16.25.17.23.17.21.19.19.2.16.21.12.24.09.26.06.28,0,.28v.85l0,.27,0,.27,0,.24-.07.3-.06.27-.07.27-.06.27,0,.27,0,.27,0,.28,0,.28,0,.28,0,.28v.55l0,.27.08.25.1.25.14.25.15.24.17.23.18.23.2.22.2.2.21.2.22.18.24.18.26.15.27.14.28.12.27.1.29,0h.31l.32,0h.3l.29,0,.3.12.3.16.24.19.15.2-.21.44-.24.25-.16.25v.24l.07.16,0,.08.16.24.19.24.19.23.16.24.16.24.15.23.15.24.11.26.09.26.08.26.09.3-.06.28-.21.17-.23.08-.06.3-.05.31-.05.31,0,.3,0,.31,0,.31,0,.32,0,.31,0,.32v.31l0,.3.05.3.09.29.11.3.13.29.15.29.16.28.19.27.2.25.21.24.24.21.26.19.28.17.3.16.3.16.31.15.3.16.29.17.27.18.28.2.27.21.27.22.23.24.18.25.12.27.07.29,0,.31v.32l0,.33,0,.32-.08.31-.1.28-.16.26-.2.24-.24.23-.26.23-.23.23-.23.25-.17.26-.19.29-.19.29-.16.3-.12.3,0,.29,0,.28.1.27.14.26.17.25.21.26.22.25.22.25.23.25.23.26.2.26.18.27.15.27.15.29.15.29.13.29.12.29.11.3.09.3.07.26.05.34,0,.3v.31l0,.3-.06.31-.09.31-.09.3-.12.3-.11.3-.13.28-.16.28-.19.26-.21.25-.21.26-.19.26-.15.27-.1.29-.07.3-.06.3,0,.31,0,.32v.32l0,.31,0,.31,0,.31.06.27.09.32.1.29.12.3.12.28.13.3.13.28.13.29.13.29.12.3.12.29.14.28.13.29.13.29.13.29.11.29.09.3.06.3.05.3,0,.31,0,.31,0,.3v1.56l0,.31,0,.31,0,.3,0,.31,0,.31,0,.31,0,.31,0,.31,0,.31,0,.3v1.86l0,.31v.31l0,.31,0,.31,0,.31v.31l0,.31,0,.31v1.55l0,.3v.31l0,.31.05.3.08.3.09.3.11.3.12.29.13.29.13.29.13.29.16.27.17.27.19.26.19.26.18.26.17.28.16.28.16.29.16.28.17.27.19.26.21.23.24.2.29.14.34.1.35.07.36.07.35.08.31.12.25.18.2.22.17.27.14.28.13.3.13.3.13.3.15.28.18.27.17.28.17.28.18.27.2.26.22.23.25.21.27.17.29.15.31.13.31.13.32.12.33.11.33.11.33.11.32.12.32.13.31.13.29.16.29.16.29.18.28.17.28.19.27.19.27.19.27.21.26.2.26.21.24.22.24.22.24.22.23.23.23.24.22.24.21.25.21.25.2.26.19.27.17.27.16.27.14.27.13.28.09.3.08.31,0,.31v.64l0,.31-.06.3-.09.29-.11.29-.12.29-.13.29-.14.28-.16.28-.16.28-.16.28-.17.28-.17.27-.17.27-.17.27-.18.26-.19.26-.2.25-.2.25-.2.25-.21.25-.21.25-.22.24-.21.25-.22.23-.23.24-.23.23-.23.23-.23.22-.23.24-.22.23-.21.24-.22.25-.23.25-.22.25-.22.26-.2.25-.17.27-.13.27-.09.28,0,.3v.31l.05.32.07.32.1.31.12.29.16.27.25.25.29.22.27.23.19.23.05.26-.05.27-.12.29-.18.28-.2.29-.21.28-.2.26-.21.24-.22.24-.24.23-.24.22-.25.22-.24.22-.29.26-.21.17-.26.21-.25.22-.23.22-.23.23-.2.25-.18.26-.16.28-.15.28-.14.29-.12.29-.11.29-.05.34,0,.35,0,.34-.07.3-.15.21-.24.12-.31.06h-.74l-.39,0-.37,0-.35,0-.34-.07-.35-.08L256,1916l-.34-.08-.34,0-.32,0-.31.09-.3.16-.29.18-.29.2-.3.16-.32.13-.34.09-.35.07-.36,0-.33,0-.31-.1-.3-.14-.28-.16-.29-.19-.28-.19-.28-.2-.29-.18-.29-.17-.31-.18-.31-.19-.33-.19-.31-.13-.31-.06-.28.05-.28.14-.26.19-.25.24-.26.25-.27.23-.28.2-.3.14-.32.08-.34.05-.36,0H244l-.35,0-.33.06-.32.1-.29.15-.27.19-.26.22-.25.22-.26.21-.28.19-.29.17-.3.15-.32.13-.3.15-.3.16-.27.18-.26.21-.24.23-.25.23-.25.22-.27.18-.29.15-.32.1-.34.06-.35,0-.36,0-.35,0-.33.08-.31.12-.29.16-.27.18-.26.2-.26.21-.25.22-.25.22-.25.21-.26.21-.27.2-.28.2-.3.23-.3.23-.3.22-.23.14-.36.18-.28.06-.25,0-.23-.15-.21-.25-.2-.29-.21-.31-.21-.3-.24-.25-.26-.18-.32-.11-.36-.08-.38,0H228l-.33.08-.28.12-.26.19-.24.23-.23.27-.19.29-.15.29-.11.29,0,.3v.32l.05.33,0,.22.07.44,0,.31,0,.29-.12.25-.18.23-.23.21-.27.19-.3.18-.31.17-.31.17-.32.17-.3.18-.27.19-.26.22-.25.22-.25.24-.25.23-.25.22-.26.2-.27.17-.29.13h-.32L221,1929l-.37-.1-.35,0-.61.2-.29.16-.28.18-.28.2-.28.21-.27.2-.27.2-.26.21-.25.21-.24.22-.25.22-.25.21-.26.21-.27.19-.28.18-.28.17-.29.18-.3.16-.29.17-.29.16-.29.17-.3.16-.29.16-.3.17-.53.29-.42,0-.39,0-.39,0h-.37l-.32,0-.26.11-.19.18-.14.26-.09.31-.06.34,0,.34v.35l0,.31.05.3.09.3.13.3.15.29.18.28.19.25.23.22.3.18.33.16.31.16.24.19.13.26v.26l-.07.4-.12.28-.19.27-.23.26-.22.26-.18.26-.1.28,0,.3,0,.29,0,.31.07.31.09.31.09.31.08.31.07.31.06.31,0,.3,0,.3-.1.29-.18.28-.22.28-.21.28-.17.28-.09.27,0,.28.08.21.19.33.2.27.21.26.22.28.19.27.14.28.08.29,0,.3,0,.31-.05.31-.06.32-.06.31-.05.32,0,.31v.3l.05.3.1.3.13.29.16.29.18.29.17.29.18.28.16.29.14.28.11.28.07.28,0,.29-.05.28-.11.27-.14.27-.18.28-.21.27-.21.27-.2.27-.19.28-.16.28-.14.29-.14.31-.14.31-.13.31-.1.31-.07.3,0,.29,0,.26.17.22.28.18.33.18.35.17.29.18.32.17.32.18.25.2.11.27,0,.29v.62l0,.32,0,.33,0,.32,0,.32v.62l0,.3.09.28.18.24.28.2.31.19.29.2.24.22.16.27.12.31.05.24,0,.08v.31l-.08.28-.19.27-.25.26-.22.26-.1.26.08.27.21.28.23.27.11.29,0,.29-.09.29-.13.3-.15.3-.15.29-.12.3-.09.29v.3l.09.31.18.29.23.24.31.13.39,0,.37.06.2.17.11.28.05.33v.35l-.07.33-.13.27-.22.21-.29.19-.34.17-.33.16-.31.18-.25.2-.16.23-.09.28,0,.29v.31l0,.31.05.33.05.32,0,.33,0,.32v.94l0,.32v.63l0,.3-.06.3-.09.29-.13.27-.15.28-.17.27-.19.27-.21.26-.22.25-.23.24-.23.24-.23.23-.24.21-.28.19-.31.16-.33.13-.33.1-.33.09-.38,0h-1.14l-.3.06-.21.14-.09.25v.34l.07.36.11.33.13.28.2.28.22.26.16.19.26.34.14.26.06.28-.06.27-.15.28-.19.28-.2.28-.17.29-.08.3,0,.3v.31l0,.31,0,.31,0,.31,0,.32v.63l0,.33,0,.34v.33l0,.3-.1.25-.22.17-.36.08-.42,0-.67.18-.12.23v.14l0,.14,0,.31.06.33.06.34.06.34,0,.32,0,.31-.11.27-.15.27-.2.26-.22.25-.25.25-.27.22-.29.2-.28.18-.3.14-.31.11-.34,0-.36,0-.37,0-.37,0-.35,0-.34.06-.32.1-.26.17-.24.23-.2.27-.2.27-.19.27-.18.26-.17.27-.16.28-.16.27-.18.28-.2.27-.2.28-.15.28-.09.27,0,.29.13.31.2.29.25.22.28.16.31.13.32.1.34.1.35.09.34.09.34.1.33.11.32.13.32.15.31.13.33.12.33.06h.36l.38-.08.38-.08.33,0,.28,0,.14.21,0,.35v.36l0,.31v1.24l0,.31.06.31.1.31.08.31,0,.31-.06.28-.11.29-.13.27-.15.28-.17.27-.18.28-.19.26-.2.27-.2.26-.2.26-.2.26-.21.28-.21.29-.22.31-.23.3-.22.29-.23.27-.24.24-.23.19-.22.15-.23.08-.44-.14-.21-.22-.22-.3-.22-.32-.22-.33-.23-.31-.23-.25-.24-.23-.25-.22-.25-.22-.27-.2-.29-.17-.31-.15-.35-.16-.36-.14-.37-.13-.34-.08H198l-.26.06-.18.19-.13.29-.09.34-.11.35-.14.31-.21.24-.26.21-.31.18-.32.14-.34.1-.33,0-.36,0h-.34l-.39,0-.35-.07-.32-.09-.27-.17-.22-.25-.19-.29-.14-.29-.11-.29-.08-.3-.07-.32-.06-.31-.07-.31-.09-.3-.12-.28-.17-.26-.19-.26-.23-.27-.24-.25-.26-.23-.27-.22-.28-.17-.29-.14-.3-.08h-.32l-.35.06-.33.09-.39.1-.36.08-.35,0-.34,0-.35,0-.34-.08-.34-.08-.34-.08-.35-.06-.34,0-.39,0h-.43l-.41,0-.32.09-.17.17,0,.24,0,.26.08.3.11.32.13.33.12.33.11.33.06.32v.31l-.07.28-.13.27-.2.26-.22.26-.22.26-.21.26-.17.28-.13.29-.12.3-.11.32-.09.33,0,.32v.29l.07.27.16.24.23.21.27.2.31.19.31.2.29.2.26.21.21.24.14.28.08.3.07.32.08.31.11.3.17.25.25.22.3.18.29.2.24.21.16.3.09.36,0,.31-.2.15-.29.08-.35,0-.39,0H185l-.38,0-.36.08-.36.15-.08.22.21.26.27.27.19.28,0,.26-.13.27-.2.26-.22.27-.24.27-.22.26-.18.27-.13.28,0,.28v.3l.06.3.09.31.12.31.14.3.16.29.17.28.19.25.25.22.29.2.3.19.29.19.25.22.18.24.11.27.08.29,0,.31,0,.31v1.28l0,.31v1.64l-.06.33-.07.32.06.27.31.21.38.18.16.18-.15.18-.28.18-.35.17-.34.19-.27.23-.17.25-.14.28-.11.3-.08.32-.06.32,0,.31v.31l0,.31,0,.33.07.33.09.33.12.3.16.27.19.22.22.14.33.13.34.08.37,0,.38,0h.75l.34,0,.35-.09.34-.11.34-.08h.34l.35.1.3.17.21.24.14.28.12.32.12.31.14.28.21.22.27.18.32.13.34.11.35.1.35.1.33.11.57.33.24.23.22.27.18.29.13.3.07.29v.29l-.06.29-.1.3-.14.29-.16.3-.16.29-.16.28-.16.3-.19.29-.22.26-.23.19h-.3l-.38-.22-.32-.11-.17.16-.14.26-.11.31-.08.34-.05.35v.32l0,.3.08.3.1.3.12.3.11.3.08.3,0,.31v1l0,.36-.07.32-.11.26-.16.19-.22.06-.3-.05-.35-.13-.39-.18-.39-.17-.37-.12-.33,0-.27.08-.23.17-.21.24-.18.29-.17.31-.15.33-.15.31-.14.28-.13.29-.12.29-.1.29-.1.29-.05.25.13.19,0,.35-.09.3-.07.3-.09.3-.12.27-.19.24-.24.21-.27.19-.28.18-.27.19-.26.21-.24.22-.21.24,0,.06-.08.21v.31l0,.3,0,.31,0,.3,0,.3.06.29.1.29.13.27.15.27.17.27.16.27.15.27.14.27.13.23.16.31.15.28.15.27.14.27.14.27.11.29v.3l0,.3,0,.3-.06.3-.07.29-.12.28-.14.28-.14.27-.13.28-.1.29,0,.3v.3l0,.3-.1.29-.13.28-.15.27-.17.27-.18.25-.28.23-.29,0-.19-.15-.29-.31-.13-.29-.26-.16-.34-.08-.33-.1-.26-.2-.27-.18-.33-.06-.36,0-.35,0-.29-.11-.23-.21-.18-.27-.19-.27-.24-.21-.3-.12-.34-.06-.35-.07-.32-.1-.32-.1-.32-.11-.32-.12L178,2066l-.32-.11-.32-.12-.31-.11-.32-.12-.32-.11-.34-.08-.34-.09-.31-.12-.25-.17-.18-.25-.13-.29-.14-.29-.2-.24-.32-.07-.29.15-.17.27-.25.21-.3.13-.35.07-.35,0-.31.09-.26.18-.25.22-.21.25-.19.26-.14.27-.1.29-.05.31v.31l0,.3.1.28.29.21.3,0,.32-.16.28-.19.23-.23.31-.12.31.08.05.3,0,.31.05.3.05.29,0,.3.05.3,0,.3.06.29.05.3.09.29,0,.3-.11.29-.27.18-.32.12-.3.13-.2.25v.29l0,.3-.06.3-.09.29,0,.3,0,.31,0,.3-.07.29-.14.26-.25.24-.22.23-.09.27,0,.31.13.3.2.22.28.16.33.13.33.11.32.1.34.08.35.07.18.21-.16.25-.27.21-.22.23-.21.23-.19.25-.14.29-.26.17-.31.1-.35.09-.33.13-.33.15-.22.19,0,.27.15.31.07.3,0,.3.05.3.06.3.06.29.07.29.12.27.31.16.34,0,.35,0,.35-.06.23.14.06.3.08.29.08.29.09.29.09.3.09.29,0,.29-.06.3.2.2.35.13.22.2.09.3,0,.3,0,.3.16.27.3.1.36,0,.33.08.34.06h.68l.34,0,.34.09.28.16.2.25.13.28.11.29.07.29v.3l-.1.29-.14.28-.17.26-.06.29v.31l-.11.28-.08.23-.1.36.11.26.33.07.33-.09.27.09.24.24.32.07h.35l.35,0,.3-.13.09-.28.07-.29.07-.31.08-.29.12-.28.16-.26.2-.25.2-.25.18-.26.16-.27.11-.33.09-.32.12-.25.45.25.29.18.28.11.36,0h.35l.34.06.3.14.2.25.22.23.22.24.23.23.24.23.22.23.22.23.21.24.2.24.18.24.09.27-.08.31,0,.3.13.28.12.28v.31l-.08.29-.07.29-.1.29,0,.3.07.29.09.3.07.22.13.35.15.28.29.12.34,0,.19.26.34.15.2.19v.29l0,.33-.07.32-.11.3-.17.24-.23.17-.31.09-.36.06-.37,0-.36.07-.32.1-.31.13-.3.15-.29.17-.29.2-.14.25,0,.29.08.31,0,.3,0,.31.05.31,0,.31,0,.3v.29l-.06.28-.13.26-.19.25-.23.23-.24.22-.25.23-.22.24-.19.25-.15.28-.16.27-.21.23-.26.19-.29.15-.31.15-.29.17-.27.19-.2.14-.36.24-.29.15-.31.09h-.35l-.35-.07-.31-.12-.24-.22-.25-.22-.24-.22-.2-.24-.09-.28,0-.3v-.64l-.26.07-.31.13-.33.16-.33.16-.33.09-.33,0-.3-.2-.13-.25v-.32l-.06-.3-.15-.28-.2-.24-.24-.23-.27-.17-.33,0-.35.08-.3.14-.34,0-.34.06-.27.18-.25.22-.22.23-.13.28-.12.28-.16.27-.13.28-.1.29,0,.29v.61l-.07.29-.16.26-.23.23-.24.22-.25.21-.24.21-.24.21-.22.24-.15.27-.07.29,0,.3v.6l0,.31-.05.25-.17.31,0,.29,0,.3.06.3.08.3.06.29v.3l-.07.3-.15.27-.12.28,0,.3,0,.3-.12.28-.17.27-.2.23-.22.23-.07.3-.08.29,0,.3.06.3.09.29.12.28.14.28.17.26,0,.3-.13.28-.14.2-.22.31-.18.27-.12.27,0,.3,0,.3-.07.3,0,.29.06.28-.35,0-.33-.11-.32-.12-.32-.11-.34,0-.32-.09-.32-.12-.34-.05h-.35l-.11.28.17.25.21.25.24.22.24.21.26.2.26.21.24.21.22.23.14.19.2.34.1.29v.3l.08.29.22.22.26.22.21.23.24.22.33.13.3-.09.28-.19.28-.2.3-.13.34,0,.35,0,.23.2-.07.3-.13.28-.18.26-.21.24-.12.27,0,.3-.05.3,0,.3-.05.3-.05.29-.07.3-.07.29-.07.3-.05.3,0,.3-.07.29-.14.27-.2.25-.22.23-.23.23-.24.22-.23.22-.22.23-.21.25-.16.26,0,.3-.12.28-.15.27-.11.3-.13.27-.22.22-.31.15-.31.14-.32.12-.31.13-.29.16-.29.16-.28.18-.28.17-.29.17-.28.17-.29.16-.29.17-.29.16-.29.17-.28.17-.28.18-.27.18-.28.19-.28.19-.21.24-.21.24-.19.25-.1.28-.12.28-.17.27-.19.25-.2.25-.21.24-.22.25-.28-.07-.31-.17-.35,0-.33.05-.24.23-.07.29.07.3.22.24.21.25.11.27-.07.29-.11.29-.13.28-.14.29-.18.25-.16.27-.07.25v.34l.08.3.14.27.18.26.2.25.21.24.21.23.22.23.23.23.23.23.23.22.24.21.24.22.26.2.26.2.2.24.13.28.12.29.15.27.15.27.14.27.07.29v1.44l0,.37,0,.31,0,.29.06.3.08.29.11.28.13.29.15.27.17.26.2.25.21.24.2.24.18.26.13.28,0,.3,0,.3-.06.29-.1.29-.15.28-.1.28,0,.32.19.22.28.18.31.17.3.15.3.15.53.39.14.26.09.3.17.25.26.21.24.22.26.2.29.18.32,0,.34-.09.33-.1.32.13.23.21v.3l-.15.28-.17.26-.14.28.06.29.09.29.07.3.07.29.05.3,0,.3.05.3.12.28.14.28,0,.29.07.29.06.28-.12.29-.17.27-.23.23.11.26.23.25.25.21.24.22.14.27.06.3,0,.3,0,.3-.07.3-.11.28-.18.27-.26.17-.35,0-.32-.14-.33-.11-.33,0-.28.17-.26.21-.26.2-.29.16-.33.09-.35,0-.33,0-.26-.21-.34-.09-.33,0-.26.22-.15.27,0,.3.1.29.16.27.18.25.21.25.22.22.28.19.31.15.33.11.31.13.14.25.06.31.24.19.32.15.28.18.21.25.09.27-.09.3v.3l0,.31v.3l.25.17.28.19.19.25.14.28.07.29.1.29.12.28.12.29.79-.13.25-.16.25-.17.25-.16.26-.1H170l.28.12.29.13.29.07.3.06.3,0,.3,0h.3l.28-.07.27-.12.27-.12.29-.06.31,0h1.2l.3,0,.29.07.29.09.29.09.29.05.29,0,.29-.06.29-.07.3-.08.27-.07.31-.07.3,0h.29l.3,0,.29.05.3.06.29.07.3.06.3,0,.29,0h1.21l.3,0,.3,0,.3,0,.29,0,.3,0,.3,0,.3,0,.3,0,.29.05.3,0,.29.05.3,0,.3,0,.29,0,.3,0,.31,0,.29,0,.3,0,.29.05.3.07.28.07.29.07.29.07.3.06.29.05.3.05.3,0,.29,0,.3,0,.3,0,.3,0h1.84l.27,0,.3,0,.3,0h.3l.29,0,.28-.07.29-.09.28-.11.28-.1.28-.1.28-.09.28-.1.28-.09.28-.1.28-.09.29-.09.28-.08.29-.07.29-.07.29-.06.3-.07.3-.06.3-.05h.29l.29,0,.29.07.28.09.28.11.28.11.28.1.28.11.27.11.27.11.27.12.27.12.26.12.27.11.28.1.29.09.29.07.29.08.29.05.3,0,.3,0h.9l.3,0h.66l.1,0,.14,0,.29.08.27.12.25.14.23.17.22.18.21.18.22.19.22.17.23.17.25.15.24.15.26.14.25.14.26.13.27.12.28.1.27.11.27.12.26.13.13.07.12.07.26.14.25.14.25.14.25.15.25.14.26.14.26.13.27.11.28.1.27.11.27.11.27.12.27.12.26.13.25.14.24.17.23.17.24.15.26.13.28.09.29.08.29.06.3.05.3.06.29.05.3,0,.29,0,.3.05.29.05.3,0,.3.05.29.06.3,0,.3,0h1.5l.3,0,.3,0h.9l.3,0h1.21l.3,0,.3,0,.3,0,.3,0,.3,0h.3l.3,0h1.22l.28-.07.25-.13.25-.13.15-.09.1-.06.1-.06.15-.09.24-.16.24-.16.24-.17.24-.16.23-.16.24-.17.23-.16.23-.17.23-.17.22-.18.23-.17.23-.17.22-.17.22-.18.23-.18.22-.17.23-.16.25-.15.25-.14.26-.14.26-.13.27-.12.26-.12.27-.12.27-.11.29-.09.29,0,.3,0,.3,0,.3,0,.3,0,.28-.08.27-.11.27-.15.24-.16.19-.2.15-.22.1-.26.06-.26v-.25l-.08-.26-.12-.26,0-.49.14-.22.2-.2.21-.21.17-.22.12-.25.1-.25.13-.24.18-.18.26-.13.28-.09.3-.09.27-.11.24-.16.23-.17.22-.18.23-.18.23-.17.17-.2.09-.28-.22-.37-.33,0-.31-.16-.26-.19.22-.28.3-.13.32-.13.27-.13.25-.15.26-.13.27-.11.28-.1.28-.09.29-.09.29-.06h.3l.32.09h.53l.15-.2.11-.26.09-.28.08-.26,0-.27,0-.26.12-.22.19-.16.29-.17.26-.13.31-.11.3-.11.21-.14-.13-.46-.14-.27-.11-.25,0-.5.15-.23.17-.22.13-.24.11-.24.1-.25.08-.25.09-.25.06-.25.06-.26.06-.25,0-.26.08-.25.1-.25.1-.25.1-.25.08-.25.05-.25v-.25l-.08-.25-.1-.26-.1-.25-.07-.26,0-.25-.08-.25-.07-.26-.08-.25-.11-.24-.19-.2-.25-.17-.23-.43,0-.28V2153l-.12-.23-.22-.19-.24-.16-.28-.13-.19-.18-.07-.25,0-.27-.08-.25-.15-.23-.18-.21-.2-.2-.19-.19-.23-.18-.25-.14-.28-.14-.29-.12-.21,0h-.05l-.18.21-.18.17-.23-.11-.25-.2-.24-.17-.24-.17-.25-.14-.28-.12-.25-.13-.18-.22,0-.25.21-.18.26-.16.17-.21.09-.26v-.26l-.07-.25-.12-.25-.15-.23-.17-.21-.21-.19-.21-.18-.22-.18-.2-.2-.2-.2-.22-.17-.27-.16-.3-.39,0-.26.06-.28v-.26l-.07-.25-.08-.25-.12-.24-.15-.23-.11-.24-.09-.25-.06-.26,0-.26.07-.25.1-.25v-.25l-.06-.26,0-.26,0-.26.09-.26.15-.22.2-.19.22-.18.23-.17.22-.18.23-.18.2-.19.12-.23,0-.26.06-.26.14-.23.18-.21.16-.21.08-.26,0-.27.11-.23.21-.2.26-.14.18,0,.1,0,.3.06.3.09.27.12.26.13.28.08h.29l.29-.09.29-.08h.29l.17,0,.13,0,.29.1.29,0,.29,0,.31,0,.29-.07.28-.11.23-.15.19-.21.16-.23.11-.23,0-.27,0-.25.1-.25.1-.25.11-.24.14-.23.19-.2.25-.16.29-.41,0-.27,0-.27,0-.26.18-.21.24-.18.1-.22v-.26l-.06-.29-.06-.28,0-.25.26-.35.32-.06.33-.07.25-.14.23-.16.22-.19.2-.19.19-.21.16-.21.15-.23.14-.23.12-.24.11-.24.07-.27.1-.25.17-.18.3-.09.3,0,.46.15.27-.12.27-.12.25-.14.24-.16.24-.16.25-.14.26-.13.27-.12.27-.08h.91l.3,0,.26-.1.24-.16.22-.18.24-.17.25-.13.27-.12.27-.12.27-.12.25-.13.23-.17.16-.23.17-.23.24-.11.29,0,.31,0h.31l.16,0,.13,0,.29,0,.31,0h.94l.4-.25v-.3l-.08-.25-.14-.24v-.27l.07-.27.19-.17.26-.11.3-.08.3-.08.28-.08.29-.08.29-.07.29,0,.29,0,.29,0h.61l.3,0H269l.3,0h.3l.3,0,.3,0,.29-.05.26,0,.31-.09.29-.09.27-.1.28-.09.28-.1.28-.1.27-.11.27-.1.27-.11.27-.13.26-.13.27-.12.27-.09.29-.05.3,0h.3l.18,0h.12l.28.08.28.1.29.06.31,0,.29-.05.27-.09.28-.1.28-.1.28-.1.28-.08.29-.07h.3l.29,0,.25.1.3.12.26.13.23.16.09.25.1.26.09.3.36.24.26-.09.29-.14.29-.13.3-.08.29,0,.3,0,.3,0,.3,0,.3,0,.28-.06.29-.08.29-.09.28-.07.3,0,.31,0,.3,0,.29-.06.26-.1.24-.14.23-.18.2-.2.33-.37.19-.27.1-.25.1-.25.14-.23.16-.22.17-.22.17-.21.17-.21.18-.21.18-.21.18-.2.2-.2.21-.19.22-.18.23-.16.23-.16.26-.14.27-.1.29-.09.27-.1.23-.16.18-.21.18-.22.23-.15.26-.13.28-.11.27-.1.27-.12.27-.11h0l.48-.16.35-.09.28-.08.28-.08.28-.09.28-.1.28-.1.27-.11.25-.14.23-.16.23-.18.21-.18.19-.2.13-.23.08-.26.13-.23.18-.21.18-.16.27-.18.27-.12.28-.08.29-.08.28-.09.28-.1.29-.07h.29l.29.05.3.06.29.06.29.07.51.14.34.1.29.05h.7l.25,0,.24,0,.17.23.29-.06.28-.06.29,0h.3l.3,0,.3,0,.28.07.27.12.25.13.22.18.19.2.22.17.24.15.48.3.27.11.26.13.27.1.3.07.19.17.12.25.08.25.13.24.16.22.25.13h.29l.27-.1.26-.14.23-.15.25-.15.25-.14.26-.12.28-.09.29,0,.3,0,.29,0,.29-.08.28-.08.29-.07.28-.08.24-.14.21-.2.25-.14.27-.09.28-.09.27-.11.26-.14.26-.11.29-.07.29-.07.28-.06.29-.07.28-.08.28-.09.26-.13.25-.13.29,0h.31l.29,0,.29,0,.3,0,.3,0,.29,0,.29,0,.29-.08.27-.09.27-.12.25-.13.27-.13.26-.11.27-.12.26-.11.26-.13.26-.13.25-.13.27-.13.27-.09h1.19l.27.09.26.14.24.15.24.16.26.11.29.08.29,0,.29-.07.3,0,.29-.05.26-.11.26-.13.26-.14.25-.14.25-.14.24-.15.26-.13.28-.08.29,0,.3,0,.3,0,.29,0,.29,0,.3,0,.28-.06.29-.05.3,0,.29-.05.25-.12.23-.18.23-.16.24-.16.23-.16.25-.16.2-.17.06-.26,0-.25,0-.26,0-.26,0-.26-.07-.25-.07-.25-.07-.26-.07-.25-.06-.25-.08-.25-.13-.24-.13-.23-.1-.24-.1-.24-.13-.24-.12-.23-.1-.25-.09-.25v-.78l0-.26.37-.25.06-.27.2-.17.28-.1.29-.07.27-.11.25-.15.24-.14.27-.11.28-.1.28-.08h.59l.29,0,.29.08.29,0,.28-.08.27-.11.26-.13.26-.12.25-.14.26-.12.26-.12.27-.11.28-.1.29-.07.27-.09.27-.11.26-.13.26-.13.26-.12.27-.11.26-.12.24-.15.23-.16.23-.17.22-.17.22-.18.22-.17.22-.17.23-.17.23-.16.22-.17.22-.18.21-.18.17-.21.13-.24.14-.23.16-.22.11-.24,0-.26,0-.25L345,2096v-1l0-.25,0-.26v-.78l0-.26,0-.26,0-.25.05-.26.06-.25v-.52l0-.27v-.25l.1-.24.21-.19.22-.17.23-.16.23-.18.17-.2.08-.25.1-.25.1-.25.09-.24.05-.25,0-.26,0-.26v-.52l0-.26.06-.25,0-.26v-1.55l0-.26-.1-.25-.1-.24-.15-.22-.22-.18-.22-.17-.22-.17-.22-.18-.23-.16-.24-.15-.18-.2v-.26l.09-.25.15-.22.23-.17.24-.15.24-.16.21-.18.19-.2.17-.21.14-.23.18-.2.2-.19.21-.19.22-.17.22-.18.19-.19.17-.22h0l.25-.45.11-.24.1-.24.12-.24.16-.23.26-.1.3,0,.28-.05.27-.11h.3l.27-.1.24-.15.21-.18.16-.22.13-.23.13-.24.14-.23.16-.21.1-.25,0-.26.06-.25.13-.23.1-.27.15-.19h.29l.31,0,.3,0,.29,0,.28.08.28.09.28.08.29,0h.6l.28-.08.17-.2.08-.25,0-.26,0-.26v-.26l-.09-.24-.06-.25,0-.26,0-.26,0-.26-.06-.25-.11-.24-.13-.24-.14-.23-.16-.21-.16-.22-.17-.21-.15-.23-.11-.23v-.52l.07-.25.09-.25.12-.24.05-.26v-.25l0-.26-.13-.24-.16-.22-.16-.21-.27-.09-.3,0-.3,0-.28-.05-.28-.08-.27-.11-.26-.13-.22-.17-.11-.24-.08-.25-.05-.26,0-.25,0-.26v-.26l0-.26,0-.25-.06-.26-.05-.26,0-.25,0-.26,0-.26,0-.26,0-.26v-.52l0-.25-.06-.26-.08-.25-.1-.24L351,2062l-.05-.26-.06-.25-.11-.25-.1-.24,0-.26v-.25l.06-.26.08-.25.09-.25.09-.24.07-.26.05-.25,0-.26,0-.26,0-.25.09-.25.13-.24.18-.2.22-.18.21-.18.2-.18.2-.2.18-.2.18-.21.19-.2.19-.19.19-.2.16-.22.13-.23.12-.24-.32-.91.13-.29.14-.29.16-.27.18-.27.21-.25.23-.23.23-.24.19-.26.2-.25.24-.22.2-.26.2-.25.26-.2.18-.27.18-.26.23-.24.24-.22.23-.24.23-.23.26-.21.29-.18.3-.16.31-.14.33-.11.35,0,.35,0,.35,0,.33-.11.31-.15.31-.15.29-.17.25-.21.27-.21.27-.19.28-.2.23-.23.22-.24.21-.24.21-.25.21-.25.21-.25.22-.24.22-.24.27-.19.29-.18.48-.19.35,0,.35,0,.35,0,.35-.06.33-.09.34-.09.33-.1.33-.09.34-.09.35-.07.34,0,.33-.09.31-.15.32-.14.33-.09.33-.12.31-.15.26-.21.26-.21.29-.16.32-.14.36-.14.28-.11.33-.11.17,0,.13,0h0l.35,0,.34-.07.34-.07.3-.11h0l.31-.14.31-.14.31-.15.31-.15.31-.14.33-.11.34-.09.33-.09.31-.14.26-.21.25-.22.23-.24.23-.23.26-.21.27-.2.28-.19.29-.17.31-.15.36-.22.21-.14.26-.21.29-.16.32-.13.34-.09.35,0H382l.35,0h.7l.36,0,.33-.08.32-.13.32-.12.32-.13.29-.17.29-.18.3-.17.3-.16.31-.13.34-.07.35,0,.35,0,.33-.11.33-.11.69,0,.32-.12.31-.15.3-.16.31-.15.31-.14.33-.11.32-.11.32-.13.32-.14.32-.13.31-.14.32-.13.32-.12.23-.09"/>

</g></g></g></svg>
