<svg xmlns="http://www.w3.org/2000/svg" viewBox="0 0 1948.2 3756.13">
<defs>
    <style>.cls-1,.cls-2,.cls-3,.cls-4{fill:#ccc;stroke:#646464;stroke-width:2.13px;}.cls-1,.cls-2,.cls-3{stroke-linecap:square;}.cls-1,.cls-2{stroke-linejoin:bevel;}.cls-1,.cls-3,.cls-4{fill-rule:evenodd;}.cls-3,.cls-4{stroke-linejoin:round;}
    </style>    
</defs>
<title>Recurso 2arg</title>
<g id="Capa_2" data-name="Capa 2"><g id="svg2"><g id="layer1">
<path id="path2874" class="cls-1" d="M638.08,1090.05l.18.21.21.28.41.55h0l.34.58h0l.2.57v0l.07.36.08.66v0l0,.68h0l0,.69.06.68,0,.34,0,.34,0,.34,0,.34,0,.34,0,.34,0,.34,0,.34.07.68,0,.34,0,.34,0,.34,0,.34.05.68.08.66v0l.13.64v0l.17.67.23.65.3.61.37.57.43.54h0l.48.52.77.69.56.39.6.34.31.17.31.16.61.34.29.19.29.18.29.19.3.19.57.38.56.41.78.66h0l.45.48,0,0,.22.26.23.27.45.52.47.5.51.47.26.23.26.23,7.54,0,.24.64.13.32.13.32.23.63h0l.18.63v0l.12.65v0l.08.68,0,.63v.39l0,.34v6.49l0,.68,0,.68,0,.69v0l.08.65.14.67.25.62h0l.33.61.41.58.46.52.53.43.57.37.62.31.66.28.66.24.33.12.33.11.67.17.7.1.69.12.65.17h0l.34.12.35.12.32.14,1,.9.28.62h0l.21.62,0,0,.2.61v0l.15.66v0l.15.67.23.64.36.57.45.52.51.49.75.7h0l.53.61-1.77-.07-.68.06-.61.3-.6.38-.66.21-.68.15-.67.12h0l-.69.09-.7.07-.34,0-.35,0-.41,0h-.09l-.2,0-.35,0-.35,0-.34,0-.35,0-.35,0-.35,0h-.35l-.35,0h-.35l-.35,0h-3.51l-.68-.06-.6-.29-.57-.32h-.06l-.3.05-.7.08-.35,0-.35,0-.34,0-.35,0-.7.05-.34,0-.35,0-.35,0-.35,0-.35,0-.35,0h-4.88l-.35,0h-.35l-.35,0h-.35l-.35,0-.35,0-.35,0-.34,0-.7-.05-.35,0-.35,0-.34,0-.35,0-.55,0h0l-.24,0-.52,0h0l-.69,0h0l-.35,0-.34,0-.7,0-.36,0-.38.06-.71,0-.67-.64-.15-.36-1-.78-.35-.07-.37,0-.44,0-.27,0h0l-.69-.08-.69-.07-.35,0-.35,0-.35,0h-1.1l-.64,0-.66,0h0l-.35,0-.35,0-.67.07h0l-.35,0-.35.05-.34,0-.35,0-.36.06-.67.12-.35.08-.34.09-.69.15-.68.09-.68,0-.66-.23-.32-.14-.33-.14h0l-.66-.22-.33-.09-.34-.1-.33-.09-.34-.09-.34-.08-.34-.08-.34-.09-.33-.08-.34-.08-.34-.08h0l-.64-.13h0l-.64-.11-.7-.1h-.08l-.61-.08-.7,0h-.69l-.68.06h0l-.66.11h0l-.34.06-.35.07-.69.11-.39,0-.17,0-.22,0-.37,0-.59.2-.13.18v.36l.1.39.19.71.18.62v0l.09.33.11.33.18.66.09.33.09.33.17.66.07.33.07.33.13.67h0l.08,1,0,.35,0,.34,0,.67.26.62.2.29.2.29.29.62.2.66v.67l-.1.34-.09.34v.66l.27.63.31.62h0l-1.53,6-.33,1.72-.12.66v1.72l0,.58-.11.56h0l-.11.56-.07.57-.06.58,0,.57.1.57.22.53.15.55h0l0,.29,0,.29.13.55.29.5.27.5h0l.13.55h0l.07.57h0l0,.58v1.15l.07.57.08.28.08.28.06.28.07.28.07.28.07.28.14.56.13.49v.07l.08.57v2.88l0,.57v.29l0,.29v1.32l3.2,3.69,1.51,3,2.13,4.15-3.58,0h0l-4.47,0v-.09l0-.28-.15-.56-.28-.5-.33-.48-.42-.4-.53-.25-.59,0-.59.06-.3,0-.29,0-.54-.22-.46-.32-.35-.47-.5-.31-.52-.26-.52-.28-.48-.33-.49-.33-.5-.3-.48-.33-.41-.4-.28-.52-.28-.5-.15-.56-.17-.54-.13-.56-.21-.53,0-.58v-.57l0-.58,0-.57-.23-.5-.22-.52-.37-.43-.35-.45-.25-.52-.33-.48-.18-.23-.17-.23-.18-.23-.17-.24-.39-.88-.76-.64-.23-.56-.1-.56-.57-.07,0,0-.35.42-.32.48-.48.34-.42.39-.48.34-.5.31-.52.23h-.59l-.54-.24-.55-.2H590l-.58.11-.29.06-.28.07-.59,0-.56-.16-.46-.37-.57-.15-.59.07-.52.26-.52.27-.57.15-.58-.07-.3,0-.29,0-.57-.16-.52-.28-.52-.27-.55-.25-.32.25-.12.09-.28.5-.46.32-.59,0-.41-.42-.56-.17-.54.19-.31.5-.41.39h-.6L576,1179l-.41-.42-.31-.49-.4-.41-.52-.27-.3,0-.29,0-.59,0-.86.35h-.52l-.58-.1-.29-.08-.24,0,0,0-.59-.11-.29,0-.29,0-.58.06-.55.2h-1.18l-.59,0H566l-.3,0-.29,0-.53-.15-.37-.46-.4-.43-.52-.25L563,1176l-.52-.27-.56-.16-.46-.36-.09-.57-.12-.55-.16-.52-.22-.21-.21-.19-.57-.17-.57-.17-.39,0-.19,0-.54-.18-.5-.33-.55-.16-.61,0-.4-.37-.24-.54-.08-.58-.35-.45-.41-.43-.09-.54-.1-.57v-.57l0-.58,0-.57,0-.59-.24-.46-.55-.22-.56-.2-.39-.29-.59-.08-.51-.26-.14-.57,0-.58,0-.57-.17-.56-.44-.36-.55-.19-.58.08-.88.31-.52.14-.29.07-.29.06-.58-.09-.49-.31-.28-.09-.28-.1-.44.08-.13,0-.55.19-.57.15-.6,0-.3-.43-.23-.35-.58,0-.58,0-.48-.33-.58.07-.36.45-.16.55-.45.38-.56.11-.35-.4-.61.11-.44.35-.38.45-.42.41-.51.29-.52.28-.52.26-.27.12-.27.12-.53.26-.53.24-.54.23-.54.25-.55.19-.59.08-.58.1-.29.06-.29.06-.58.1-.59,0-.58-.1-.29-.07-.29-.06h-.57l-.57.19-.58.11-.59,0-.57-.13-.57-.17-.29-.06-.12,0-.17,0-.59,0-.57.14-.51.3-.5.31-.48.32-.24.17-.24.17-.23.18-.24.17-.49.33-.51.28-.55.22-.57.14-.53-.2-.3-.48-.55-.22h-.38l-.22,0-.53.25-.52.28-.21,0-.35-.06-.51-.3-.58,0-.58.11-.59,0-.59.06-.59.07-.59,0-.59,0-.58-.08-.52-.28-.17-.49.18-.56,0-.57-.2-.5-.27.1-.29.11-.58.09h-.59l-.59.06h-.59l-.59,0-.56-.16-.29-.06-.29-.07-.58-.1-.58-.12-.29-.07-.28-.07-.57-.16-.1,0-.33-.09-.14,0-.55,0-.07.6-.07.57,0,.57-.07.58,0,.28-.05.28v0l-.07.52-.05.58,0,.57-.07.57-.14.57-.17.55-.21.54-.26.51-.14.25-.15.26-.3.49-.46.36-.19.19-.23.21-.48.33-.43.39-.22.2-.19.17,0,0-.28.3-4.78,5.11-1.52,1.62-4.28,4.23-3.87,3.82-.28.26h-.12l-2.33,0-8.35-.14-5.44-.1-2.91-.16-7.24-.41v-1.08l.09-8.12-.09-8.13-.06-5.32.09-2.8-.85,0-.59,0-.59,0-.57.14-.46.35-.36.46-.39.43-.54.23-.58.11-.58.13-.59.07-.58,0H449l-.59,0-.54-.24-.48-.33-.47-.34-.32-.26-.14-.12-.22-.51-.46-.36-.42-.39-.42-.38-.51-.31-.4-.4-.37-.45-.5-.26-.39-.41-.21-.54-.4-.38-.43-.39-.21-.19-.22-.2-.21-.2-.21-.2-.3-.49-.12-.56,0-.58-.15-.55-.35-.44-.51-.29-.55-.2-.24-.16-.25-.16-.38-.42-.06-.57.16-.53,0-.52-.25-.45-.3-.48-.34-.49-.15-.46,0-.1,0-.58.1-.42,0-.17-.16-.53-.55-.22-.61-.07h0l-.56-.1-.6,0-.59.09-.59.17-.5.3-.5.35-.59.29-.28.4.15.58.23.59.24.54-.25.73-.49.06-.51,0-.56.14h-.59l-.58.12-.52.26-.4.46-.48.11-.46-.39-.53-.15-.56.17-.53.27-.48.32-.43.4-.4.42-.43.39-.48.33-.27.52-.12.56-.12.57-.13.56-.24.52-.15.25-.15.25-.25.39-.25.53-.3.48-.51.27-.59,0-.54.25-.49.32-.39.43-.32.49-.46.32-.59.06-.58-.11-.57-.17-.55-.2-.27-.12-.26-.13-.28-.1-.27-.11-.55-.23-.49-.32-.46-.35-.48-.32-.57-.18-.51-.33-.42.21-.34.47-.45.37-.53.24-.6,0-.5-.24-.2-.54-.44-.41-.49-.06-.46.4-.49.33-.53.25-.58.07-.6,0h-.59l-.55.2-.36.45-.35.46-.39.44-.43.4-.4.41-.23.53-.13.57-.36.44-.59.08-.55.13-.37.45-.41.41-.49.33-.35.3-.32.27-.51.29-.26.12-.27.12-.5.31-.53.28-.55.05-.57-.15-.55-.24-.45-.37-.56.07-.46.35-.45.35-.58,0-.57-.09-.5.29-.37.45-.16.55-.29.5-.32.49v.57l.05.28.06.28.15.56.13.52-.2.56-.3.49-.1.57.07.57,0,.55-.3.5-.15.25-.14.25-.4.43-.19.54-.08.57.06.57.11.56-.11.57-.39.44-.19.21-.2.22-.38.44-.16.56-.28.49-.47.37-.53.26-.33.47-.33.4-.05.05-.34.47-.2.22-.19.21-.25.52-.31.48-.42.42-.46.36-.44.39-.37.44-.3.5-.36.46-.7.6-.19.15-.24.18-.42.4-.29.51-.23.53,0,.57-.09.27-.09.28-.09.56.17.56.2.54.18.55.22.53.46.36.42.39.27.51.19.55.1.57.09.57,0,.57,0,.58v.57l-.06.58v.57l-.09.57,0,.57.12.57-.06.57-.2.54-.31.49,0,.55.25.53.3.49.14.26.14.25.25.52.23.53.16.55-.14.57-.22.54,0,.56,0,.29v.29l-.05.57-.18.55-.34.48-.43.4-.54.23-.56.2-.42.41-.38.43-.53.25-.56.22-.56.16-.58-.12-.3,0-.29-.05-.57-.14-.58-.14-.59-.08-.59,0h-.59l-.6,0-.54.22-.54.24-.59,0-.56.17-.46.36-.41.42-.42.41-.3.49-.12.56-.08.58-.21.52-.55.24-.59,0-.59,0-.56-.19-.47-.34-.49-.34-.56-.13-.6.06-.59,0h-.3l-.29,0-.6,0-.58-.12-.28-.08-.29-.08-.57-.17-.47-.34-.39-.44-.47-.35-.47-.36-.47-.22-.05,0-.58-.15-.59-.07h-.08l-.5.08-.54.25-.55.22-.59.1-.54-.21-.44-.39-.51-.25-.6.11-.53.25-.51.3-.51.3-.26.13-.26.14-.48.33-.43.41-.43.39-.48.34-.49.33-.5.32-.32.46,0,.58.07.57v.58l0,.58v.57l-.23.53-.24.52-.12.27-.12.27-.25.51-.3.5-.36.46-.43.4-.56.21-.58.1-.59,0-.59-.11-.46-.35-.42-.39-.25-.53-.14-.55-.13-.57-.12-.56,0-.29,0-.28-.11-.57-.43-.39-.38-.45-.39-.43-.21-.21-.2-.22-.44-.39-.49-.29-.58-.15-.32-.51.11-.56v-.58l0-.57,0-.58.22-.53.24-.53.12-.56v-.58l-.18-.55-.13-.56-.3-.49-.23-.54-.1-.56.05-.57.05-.57,0-.58-.16-.55-.15-.56-.26-.51-.29-.51-.42-.4-.42-.41-.49-.32-.47-.34-.5-.31-.53-.25-.53-.25-.5-.32-.44-.39-.41-.41-.39-.44-.35-.46-.41-.42-.46-.37-.53-.23-.59,0-.59.09-.55-.19-.5-.34-.45-.36-.13-.54v-.6l0-.57.09-.56.16-.56.3-.49.19-.54.37-.44.3-.45-.06-.58-.23-.52-.17-.56.19-.51.36-.45.38-.44.36-.46.35-.47.17-.54-.1-.56-.41-.39-.52-.28-.51-.29-.5-.3-.52-.29-.57-.13-.59,0-.53-.23-.35-.47-.17-.55-.17-.55-.22-.54-.5-.3-.48-.33-.53-.25-.55-.23-.53-.24-.57-.16-.52-.29-.49-.33-.42-.4-.28-.5-.18-.54-.2-.55-.19-.54-.22-.54,0-.57.17-.55.2-.54.26-.52.24-.52.23-.54.12-.56.05-.57v-.57l-.08-.58-.06-.57-.09-.57-.09-.57-.06-.57,0-.58,0-.57-.05-.57-.05-.58v-.57l.13-.56.31-.53,0-.52-.26-.52-.43-.36-.46-.36-.35-.46-.34-.46-.31-.5-.37-.41-.55-.21-.5-.3-.18-.55,0-.57,0-.58,0-.57.2-.54.3-.49.22-.53-.26-.48-.37-.45-.48-.34-.5-.3-.46-.36-.51-.3-.58-.09-.56-.19-.45-.34,0-.57.14-.56.33-.48.36-.45.48-.31h.59l.56.19.49.32.46.36.37.44.43.38.52.27.49.31.55.15.59,0,.59-.09.58,0,.59,0,.54-.21.5-.31.46-.36.45-.38.49-.31.46-.36.52-.28.43-.4.3-.49.24-.52.23-.66.09-.37.19-.63.28-.7.4-.44.47-.37.48-.35.47-.37.59-.66.17-.57-.28-.52-.24-.54-.28-.52-.37-.47-.35-.47-.27-.52-.23-.55-.19-.56-.22-.55-.42-.42-.5-.33-.58-.16-.6,0-.59-.16-.37-.43-.19-.58-.25-.53-.24-.54-.24-.54-.3-.51-.52-.32-.58-.11-.6.1-.6.08-.59.08-.87.25-.59.09-.6,0-.61,0-.55-.21-.52-.3-.59-.15-.59-.11-.59-.08-.61,0-.59-.06-.59-.12-.59-.11-.6-.1L311,1140l-.47-.36-.45-.39-.46-.38-.38-.45-.41-.43-.52-.3-.52-.3-.55-.23-.61-.09-.51-.27-.39-.46-.3-.52-.15-.56,0-.61,0-.57v-1.18l0-.59-.08-.58-.2-.55-.23-.55-.18-.56-.23-.54L304,1129l-.27-.54-.15-.56,0-.59.13-.57.1-.58.06-.59.06-.58.07-.59.12-.58.14-.57.09-.58,0-.59-.08-.58-.19-.56-.22-.55-.24-.54-.32-.51-.56-.68-.57-.18-.58.17-.55.22-.44.41-.55.28-.47-.31-.16-.56v-.6l.06-.59,0-.59v-.59l-.06-.58-.12-.58-.19-.55-.28-.53-.33-.49-.39-.44-.35-.47-.3-.52-.29-.51-.27-.53-.21-.55-.19-.55-.19-.56-.19-.56-.2-.56-.14-.57-.09-.58-.08-.58-.09-.58-.1-.58-.11-.58-.12-.58-.13-.57-.11-.58-.06-.58,0-.59,0-.59v-.59l0-.58.06-.59,0-.59v-.6l-.27-.5-.36-.48-.29-.51-.16-.57,0-.59.11-.58.24-.54.28-.52.26-.54.34-.47.46-.38.38-.47.25-.52.08-.59,0-.58,0-.59-.06-.59,0-.59v-.59l.09-.57.23-.55.28-.52.26-.53.19-.56-.16-.61-.26-.48-.32-.5-.23-.54-.15-.58,0-.58v-.59l0-.59,0-.58,0-.59v-1.18l.05-.58.07-.59.09-.58.2-.55.2-.56.08-.58.19-.56.27-.52.24-.54.19-.56.16-.56.18-.56.21-.56.21-.54.21-.55.21-.56.22-.85.08-.58.07-.59.07-.58.06-.59v-1.17l0-.59,0-.59v-3.53l0-.58.05-.59,0-.59.08-.58.16-.56.22-.55.27-.53.38-.45.41-.43.42-.42.42-.42.44-.4.36-.46.33-.49.31-.51.3-.5.29-.52.29-.51.32-.51.39-.43.56-.23.59-.06.55.24.29.49.14.58.19.56.31.83.11.58.19.55.37.46.39.46.22.52.32.49.18.57.13.57.1.58.12.58.23.55.54.23.61,0,.42-.37.32-.52.25-.53.22-.55.18-.56.15-.58.13-.57.19-.56.25-.53.22-.55.2-.55.29-.52.35-.47.41-.44.5-.3.58-.16.9-.19.46-.29.17-.59.11-.58.1-.58.14-.58.21-.54.38-.45.43-.42.44-.4.35-.25.13-.09.53-.26.54-.26.52-.3.49-.33.46-.38.4-.45.25-.51-.21-.56L322,1043l-.58-.16-.47-.36-.46-.39-.31-.49L320,1041l-.07-.58.15-.57.14-.57.2-.56,0-.57-.15-.58-.24-.53-.32-.5-.26-.53-.22-.55-.23-.54-.18-.56-.14-.57-.22-.87-.14-.57-.06-.58,0-.59.08-.58.11-.58.21-.55.33-.5.25-.53.22-.55.15-.56v-.59l-.08-.59,0-.6.12-.56.22-.55.28-.51.31-.51.33-.49.33-.49.33-.49.32-.5.15-.56,0-.6-.09-.57-.18-.57-.22-.54-.28-.52-.19-.56.08-.59.39-.43.45-.38.46-.38.46-.38.33-.48.22-.55.16-.57.14-.57.16-.56.23-.55.37-.46.25-.26.41-.33.49-.34.48-.35.43-.4.4-.43.37-.47.31-.5.15-.57.08-.59,0-.58-.12-.58-.28-.52-.4-.44-.39-.44-.39-.45-.32-.5-.17-.55.08-.59.19-.56.22-.54.24-.54.27-.53.31-.5.19-.55.08-.59.12-.58.11-.57.2-.86.06-.59v-.58l.11-.58.12-.58.21-.55.3-.5L329,993l.23-.54.26-.53.27-.52.27-.53.28-.52.31-.5.32-.5.28-.52.25-.54.07-.57-.09-.59-.22-.55-.07-.58.15-.56.26-.54.32-.49.36-.47.43-.4.44-.4.42-.41.43-.41.42-.41.41-.43.39-.44.37-.46.35-.48.32-.49.28-.52.26-.53.29-.51.32-.5.32-.49.33-.49.49-.74.32-.49.31-.5.31-.5.31-.51.29-.51.23-.54-.09-.58-.21-.55-.15-.57v-.58l.39-.34.57.24.51.3.43.4.43.4.51.3.52.29.52.27.54.26.54.23.57.14.59.07.59.06.58.12.58.14.58.09.87.17.57.18.59.09h.59l.58-.11.55-.23.51-.3.44-.39.4-.44.41-.43.41-.42.41-.42.4-.44.39-.44.35-.47.35-.48.31-.5.27-.52.24-.54.28-.52.3-.51.29-.51.26-.53.23-.54.19-.56.2-.55.25-.54.26-.52.25-.54.33-.48.38-.46.37-.46.35-.47.34-.48.33-.49.33-.49.34-.5.31-.48.08-.13.22-.38.27-.53.19-.55.16-.87.11-.58.11-.58.15-.57.21-.55.33-.48.36-.47.39-.45.41-.42.47-.36.53-.3.27-.48.09-.59.09-.59,0-.59-.09-.58-.12-.58,0-.58v-.59l0-.59v-.59l.18-.56.17-.56.06-.59-.14-.57-.32-.46-.6-.11-.88-.06-.58-.12L364,942l-.55-.19-.56-.2-.55-.2-.56-.2-.57-.19-.57-.13h-.58l-.6.05-.59,0-.6-.06-.58-.1-.55-.18-.51-.3-.47-.37-.47-.36-.47-.35-.47-.37-.46-.36-.79-.57-.49-.39.24-1.11.48-.46.63-.62.43-.41.37-.45.32-.49.27-.53.24-.54.24-.54.24-.54.22-.54.21-.56.16-.56.11-.57.08-.59.08-.58.87-4.52.71-1.95.67-.32.51-.32.5-.39.41-.43.16-.53-.06-.61-.09-.62-.1-.6-.09-.59,0-.59.09-.6.11-.59.14-.58.19-.58.18-.57.12-.58.07-.6,0-.6,0-.6-.13-.59-.14-.58-.11-.59-.11-.59-.11-.59-.13-.59-.14-.58-.12-.59-.1-.59-.07-.6-.05-.59-.07-.6-.1-.59-.15-.58-.12-.59-.05-.6v-.6l0-.6.12-.58.17-.58.18-.57.19-.57.14-.59.1-.59.06-.6,0-.59v-.61l-.07-.59-.14-.59-.21-.56-.3-.51-.35-.5-.29-.53-.29-.53-.35-.47-.5-.34-.48-.37-.39-.45-.36-.48-.33-.5-.33-.5-.37-.47-.4-.45-.42-.44-.49-.4-.26-.47.16-.6.17-.58.17-.58.17-.58.18-.57.2-.57.16-.57.1-.59.08-.6.08-.59.07-.6,0-.6v-.6l-.05-.6-.07-.59-.11-.59-.13-.59-.14-.58-.22-.67-.55-1.68-.8-1.88-1.53-4.37-.23-.56-.16-.57,0-.6,0-.6.06-.6.12-.59,0-.59-.12-.59-.17-.58-.27-.54-.44-.39-.55-.24-.51-.29-.4-.46-.33-.5-.27-.55-.13-.57.13-.57.2-.58.12-.59,0-.6.05-.6.12-.58.19-.57.21-.56.17-.58.15-.58.26-.54.35-.48.25-.55.22-.56.41-1.73.45-.49,1.65-1.63.85-1.72.19-.38.28-.54.24-.54.11-.6-.16-.55-.48-.39-.43-.42-.4-.45-.2-.54,0-.62.06-.58.32-.5.38-.48.37-.47.41-.44.42-.42.44-.41.43-.42.42-.42.42-.42.41-.44.4-.44.41-.44.42-.43.41-.44.43-.42.45-.39.47-.36.5-.34.52-.31.53-.27.55-.23.58-.16.6-.08.59,0,.59.07.59.12.58.15.58.13,3.78,1.16,0-.7,0-.6,0-.6,0-.6,0-.6,0-.6.05-.6,0-.59.05-.6.08-.6.11-.59.14-.58.16-.58.16-.58.14-.58.12-.58.12-.59.12-.59L373,821l.12-.59.11-.59.11-.59.11-.59.11-.59.11-.58.11-.59.11-.59.11-.59.05-.61.05-.6,0-.6,0-.6-.05-.59-.14-.59-.17-.58-.12-.59v-.59l.08-.59.12-.6.1-.59L374,808l.11-.59.12-.6.15-.58.3-.5.44-.42.43-.43.45-.41.38-.45.21-.54.09-.61.05-.6,0-.6V801l0-.6,0-.6.05-.6.08-.59.1-.59.13-.59.16-.58.2-.56.21-.56,1-2.72.68-1.5.08-.47.09-.59,0-.59-.16-.58-.35-.49-.46-.39-.48-.35-.53-.27-.55-.24-.49-.34-.39-.44-.3-.53-.16-.57-.07-.6,0-.6,0-.6,0-.6,0-.6,0-.6.05-.6,0-.6.05-.59.05-.6.05-.6,1.68-1.73,1.27-1.73-.2-1.11-.31-1.16-.13-.46,1.8-1.17,2.12-1.43,2.14-2,0-.4v-.6l-.18-.57-.21-.57-.12-.58-.11-.6-.08-.59,0-.6,0-.59.06-.6.08-.6.07-.6.06-.59.06-.6.06-.6.06-.59.05-.6.05-.6.05-.6,0-.6,0-.59v-1.21l0-.6-.07-.59-.12-.59-.15-.58-.14-.58-.11-.59-.07-.6,0-.6,0-.6,0-.6v-.6l0-.6,0-.59,0-.6,0-.6.2-.55.13,0,.28.08.29.09.28.09.57.18.57.11.6,0h0l.57-.07h0l.57-.11.59-.1.58,0,.57.16.29.09.28.1.55.21.54.25.24.17.24.18.51.28h0l.53.26.28.12.27.11.27.13.27.13.55.21.57.08h0l.58.12.57.14.56.2.29.09.29.08.58.07.57-.18h0l.54-.26.57-.07.6,0h.05l.54-.06h.6l.53.21.22.21.21.22.44.41.34.49.21.56.3.51.42.42.34.51.47.26h0l.22.55h0l.38.4.6.06h.59l.58.13.53.19h0l.28.1.28.1.58.08h0l.6,0h0l.56,0h0l.52-.26.59,0,.6,0,.55-.18h0l.5-.32h0l.55-.21.58-.14.79-.32,3.49,4,1.81,2.08,3.7,4.25,1.62,1.85,4.57,5.24,0,.29,0,.3,0,.6v.6l.06.58v0l.13.58h0l.2.57.26.53h0l.3.52.26.52v0l.24.54.18.57.14.57h0l.17.58.23.55.12.28.12.27.25.54.12.28.12.27.24.54h0l.22.56.12.59.25.54.29.52.23.54h0l.2.57.09.28.1.29.08.28.09.29.2.56.21.54v0l.17.58.16.57,4.83,5.28.66.67,5.66,5.78,1.59,1.61,4.11,4.15,2.14,2.14-.09.6-.09.57v0L454,808l-.14.55.15.58h0l.23.56.12.58-.28.61-.3.11-.28.11-.51.29-.29.51,0,.64.47.24.55.23.5.34.45.36.16.58,0,.6,0,.61.39.44.53.28h0l.45.37.37.48.31.52.24.54.2.57.26.51v0l.14.26.14.27.3.49v0l.34.49.26.54.14.58,0,.6-.07.58v0l0,.29,0,.3,0,.3,0,.3,0,.3,0,.29-.06.57v0l-.11.59-.31.5h0l-.36.49-.35.49-.37.47-.35.48-.16.58-.29.53-.41.44-.52.27-.61.05-.57-.14-.53-.31-.34-.45-.29-.53-.46-.41-.53.07-.4.45-.34.5h0L451,830h0l-.14.27-.14.27-.3.52-.38.46-.6.1h0l-.4.38-.21.59,0,.59,0,.61-.14.59.46.3.57.18.51.32.44.4.42.43.45.38h0l.45.38.37.48,0,.6-.45.36-.51.24-.05,0-.65.48.28.56.48.36.21.57,0,.63,0,.51.08.58v0l.15.58.11.28.11.28.17.57h0l.13.58.08.58v0l0,.3v.31l.11.58.33.48h0l.42.41h0l.47.38.27.53.12.59,0,.59h0v.6h0l-.06.58-.35.49-.4.45-.21.21-.21.22-.41.43-.4.45-.29.52-.12.59v.6l.07.6.09.6.09.59-.1.59-.23.55-.34.48h0l-.3.52-.22.56-.2.56-.2.57-.18.57h0l-.05.59.26.54h0l.37.47.45.38h0l.47.37.42.43.37.48.37.46h0l.48.45,0,0,.4.46,0,.4-.54.33-.32.16-.49.36h0l-.44.41-.38.45-.32.5h0l-.33.5-.37.46h0l-.51.31-.56.22-.46.38-.4.45-.35.49-.31.52-.15.26-.14.26-.15.26-.14.26-.26.5v0l-.13.27-.13.27-.25.55h0l-.15.57,0,.59.15.6.19.53v0l.11.28.11.26v0l.22.54h0l.21.52v0l.21.57,0,.11.08.47v2.41l.1.58h0l.24.56.2.55h0l.18.51,0,.06.18.41.06.14.3.6.13.2.18.22h0l.44.39h0l.51.33.52.27h0l.58.11h0l.59.1.54.25.53.25h0l.56.21.61,0,.6-.08.49-.3h0l.36-.5h0L456,886h0l.15-.64.06-.32.07-.32.84.35.88.21,1,0h0l.58-.13h0l.49-.26.36-.48.29-.62.27-.59h0l.32-.41.44.06.53.48.5.36h0l.25.16.26.16.5.33.46.3,0,0,.78.42h0l.55.22h0l.58,0,.59-.1.6-.13.6,0,.59.06.59.07h.61l.6-.06.29,0,.3,0,.3,0,.3,0,.6,0,.87.22.56.26.55.25.55-.1h0l.54-.26.54-.29.28-.13.27-.12.27-.13.27-.13.27-.13.27-.13h0L478,884l.52-.31.58-.07.42,0h.19l.9.16.56.19.51.3.51.34.5.34.26.16.25.15.26.16.25.16.47.27.05,0,.48.25.05,0,.53.28.5.32.46.37h0l.4.34.06.06.73.51.59.12.6,0h0l.57-.15.29-.06.3-.07.41-.08h0l.53-.27.56-.19.34,0h.26l.6,0,.59.12.52.14h.06l.29.06.3.06.55.09h0l.6,0h0l.58-.07.59-.12.6,0,.6,0,.59.12.56.2.56.18h0l.59.09h1.2l.59.07.58.17.56.22.55.25.52.31.51.26h0l.57.16.59.1h0l.3.05.3,0,1.57.41h0l3.52.53,3.08,1.1.37.14.07.6.08.57v0l.13.56v0l.16.53v0l.16.58.22.55h0l.28.52h0l.39.46.52.28h0l.31,0,.3,0,.59.07h0l.59.11.55.1h0l.51.26.39.47.34.43,0,0h0l.37.47.32.54.1.25.12.28.26.54.15.26.14.26.29.53.28.53.33.5.32.47,0,0,.38.46.44.38h0l.51.31.56.22h0l.59.1.3,0h.91l.67,0,.83.24.16.46,0,.64,0,.65h0l.15.58.21.56.19.57.17.53,0,.05.22.53v0l.3.51h0l.29.52.12.28.12.28.3.51.51.32h0l.59-.1.58-.17.29-.08.29-.09.58-.13.6-.11.59-.08h.64l.56,0,.6,0,.62,0,.47.3.25.56.15.59.08.59.11.59.16.55v0l.19.57.11.28.1.28.11.28.11.28.21.57.19.55v0l.27.51h0l.47.36h0l.57.18h0l.58.14.49.35.42.35,0,0,.49.35.25.17.25.17.49.34.5.34.43.42.35.48.32.51.28.53.11.28.12.28.13.27.12.27.24.48,0,.06.29.53.3.52h0l.4.42.55.26.51.32h0l.29.18.22.14.55.22h0l.58.11h0l.6,0,.5.55.24.44.24.4.42.41.16.25.16.24.39.43h0l.45.37h0l.45.38h0l.4.44.38.43h0l.41.4h0l.43.39.22.2.22.2.21.2.22.2.21.2.22.2.22.21.21.2.43.4.4.43.21.22.43.38h0l.45.34,0,0,.46.36.45.4.43.37h0l.51.26h0l.57.13h0l.57.17.52.28.25.16.25.16.49.32.51.28h0l.53.2h0l.28.09.29.09.51.15,0,0,.56.21.55.27.35.4v.62l.06.28.06.29,0,.6.22.53.39.42h0l.38.38.05,0,.43.37h0l.48.31h0l.26.14.21.11.31.17.26.15.25.15.51.3.5.31.49.34.24.17.24.17.47.34.47.36.24.18.23.18.24.18.23.18.24.17.24.18.46.31,0,0,.25.16.24.16.49.33.47.35.45.39.42.41.4.44.38.44.38.46.36.47.34.48.32.49.29.52.25.53.2.55.21.53v0l.26.52h0l.35.44h0l.41.43.44.4h0l.48.33h0l.49.33.43.4.2.22.2.22.39.4,0,0,.4.4,0,0,.39.44.36.47.31.5.3.5.17.24.11.16.23.32.29.52.38.44h0l.48.34.49.28h0l.58.19h0l.27.45.08.59.09.6.12.58.15.57.13.57.1.57v0l0,.57h0l-.18.57h0l-.19.56-.24.54-.31.48h0l0,.59.16.57.33.47h0l.37.44h0l.19.23.18.23.35.47.3.51.22.45,0,.07.29.5h0l.31.44.65.65v0l.42.37h0l.23.19.23.19.23.19.23.18.23.19.22.19.24.18.22.19.23.19.23.18.23.19.23.18.23.19.23.18.47.12.59.36.3.17.31.17.6.35.56.37h0l.51.43h0l.45.5h0l.39.48,0,0,.4.55.36.52,0,0,.18.28.19.29.18.3.19.29.18.29.14.24.22.35.18.29.18.3.37.57.41.53.6.33.58.31,0,0,.58.36h0l.52.43h0l.49.48.5.47.54.42.58.36.6.33.62.32.56.29.05,0,.6.34.57.37h0l.55.4h0l.52.41h0l.52.46.48.47h0l.66.78.37.53,0,0,.19.29.07.11.11.18.25.38.13.19.35.59.34.6.4.55.47.5.5.47.25.23.26.23.5.47.47.48h0l.44.52.39.55h0l.37.55v0l.19.29.18.29.39.57.2.28.19.28.2.28.19.28.2.28.2.29.2.27.2.28.41.54.42.5,0,0,.47.48h0l.5.47.53.44.74.63,0,0,.52.45.27.22.26.21.54.42.6.37.32.17.7.7.31.59.26.61v0l.13.33.12.32.23.6,0,.05.21.51,0,0,.17.38.15.31.14.32.14.31.14.31.3.61.31.61.16.31.15.3.17.3.16.3.16.3.16.3.17.3.17.3.16.3.17.3.17.29.17.31.34.59.1.17.24.42.18.29.17.3.18.29.17.29.18.3.18.29.17.29.18.3.17.29.17.3.17.3.17.29.17.3.17.3.17.3.16.3.35.59.35.57h0l.38.56.41.56.57.75,0,0-.08,4.51-1.24,3.4-1.85,5-.77,2.11.3.43,4.81,6.6.07.09.14.2-.84,7.72-.88,8.08-.89,8.08-.89,8.08-.22,2,.29.62.27.61h0l.2.64h0l.13.66v0l0,.34.05.34.07.36.06.31.22.63Z"/>

</g></g></g></svg>
