<svg xmlns="http://www.w3.org/2000/svg" viewBox="0 0 1948.2 3756.13">
<defs>
    <style>.cls-1,.cls-2,.cls-3,.cls-4{fill:#ccc;stroke:#646464;stroke-width:2.13px;}.cls-1,.cls-2,.cls-3{stroke-linecap:square;}.cls-1,.cls-2{stroke-linejoin:bevel;}.cls-1,.cls-3,.cls-4{fill-rule:evenodd;}.cls-3,.cls-4{stroke-linejoin:round;}
    </style>    
</defs>
<title>Recurso 2arg</title>
<g id="Capa_2" data-name="Capa 2"><g id="svg2"><g id="layer1">
<path id="path4402" class="cls-1" d="M1119.21,1111.31l-2.67,2.27-6.08,5.52-1.16,1.06.15.24.16.26.16.25.16.25.15.25.16.25.15.25.16.25.14.26.14.26.14.26.14.26.13.27.14.26.13.27.12.27.12.27.11.28.09.28.09.27.07.29.07.28.06.29.06.29.06.29.06.29,0,.29,0,.75,0,.3,0,.29,0,.29,0,.3,0,.29,0,.29,0,.29v.58l0,.29-.06.29-.09.28-.09.29-.1.28-.09.28-.09.29-.09.28-.09.28-.1.28-.09.28-.1.28-.09.28-.09.28-.09.28-.08.28-.07.29-.06.28-.05.29,0,.29,0,.3,0,.29,0,.3,0,.29v1.77l0,.29,0,.3,0,.3,0,.3,0,.29.06.3.07.29.08.28.1.27.12.26.15.24.17.23.2.22.21.22.17.16.27.26.22.21.21.21.2.23.32.46.19.23.2.23.19.23.18.23,0,0,.15.22.16.24.14.26.13.26.13.27.11.27.11.28.11.27.1.28.11.28.1.27.11.28.1.28.11.27.11.28.09.28.08.28.07.29,0,.28,0,.3,0,.28,0,.3v2.16l-.9,5.39.52,1-.31,1.22-.15.61-1.28,5.11.81,2.1,1,2.57.15.17,3.33,3.75,1.29,1.49,5.24,3.45,1.85,1.22,1.54.87,1.22,4.61,1.69,5.6.41,1,.4.57,1.71,2.38-.16,1.32.18.23.17.23.18.23.17.24.17.23.18.23.17.23.18.24.17.23.16.24.17.24.19.23.19.21.21.2.21.2.21.21.2.21.21.21.2.21.2.22.18.22.18.23.15.25.15.25.14.25.13.26.12.26.13.27.13.26.12.26.11.26.1.27.1.28.1.27.09.27.09.28.08.27.09.28.09.27.08.28.08.27.08.28.08.28.08.28.08.28.08.27.08.28.07.28.07.28.07.28.06.28.07.28.08.28.11.28.08.28,0,.27-.07.28-.11.28-.15.26-.18.21-.22.2-.24.19-.23.18-.27.16-.19.19,0,.3.14.26.24.15.28.11.29.1.29,0,.3,0,.18,0h.12l.28.12.13.07.14.25.1.27v.07l0,.22,0,.29,0,.29-.07.28-.09.27-.14.26-.16.25-.21.2-.23.18-.24.17-.23.17-.25.18-.17.23-.08.3,0,.28.21.17.3.11.3,0h.29l.3,0,.3,0,.3,0,.29,0,.29,0,.31,0,.23.17.08.26,0,.29v1.18l0,.28,0,.29-.06.28-.1.28-.12.26-.17.23-.22.2-.25.16-.27.12-.3,0h-1l-3.56,2.25-.06.29-.07.28,0,.28,0,.29,0,.28,0,.29,0,.28-.05.29-.06.28,0,.29,0,.3,0,.28.18.2.24.16.27.16.25.17.21.2.22.19.23.19.24.17.25.2.26.14.26.13.27.12.28.12.27.1.28.1.29.07.29,0,.3,0h.89l.29,0,.3-.06h.29l.29.06.29.08.28.09.29.07h.3l.31,0h.3l.24.11.19.23.05.08.12.18.13.26.13.26.18.23.19.22.19.22.2.22.19.22.18.23.17.23.16.24.13.26.1.27.1.28.09.27.08.21,0,.06.1.27.11.27.1.27.09.28.09.28.11.27.19.21.23.17.27.15.26.14.26.15.25.14.27.14.25.14.25.15.25.17.22.2.18.22.16.25.11.26,0,.29v.29l.06.28.09.28,0,.29.16.22.27.15.24.17.15.23.09.29,0,.29,0,.29,0,.28v.29l0,.29,0,.28,0,.28.07.29.07.28.08.27.08.28.08.28,0,.28v.29l0,.28,0,.29,0,.29,0,.29,0,.28-.14.44-.06.28-.07.28-.09.27-.09.28-.07.28-.07.28-.07.28-.09.27-.11.27-.13.26-.12.27-.12.27.12.23.21.22.13.26.13.26.12.27.12.26.14.25.15.25.17.24.15.25.13.26.1.27.08.28.06.28,0,.29,0,.28,0,.29-.06.23-.09.33-.08.27-.1.28-.09.27,0,.28,0,.3-.06.27-.21.22-.2.22-.06.26v.3l0,.29,0,.29-.07.28-.08.27-.08.28-.08.28-.07.28,0,.29v.28l0,.29-.08.28-.08.28,0,.28.09.28,0,.28-.08.28-.06.29v.26l0,0,.07.23.1.27.15.26.08.27,0,.28-.06.29-.06.28-.06.28-.07.28-.06.29,0,.28,0,.3-.06.28-.15.24-.18.22-.21.21-.22.2-.28.14-.38.33-.21.19-.14.26-.14.25-.22.19-.24.19-.17.13-.21.2-.23.19-.22.19-.24.18-.24.16-.27.13-.27.13-.24.17-.19.22-.19.22-.24.18-.22.18-.07.28-.08.28-.18.22-.23.2-.22.18-.25.17-.23.18-.23.19-.21.2-.19.23-.14.25-.12.26-.13.26-.13.26-.14.26-.14.25-.16.25-.16.24-.18.23-.19.22-.21.21-.22.19-.23.19-.25.15-.26.14-.26.14-.26.15-.24.16-.25.17-.24.16-.25.16-.25.15-.26.15-.26.13-.54.22-4.46,7.36-.12.21-.16.29-2.51,4.47-1.34,2.39-.36.64-4.08,6.26-4,6.88-1,1.55-.21.33-.43.64-2.84,4.35-4.51,6.87-1.33,2-3.2,4.82-3.44,5.17-1.12,1.67-.86,1.3-3.7,5.55-4.56,6.84-1.3,2-3.24,4.92-2.77,4.19-1.76,2.68-2.58,3.91-2,2.92-1.51,2.19-2.73,4-.42.62-1.1,1.63-4.16,5.49-1.17,1.79-4.52,6.88-.64,1-4,5.83-1.66,2.44-2.89,4.43-2,3.16-2.49,3.72-1.24,1.86-2.56,4-.16.23-.17.23-.16.24-.17.23-.18.22-.2.21-.2.21-.21.2-.22.19-.23.18-.23.17-.24.16-.24.16-.25.16-.25.15-.25.38h1.52l8.41,0,8.35,0h2.37l6.35,0,8.54-.06,4.84,0h20.76l8.54,0,4,0,4.56,0,8.53.06h.31l3,0,5.25-.08,8.24-.12h.29l2.26,0h.43l1.41,0,4.43-.07,1.27,0,2.78,0,1.62-1.72,2.33-2.47.6-.64,2-2.1,3.13-3.26,4.75-4.6,1.16-1.25,2.64-2.87,2.81-3.36.56-.61,5.13-5.55,4.22-4.64,1.36-1.49,5-5.6.42-.47,2-2.19,4.46-4.75,5.67-6,.27-.28,5.48-5.86,0,0,.22-.23,1-1.12.24-.39,3.32-3.72,1.64-1.75,1.84-1.92,2.23-2.33,5.74-6,5.72-6.38,0-.44,0-.33,0-.33-.08-.67,0-.66.07-.66.11-.67,0-.33,0-.34.16-.64.34-.59.17-.23.08-.11.15-.21.41-.44.05-.06.49-.47.26-.23.25-.23.49-.47.48-.49.24-.23.25-.24.51-.46.28-.2.28-.19.3-.18.3-.17.31-.14.32-.13.34-.09.34-.06.35,0,.34,0h.7l.35,0,.35,0,.35,0,.35.07.31.12.34.26.39.45.27.63.62.78.28.21.29.19.3.16.31.14.33.12.33.11.33.1.34.09.33.09.34.08.33.11.32.13.32.14.32.13.32.12.34.08.34.06.35,0,.35,0h.34l.35,0,.35,0,.34-.07.33-.09.32-.13.32-.12.34-.09.34-.09.35-.06.34,0,.34,0,.34.08.33.11.33.12.32.13.32.14.3.15.31.17.3.16.31.17.3.17.29.18.48.47.2.81.54.43.27.21.28.2.55.41.47.51.49.45.33.09.36,0,.35.07.45.48.32.07h.37l.35,0,.66.08.5.44.35,0h.36l.24.06.1,0,.32.12.32.14.3.16.31.16.3.17.31.16.3.15.32.15.32.12.34.08.34,0,.35,0h.36l.34,0,.34-.07.33-.1.34-.1.45-.13.16,0,.06,0,.33-.08.35-.05h.69l.34-.07.32-.13.32-.14.58-.36.35,0,.33-.07.59-.36.56-.09h0l.2-.28.12-.62-.17-.67,0-.64-.19-.57.22-.29,0-.65v-.67l0-.33,0-.34.45-.86.69-.76.48-.48.26-.22.28-.2.32-.12.35,0,.62-.23.22-.27.21-.28.31-.59,0-.67-.18-.64-.2-.49,0-.13-.13-.66.08-.66,0-.67,0-.66.06-.33.05-.33.12-.66.16-.65.2-.64.14-.4.17-.55.17-.65,0-.21.09-.45.23-.62.44-.52.34-.12.32-.13.26-.63.34-.53.33-.1.36-.08.54-.4.4-.54.35,0,.28-.19.47-.5.33,0,.33-.1.31-.15.55-.4.45-.51.31-.6.31-.6.35-.58.26-.23.13-.39.07-.23.25-.62.32-.59.17-.66-.15-.64-.25-.64v-.61l.27-.22.11-.65.39-.56.13-.33.12-.32.42-.47.34-.1.35-.1.49-.43.38-.57.31-.19.57-.35v-.66l.19-.63.3-.61.23-.63.43-.52.2-.61.33-.52v-.68l0-.39,0-.37.36-.17.65.06.39-.53.18-.38,0-.1-.31-.15-.31-.16-.31-.15-.31-.14-.32-.12-.33-.1-.34-.1-.32-.1-.33-.12-.33-.12-.32-.13-.32-.14-.29-.16-.28-.2-.26-.23-.24-.25-.19-.28-.13-.3-.08-.33-.06-.33-.05-.33,0-.34,0-.33,0-.33,0-.34,0-.33v-.33l0-.34,0-.33,0-.33V1289l0-.21v-.13l0-.33-.08-.32-.12-.32-.15-.3-.06-.1-.11-.19-.22-.27-.24-.24-.27-.21-.3-.16-.32-.14-.32-.12-.33-.12-.33-.1-.34,0-.34,0h-.36l-.34,0-.34.07-.32.12-.31.15-.3.18-.29.18-.28.2-.26.22-.26.22-.29.18-.3.16-.32.15-.31.14-.39-.19-.31-.15-.31-.15-.3-.15-.31-.15-.31-.15-.3-.15-.2-.1-.12,0-.31-.15-.3-.15-.31-.16-.31-.16-.3-.16-.3-.16-.3-.17-.28-.19-.27-.21-.26-.22-.25-.23-.27-.22-.28-.19-.3-.17-.3-.16-.31-.16-.3-.15-.3-.18-.29-.18-.28-.19-.29-.19-.27-.2-.28-.2-.27-.21-.24-.18,0,0-.27-.21-.28-.23-.25-.2-.25-.23-.25-.23-.24-.24-.25-.23-.26-.22-.27-.21-.28-.2-.27-.21-.25-.23-.18-.18-.05-.06-.23-.26-.22-.26-.21-.26-.21-.27-.2-.27-.2-.27-.19-.28-.2-.28-.19-.28-.19-.27-.19-.28-.17-.29-.14-.31-.11-.31-.08-.24,0-.08-.12-.32-.12-.31-.13-.32-.18-.27-.22-.26-.25-.24-.15-.16-.08-.08-.23-.26-.23-.25-.14-.17-.08-.09-.21-.26-.22-.26-.19-.28-.18-.28-.19-.28-.2-.28-.19-.28-.19-.27-.2-.28-.22-.25,0-.06-.18-.19-.23-.25-.23-.25-.21-.27-.19-.27-.06-.12-.11-.17-.16-.3-.15-.31-.15-.3-.15-.31-.14-.31-.12-.32-.07-.32,0-.31.12-.32.15-.32.13-.31.14-.32.11-.32,0-.32-.06-.32-.11-.32-.15-.32-.15-.3-.17-.29-.19-.28-.2-.27-.2-.27-.21-.27-.22-.26-.23-.25-.23-.24-.26-.23-.26-.21-.27-.21-.28-.2-.28-.19-.29-.18-.31-.17-.3-.16-.29-.17-.28-.2-.28-.2-.27-.2-.27-.21-.26-.22-.25-.23-.25-.24-.25-.24-.24-.26-.22-.32-.12-.25-.09-.31-.07-.32,0-.33,0-.34,0-.34v-.34l0-.34,0-.33v-1l0-.34.06-.32.07-.33.06-.33.07-.33.07-.33.06-.33.06-.33.06-.32.05-.34,0-.16,0-.17,0-.34v-.33l0-.32-.09-.33-.11-.32-.15-.31-.15-.29-.17-.3-.2-.27-.2-.27-.22-.26-.26-.22-.26-.22-.27-.22-.27-.2-.29-.2-.24-.23-.2-.27-.16-.29-.13-.31-.12-.32-.11-.32,0-.08,0-.25-.06-.33-.08-.32-.11-.32-.12-.31-.1-.32-.06-.33,0-.33,0-.34v-.33l0-.33V1238l0-.33,0-.33.09-.32.13-.32.18-.29.24-.22.3-.18.3-.18.26-.22.06-.05.2-.19.22-.26.12-.3,0-.33,0-.35-.09-.32-.14-.3-.16-.3-.19-.28-.18-.29-.19-.28-.19-.28-.2-.27-.19-.28-.15-.3-.12-.31-.12-.32-.11-.3h0l-.1-.32-.11-.32-.11-.32-.13-.31-.18-.28-.21-.26-.22-.26-.18-.29-.16-.29-.14-.31-.15-.3-.21-.36-.14-.22-.18-.28-.18-.29-.16-.29-.15-.3-.14-.31-.12-.31-.09-.32-.09-.33-.07-.34,0-.33,0-.32.11-.31.17-.3.17-.3.13-.31.07-.32,0-.34,0-.33v-.68l0-.33v-.67l0-.33,0-.33,0-.33-.07-.33-.07-.33-.09-.32-.08-.33-.1-.32-.12-.31-.1-.32-.1-.32-.08-.32-.08-.33-.07-.33-.07-.32-.06-.33-.06-.33,0-.33,0-.33,0-.34,0-.33,0-.33,0-.34,0-.33,0-.34v-.67l0-.33,0-.34.05-.34.08-.33.11-.31.15-.28.23-.24.28-.21.29-.2.27-.21.27-.21.28-.2.26-.21.24-.24.21-.26.21-.27.2-.28.17-.3.14-.3.11-.31.07-.32,0-.36,0-.31,0-.34.05-.33,0-.33,0-.33,0-.33,0-.33.05-.33,0-.34,0-.33,0-.33,0-.33,0-.33,0-.34,0-.33V1199l0-.32-.1-.32-.14-.31-.15-.31-.1-.32-.05-.32,0-.34v-.33l0-.34,0-.33,0-.33,0-.33,0-.33v-.34l0-.34,0-.34,0-.33-.1-.31-.16-.3-.18-.29-.19-.28-.22-.26-.23-.25-.21-.26-.14-.3-.12-.33-.08-.33,0-.34v-.32l.07-.33.17-.32.22-.26.26-.18.34-.11.36,0,.33,0,.33.1.32.14.31.15.29.17.29.18.3.16.31.16.32.17.31.14.32.1h.33l.36-.08.31-.18.18-.25.12-.31.06-.35,0-.35v-.33l0-.33h0l0-.32-.06-.33-.07-.33-.06-.33-.06-.33-.07-.33,0-.33,0-.33v-.34l0-.33,0-.33,0-.34,0-.33,0-.34,0-.33.06-.33.09-.32.09-.32.08-.33,0-.33,0-.34v-.34l0-.33,0-.32-.11-.31-.14-.31-.16-.3-.17-.3-.17-.29-.18-.29-.21-.27-.24-.23-.29-.17-.31-.16-.31-.14-.3-.15-.31-.15-.31-.15-.3-.15-.31-.16-.29-.17-.29-.17-.29-.19-.26-.22-.24-.23-.22-.26-.21-.28-.17-.29-.1-.31-.06-.38,0-.3,0-.32.08-.33.12-.33.16-.29.23-.24.28-.19.29-.2.24-.23.23-.25.22-.26.23-.24.25-.23.24-.24.23-.24.21-.27.19-.27.21-.27.21-.26.22-.26.22-.26.22-.26.21-.25.23-.26.22-.25.21-.26.2-.27.2-.28.18-.28.18-.29.17-.28.18-.29h0l.18-.27.2-.27.19-.28.18-.29.16-.29.11-.31.08-.33,0-.34v-.33l0-.33,0-.34,0-.33,0-.33-.05-.33,0-.34-.06-.33-.08-.32-.11-.32-.15-.29-.18-.28h0l-.19-.28-.2-.27-.2-.27-.21-.26-.21-.27-.2-.27-.17-.29-.15-.3-.15-.3-.18-.29-.22-.25-.29-.2-.26-.21-.21-.26-.16-.29-.57.07-.61.08-.6.07-.44-.05-.29-.19-.16-.28.12-.52.07-.29.07-.29.07-.28.08-.29.09-.28.07-.28.07-.29.07-.29,0-.28,0-.3,0-.29,0-.29,0-.14,0-.15.09-.28.1-.27.1-.28.07-.29.07-.3.08-.28.13-.26.18-.22.22-.21.22-.19.24-.2.31-.27.26-.24.22-.2.22-.19.24-.18.25-.16.26-.14.27-.14.25-.16.24-.18.23-.19.21-.22.17-.23.15-.26.12-.28.1-.28.07-.29V1144l0-.3-.08-.29-.1-.28-.12-.27-.13-.26-.14-.27-.13-.26-.12-.27-.1-.28-.06-.29,0-.29v-.29l0-.3,0-.29.07-.29.09-.28.1-.27.12-.27.13-.27.13-.27.12-.26.12-.28.12-.27.12-.28.12-.27.1-.28.07-.28v-.28l0-.3-.1-.29-.11-.27-.18-.24-.19-.25-.14-.25-.05-.28,0-.29v-.29l0-.3,0-.3,0-.3,0-.29,0-.29v0l0-.25.07-.29.08-.28.08-.29.08-.28.05-.29,0-.29,0-.3v-.29l0-.3,0-.29-.05-.29-.07-.28-.09-.29-.09-.28-.09-.28-.08-.28-.1-.29-.1-.28-.09-.28-.05-.29v-.28l0-.3.06-.29.07-.29.1-.28.1-.28.12-.27.12-.29.07-.13.08-.14.17-.23.19-.21.27-.1.31,0h.61l.3,0,.3,0,.29.06.3.07.29.08.29.06.29,0h.3l.31,0,.29,0,.29-.08.28-.09.28-.13.26-.16.23-.17.22-.2.21-.22.19-.22.19-.23.19-.23.18-.24.16-.25.17-.24.19-.23.2-.22.21-.22.22-.21.23-.18.25-.14.28-.08.31-.06.3,0,.3,0,.3,0h.6l.3,0,.29,0,.3.07.28.07.29.08.29.09.28.1.26.15.25.19.25.15.29,0h0l.26,0h.61l.3,0,.3,0,.3,0,.29-.06.29-.06.3-.07.29-.07.29-.08.29-.07.29-.06.3-.06.29-.06.29-.07.29-.07.29-.09.28-.1,0,0,.23-.08.28-.11.28-.09.32-.12.24-.1.27-.12.28-.12.27-.12.27-.13.27-.13.26-.14.26-.15.25-.17.24-.17.24-.17.24-.18.23-.19.22-.2.22-.2.2-.22.2-.22.18-.23.16-.25.16-.25.19-.23.2-.21.22-.21.21-.21.2-.22.2-.21.21-.22.2-.21.2-.22.2-.22.22-.21.24-.17.25-.15.09,0,.18-.09.27-.14.27-.13.26-.14.27-.14.26-.14.26-.13.27-.14.26-.14.26-.14.27-.14.27-.14.25-.15.25-.16.26-.16.25-.17.24-.18.23-.19.2-.2.18-.24.17-.26.22-.54v-.29l-.06-.3-.06-.29,0-.3,0-.29-.11-.26-.17-.25-.19-.23-.17-.25-.11-.26-.08-.28-.07-.3,0-.29,0-.3v-.59l0-.3.05-.3.09-.27.14-.24.21-.22.23-.21.23-.19.24-.18.25-.16.25-.16.26-.15.16-.09.36-.2.27-.13.27-.12.27-.12.29-.1.28-.1.29-.06.29,0h.91l.3,0,.29,0,.3,0,.3,0,.3,0,.29-.06.29-.06.29-.07.29-.1.27-.11.27-.13.26-.15.25-.16.24-.18.23-.19.22-.2.21-.21.2-.23.18-.24.14-.26.08-.27v-.29l0-.31v-.3l.07-.28.1-.27.14-.27.14-.26.15-.26.18-.23.19-.23.18-.24.16-.24.16-.25.17-.25.18-.23.21-.21.23-.2.23-.18.22-.19.21-.22.19-.23.17-.25.18-.24.18-.23.21-.19.28-.11.3-.06.29-.09.28-.1.28-.09.29-.08.3-.05.29,0,.3,0,.3,0,.12,0,.17,0,.29-.09.28-.1.28-.12.25-.16.2-.2.19-.23.18-.25.16-.25.14-.26.11-.27,0-.13,0-.16.07-.28.1-.28.14-.26.15-.25.16-.25.16-.25.15-.26.12-.27.11-.27.1-.27.1-.28.09-.29.09-.28.08-.28.07-.29.07-.28.08-.28.11-.28.12-.26.14-.26.15-.26.13-.27.12-.27.12-.27.12-.27,0-.07,0-.05.17-.43.1-.27.1-.28.1-.32.08-.24.08-.28.09-.28.08-.29.07-.28.08-.29.06-.29.06-.28,0-.3.05-.29,0-.29,0-.29v-.29l0-.29-.07-.29-.08-.29-.09-.28-.11-.27-.12-.27-.1-.28-.07-.29,0-.29,0-.31,0-.28.08-.27.14-.26.17-.26.18-.24.18-.24.19-.23.22-.19.27-.11.3-.06.28-.09.27-.14.26-.14.27-.13.28-.07.1,0,.2,0,.3,0,.3,0,.28-.06.28-.11.27-.14.25-.16.23-.19.22-.2.24-.17.27-.13.28-.1.28-.11.26-.14.24-.17.22-.2.26-.26.15-.17.19-.23.17-.24.17-.24.16-.25.16-.25.14-.26.14-.26.12-.27.12-.27.11-.27.1-.28.08-.29.07-.28,0-.29,0-.29,0-.3v-1.18l0-.3,0-.31v-.29l0-.27.13-.24.2-.22.24-.21.21-.22.17-.24.17-.25.15-.25.13-.27.1-.27.08-.28.06-.29,0-.29.07-.29.07-.29.1-.27v0l.1-.25.11-.27.09-.28.08-.28.08-.29.08-.28.1-.28.11-.27.12-.27.12-.27.12-.27.13-.26.13-.28.12-.27.13-.27.13-.27.14-.25.16-.24.18-.23.13-.12.09-.08.24-.18.26-.15.27-.14.26-.14.28-.1.29-.08.29-.08.28-.1.29-.08.29-.09.28-.11.24-.15.21-.2.18-.23.17-.25.17-.25.17-.25.19-.22.2-.22.2-.22.21-.21.2-.22.2-.22.2-.24.19-.23.18-.23.19-.23.18-.23.17-.24.17-.24.17-.24.17-.25.17-.24.17-.25.16-.24.16-.25.16-.25.15-.26.14-.25.11-.27.06-.29,0-.3.07-.28.14-.26.18-.24.19-.23.18-.23.18-.24.18-.23.17-.25.15-.25.15-.25.13-.27.13-.26.13-.27.13-.26.14-.26.14-.26.16-.25.16-.25.16-.24.15-.26.17-.24.18-.23.18-.23.2-.23.21-.21.23-.17.26-.16.24-.18.21-.2.2-.22.19-.23.17-.24.14-.26.13-.26.14-.26.16-.25.16-.25.19-.27.13-.19,0,0,.17-.25.15-.25.14-.26.15-.25.16-.25.18-.23.21-.21.23-.2.19-.22.15-.25.13-.26.12-.28.11-.27.09-.28.08-.29.09-.28.09-.28.11-.28.14-.25.19-.22.21-.21.23-.2.21-.21.19-.22.2-.22.18-.23.17-.25.14-.26.13-.26.11-.27.12-.28.11-.27.1-.28.09-.28.08-.28.06-.29,0-.11,0-.18,0-.29,0-.29v-.59l0-.3,0-.29,0-.3.05-.29.08-.28.1-.29.11-.28.13-.28.15-.24.18-.21.26-.13.31-.07.38,0,.22,0,.29.07.3,0,.29,0,.29-.06.29-.08.29-.1.27-.12.25-.14.25-.18.23-.18.23-.19.22-.2.22-.2.22-.21.19-.22.17-.23.16-.26.13-.27.09-.29,0-.28,0-.28-.1-.28-.12-.29-.07-.28,0-.3v-.3l0-.29,0-.3.07-.28.11-.26.16-.25.18-.24.16-.26.14-.26.11-.27.11-.28.11-.27.14-.26.16-.24.17-.24.19-.23.18-.23.18-.24.18-.24.15-.2,0,0,.18-.23.17-.25.15-.24.14-.27.13-.26.14-.27.15-.25.18-.22.44-.41.22-.19.22-.2.2-.22.18-.23.19-.24,0,0,.17-.2.16-.24.16-.25.15-.26.12-.26.1-.27.06-.28,0-.3v-.3l0-.3,0-.12,0-.18-.07-.28-.1-.28-.13-.27-.17-.25-.2-.21-.23-.18-.24-.17-.26-.15-.25-.17-.24-.17-.24-.18-.23-.18-.24-.19-.24-.18-.22-.19-.21-.21-.19-.21-.17-.24-.15-.26-.12-.27-.11-.27-.12-.28-.11-.27-.13-.28-.11-.27-.09-.28,0-.29v-.29l0-.29.07-.29.08-.29.08-.28.09-.28.09-.29.11-.27.12-.27.14-.25.35-.48.17-.24.15-.25.13-.27.13-.26.12-.27.12-.28.12-.26.15-.26.15-.26.12-.26.06-.29,0-.29v-.89l0-.29V992l0-.29,0-.29,0-.3,0-.29,0-.29,0-.3,0-.29,0-.29,0-.29,0-.3,0-.29,0-.29,0-.29,0-.3,0-.29-.06-.29-.09-.27-.11-.28-.1-.28-.1-.27-.08-.29-.08-.28-.08-.28-.07-.29-.07-.29,0-.29-.05-.29,0-.29,0-.29-.06-.29-.06-.28-.07-.29-.09-.28-.1-.28-.11-.27-.12-.27-.1-.28-.11-.27-.11-.28-.09-.28,0-.28,0-.29,0-.3,0-.29,0-.3,0-.3v-.31l-.06-.28-.15-.22-.25-.17-.28-.15-.25-.15-.26-.14-.26-.14-.24-.17-.22-.19-.21-.22-.2-.22-.19-.22-.19-.23-.21-.22-.19-.24-.14-.24-.08-.28,0-.34,0-.25,0-.3,0-.3,0-.29.07-.29.09-.28.13-.26.18-.23.2-.23.22-.2.23-.18.25-.15.26-.15.24-.17.24-.18.22-.19.22-.2.2-.22.19-.22.18-.23.19-.23.19-.23.2-.22.21-.22.19-.22.18-.23.15-.25.1-.27.06-.29,0-.3.06-.29.08-.28.08-.28.07-.29.06-.29.07-.3.06-.3,0-.3,0-.27-.13-.25-.19-.23-.22-.21-.22-.21-.23-.19-.25-.16-.24-.18-.19-.21-.17-.25-.17-.24-.17-.24-.21-.29-.14-.19-.18-.23-.19-.23-.2-.22-.14-.25-.08-.29,0-.3,0-.29.1-.28.13-.27.17-.24.19-.22.21-.21.23-.19.23-.19.23-.18.24-.17.24-.17.25-.17.23-.18.23-.19.22-.2.21-.2.22-.2.22-.19.23-.19.24-.17.26-.14.27-.12.27-.12.26-.15.25-.16.25-.16.25-.18.22-.19.2-.2.16-.24.12-.26.09-.29.07-.3.07-.29.06-.29.06-.29,0-.29,0-.3v-.29l0-.28-.1-.28-.12-.27-.11-.28-.07-.28,0-.3v-.29l0-.3,0-.58,0-.3,0-.29,0-.29,0-.3v-.59l0-.29,0-.29.07-.29.06-.28.06-.29.06-.29,0-.3.07-.28.09-.28.15-.25.19-.23.16-.25.14-.25.14-.26.14-.26.14-.26.15-.25.16-.25.15-.26.14-.25.14-.27.12-.26.12-.27.11-.27.11-.28.12-.27.11-.28.09-.27,0-.29v-.3l0-.29,0-.3,0-.29,0-.29-.06-.29-.08-.28-.1-.28-.1-.27-.1-.28-.07-.29-.06-.3v-.29l.06-.28.13-.27.14-.26.05-.14.06-.14.11-.29.12-.26.17-.22.25-.15.19-.06.11,0,.29,0,.3,0,.28-.06.29-.11.25-.15.2-.21.2-.23.17-.24.14-.26.1-.27,0-.3V931l0-.29,0-.3-.06-.28-.06-.29-.07-.28-.76-.11-.66-.11-.54-.12-.22-.23-.09-.28-.1-.54-.06-.29-.1-.28-.11-.28,0-.3v-.6l0-.3-.08-.28-.15-.27-.13-.27-.11-.28-.1-.28-.07-.29-.06-.3,0-.29-.05-.3-.09-.28-.1-.29-.09-.29-.07-.28-.08-.29-.09-.29-.09-.29-.08-.28-.06-.3,0-.29-.07-.3-.08-.28-.1-.29-.07-.29-.06-.29,0-.3,0-.3,0-.3-.07-.29-.09-.29-.1-.28-.11-.28-.12-.28-.08-.28-.08-.29-.1-.29-.13-.27-.16-.26-.18-.24-.21-.2-.26-.16-.26-.16-.25-.15-.26-.16-.23-.19-.22-.2-.24-.18-.25-.16-.26-.16-.26-.15-.25-.17-.24-.17-.25-.17-.24-.17-.25-.18-.25-.18-.21-.21-.14-.25-.12-.28-.11-.28-.09-.29-.1-.28-.09-.29-.07-.29-.06-.3v-.3l0-.3,0-.29.08-.29.13-.27.17-.28.14-.23.18-.25.19-.23.2-.22.21-.22.21-.21.22-.21.21-.21.21-.22.21-.21.22-.21.22-.2.25-.17.25-.16.22-.2.21-.21.2-.23.19-.23.2-.22.2-.23.19-.23.18-.24.16-.25.16-.25.15-.26.15-.27.16-.31.12-.23.13-.28.09-.28v-.28l-.12-.29-.13-.27-.16-.25-.15-.27-.12-.27-.12-.28-.09-.28-.06-.3,0-.3,0-.29-.07-.3-.08-.28-.11-.28-.1-.29-.1-.28-.1-.28-.1-.29-.09-.29-.06-.29,0-.29v-.31l0-.3.06-.36.06-.22.13-.27.15-.27.15-.26.16-.25.16-.26.18-.24.19-.23.21-.21.22-.2.22-.21.21-.21.19-.23.18-.24.18-.25.16-.25.16-.26.14-.26.12-.28.08-.29,0-.3,0-.3,0-.3-.07-.29-.09-.29-.07-.29-.09-.59,0-.3,0-.29,0-.3,0-.3,0-.3,0-.2,0-.09-.06-.29-.09-.29-.13-.27-.14-.27-.12-.28-.09-.28,0-.3v-.3l0-.3.07-.29.13-.27.14-.27.17-.25.16-.25.11-.28.08-.29.06-.3,0-.29V880l-.08-.6,0-.3,0-.29-.06-.3,0-.3,0-.3v-1.19l0-.3v-2.1l0-.3v-.6l0-.3,0-.3,0-.3,0-.29,0-.3,0-.3,0-.3.07-.29.09-.29.09-.28.06-.3,0-.29,0-.3,0-.3,0-.3,0-.3,0-.29.09-.34.06-.24.09-.29.07-.29.07-.3.08-.29,0-.3,0-.29,0-.29-.09-.29-.12-.29-.12-.27-.15-.26-.14-.26-.13-.27-.12-.28-.1-.28-.09-.29-.09-.28-.1-.29-.08-.3,0-.29,0-.29.1-.29.11-.28.1-.29.11-.28.11-.27.11-.28.11-.28.12-.28.11-.28.1-.28.1-.28.12-.28.12-.28.13-.28.14-.26.18-.23.22-.19.26-.13.29-.11.28-.12.27-.14.26-.15.25-.15.26-.16.25-.15.25-.16.26-.17.24-.16.25-.17.25-.18.24-.17.24-.17.24-.18.23-.19.22-.21.2-.21.2-.23.19-.23.19-.24.17-.24.17-.24.17-.26.15-.25.15-.26.14-.27.13-.27.12-.27,0,0,.1-.23.11-.28.12-.27.11-.28.13-.27.13-.27.12-.28.1-.28.1-.28.1-.29.08-.28.08-.29.07-.29,0-.3,0-.3,0-.3,0-.29,0-.3,0-.3,0-.3v-.3l0-.3,0-.3,0-.3,0-.3,0-.29.06-.29.1-.29.12-.27.13-.27.13-.28.13-.27.15-.25.19-.24.22-.2.26-.16.27-.11.29-.09.29-.06.3-.05h.43l.16,0h.6l.29,0h.6l.3,0,.3,0h.59l.3,0,.29,0,.29-.07.29-.08.27-.12.27-.12.29-.08h.3l.3,0,.29-.07.28-.08.29-.09.29-.08.29-.07.27-.13.22-.19.19-.23.2-.24.2-.21.22-.21.22-.2.22-.21.21-.21.21-.21.2-.23.16-.25.14-.26.12-.28.11-.28.1-.28,0-.29v-.61l0-.3.09-.28.16-.25.17-.25.13-.27.14-.27.16-.25.17-.25.17-.24.18-.24.18-.24v0l.19-.2.23-.19.23-.19.24-.17.22-.21.2-.23.17-.24.13-.27,0,0,.1-.24.09-.28.07-.29,0-.3,0-.3,0-.29,0-.3,0-.3,0-.3.08-.29.12-.28.19-.23.21-.2.24-.19.24-.17.27-.15.28-.1.29-.06.3,0,.29,0,.3,0h.6l.29,0h.6l.29,0,.3,0h.3l.3,0,.29,0,.29-.05.3-.06.54-.11.29,0,.3-.05.29-.07.28-.08.19-.08.09,0,.25-.17.24-.17.26-.15.55-.22.27-.14.22-.14,0,0,.24-.17.22-.2.22-.21.21-.21.2-.23.06-.09.12-.15.16-.25.15-.25.13-.28.1-.28.1-.28.12-.28.13-.27.08-.28.07-.3,0-.29.06-.3.07-.29.09-.28.12-.28.09-.28.1-.29.09-.28.08-.29.08-.29.07-.29.07-.29,0-.3,0-.3,0-.29,0-.3.08-.29.08-.29.06-.29v-1.5l0-.3,0-.3,0-.29,0-.3,0-.3,0-.3,0-.3v-.3l0-.3,0-.3,0-.29,0-.3,0-.3,0-.3,0-.29.07-.29.08-.29.08-.29.07-.29.06-.3.06-.29.07-.29.08-.29.09-.29.08-.29.09-.28.09-.29.09-.28.09-.29.09-.29.09-.28.1-.29.09-.28.1-.28.09-.29.1-.28.08-.29.08-.29.08-.29.09-.28.08-.29.06-.3.05-.29,0-.3,0-.3,0-.3,0-.29v-1.21l0-.29,0-.3-.06-.29,0-.3-.08-.29-.08-.29,0-.29.08-.29.09-.29.07-.3.06-.29.08-.29.09-.28.06-.3,0-.29,0-.3,0-.3,0-.3v-.3l-.06-.29-.08-.3,0-.29,0-.3-.07-.29,0-.3v-.3l0-.3.08-.28.16-.22,0,0,.18-.24.21-.22.22-.2.24-.16.28-.11.25-.16.23-.2.21-.21.17-.24.17-.25.16-.25.16-.25.16-.26.15-.25.15-.26.12-.28.11-.28.09-.28.09-.29.09-.29.07-.29.06-.29,0-.3V785l0-.3.14-.25.2-.23.19-.23.19-.24.18-.23.2-.23.2-.22.23-.18.23-.15.07-.28.05-.29,0-.3,0-.31,0-.3.06-.29.05-.3,0-.29,0-.3,0-.3.1-.28.15-.26.21-.21.22-.21,0,0,.15-.2.17-.24.22-.2.28-.12.16-.23.11-.28.08-.3.09-.29.07-.29,0-.29V776l-.09-.28-.19-.24-.21-.2-.23-.19-.23-.19-.23-.19-.27-.14-.24-.18-.23-.2-.24-.16-.27-.14-.19-.21-.17-.25-.14-.27-.12-.27-.06-.3,0-.3,0-.3v-.3l0-.3.06-.29.07-.29.09-.29.12-.27.13-.27.15-.26.16-.26.13-.27.09-.28.08-.29.08-.29.07-.29.07-.3.06-.29.06-.29.07-.33.06-.26.07-.29.08-.29.1-.28.1-.28.11-.28.09-.29.09-.28.11-.28.1-.28.11-.28.11-.28.13-.27.14-.26.15-.26.14-.27.15-.26.14-.26.15-.26.18-.24.16-.25.13-.27.13-.27.13-.27.15-.26.16-.25.17-.33.09-.21.07-.29.06-.29.06-.3,0-.3,0-.29-.09-.29-.12-.27-.17-.26-.16-.25-.15-.25-.15-.27-.13-.26-.14-.27-.16-.25-.2-.22-.12-.27-.08-.29-.07-.29-.09-.29-.14-.27-.14-.26-.1-.28-.07-.3,0-.29,0-.3.06-.6.07-.29.18-.24.18-.25.15-.25,0-.29v-.3l0-.31V749l0-.19v-.11l-.06-.29-.06-.3-.06-.29,0-.3,0-.3-.06-.29-.07-.29-.06-.3L1420,746l-.08-.29-.08-.29-.14-.26-.16-.25-.18-.24-.39-.45-.2-.23-.16-.25-.12-.27-.16-.26-.13-.26-.1-.29-.05-.29,0-.3v-.3l0-.3.05-.3.06-.29,0-.3V740l0-.3v-.3l0-.3,0-.3.06-.29.06-.29.06-.3,0-.29,0-.3,0-.3v-1.8l0-.3,0-.3,0-.29-.06-.3-.06-.29-.06-.3-.06-.29-.06-.29,0-.3,0-.3,0-.3-.09-.28-.07-.3,0-.29,0-.3,0-.3,0-.3.06-.29,0-.3,0-.3,0-.3,0-.3,0-.29,0-.3,0-.29.06-.3.1-.28.12-.27.11-.28.09-.29,0-.3.12-.27.18-.24.19-.22.2-.23.19-.23.19-.23.22-.2.26-.15.25-.16.22-.19.19-.24.16-.25.11-.28,0-.29,0-.3v-.9l0-.3,0-.3v-.3l0-.3v-.6l0-.29.1-.28.14-.27.19-.22.11-.28.15-.25.21-.22.22-.2.24-.18.26-.11.29-.08.3,0,.29,0h.59l.29,0,.29,0,.29.06.29.06.29.08.27.12.27.14.27.07h.3l.29,0,.29-.07.28-.1.27-.12.27-.12.26-.14.27-.14.27-.09.29-.06.29,0,.3,0,.29,0h.59l.3,0,.29,0,.28.09.29.07.29,0,.29,0,.3-.06.27-.09.27-.12.27-.13.26-.14.27-.12.28-.1.28-.1.26-.14.23-.19.21-.21.21-.21.22-.21.21-.2.21-.22.2-.22.19-.23.18-.23.17-.25.17-.25.14-.25.13-.28.12-.27.14-.26.16-.26.17-.24.16-.25.15-.26.14-.27.11-.27.08-.29.1-.29.12-.27.13-.27.12-.27.11-.28.1-.28.09-.29.06-.3.06-.29.14-.26.16-.25.56-.58-.25-.58-.14-.27-.13-.27L1440,706l-.1-.29-.06-.29,0-.3,0-.3-.1-.28-.18-.24-.23-.19-.25-.15-.27-.13-.26-.19-.48.06-6.33-.06h-33.57l-8,0h-23.91l-8,0-8,0h-2l-4.78,0h-1.17l-8,0h-8l-6.21,0h-.21l-1.56,0-8,.07-2.62,0-5.36.05-8,.06-2.62,0h-5.36l-8,0-8,0-4.65,0h-67.17l-8,0-1.77,0-6.38-.11-7.86,0h-.12l-8,.12-5.16-.5-.42,3.11-1.18,8.33-1.16,8-1.17,8h0l-.85,5.91-.31,2.13-.91,6.4-.23,1.64-.15,1-1,7-1.15,8.05-1.15,8-1.15,8-1.15,8.05-.84,5.84-.31,2.21-.48,3.35-.53,3.55L1147,803l-.11.72-1.09,7.32-1.2,8-1.2,8-1.21,8-1.08,7.24-.12.79-1.16,8-1.16,8.05-.35,2.41-.76,5.25-.06.39-1.16,8.05-1.77,12.21-.77,5.3-.63,4.31-.31,2.31-1.09,8.06-1,7.09-.13,1-1.1,8-.77,5.09-.42,3-.71,5-.51,3.64,0,.18-.23,1.69-.33,2.54-1.07,8.06-.12.89-1,7.17-1.12,8-.23,1.67-1,6.37-.91,5.4-.16,1,.68.84,2.65,3.3,2.65,2.89,1.93,2.1,2.32,2.61,1.79.26,2.66.38-.43,5.44,8.09,1.32.59.09,1.44.24,4.63,1.41-.26,1.26-1.67,6.65-.18.86-.1.48-.06.29-.89,4.23-1,3.66-2,7-.24.84-2.23,7.83-.47,1.66-1.76,6.16L1138,1049l-1.17,4.06-2.15,7.92-2.08,7.19-.17.63-2,7.13-.19.7-1.53,5.42-.68,2.42-.58,2.06-.52,1.8-1,3.27-.2.68-2.28,7.82-.47,1.63-1,3.22-.93,2.92-.72,2.25Z"/>

</g></g></g></svg>
