<svg xmlns="http://www.w3.org/2000/svg" viewBox="0 0 1948.2 3756.13">
<defs>
    <style>.cls-1,.cls-2,.cls-3,.cls-4{fill:#ccc;stroke:#646464;stroke-width:2.13px;}.cls-1,.cls-2,.cls-3{stroke-linecap:square;}.cls-1,.cls-2{stroke-linejoin:bevel;}.cls-1,.cls-3,.cls-4{fill-rule:evenodd;}.cls-3,.cls-4{stroke-linejoin:round;}
    </style>    
</defs>
<title>Recurso 2arg</title>
<g id="Capa_2" data-name="Capa 2"><g id="svg2"><g id="layer1">
<path id="path3952" class="cls-4" d="M580.52,3115.26v-.9l.59-.46v-1.81l.59-.45v-2.26h.6v-.91h.59v-1.36h.6v-.9l.59-.46v-.9l.59-.46V3103l.6-.46v-.45l.59-.45v-.91l.59-.45v-.45l.6-.46v-.9l.59-.45v-1.81h-.59V3094h-.6v-.9h-.59l-.59.45v-.45h-.6v.45H582.3l-.6-.45v2.26h-.59v2.26l.59.46v.45l-.59.45v.45h-1.78v.46h-.59v.45l.59.45v5h-.59v.46h-.6v.45l-.59.45v.45H577v.46h-.6v.45H574v.45l-.6-.45h-.59V3108h-.59v.45l-.6.45h-1.78l-.59.46h-.6l-.59.45h-1.19l-.59.45v-.45h-.6v-.45h-.59V3108h.59v-.46h.6v-.45h1.19l.59.45v.46l.59-.46h1.19v.46l.59-.46h-.59v-.45l-.59-.45v-.45h-.6v-.46h-.59l.59-.45v-1.36h-.59v-1.81h.59v-.9h1.19v-.46h1.78l.6-.45h1.18l.6-.45.59.45v.45h.59l.6.46h.59v-.46h.6v-.9l-.6-.46V3099h-.59v-.45l-.6-.45v-.46h-.59v-1.35H574v-.46h1.18v-.9h3.57v-.46h.59v-.9h.59v-.45h0v-.46h1.19v-2.26l-.59-.45v-.46l.59-.45v-1.36h1.19l.59-.45h1.19l.59-.45h.6v-.46l.59-.45.59-.45v-.45h.6v-1.36h-.6v-.91l.6-.45h-1.19v-.45h-.59l-.6.45h-.59v-2.72h-.59V3079l.59-.45v-.91h.59v-1.36h.6l.59-.45h.59v-.9h.6v-.91l.59-.45v-.46l.6-.45.59-.45v-.45l.59-.46v-.45l.6-.45v-.91l.59-.45h.59v-.91h.6v-.45l.59-.45h.6l.59-.45h.59v-.46l.6-.45h.59v-.45H596l.6-.91.59-.45h.59v-.45h.6l.59-.46.6-.45v-.45h.59v-.45l.59-.46v-.45l.6-.45V3060h.59v-.45h.59v-.9h.6v-.46h.59v-.45h.6v-.45h.59v-1.81h.59V3055l.6-.45.59-.45v-.91h.59v-.45h.6v-.45H609v-.45h.59v-.46h.59V3051h.6v-.45l.59-.46v-.45H612v-.45h.6v-.45h.59v-.46h.59v-.45h.6l.59-.45h1.78v-.45h3.57v-.46h3V3046h1.19l.6-.45.59-.46v-.45h.59v-4.53l.6-.45.59-.45v-1.36l.59-.45v-.46h.6l.59-.45.59-.45v-.45h.6v-.46l.59-.45.6-.45v-.45h.59v-.46l.59-.45.6-.45V3032H634v-1.35l.59-.46v-.45l.6-.45v-.46l.59-.45v-.9h.6V3027l.59-.45v-.45h.59v-.45h.6v-.46h.59l.59-.45.6-.45h.59v-.46h.6v-.9h.59V3022h1.78l.59-.45.6-.45h.59v-.45h.59v-.46h.6l.59-.45h.6l.59-.45h.59l.6-.46h1.18l.6-.45h1.19v-.45h1.18l.6-.45h1.78v.45h.59l.6-.45h3v-.91h.6v-2.26h.59v-.91h.59v-.45h.6v-.45l.59-.46v-.9h.6v-.91h.59v-.45h.59l.6-.45H666v-.46l.59-.45V3008l.6-.45.59-.46.6-.45.59-.45h.59v-.46h.6v-.45h.59l.59-.45v-.45l.6-.46.59-.45h.6V3003h1.78v-1.36h1.18v-.45h.6l.59-.46h3v-.45h3v-.45h.59l.6-.45h1.18v-.46h5.94v-.45h.59l.6-.45h.59v-.46h3.56v-.9h1.19v-3.17h-.59l.59-.45v-.91h.59v-.45l.6-.45h1.19l.59-.46H707v.46h1.78v.45h1.18l.6-.45h.59v-.91h-.59v-.45l-.6-.45v-.91h-.59v-.91l-.59-.45v-.9h.59v-1.36l.59-.46h.6v-1.35l.59-.46v-.45h.6v-.45h1.18v-.45h.6l.59-.46.59-.45v-.45h.6v-.46h1.78v-.9h1.78v-1.36l.59-.45h.6v-.45l.59-.46v-.45l.6-.45h.59v-.46l.59.46v-.46h1.19l.59-.45h3v-.45h1.19v-.45h1.19v-.46l-.6-.45h-.59v-1.81h.59v-.45h.6v-.46h.59v-.9h.59v-.45h-.59v-.91h1.78v-.45l-.59-.46.59-.45v-.45h.6V2965h1.78v-.46h.59V2964h1.19v-.45h.59v.45h1.19l.59.45.6-.45h-.6v-.9h1.78v.45h.6v.45H742v-.45l.6-.45h1.19l.59.45H745v-.45h.6v-.46h1.18l.6.46h.59l.6.45V2965h1.18V2964l.6.45h1.78v-.9h.59v-.45h-.59v-.46h.59v-1.36h-.59v-.45h-1.19v-.45h-1.19V2960h-.59v-.46h-.59v-.45h-.6v-.9h-.59v-.46h-1.19v-.9h.59l.6-.46h.59v-.45h.6v-.45h.59V2955h.59v-.46h-.59v.46h-.59v-.91h-.6v-.45h2.38v-.46h-.6v-.9h.6v-.45l-.6-.46v-.9h-.59V2950h-.59v-.46h-.6v-.9l.6-.46v-.9l.59-.45v-.46h.59v-.9h.6l.59-.45.59-.46h2.38l.59.46v-.46h.6l.59.46h.59l.6.45.59-.45v.45H758l.6-.45h.59v.45l-.59.45v1.36l.59-.45H761l.6.45h.59l-.59-.45v-.46h3v-.45h1.18v-.45H764V2945h-.59v-.46H764v-.45h-.59v-.91h1.19l.59-.45h.59v-.45h0v-.45h0v-.46H764V2941h-.59l-.6-.45-.59.45h-2.37v-1.36l-.6.45h-.59v-1.35H758v-1.36h-.59v-.45l-.59-.46.59-.45v-.45h-.59v-2.27h.59v-.45l-.59-.45v-.45l-.6-.46v-1.36l-.59-.45v-.9l-.59-.46v-1.81l-.6-.45h-.59v-.45h-.6v-.46h.6v-.45h1.78v-.45H758v-.45h.6v-.46h.59V2921h.6v-1.36h.59v-.9l.59-.46V2917h.6v-.9h.59v-.91l.59-.45v-.9l.6-.46v-.9H764v-2.27l.6-.45v-1.36l.59-.45v-.45h.59v-.91h.6v-1.36h.59v-1.81h.59v-.9l.6-.46v-.45l-.6-.45.6-.45v-1.36h.59v-.91h.59V2893h.6v-3.62h.59v-5l.6-.46v-5.43h.59l-.59-.45.59-.46h-.59v-.9l-.6-.45v-.91l-.59-.45v-2.27h-.6v-.9h-.59v-1.36l-.59-.45v-1.36h-.6v-.91l-.59-.45v-.9l-.59-.46.59-.45v-.45h.59V2864h.6l.59.45.59-.45h-.59v-.45h.59v-.45h-1.18l-.6-.46h-1.18v-.45h-.6v-.45h-.59v-.45h-.59v-.46H764v-.45h-.59l-.6-.45v-.46l-.59-.45v-.45l-.59-.45H761v-.46h-.59l-.59-.45h-.6v-.45h-.59v-.91H758v-2.26h-1.18v-.45h-.6v-.46l-.59-.45h-2.38l-.59-.45h-.59v-.45h-1.19l-.59-.46h-.6v-.45h-.59V2850h-1.78l-.6-.46h-.59l-.59-.45-.6.45-.59.46h-6.53v.45h-1.19l-.59.45h-.6l-.59.46h-4.16l-.59-.46h-1.78l-.59.46h-.6l-.59.45h-1.78l-.6-.45H720l-.6-.46h-1.78v-.45h-4.75l-.59-.45h-3.56l-.6-.46H707l-.6-.45H704.6v-.45h-1.78l-.59-.45h-2.38l-.59-.46h-1.19v-.45h-6.53v.45H688l-.6-.45H685.6v-.45H685v.45h-1.78v.45h-1.78l-.6-.45-.59-.45v-.46h-1.19v-.45h-.59v-.45h-.6l-.59.45H676.1v.45h-1.78v-.45h-1.18v-.45H672l-.6-.45h-.59v-.46h-1.19l-.59-.45h-.59v-.45h-.6l-.59-.45v-.46h-.6v-.45l-.59-.45v-.46l-.59-.45v-.9h-.6v-.91h-.59l-.59-.45-.6-.45-.59-.46-.6-.45h-.59v-.45l-.59-.46v-.45h-.6v-.9h-.59v-.91h-1.19v-.45h-.59v-.46h-.59v-.9h-.6v-.91h-.59v-.9h-.6l-.59-.45v-.46l-.59-.45h-.6v-.45l-.59-.46-.59-.45h-.6v-.45h-.59V2826h-.6v-.45H650v-.45h-1.19v-.46h-.59v-.45h-.59v-.91H647l-.59-.45v-.45l-.6-.45h-.59l-.59-.46H644V2821h-1.18v-.45h-.6l-.59-.45v-.46h-.59v-.45h-.6v-.91h-.59v-1.35h-.6v-.46h-.59v-.9h-.59v-.46l-.6-.45v-1.36h-1.18v-.9h-.6l-.59-.45v-.46h-.6v-1.81H634v-.45h-.59v-.45l-.6.45v-.45h-.59v-.46l-.59-.45H631v-.45h-1.19v-.45h-.59v.45h-1.78l-.59-.45h-.6v-.46h-.59l-.59-.45v-.45h-1.19v-.46h-.6l-.59-.45v-.45h-.59l-.6-.45v-.46h-.59v-.45l-.59-.45h-.6V2802h-1.19v-.45h-.59l-.59-.45H615l-.59-.45h-.6l-.59-.46-.59-.45H612l-.59-.45-.59-.45v-.46h-.6v-.45h-.59l-.59-.45h-.6l-.59-.46v-.45h-.6v-.9h-.59v-.46h-.59v-.45h-.6v-.45l-.59-.45h-.59v-.91h-.6v-.45l-.59-.46v-.45h-.6v-1.81h-.59v-.45h-.59v-.91l-.6-.45v-.45l-.59-.46-.59-.45v-.45l-.6-.45v-.91h-.59l-.6-.45v-.46l-.59-.45v-1.81h-.59v-.9l-.6-.46v-.45h-.59v-.45h-.59v-1.81h-.6v-.46l-.59-.45v-.45l-.59-.45v-.46l-.6-.9-.59-.46v-.9l-.6-.45v-.91l-.59-.45v-.91H590v-.9l-.6-.46v-.45l-.59-.45v-.45l-.59-.46v-1.81l-.6-.45v-1.36l-.59-.45v-.91l-.6-.45v-1.36l-.59-.45V2758h-.59v-2.72l-.6-.45v-1.36h-.59v-2.72l-.59-.45.59-.45v-6.34l.59-.91v-.45l.6-.45v-.45l.59-.46v-.9h-.59v-1.36h.59l.59-.45.6-.46v-.45l.59-.45v-.45h.6l.59-.46v-.45h-.59V2735h-.6v-1.81H189.86v.45h-.59l.59.45-.59.45v.46h-.6v.9h-.59v.91l-.59.45v.45h-.6v.46h-.59v.45h-.6l-.59.45v.45l-.59.46v.45h-.6l-.59.45v1.36h-.59v.45h-.6v-.45h-2.37v.45h-.6v.46h-.59l-.59.45v.45l-.6.45v.46h-1.18l-.6.45h-1.19l-.59-.45h-.59v-.46l-.6.46h-1.18l-.6.45h-1.78l-.59.45H167.3v.46h-1.19l-.59.45v.45h-1.19v.91h-.59v.9h.59v.46l.6.45h.59v.45h.59v-.45h1.78v-.45h.6v.45l-.6.45v.45h.6v2.72h.59v.45l.6-.45h.59l.59.45h1.19v.46h1.19l.59-.46.59-.45h1.79l.59.45h.59v1.36h.6v.91h1.18v1.35h.6v1.36l.59.46v.9h.6v.45l.59.46v.9h.59v.91l.6.45v1.36l-.6.45v1.36l-.59.45v.46H181v.9h-.6v.45l-.59.46v.45l-.6.45,1.19,2.27,1.78,5,1.19,2.71,1.78,4.53,1.19,2.72,1.19,2.71v.46h-.6v1.81l.6.45v1.36l.59.45-.59.45v3.17h.59v.91l.59.45v.45h.6v3.17l.59.46v2.71l-.59.46v.45h-1.19v.45H186.3v.45h-.6v1.36h-2.37v.45l-.59.46-.6.45h-.59v.45H181v.46h-.6v.9l-.59.45v.46h-.6v.9h-.59v.45H178v.91h-.6l-.59.45h-.59v.46h-.6l-.59.45v.45h-1.19v.45h-1.19v.46h-1.78v.45h-7.72v.45h-1.78v.46h-1.78v.45h.6v.9h.59v.91h.59v.9l.6.46v4.07l-.6.45V2830h-.59v.9l-.59.45-.6.46-.59.45v2.26h.59v2.27h.6v.9h.59v.46l.59.45.6.45h1.18v.45l.6.46.59.45v.45h.6v1.36h.59l.59.45.6.46v.45l-.6.45v.91l-.59.45v.9l-.59.46-.6.45-.59.45h-3V2849h-.59v2.72H162l.59.45h2.38v.45h1.18l.6.46h.59v.45h.59v.9h.6v2.72h.59v.91l.6.45v.45h-.6v.45h-.59v.46h-.6v.45h-1.18v.45l-.6.46v1.81h.6v.9h-.6l.6.45.59.46h1.19v.45l-.6.45v.46h-1.18l-.6-.46h-2.37v-.45h-.6v-.45h-.59l-.59.45h-.6v-.45h-1.18v-.46h-3V2864h-1.78v-.45h-.6l-.59-.45h-.59v.9l.59.45.59.46v.45l.6.45v.46h-.6v.9h-.59v.91l-.59.45v.91l.59.45.59.45v1.36h.6v2.26h-.6v.46l-.59.45-.59.45h-.6v.45h-.59v.46h-1.19v.45h-1.19v.45h-.59l-.59.45h-.6v.46h-.59v.45l-.6.45v.46h-.59v.9l-.59.45-.6.46h-.59v.45h-.59l-.6.45v.91l-.59.45v1.81h-.6v.45h-.59v.46H140v.45h-1.78l-.59-.45h-4.16l-.59-.46h-3v.46h-.6l-.59.45h-.59v.45h-1.19v.46h-.6l-.59.45h-.59v.45h-.6v.45h-1.18v.46l-.6.45-.59.45V2893l.59.45h.6v.45h1.18v.46h.6l.59.45v.45h.59V2897h.6v2.27h-.6l.6.45v1.36l-.6.45v.45h.6v1.81l-.6.46v.45h-.59v.45h-.59v2.72h-.6v2.26H124v.91h-.59v.45l-.6.45-.59.46v1.36h-.59v.9l-.6.45v1.36l-.59.45v.46H121l-.59.45v.91h-.6V2921l-.59.45v1.36l-.59.45-.6.46h-.59v.45h-.59v.45h-.6v.45h-.59v.46h-.6v.45h-.59v.45h-1.78l-.59-.45-.6.45v1.36l.6.45v.91l-.6.45v.45l-.59.46v.45l-.6.45v.46l-.59.45v.9l-.59.46v.9l-.6.45v.46l-.59.45v.91l-.59.45v.45l-.6.45v.46l-.59.45-.59.45-.6.45v.46l.6.45v.91l.59.45v1.81h-.59v1.81h.59v.45l.59.46h.6v.45h1.18v.45h.6v.45h.59v.46h.59v.45h.6v.45h1.78v.46h1.19l.59.45h.59v.9h.6l.59.46v.45l.6.45v1.81l.59.46v.45H118v.45h.6v.45h.59v.46h.59v.45H121v.45h.6v.46l.59.45v.9h-.59v1.36h.59v.91h.59l.6.45v3.17l.59.45v.91h.59v6.79H124v.9h-.59v.46h-.6v.45h-.59l-.59.45v.46H121v.9h.6v.45l.59.46.59.45.6.45.59.45.59.46v.45h.6v.45h.59v.46h.59v1.35h.6v.46h.59v.45l.6.45v.91h.59v2.26l-.59.45v1.36h-.6v.91h-.59v.45h-.6l-.59.45-.59.46-.6.45H124v.45h-1.19v.45h-.59v.46h-.59v.45H121l-.59.45-.6.46h-.59v.45h-.59l-.6.45-.59.45v.46h-.59v.9h-.6v.45h-.59l-.6.46-.59.45h-.59v.45h-1.78l-.6-.45h-2.37l-.6.45-7.71,4.08h-.6v.45H99v.45h-.59v.46h-.59v.45h-.6l-.59.45-.59.45h-.6v.46l-.59.45v.45h.59v.91l.6.45v.91h.59v1.35l.59.46v.9h.6v1.81l.59.46v1.36H99v3.62l.6.45v1.36h.59v1.36l.6.45v2.72l.59.45v1.36l-.59.45v2.72l-.6.45v1.36l-.59.45v4.53l.59.45v1.36h.6v2.26h-.6v.91h-.59v.9H99v.46h-.59v.45h-.59v.45h-.6v.45h-.59v.46l-.59.45h-.6v.45h-.59v.46h-.6v.45h-.59l-.59.45h-.6v.45H91.9l-.59.46H90.12v.45h-.59v.45h-.6v.45h-.59v.46h-.6v1.36h-.59v.45l-.59.45-.6.45h-.59v.46h-.59v.45H83.59v.45H83v.45H82.4v.46l-.59.45-.6.45v.46h-.59v.45l-.59.45v.45h-.6v.46l-.59.45-.6.45v.45H77.06v.46H71.71V3060H70.53v-.45H68.15v-.45H67v-.45H65.78l-.6-.46H61.62v.46H61v.9h-.6v.45h-.59v.46l-.59.45h-.6v.45H57.47v.46h-.6l-.59.45h-.6v.45h-.59v.91h.59v2.71h-.59v.91h-3v.45l.6.45V3070l-.6.45v.45H50.34l-.59.45h-.6v.46h-.59v.9H48v4.08l-.6.45v.45h-.59v.46H45.59l-.59.45-.6.45h-.59v.45h-.59v.46l-.6.45-.59.45v.45h-.59v.46l-.6.45v.45h-.59v.46h-.6v.45l-.59.45v.45h.59v2.72h-.59v2.72l-.59.45.59.45v.91h.59v1.81H37.28v-.45h-.59l-.6-.46H34.31v-.45H33.12l-.59-.45H31.34l-.59-.45H29.56l-.59-.46H26.59v.46H25.41v.45h-.6v.45l-.59.45v.46h-.6v.45H23v.45l-.59.45v.46h-.6v.45h-.59v.45l-.59.46v.45l-.6.45-.59.45v.46h-.6v.45h-.59v.45H17.09v.45H15.31v.46h-.59l-.6.45v.45l-.59.46v1.35h-.59v1.81h-.6v1.82h-.59v1.35h-.59v1.36h-.6v.91H10v.45H9.38v.45h-.6l-.59.46v.45h-.6v.9H7v3.63h.59v4.52H7v.91l-.59.45v.45h-.6v.46H4.63v.45H4v.45H2.84v.46H2.25v.45H1.66v.9h-.6v2.27l.6.45h.59v.45l.59.46H5.22v.45H6.41v.45l.59.45v.91h.59v1.36l.6.45v.91h.59v1.35h.6v1.82h-.6v.9l-.59.45v.91h-.6v.45l-.59.46v.9H6.41v1.36H7v.9H8.78l.6.46.59-.46h.59v.46h2.38v.45h.59l.59.45.6.46.59.45v.45h.6v.45h.59v.46l.59.45v.45h.6v.45l-.6.46v.45H16.5v.45h-.59v.91h-.6v.9l-.59.46v.45h-.6v1.36h.6v.9l.59.46v.45H14.12v.45H12.34v.45l-.59.46v.9h-.59v.46h-.6l-.59.45H9.38v.45h-.6v.45l-.59.46v.45l-.6.45v1.36h.6v.45h.59v.46h.6l.59.45v.45h.59v.91l.6.45v.45l.59.46.59.45v.45h.6v.45h.59l.59.46v.9l.6.45v.46h.59v.45h.6v.45h.59v2.72h-.59l-.6.45H12.94v.45h-.6v.46h-.59v6.34h-.59v1.81h-3l-.6.45-.59.45v1.36H6.41l.59.45v3.17H6.41v1.81h-.6v3.17l-.59.46v1.35H4.63v.91l-.6.45H3.44v.46h-.6l-.59.45v.9H1.66v2.27l.59.45v2.26l-.59.46v.9h.59v.45l.59.46V3209l.6.45v.91h-.6v2.72l.6.45v2.72H4v.45h.6V3218l.59.45v4.07h.59v.46H8.19l.59.45-.59.45v1.36H9.38v.45l.59-.45v.45h.59v.46l-.59.45-.59.45v2.72l.59.45v1.36l-.59.45v1.36l-.6.45h.6v1.36l.59.45.59.46.6.45h3.56l.59.45.6.45v2.27h.59v.9h1.19v.46h3v-.46h1.78v.46H23v.45l.59.45v3.17h.6v.45l.59.46h1.78l.6.45v.45h.59v3.17l-.59.45v.91h-.6v.91H26v.45l-.59.45-.6.45v.46l.6.45.59.45h.59v.45h.6l.59.46h.59v.45H29v.45l.59.46v.45l.59.45v4.08l-.59.45-.59.45h-.6v.45l-.59.46.59.45v1.81H29v6.79h.59v.46l.59.45v.45h.6v.45h6.53v-.45h.59l.6-.45v-.45h.59v-.46h1.19l.59-.45h.6v-.45h4.15v.45h.59l.6-.45H48l.59-.46.59-.45V3271l.6-.45v-.46h.59v-.45l.59-.45h.6v-.46h.59l.6-.45h4.15l.6-.45h.59v-.45l.59-.46.6-.45.59-.45v-.45h.59v-.46H61v-.45h.59v-.45l.59-.46v-.45h.6v-.45h.59l.6-.45.59-.46.59-.45.6-.45v-.45h.59v-.91H67v-1.36l.6-.45.59-.45h1.19V3257h1.19v-.9l.59-.46h1.19v-.45h2.37v-.45h.6v-.45h.59v-.46h.59v-.45h.6l.59-.45h3l.59-.45h.6l.59-.46H83v-.9h1.19l.6.45v.45l.59.46v.9l.59.45.6.46v.45h.59l.59-.45h.6v.45h.59v.9l.6.46h.59v.45h.59v-.45h.6l.59-.46h1.78v.46h.59v.45h.6v1.81h2.37l.6.45.59-.45v-4.07l.59-.46v-.9h.6v-.45l.59.45h1.19v-1.36H102l.6-.45h1.18v-.46H105v-.45h.6v-.45h1.18v-.45h1.78v.45h.6v.45h.59l.59.45v.46h.6v.45h2.37v.45h1.19v.46h.59v.9h.6l.59.45v-.45h.6l.59-.45H118v-.45h.6V3252h.59v-.45h.59l.6.45H121l.6.46v1.81l.59.45v.45h.59v.45h3l.59.46h.6v1.36l-.6.45v.45h-.59v.45l-.59.46-.6.45H124v.91l-.59.45v.45l-.6.45v1.36h-.59v1.81h-.59v1.36h1.78v.91l.59.45v.9l.59.46.6.45v.45l.59.46v.9l.59.45v.46l.6.45v.45h.59v.46h.6v.45h.59v.45l.59.45v.91h.6v1.36l-.6.45v.91h-.59v1.35l.59.46v.45h.6v2.26l.59.46v.9h.59v.45l-.59.46v.9h-.59v1.36l-.6,7.7-.59.9v3.17h-3v.45h-.59l-.6-.45H124l-.59-.45h-1.78l-.6.45h-.59l-.6-.45-.59-.45h-1.78v8.15h-.59v.9h-.6v5.43l.6.46v.9h.59v.46H118v.45h.6v.45h.59v.45h.59l.6.46v.45H121v1.36h.6v1.36h.59v.45l.59.45.6.45h1.18l.6.46.59-.46v-.45l.59-.45h.6v.45h-.6v.91l.6.45v.45h.59v.46l.6.45.59.45v.45h.59v.46h.6V3329l-.6.45v.46h-.59v.45h-.59v.45h-.6v.46h-.59v.45h-1.19l-.59.45h-1.78v.45l-.6.46v.9h-.59l-.59.45-.6.46h-.59v.45h-.6v.91l-.59.45.59.45.6.45H121l.6.46h.59v.45h3V3343h.59v.9h-.59l-.6.45v.46H124v.45l-.59.45v.46h-.6v3.17H124v.45h1.19l.59.45v.45h.59v.46h-.59v.45h-.59v.45h-.6v.45H124v.91l-.59.45h-1.19l-.59.46H121v.45l-.59.45H121v.91l.6.45v.9h.59v.46h-.59v.45H120.4l-.6-.45h-3.56l-.59.45h-.6v.45h-.59v.91h-.59v1.81h-.6v2.72h.6v3.62h1.18v-.45l.6-.46h1.78v.46l.59-.46v-.45h.6l.59-.45h1.19l.59-.46h1.78v.46h.6l.59.45v.45l.59.46v1.81H124v.9h.59V3372l.6.46v3.16l.59.46v2.26l.59.45v.46l.6.45v.45h.59v.45h.6v.46h1.78l.59.45h1.78V3381h1.78l.6-.46h.59v.46h.59l.6.45.59.45v2.72h.6v.45h1.78l.59.46h.59v.45h1.19l.59.45h1.19l.6.45h.59l.59.46v.45h.6l.59.45.59.45.6.46.59.45.6.45.59.46.59.45.6.45v.45l.59.46.59.45v.45h.6l.59.45.6.46.59.45.59.45.6.46.59.45.59.45v.45h.6v.46h.59v.45l.59.45.6.46v.45h.59v.9l.6.46v.45h.59v4.53h-.59v.45l-.6.45H159v.45h-.6v.46h-1.18v.45h-.6v1.36h.6v.45h.59v.91h.59v.45l.6.45.59.46v.45l.6.45v.45h.59v.46h.59l.6.45.59,1.81h11.28l9.5.45h70.06l11.87-.45h86.09l7.12,2.72,10.69,4.07,10.09,3.62,10.69,3.63,10.09,3.62,1.19.45h10.09l11.28.45h7.72l3.56.91,7.72,2.72,3,.9,5.94,1.81,4.15,2.27,8.91,5.43,1.19.9,9.49.91,3,.45,8.31,1.81,4.16.46,1.19,2.71,3.56.46,11.87.45V3463l-1.18,1.35v.46h.59v-.46h.59v-.45h.6v-.45l.59-.45.6-.46v-.45l.59-.45v-1.36h.59v-.91h.6v-.45h.59v-.9h.59v-.46h.6v-.45l.59-.45v-1.81l-.59-.46v-.45h-.6v-.45h-.59V3453l-.59-.46v-.45h-.6v-.45h-.59v-1.36h-.59v-.91h-.6v-.45h-.59v-.45l-.6-.45v-.46l-.59-.45v-.45l-.59-.46v-.9h-.6v-.45h-.59v-.46l-.59-.45h-.6v-.9l-.59-.46h-.6v-.45l-.59-.45v-.46l-.59-.45v-.45l-.6-.45v-.46l-.59-.45v-.45l-.59-.45v-.46H498v-.45l-.59-.45v-.46h-.59v-.45h-.6v-.9h-.59v-.46l-.6-.45-.59-.45-.59-.46v-.45l-.6-.45v-.45h-.59v-.46l-.59-.45v-.45h-.6v-.45l-.59-.46V3429h-.6v-.91h-.59v-.45l-.59-.45v-.91l-.6-.45v-.45l-.59-.45v-.46h-.59V3424h-.6v-.45l-.59-.46v-.45l-.6-.45-.59-.45v-.46h-.59v-.9h-.6V3420h-.59v-.45l-.59-.45v-.45l-.6-.46-.59-.45v-.45h-.59v-1.36l-.6-.45H479V3415l-.59-.45v-.9h-.59v-.46l-.6-.45v-.45h-.59v-.45l-.59-.46v-.45h-.6V3410l-.59-.45h.59l-.59-.45v-.45h-.6v-.46h-.59v-.9l-.59-.46v-.9l-.6-.45V3405h-.59v-2.26h-.59v-.45l-.6-.46v-.9l-.59-.45V3400l-.6-.45-.59-.45v-.91l-.59-.45v-.91l-.6-.45V3396l-.59-.45v-.91h-.59v-.91l-.6-.45v-.45l-.59-.45V3391h-.59v-.91h-.6v-.45l-.59-.45-.6-.46v-1.35l-.59-.46v-.45h-.59v-.9h-.6v-.91h-.59v-1.36H460v-.45l-.6-.45v-.46h-.59v-.9l-.6-.46v-.45l-.59-.45v-.45H457v-.91h-.6v-.45h-.59v-2.27h-.59v-1.35l-.6-.46v-.45l-.59-.45V3372l-.59-.45v-.45h-.6v-.46l-.59-.45h-.6v-.45h-.59l-.59-.45h-1.19v-.46h-1.19v.46h-.59v.45h-.6v1.36h-.59v.45h-.59l-.6.45h-.59v.46H444l-.6.45h-1.19l-.59.45-.59.45h-.6v.46h-.59l-.59.45h-.6v.45H438l-.59.45-.6.46h-.59v.45l-.6.45h-.59l-.59.46h-.6l-.59.45h-3v.45h-1.78v-.45h-.59v-.45h.59l.59-.46h1.19v-.45h.59l.6-.45h.59v-.46h.6l.59-.45h.59v-.9h.6v-1.36l-.6-.45h-.59l-.59-.46h-.6v-.45h-.59l-.6-.45h-.59v-.46l-.59-.45h-1.19l-.59-.45h-.6v-.45h-.59v-.46h-1.19l-.59-.45h-1.78v-.45h-1.78l-.6-.45h-3V3367h-.59l-.59-.45h-.6l-.59-.45-.6.45h-.59l-.59-.45H412.5v.45h-.59l-.6.45h-.59l-.6.46h-3v.45h-.6l-.59.45v.45h-3v-.45h-3l-.59.45h-2.38v.46h-1.18v.45h-1.19l-.6-.45h1.19v-.46h.6l.59-.45h.59l.6-.45h.59v-.45h.59l.6-.46H400l.6-.45h1.18v-.45H403l.59-.46h1.79v-.45h1.18v-.45h1.19v-.45h.59l.6-.46h.59l.59-.45h.6v-.45h3v-.46h3.56l.59.46h.6l.59.45h1.78l.6.45H422l.59.46h.6l.59.45.59.45h.6v.45h.59l.59.46h2.38l.59.45h.6l.59.45h.59v.46h1.19l.6.45h1.78v.45h.59l.59.45h.6v-.9h2.37l.6-.45h.59V3367h.59v-.9h.6v-.46l.59-.45.59-.45.6-.45h.59v-.46h.6v-.45h2.37v-.45h2.38l.59.45h.59v.45h1.19l.59.46.6.45h1.19v-1.36l.59-.45v-2.27l-.59-.45v-.45l-.6-.45v-.91h-.59V3357l-.6-.45v-1.36l-.59-.45v-1.36l-.59-.45v-.46l-.6-.45-.59-.45h-.59v-2.72l-.6-.45V3348h-.59v-.46l-.6-.45v-1.36h-.59v-3.62l-.59-.45v-2.27h-.6V3338h-.59v-3.63H444V3333h-.6v-2.72h-.59v-.91l-.6-.45v-1.81h-.59v-.91l-.59-.45v-.9l-.6-.46v-.9l-.59-.45v-.91l-.59-.45v-.46l-.6-.45V3319H438v-.45l-.59-.45v-.46l-.6-.45v-2.72h-.59v-1.81h-.6v-.9l-.59-.46v-1.81l-.59-.45v-8.6l-.6-.46v-4.52h-.59V3295h-.59v-.45H431.5v-.45h-1.78v.9h-.6v.46h-.59l-.59.45-.6.45h-.59v.46h-.6l-.59.45H425v.45h-.6l-.59.45H422l-.59.46h-1.79v.45l-.59.45h-.59l-.6.45v.46l-.59.45h-.59v.45l-.6.46h-.59v.45h-.6v.9h-.59l-.59.46h-.6v.45h-.59l-.59.45-.6.46v.45l-.59.45v.91h-1.19l-.59.45h-.6v-.45h.6l.59-.46v-.9l.59-.45v-.91h.6v-.45l.59-.46h.6v-.45h.59v-.45h.59v-.45l.6-.46.59-.45h.59v-.45h.6v-.91h.59v-1.36l.6-.45h.59v-.9h.59v-.46l.6-.45h1.18v-.45l.6-.46h.59v-.45h.6l.59-.45v-.45h1.19v-.91h2.37v-.45h1.78v1.81h.6v-2.26l.59-.46v-.45l.59-.45V3290h.6v-.45h.59v-.45l.59-.45v-.46h.6l.59-.45h.6v-.45h.59v-.46l.59-.45.6-.45v-.45h.59v.45h-.59l.59.45h-.59v.91h.59v-.46h.59v-.45l.6-.45V3285h.59v-5.88l-.59-.45V3276l-.6-.45v-4.08h-.59v-1.36h-.59v-1.81l.59-.45v-.91h-.59v-2.26l.59-.45v-.91h.59v-2.71h.6v-1.82h.59v-.45h.6v-.45H438l.59-.45.6-.46.59-.45v-.45l.59-.46v-2.71l.6-.45v-1.82h.59V3247h.59v-2.71l.6-.46h.59v-.9h.6v-1.36h.59v-.45l.59-.46v-.45h.6v-.45l.59-.45v-1.82l.59-.45v-.45h.6v-.45l.59-.46v-.9h.6v-.91h.59v-2.71h.59v-.46h.6v-.9l.59-.45v-.46h.59v-.45l.6-.45v-.46l.59-.45.6-.45v-.45l.59-.46h-.59l.59-.45h.59v-.45h.6v-.91h.59v-.45h.59V3223l.6-.46v-.45l.59-.45h.59v-.45l.6-.46h.59l.6-.45h.59v-.45h1.19v-.46l.59-.45h-.59l-.6-.45h-.59V3218h1.19v-.46H463v-.45h1.19l.6-.45h1.18v-.45h.6v-.46h.59v-.45h.59v-.45h.6l.59-.46h.59V3214h1.19v-.45h.6v-.45h1.18v-.46h1.19v-.45h1.19v-.45H476v-.45h.59l.59-.46h.6v-.45h.59v-.45H479l.6-.46h.59l.6-.45h3l.6-.45h1.18v-.45h1.19l.6-.46h1.18v-.45h1.19v-.45h.59v-.46h.6v-.45h.59l.6-.45h1.18v-.45h.6l.59-.46H498V3204h.6l.59-.45h1.19v-.45H501v-.46l.59-.45h.6v.45l.59-.45h.6v-.45h2.37v-.46h1.78v-.45l.6-.45h.59l.59-.45.6-.46h.59V3199h.59l.6-.45v-.45h.59v-.46h.6v-2.26h-.6V3195h-1.19v-.46h-1.18l-.6-.45h-.59l-.59-.45-.6-.46v-.45h-.59l-.6-.45h-2.37v-.45h-.59l-.6-.46h-.59v-.45h-.6l-.59-.45V3190h-.59v-.91h-.6v-.45l-.59-.46v-.45h-.59v-1.36H498v-.45l-.59-.45v-2.72l.59-.45v-.91l-.59-.45-.59-.45-.6-.46h-.59l-.6-.45v-1.36l-.59-.45-.59-.9-.6-.91h-3l-1.18.45-1.19.46-.59.45-1.19.45h-5.34l-1.19-.45h-2.38l-.59-.45h-3.56l-1.19.45h-3l-.59-.45-1.19-.46,1.19-.45h4.15l1.19-.45h7.72l1.19-.46h3l1.19-.45.6-.9h1.18l1.19-.46h3.56v-.9l-.59-.91-.59-.9v-.91l-.6-.45-.59-.91v-.9l-.6-.45-.59-.91-.59-.91.59-.9v-.45l-.59-.91h.59v.45h1.19v.46h.59v.45h.6l.59.9.59.46.6.9.59.46.59.9,1.19.45.6.46.59.9.59.45v1.82l.6.9.59.45.59.91.6.9v.46l.59.9,1.19.46.59.9v.45l.6.91v1.81h.59v.45l.59.46v.45l.6.45h.59v1.36h.59v.91h.6v.9h.59v.45l.6.46v.45h.59v.45h.59v.45h.6v.46h.59l.59.45h.6v.45l.59.46v1.81l.6.45.59.45h1.19v.45h.59l.59-.45h10.69l.59-.45h3v-.45h1.78l.6-.46h1.18v-.45h.6v-.45H536V3190h.59l.6-.46v-.45H539v-.45h.59l.6-.46h.59v-.45h.59l.6-.45h1.78v-.45l.59-.46.6-.45h1.18v-.45h.6V3185l.59-.46h.59v-.45h.6v-.45h1.18v-.46l.6-.45v-.45h.59l.6-.45.59-.46.59-.45h.6l.59-.45.59-.46h.6v-.45h1.19v-.45l.59-.45h.59v-.46h1.19v-.45h.59v-.45h.6v-.45l.59-.46v-.45h.6v-.45h.59V3175h.59v-.9l.6-.45v-.46h.59v-.45l.59-.45v-.45l.6-.46h.59v-.9l.59-.46v-.45h.6l.59-.45v-.91l.6-.45v-.45h.59v-.91h.59v-1.81h.6v-1.81l.59-.45v-.46l.59-.45.6-.45v-.45h.59v-.91l.6-.45v-1.36h.59v-1.36h.59v-.9l.6-.46v-.9h.59v-.91l.59-.45V3151h.6v-4.53l.59-.45v-2.72l-.59-.45v-4.53h.59v-1.81h.6v-4.07l.59-.46H577v-2.26h.59v-1.81l.59-.45v-4.08l.6-.45v-1.81l.59-.46V3118h.59v-2.27Z"/>

</g></g></g></svg>
