<svg xmlns="http://www.w3.org/2000/svg" viewBox="0 0 1948.2 3756.13">
<defs>
    <style>.cls-1,.cls-2,.cls-3,.cls-4{fill:#ccc;stroke:#646464;stroke-width:2.13px;}.cls-1,.cls-2,.cls-3{stroke-linecap:square;}.cls-1,.cls-2{stroke-linejoin:bevel;}.cls-1,.cls-3,.cls-4{fill-rule:evenodd;}.cls-3,.cls-4{stroke-linejoin:round;}
    </style>    
</defs>
<title>Recurso 2arg</title>
<g id="Capa_2" data-name="Capa 2"><g id="svg2"><g id="layer1">
<path id="path4142" class="cls-1" d="M1155.15,745.06l.9-6.37.3-2.12.85-5.88h0l1.16-8,1.15-8,1.17-8.3.42-3.09,0-5.19,0-8.1,0-7.08v-1l0-8.09,0-5.26V665.7l0-8.09,0-8.1,0-5.24v-19l0-8.1,0-8.09V583.1l0-6.44v-2.33l0-5.77v-.28l0-3.43,0-4.39,0-8.09v-1l0-7.08,0-8.09,0-6.12v-2l0-8.1,0-3.14V487.6l0-8,0-2.32,0-1.93,0-6.16-.06-8.1,0-5,0-3.09-.06-8.09v0l0-3.84h-4l-7.74,0h-15.46l-7.73,0-7.73,0h-54.13l-5.25,0H1031.4l-5.32-.05-7.73-.08h-1.11l-6.62-.05-7.73-.07-7.79-.08L994,442.2l-3.5,4.89-.34,0-.34,0-.35,0-.33,0h-1.71l-.34,0-.34,0-.34,0-.34,0h-1.71l-.34,0h-.34l-.34,0h-3.08l-.34,0-.34,0-.34,0-.34-.05-.33-.06-.33-.1-.32-.11-.32-.12-.33-.13-.32-.12-.32-.12-.33-.11-.32-.11-.33-.12-.32-.11-.09,0-.23-.08-.33-.1-.33-.11-.32-.09-.33-.09-.26-.07-.08,0-.33-.07-.34-.07-.33-.06-.34,0-.34,0h-.34l-.35,0-.34,0-.33.05-.34.07-.33.08-.33.09-.33.09-.34.09-.33.07-.34.06-.31.05-.36.05-.34.05-.34,0-.34,0-.34,0-.14,0-.2,0-.34,0-.34,0-.34,0h-1l-.35,0h-1l-.34,0-.34,0-.34.05-.34,0-.33.06-.34,0-.21,0-.13,0-.34.05-.34.05-.33,0-.34,0-.34,0h0l-.32,0h-5.12l-.34,0H952l-.33,0-.35,0h-.34l-.34,0-.24,0h-.1l-.34,0-.34,0-.34,0-.34,0-.34,0-.34,0-.34,0-.34,0-.34,0-.34,0-.34,0h-2l-.37,0-.51,0-.52,0-.34,0-.33,0-.34-.05-.34-.06-.33-.06-.34-.06-.34-.05-.34-.05-.33-.05-.34,0-.34-.05-.34-.06-.12,0-.22,0-.33-.06-.35-.11-.35-.13-.35-.13-.16,0-.22,0h-.23l-.19.22-.11.39-.08.39-.05.35,0,.36,0,.35-.1.34-.2.57-.51,2.36-.17,2.11-.17,0-2.73-.28-3.85-.4-1.12-.11-2.73-.24-5-.46h-.13l-.69-1.94-.14,0-.48-.1-3.69-.7-.92-.14-1.94-.3-.41,1.07-1.74,4.54-1.14,3-1.74,4.54-1.14,3-.62,1.63-1.13,2.9-1.15,3-1.76,4.54-1.16,3-2.09,4.38-.09.19-.14.28-.93,2-.89,1.74,2.18,3.2.19.27-.8,1.67-2.51,5.28-.72,1.52-.21.45-2,5.39-.05.12.28,1.13.46,1.59.19,1,.11.6.21,1.86.2,1.28-.14.53,0,.66.2,1-.91,1.18-.37.39-.59.61-1.11,1.13L890,519l-1,.74-.09.73-.09.69-.06.49,0,2.07,0,.14-.37,1.4-.24,1.67.1,2.1v.14l.09,1.75.21.82.23.86.54,1.81.15,2.44v.26l.16,2.6,0,.36.16,1.53.12,1.1-.79.15.55,1.53.34.92-.38.41.41,1,.25.61-.68,2.27.45,2.4.49,2.56.34,1.82-3.4-.81-2.46-.58-3.06-.72-.14,0-.37,2-.47,2.56-1,5.39-.47,2.57-.44,2.42-2.88-.47-1.24-.2-1.15-.18,0,.1-1,4.9-1.78-.53-1.12,0-.78,0-.16.39-.53,3.63-.14,1v.1l-1,5.67-.29,1.23-.23.95-.57,2.39-.41,4.29,0,.34-1,3.46-.95,3.44-.21.78L862,607.44l-.17.73v.06l0,.21-.55-.23-.57.5-.45,1.46-.8,2.6-.41,1.36-.24.78-.71,2.3-.61-.1-1.21,4-.23.78-.82,2.76-.6,2-2.09.77-.74.28L848.29,629l-.63,1.8-1.48-.5-.31-.11-2.83-.7-.37,1.42-.7,2.64-.05.21-.06.33-1,4.7-1,3.13-.88,2.85-.37,1.21-.14.46.42.39.53.48.74,1,.93.23.4-.2.75-.37,1.12.85.2.14,1.36,1.11.06.3.39,1.84.28,1.58-.57,1-.5,1h0l-.73.38-.68-.33-.52-.5-.29-.27-.51-.18-.55-.18-.24.09-.44.17.24.35.3.7-.34.43-.64-.19-.66-.11-.18.26-1,1.48.21.48,2.22,5.28.91,2.15,2.23,5.27.31.74.6,1.41,1,2.3.61,1.45-1.57.39-2.22.54-1.52.37-1.19,4-.67,2.24-1.54,5.13-.32.18-2,1.15-1.36.78-.6,0-3.18-1.35,0,0-.09-1.14-1.08-.11h0l-1.51-.14-.4,1.72-.84,2.26,0,.05-1.12,1.15-.62.19-.19.13.39,2.28,0,.08.76,2.82.5,1.4.24,1.15.21,1.33,1.49,7.2,0,.21.11.51,1.72,7.9.76,3.46.6,2.66.08,1.81.16,3.78.18,4.31.13,3.06.2,3.25.12,1.77.42,6.63.08,1.33v.12l.32,5.1-.29,1.81-.14.85,0,.28-1.3,8-.77,4.73-4-.1-1.16-.88-.14,0h-.08l0,5.89,2.5,1,.91.41.16.07.87,4.36.27,1.37,2.14.75,4.08,1.41L840,788l.19.22.19.23.18.23.19.23.19.23.2.22.19.22.22.22.21.2.21.21.2.22.17.24.13.26.11.28.09.29.08.29.1.28.09.28.1.29.1.28.11.28.13.26.16.25.16.25.18.23.18.24.18.24.18.24.16.25.17.24.16.25.16.25.16.25.17.25.16.24.16.26.16.25.15.26.16.25.17.25.18.23.08.08.12.13.22.19.24.18.24.17.25.17.25.17.23.17.24.18.23.18.23.19.23.18.23.19.22.2.21.21.22.21.2.22.19.23.16.24.14.26.12.27.12.27.1.28.1.29.09.29.09.28.08.29.08.29.07.29.06.29.06.29.05.3,0,.29,0,.3,0,.3,0,.29v.3l0,.3v.3l0,.3,0,.29,0,.3,0,.3,0,.3,0,.29,0,.3,0,.29.05.3.06.29.06.29.08.29.1.28.1.28.11.28.12.27.12.28.12.27.12.27.13.27.13.27.14.26.14.26.15.26.14.26.15.26.15.25.16.26.16.25.16.25.16.24.17.25.17.24.18.24.18.24.17.24.18.24.18.24.18.23.18.24.17.24.19.23.18.24.18.24.17.23.17.24.18.25.18.24.17.24.18.24.16.25.15.26.12.27.09.27.06.3,0,.3v1.2l0,.3v.59l.05.3.06.29.07.29.08.29,0,.29,0,.3,0,.3v.59l0,.3,0,.3,0,.3,0,.3,0,.3,0,.3,0,.29v.6l0,.29-.05.29,0,.14,0,.15-.08.29-.09.29-.1.28-.1.29-.1.28-.1.28-.11.27-.12.28-.13.27-.13.26-.14.27-.16.25-.17.24-.19.24-.17.24-.15.25-.13.27-.13.27-.12.28-.11.28-.08.29-.05.29v.29l0,.3,0,.3,0,.3v.15l0,.15v.3l0,.3,0,.29,0,.3-.07.29-.07.29-.08.29-.08.29-.08.28-.1.29-.1.28-.11.27-.13.27-.14.26-.15.25-.17.25-.16.26-.15.25-.15.26-.14.27-.13.26-.14.27-.13.26-.13.27-.12.27-.13.27-.08.16-.06.11-.13.27-.13.26-.13.28-.11.27-.09.28-.08.29-.06.29,0,.31v.3l0,.29.09.29.15.26.19.24.22.21.25.15.27.08.3,0h.3l.3,0,.29.06.28.1.27.12.26.14.28.13.27.14.23.18.08.14.06.11.07.32v.31l-.12.23-.26.18-.28.13-.28.09-.29.06-.3.06-.28.08-.26.13-.26.14-.27.14-.27.12-.28.12-.27.13-.24.15-.21.21-.17.25-.13.28-.08.28,0,.3v.6l0,.3.06.29.09.29,0,.12.06.16.12.28.13.26.16.25.2.22.21.22.2.22.2.22.2.22.2.22.2.22.19.24.17.24.15.24.15.27.13.26.13.27.13.27.13.27.12.27.13.27.13.27.13.27.13.26.13.27.14.27.15.26.08.12.08.12.17.25.18.24.16.25.14.26.12.27.1.29.08.29,0,.29,0,.3v.29l0,.3,0,.3,0,.3v.9l0,.3,0,.3,0,.29,0,.3,0,.29,0,.3,0,.3,0,.29,0,.3,0,.3v.3l0,.3,0,.29.06.31,0,.29,0,.29-.06.28-.14.27-.17.25-.13.27-.09.29-.08.3-.06.3v.29l.06.28.11.27.15.27.14.27.12.28.08.28.07.3,0,.29,0,.3,0,.29,0,.3v.3l.08,1.47,6.21-.63,2.61-.27,5.32-.85,2.39-.38,5.53-.76,2-.27,2.2-.26,3.75-.43,1.7-.2,2.7-.53,5.19-1,1.86-.26,6.08-.77.58-.07,5.77.82,1.59.22,1.58.23,6.34.92,1.79.26,6.14.85,6.61.91,1.33.16.56.08,2.72.34.87,2.43.57,1.16v4.39l4.53,0H950l2.57-5.2.08-.17,1.4-.37,4.24.4,1.91.93.53.25.21,2-2.29.67,1.79,2.51,1.18,1.64.81.42,1.09.56,3,1.52.55-.11,7.88-1.49,1-.19,6,1.14.85.12.36,0,2.51.33,1.66.71,3.28-.49.49-.07-1.38,6.66.79,0,2.22.08.16,2.86-.12,3,8,.06h3l5,.4,1.64.13,6.36.5,8,.64,8,.62,8,.63,1.59.12,6.41.53,3.8.31,4.26.36.82.07-.24.18-.22.2-.27.1-.29,0-.26.15-.27.13-.25.16-.21.2-.21.21-.18.24-.14.27-.06.29,0,.3v.59l.11.28.11.27,0,.3.15.25.16.25.15.26.08.28,0,.31v.29l0,.3v.3l.08.29.11.27.13.27.17.25.24.17.28.1.29.09.26.13.12.26,0,.31,0,.28.21.21.21.22.2.22.19.23.17.25.16.25.17.24.14.26.09.28.14.27.08.28,0,.3V920l0,.3,0,.3,0,.3.08.28.13.28.22.18.29,0,.28.12.24.17.27.13.28.1.29.06.28.09.27.11.26.14.2.22.23.17.29.07.28.09.13.26.13.28.12.27.13.26.13.27.13.27.16.26.22.19.27.13.28.06.13,0,.17.05.22.16v.3l0,.3.16.24.23.21.26.12.1.29.1.28.24.17.12.24.06.52.21.44.13.27.12.26.14.26.14.25.15.25.16.25.17.24.16.25.17.25.18.23.2.2.27.09.3,0,.22.17.17.24.08.15.12.19.12.14.24.16.25.17.2.22.21.19.29.07.31,0,.23.11,0,.3.06.29.25.1.31,0,.29.08.25.16.23.18.22.18.26.15.28,0,.27-.13.27-.1.27.1.27.11.29.06.28-.08.28.06.28,0,.27-.12h.29l.29.06.22.19h.28l.3,0h.08l.23,0,.16.19.06.3.09.27.11.28.21.21.06.23-.09.29.14.23.22.22.24.19v.27l0,.3,0,.3-.08.29.09.23.16.24.06.29.21.21,0,.24-.13.28-.14.26-.28.07-.16.24,0,.09-.06.18-.11.27-.14.26-.13.26-.14.26-.11.27-.09.28,0,.29v.29l-.1.27-.14.26-.12.28-.13.25-.25.16-.27.11-.46.1.18.22.23.26.14.26.07.28-.14.25h-.32l-.12.21,0,.3-.07.3-.18.23-.14.25v.3l.12.28-.2.2-.12.17.27.19.21.21.24.19.26.17.2-.1.15-.3.15.17.15.29.09.27-.14.25-.21.23.12.21.21.22-.16.25-.22.21,0,.28.06.3-.18.18-.3.1-.24.17-.12.26.19.23.14.24-.07.29-.06.29.08.3,0,.24-.3.12-.16.18.12.28.23.18.21.21.15.27.06.27-.14.27-.25.19-.24.16.12.21.25.22.14.25v.29l0,.31v.29l0,.29.05.29,0,.29,0,.29,0,.3.09.27.23.19.39.13h.19l.29,0,.11.22v.32l0,.3.07.28.13.26.19.23.22.19.27.11.25.16.23.18.23.18.23.18.24.17.21.2.16.24.15.26.15.25.15.26.2.19.29.1.28.1.2.19.15.26.14.26.12.27.12.27,2.16-.05,2.33-.06h18.09l3.79,0,5.93.06,1.15.49.23.87,1.2,4.6,1,3.19.71,2.39,1.87,5.62.89-5.92,1-6.34.22-1.66,1.11-8,1-7.13.12-.88,1.06-8,.33-2.53.22-1.68,0-.18.51-3.62.69-5,.42-3,.77-5.06,1.08-8,.13-1,1-7.06,1.07-8,.31-2.3.62-4.3.17-1.12,0-.29,1.15-8,1.16-8,1.15-8,.06-.4.75-5.22.34-2.4,1.15-8,1.15-8,.11-.8,1.08-7.2,1.19-8,1.19-8,1.18-8,1.09-7.29.1-.72.17-1.12.52-3.54.48-3.34.31-2.2.83-5.81,1.14-8,1.13-8,1.14-8,1.13-8,1-7,.15-1Z"/>

</g></g></g></svg>
